%TF.GenerationSoftware,KiCad,Pcbnew,9.0.6-9.0.6~ubuntu24.04.1*%
%TF.CreationDate,2025-12-29T16:18:33+03:00*%
%TF.ProjectId,rc_ble,72635f62-6c65-42e6-9b69-6361645f7063,rev?*%
%TF.SameCoordinates,Original*%
%TF.FileFunction,Soldermask,Top*%
%TF.FilePolarity,Negative*%
%FSLAX46Y46*%
G04 Gerber Fmt 4.6, Leading zero omitted, Abs format (unit mm)*
G04 Created by KiCad (PCBNEW 9.0.6-9.0.6~ubuntu24.04.1) date 2025-12-29 16:18:33*
%MOMM*%
%LPD*%
G01*
G04 APERTURE LIST*
G04 Aperture macros list*
%AMRoundRect*
0 Rectangle with rounded corners*
0 $1 Rounding radius*
0 $2 $3 $4 $5 $6 $7 $8 $9 X,Y pos of 4 corners*
0 Add a 4 corners polygon primitive as box body*
4,1,4,$2,$3,$4,$5,$6,$7,$8,$9,$2,$3,0*
0 Add four circle primitives for the rounded corners*
1,1,$1+$1,$2,$3*
1,1,$1+$1,$4,$5*
1,1,$1+$1,$6,$7*
1,1,$1+$1,$8,$9*
0 Add four rect primitives between the rounded corners*
20,1,$1+$1,$2,$3,$4,$5,0*
20,1,$1+$1,$4,$5,$6,$7,0*
20,1,$1+$1,$6,$7,$8,$9,0*
20,1,$1+$1,$8,$9,$2,$3,0*%
%AMFreePoly0*
4,1,23,0.550000,-0.750000,0.000000,-0.750000,0.000000,-0.745722,-0.065263,-0.745722,-0.191342,-0.711940,-0.304381,-0.646677,-0.396677,-0.554381,-0.461940,-0.441342,-0.495722,-0.315263,-0.495722,-0.250000,-0.500000,-0.250000,-0.500000,0.250000,-0.495722,0.250000,-0.495722,0.315263,-0.461940,0.441342,-0.396677,0.554381,-0.304381,0.646677,-0.191342,0.711940,-0.065263,0.745722,0.000000,0.745722,
0.000000,0.750000,0.550000,0.750000,0.550000,-0.750000,0.550000,-0.750000,$1*%
%AMFreePoly1*
4,1,23,0.000000,0.745722,0.065263,0.745722,0.191342,0.711940,0.304381,0.646677,0.396677,0.554381,0.461940,0.441342,0.495722,0.315263,0.495722,0.250000,0.500000,0.250000,0.500000,-0.250000,0.495722,-0.250000,0.495722,-0.315263,0.461940,-0.441342,0.396677,-0.554381,0.304381,-0.646677,0.191342,-0.711940,0.065263,-0.745722,0.000000,-0.745722,0.000000,-0.750000,-0.550000,-0.750000,
-0.550000,0.750000,0.000000,0.750000,0.000000,0.745722,0.000000,0.745722,$1*%
G04 Aperture macros list end*
%ADD10FreePoly0,0.000000*%
%ADD11R,1.000000X1.500000*%
%ADD12FreePoly1,0.000000*%
%ADD13RoundRect,0.225000X-0.225000X-0.250000X0.225000X-0.250000X0.225000X0.250000X-0.225000X0.250000X0*%
%ADD14RoundRect,0.200000X-0.275000X0.200000X-0.275000X-0.200000X0.275000X-0.200000X0.275000X0.200000X0*%
%ADD15R,2.400000X0.740000*%
%ADD16RoundRect,0.250000X-0.475000X0.250000X-0.475000X-0.250000X0.475000X-0.250000X0.475000X0.250000X0*%
%ADD17RoundRect,0.225000X-0.250000X0.225000X-0.250000X-0.225000X0.250000X-0.225000X0.250000X0.225000X0*%
%ADD18R,1.700000X1.700000*%
%ADD19RoundRect,0.218750X0.381250X-0.218750X0.381250X0.218750X-0.381250X0.218750X-0.381250X-0.218750X0*%
%ADD20RoundRect,0.200000X-0.200000X-0.275000X0.200000X-0.275000X0.200000X0.275000X-0.200000X0.275000X0*%
%ADD21RoundRect,0.150000X-0.150000X0.587500X-0.150000X-0.587500X0.150000X-0.587500X0.150000X0.587500X0*%
%ADD22R,1.000000X1.000000*%
%ADD23RoundRect,0.350000X1.750000X0.350000X-1.750000X0.350000X-1.750000X-0.350000X1.750000X-0.350000X0*%
%ADD24RoundRect,0.200000X0.200000X0.275000X-0.200000X0.275000X-0.200000X-0.275000X0.200000X-0.275000X0*%
%ADD25RoundRect,0.250000X-0.250000X-0.475000X0.250000X-0.475000X0.250000X0.475000X-0.250000X0.475000X0*%
%ADD26RoundRect,0.087500X-0.087500X0.537500X-0.087500X-0.537500X0.087500X-0.537500X0.087500X0.537500X0*%
%ADD27RoundRect,0.250000X0.475000X-0.250000X0.475000X0.250000X-0.475000X0.250000X-0.475000X-0.250000X0*%
%ADD28RoundRect,0.225000X0.250000X-0.225000X0.250000X0.225000X-0.250000X0.225000X-0.250000X-0.225000X0*%
%ADD29RoundRect,0.250000X-0.250000X-0.250000X0.250000X-0.250000X0.250000X0.250000X-0.250000X0.250000X0*%
%ADD30C,0.700000*%
%ADD31C,4.400000*%
%ADD32RoundRect,0.150000X-0.512500X-0.150000X0.512500X-0.150000X0.512500X0.150000X-0.512500X0.150000X0*%
%ADD33RoundRect,0.200000X0.275000X-0.200000X0.275000X0.200000X-0.275000X0.200000X-0.275000X-0.200000X0*%
%ADD34RoundRect,0.250000X0.350000X-0.450000X0.350000X0.450000X-0.350000X0.450000X-0.350000X-0.450000X0*%
%ADD35O,0.850000X0.350000*%
%ADD36R,1.650000X4.250000*%
%ADD37RoundRect,0.150000X0.512500X0.150000X-0.512500X0.150000X-0.512500X-0.150000X0.512500X-0.150000X0*%
%ADD38R,0.700000X0.700000*%
%ADD39RoundRect,0.250000X0.250000X0.250000X-0.250000X0.250000X-0.250000X-0.250000X0.250000X-0.250000X0*%
%ADD40RoundRect,0.105000X-0.245000X0.345000X-0.245000X-0.345000X0.245000X-0.345000X0.245000X0.345000X0*%
%ADD41RoundRect,0.105000X-0.345000X-0.245000X0.345000X-0.245000X0.345000X0.245000X-0.345000X0.245000X0*%
%ADD42RoundRect,0.105000X0.245000X-0.345000X0.245000X0.345000X-0.245000X0.345000X-0.245000X-0.345000X0*%
%ADD43RoundRect,0.105000X0.245000X-0.395000X0.245000X0.395000X-0.245000X0.395000X-0.245000X-0.395000X0*%
%ADD44RoundRect,0.225000X0.225000X0.250000X-0.225000X0.250000X-0.225000X-0.250000X0.225000X-0.250000X0*%
%ADD45RoundRect,0.250000X0.250000X0.475000X-0.250000X0.475000X-0.250000X-0.475000X0.250000X-0.475000X0*%
%ADD46RoundRect,0.250000X1.000000X0.650000X-1.000000X0.650000X-1.000000X-0.650000X1.000000X-0.650000X0*%
%ADD47RoundRect,0.150000X0.150000X-0.587500X0.150000X0.587500X-0.150000X0.587500X-0.150000X-0.587500X0*%
%ADD48C,2.050000*%
%ADD49C,2.250000*%
%ADD50RoundRect,0.250000X-0.550000X0.550000X-0.550000X-0.550000X0.550000X-0.550000X0.550000X0.550000X0*%
%ADD51C,1.600000*%
%ADD52R,0.762000X0.304800*%
%ADD53R,1.651000X2.438400*%
%ADD54RoundRect,0.200000X-0.200000X0.700000X-0.200000X-0.700000X0.200000X-0.700000X0.200000X0.700000X0*%
%ADD55RoundRect,0.150000X0.587500X0.150000X-0.587500X0.150000X-0.587500X-0.150000X0.587500X-0.150000X0*%
G04 APERTURE END LIST*
%TO.C,JP101*%
G36*
X131130000Y-98410000D02*
G01*
X132630000Y-98410000D01*
X132630000Y-99910000D01*
X131130000Y-99910000D01*
X131130000Y-98410000D01*
G37*
%TD*%
D10*
%TO.C,JP101*%
X130580000Y-99160000D03*
D11*
X131880000Y-99160000D03*
D12*
X133180000Y-99160000D03*
%TD*%
D13*
%TO.C,C108*%
X124355000Y-72030000D03*
X125905000Y-72030000D03*
%TD*%
D14*
%TO.C,R102*%
X112360000Y-80845000D03*
X112360000Y-82495000D03*
%TD*%
D15*
%TO.C,J104*%
X140700000Y-91050000D03*
X144600000Y-91050000D03*
X140700000Y-92320000D03*
X144600000Y-92320000D03*
X140700000Y-93590000D03*
X144600000Y-93590000D03*
X140700000Y-94860000D03*
X144600000Y-94860000D03*
X140700000Y-96130000D03*
X144600000Y-96130000D03*
%TD*%
D16*
%TO.C,C113*%
X126710000Y-74290000D03*
X126710000Y-76190000D03*
%TD*%
D17*
%TO.C,C110*%
X101350000Y-89280000D03*
X101350000Y-90830000D03*
%TD*%
D18*
%TO.C,J302*%
X97150000Y-87350000D03*
%TD*%
D13*
%TO.C,C106*%
X123380000Y-65750000D03*
X124930000Y-65750000D03*
%TD*%
D17*
%TO.C,C101*%
X125990001Y-91900000D03*
X125990001Y-93450000D03*
%TD*%
D19*
%TO.C,L201*%
X99450000Y-68812500D03*
X99450000Y-66687500D03*
%TD*%
D20*
%TO.C,R101*%
X134700000Y-85000000D03*
X136350000Y-85000000D03*
%TD*%
D21*
%TO.C,Q303*%
X123470000Y-88930000D03*
X121570000Y-88930000D03*
X122520000Y-90805000D03*
%TD*%
D22*
%TO.C,TP101*%
X102600000Y-99100000D03*
%TD*%
D23*
%TO.C,L401*%
X112100000Y-95025000D03*
X112100000Y-98775000D03*
%TD*%
D24*
%TO.C,R302*%
X127945000Y-84280000D03*
X126295000Y-84280000D03*
%TD*%
D25*
%TO.C,C202*%
X118250000Y-80950000D03*
X120150000Y-80950000D03*
%TD*%
D13*
%TO.C,C112*%
X122225000Y-98890000D03*
X123775000Y-98890000D03*
%TD*%
D14*
%TO.C,R110*%
X140000000Y-84900000D03*
X140000000Y-86550000D03*
%TD*%
D26*
%TO.C,U102*%
X124880000Y-67540000D03*
X124380000Y-67540000D03*
X123880000Y-67540000D03*
X123380000Y-67540000D03*
X123380000Y-70340000D03*
X123880000Y-70340000D03*
X124380000Y-70340000D03*
X124880000Y-70340000D03*
%TD*%
D27*
%TO.C,C107*%
X121910000Y-82010000D03*
X121910000Y-80110000D03*
%TD*%
D14*
%TO.C,R104*%
X131920000Y-95485000D03*
X131920000Y-97135000D03*
%TD*%
D28*
%TO.C,C103*%
X131140001Y-93325000D03*
X131140001Y-91775000D03*
%TD*%
D29*
%TO.C,D101*%
X114032500Y-82340000D03*
X116532500Y-82340000D03*
%TD*%
D27*
%TO.C,C404*%
X106240000Y-99020000D03*
X106240000Y-97120000D03*
%TD*%
D13*
%TO.C,C301*%
X130600000Y-86650000D03*
X132150000Y-86650000D03*
%TD*%
D30*
%TO.C,H101*%
X142330000Y-65670000D03*
X142813274Y-64503274D03*
X142813274Y-66836726D03*
X143980000Y-64020000D03*
D31*
X143980000Y-65670000D03*
D30*
X143980000Y-67320000D03*
X145146726Y-64503274D03*
X145146726Y-66836726D03*
X145630000Y-65670000D03*
%TD*%
D32*
%TO.C,U105*%
X118235000Y-97200000D03*
X118235000Y-98150000D03*
X118235000Y-99100000D03*
X120510000Y-99100000D03*
X120510000Y-97200000D03*
%TD*%
D17*
%TO.C,C201*%
X97650000Y-67050000D03*
X97650000Y-68600000D03*
%TD*%
D33*
%TO.C,R402*%
X115175000Y-90925000D03*
X115175000Y-89275000D03*
%TD*%
D20*
%TO.C,R401*%
X108950000Y-89780000D03*
X110600000Y-89780000D03*
%TD*%
D14*
%TO.C,R108*%
X138450000Y-84900000D03*
X138450000Y-86550000D03*
%TD*%
D21*
%TO.C,Q302*%
X119970000Y-88930000D03*
X118070000Y-88930000D03*
X119020000Y-90805000D03*
%TD*%
D34*
%TO.C,Y101*%
X129450001Y-93700000D03*
X129450001Y-91500000D03*
X127750001Y-91500000D03*
X127750001Y-93700000D03*
%TD*%
D18*
%TO.C,J102*%
X97150000Y-83750000D03*
%TD*%
D35*
%TO.C,U101*%
X133312500Y-89950000D03*
X133312500Y-90600000D03*
X133312500Y-91250000D03*
X133312500Y-91900000D03*
X133312500Y-92550000D03*
X133312500Y-93200000D03*
X133312500Y-93850000D03*
X136312500Y-93850000D03*
X136312500Y-93200000D03*
X136312500Y-92550000D03*
X136312500Y-91900000D03*
X136312500Y-91250000D03*
X136312500Y-90600000D03*
X136312500Y-89950000D03*
D36*
X134812500Y-91900000D03*
%TD*%
D37*
%TO.C,U401*%
X113387500Y-93212500D03*
X113387500Y-92262500D03*
X113387500Y-91312500D03*
X111112500Y-91312500D03*
X111112500Y-92262500D03*
X111112500Y-93212500D03*
%TD*%
D20*
%TO.C,R201*%
X101050000Y-66700000D03*
X102700000Y-66700000D03*
%TD*%
%TO.C,R306*%
X116495000Y-84730000D03*
X118145000Y-84730000D03*
%TD*%
D38*
%TO.C,D102*%
X134560000Y-64450000D03*
X134560000Y-65550000D03*
X136390000Y-65550000D03*
X136390000Y-64450000D03*
%TD*%
%TO.C,D103*%
X127820000Y-64450000D03*
X127820000Y-65550000D03*
X129650000Y-65550000D03*
X129650000Y-64450000D03*
%TD*%
D20*
%TO.C,R304*%
X116535000Y-87065000D03*
X118185000Y-87065000D03*
%TD*%
D18*
%TO.C,J103*%
X97150000Y-80150000D03*
%TD*%
D24*
%TO.C,R301*%
X126635000Y-89680000D03*
X124985000Y-89680000D03*
%TD*%
D39*
%TO.C,D104*%
X102300000Y-87530000D03*
X99800000Y-87530000D03*
%TD*%
D14*
%TO.C,R107*%
X99800000Y-89215000D03*
X99800000Y-90865000D03*
%TD*%
D40*
%TO.C,U104*%
X144865000Y-69435000D03*
X143765000Y-69435000D03*
X142665000Y-69435000D03*
X141565000Y-69435000D03*
X140465000Y-69435000D03*
X139365000Y-69435000D03*
X138265000Y-69435000D03*
X137165000Y-69435000D03*
X136065000Y-69435000D03*
X134965000Y-69435000D03*
X133865000Y-69435000D03*
X132765000Y-69435000D03*
D41*
X131265000Y-70685000D03*
X131265000Y-71785000D03*
X131265000Y-72885000D03*
X131265000Y-73985000D03*
X131265000Y-75085000D03*
X131265000Y-76185000D03*
X131265000Y-77285000D03*
X131265000Y-78385000D03*
X131265000Y-79485000D03*
X131265000Y-80585000D03*
X131265000Y-81685000D03*
D42*
X132765000Y-82935000D03*
X133865000Y-82935000D03*
X134965000Y-82935000D03*
X136065000Y-82935000D03*
X137165000Y-82935000D03*
X138265000Y-82935000D03*
X139365000Y-82935000D03*
X140465000Y-82935000D03*
X141565000Y-82935000D03*
X142665000Y-82935000D03*
X143765000Y-82935000D03*
X144865000Y-82935000D03*
X145965000Y-82935000D03*
D43*
X142665000Y-71935000D03*
X143765000Y-71935000D03*
X141565000Y-71935000D03*
X140465000Y-71935000D03*
X139365000Y-71935000D03*
X138265000Y-71935000D03*
X137165000Y-71935000D03*
X136065000Y-71935000D03*
X134965000Y-71935000D03*
X133865000Y-71935000D03*
X132765000Y-71935000D03*
X132765000Y-80735000D03*
X133865000Y-80735000D03*
X134965000Y-80735000D03*
X136065000Y-80735000D03*
X137165000Y-80735000D03*
X138265000Y-80735000D03*
X139365000Y-80735000D03*
X140465000Y-80735000D03*
X141565000Y-80735000D03*
X142665000Y-80735000D03*
X143765000Y-80735000D03*
%TD*%
D30*
%TO.C,H102*%
X95910000Y-98310000D03*
X96393274Y-97143274D03*
X96393274Y-99476726D03*
X97560000Y-96660000D03*
D31*
X97560000Y-98310000D03*
D30*
X97560000Y-99960000D03*
X98726726Y-97143274D03*
X98726726Y-99476726D03*
X99210000Y-98310000D03*
%TD*%
D14*
%TO.C,R305*%
X117740000Y-92585000D03*
X117740000Y-94235000D03*
%TD*%
D44*
%TO.C,C105*%
X136292500Y-88590000D03*
X134742500Y-88590000D03*
%TD*%
D24*
%TO.C,R403*%
X113650000Y-89775000D03*
X112000000Y-89775000D03*
%TD*%
D45*
%TO.C,C401*%
X108720000Y-91720000D03*
X106820000Y-91720000D03*
%TD*%
D46*
%TO.C,D401*%
X107950000Y-94525000D03*
X103950000Y-94525000D03*
%TD*%
D45*
%TO.C,C102*%
X136262500Y-86810000D03*
X134362500Y-86810000D03*
%TD*%
D14*
%TO.C,R109*%
X141500000Y-84900000D03*
X141500000Y-86550000D03*
%TD*%
D47*
%TO.C,Q301*%
X122320000Y-94847500D03*
X124220000Y-94847500D03*
X123270000Y-92972500D03*
%TD*%
D18*
%TO.C,J301*%
X97150000Y-90950000D03*
%TD*%
D48*
%TO.C,J101*%
X99560000Y-73890000D03*
D49*
X97020000Y-71350000D03*
X97020000Y-76430000D03*
X102100000Y-71350000D03*
X102100000Y-76430000D03*
%TD*%
D50*
%TO.C,C104*%
X107170000Y-82740000D03*
D51*
X107170000Y-86240000D03*
%TD*%
D14*
%TO.C,R303*%
X120750000Y-92595000D03*
X120750000Y-94245000D03*
%TD*%
D20*
%TO.C,R105*%
X126700000Y-78300000D03*
X128350000Y-78300000D03*
%TD*%
D52*
%TO.C,U301*%
X129025000Y-87939958D03*
X129025000Y-87289972D03*
X129025000Y-86639986D03*
X129025000Y-85990000D03*
X126078600Y-85990000D03*
X126078600Y-86639986D03*
X126078600Y-87289972D03*
X126078600Y-87939958D03*
D53*
X127551800Y-86964979D03*
%TD*%
D37*
%TO.C,U103*%
X126113750Y-81810000D03*
X126113750Y-80860000D03*
X126113750Y-79910000D03*
X123838750Y-79910000D03*
X123838750Y-81810000D03*
%TD*%
D13*
%TO.C,C114*%
X122920000Y-97260000D03*
X124470000Y-97260000D03*
%TD*%
D24*
%TO.C,R106*%
X125255000Y-78260000D03*
X123605000Y-78260000D03*
%TD*%
D28*
%TO.C,C302*%
X124600000Y-85525000D03*
X124600000Y-83975000D03*
%TD*%
D54*
%TO.C,U201*%
X119650000Y-66700000D03*
X118550000Y-66700000D03*
X117450000Y-66700000D03*
X116350000Y-66700000D03*
X115250000Y-66700000D03*
X114150000Y-66700000D03*
X113050000Y-66700000D03*
X110050000Y-66700000D03*
X108950000Y-66700000D03*
X107850000Y-66700000D03*
X106750000Y-66700000D03*
X105650000Y-66700000D03*
X105650000Y-78700000D03*
X106750000Y-78700000D03*
X107850000Y-78700000D03*
X108950000Y-78700000D03*
X110050000Y-78700000D03*
X113050000Y-78700000D03*
X114150000Y-78700000D03*
X115250000Y-78700000D03*
X116350000Y-78700000D03*
X117450000Y-78700000D03*
X118550000Y-78700000D03*
X119650000Y-78700000D03*
%TD*%
D27*
%TO.C,C109*%
X128126250Y-81710000D03*
X128126250Y-79810000D03*
%TD*%
D16*
%TO.C,C402*%
X115750000Y-93175000D03*
X115750000Y-95075000D03*
%TD*%
D17*
%TO.C,C303*%
X119270000Y-92635000D03*
X119270000Y-94185000D03*
%TD*%
D24*
%TO.C,R103*%
X135560000Y-95510000D03*
X133910000Y-95510000D03*
%TD*%
D22*
%TO.C,TP102*%
X124100000Y-74540000D03*
%TD*%
D55*
%TO.C,D301*%
X114760000Y-86750000D03*
X114760000Y-84850000D03*
X112885000Y-85800000D03*
%TD*%
D47*
%TO.C,Q101*%
X99860000Y-85460000D03*
X101760000Y-85460000D03*
X100810000Y-83585000D03*
%TD*%
D17*
%TO.C,C115*%
X128530000Y-74240000D03*
X128530000Y-75790000D03*
%TD*%
%TO.C,C111*%
X116440000Y-97320000D03*
X116440000Y-98870000D03*
%TD*%
D27*
%TO.C,C403*%
X108390000Y-99020000D03*
X108390000Y-97120000D03*
%TD*%
M02*
