M48
; DRILL file {KiCad 9.0.6-9.0.6~ubuntu24.04.1} date 2025-12-29T16:18:33+0300
; FORMAT={-:-/ absolute / inch / decimal}
; #@! TF.CreationDate,2025-12-29T16:18:33+03:00
; #@! TF.GenerationSoftware,Kicad,Pcbnew,9.0.6-9.0.6~ubuntu24.04.1
; #@! TF.FileFunction,Plated,1,4,PTH
FMAT,2
INCH
; #@! TA.AperFunction,Plated,PTH,ViaDrill
T1C0.0118
; #@! TA.AperFunction,Plated,PTH,ComponentDrill
T2C0.0157
; #@! TA.AperFunction,Plated,PTH,ComponentDrill
T3C0.0315
; #@! TA.AperFunction,Plated,PTH,ComponentDrill
T4C0.0394
; #@! TA.AperFunction,Plated,PTH,ComponentDrill
T5C0.0591
; #@! TA.AperFunction,Plated,PTH,ComponentDrill
T6C0.0669
; #@! TA.AperFunction,Plated,PTH,ComponentDrill
T7C0.0866
%
G90
G05
T1
X3.9512Y-3.6181
X4.0091Y-3.6638
X4.011Y-3.7091
X4.0161Y-3.7567
X4.0496Y-3.6358
X4.0598Y-3.8189
X4.0937Y-3.8185
X4.0937Y-3.8748
X4.0949Y-3.6331
X4.0953Y-3.9197
X4.1142Y-3.8972
X4.1181Y-2.6673
X4.1264Y-3.8181
X4.1323Y-3.8724
X4.1339Y-2.7559
X4.1339Y-2.874
X4.1339Y-2.9921
X4.135Y-3.9193
X4.1469Y-3.6335
X4.1575Y-3.0457
X4.1583Y-3.1583
X4.1732Y-2.7559
X4.1732Y-2.874
X4.1732Y-2.9921
X4.1795Y-3.9382
X4.2126Y-2.7559
X4.2126Y-2.874
X4.2126Y-2.9921
X4.2189Y-3.939
X4.248Y-2.6909
X4.252Y-2.7559
X4.252Y-2.874
X4.252Y-2.9921
X4.2602Y-3.939
X4.2913Y-2.7559
X4.2913Y-2.874
X4.2913Y-2.9921
X4.3307Y-2.7559
X4.3307Y-2.874
X4.3307Y-2.9921
X4.3701Y-2.874
X4.3701Y-2.9921
X4.3984Y-3.3799
X4.4094Y-2.7559
X4.4094Y-2.874
X4.4094Y-2.9921
X4.4098Y-3.4969
X4.426Y-3.6327
X4.4488Y-2.7559
X4.4488Y-2.874
X4.4488Y-2.9921
X4.45Y-2.5531
X4.4508Y-2.6843
X4.4882Y-2.7559
X4.4882Y-2.874
X4.4882Y-2.9921
X4.5122Y-3.6244
X4.5276Y-2.7559
X4.5276Y-2.874
X4.5425Y-3.8476
X4.5496Y-3.9055
X4.5579Y-3.3409
X4.5591Y-3.4161
X4.602Y-3.5791
X4.602Y-3.8122
X4.661Y-2.8413
X4.6941Y-2.8189
X4.6965Y-3.7469
X4.7039Y-2.9815
X4.7094Y-3.0386
X4.7217Y-2.7945
X4.7228Y-3.7886
X4.7327Y-3.3339
X4.737Y-2.9516
X4.7437Y-3.6079
X4.7492Y-3.789
X4.7551Y-3.1591
X4.7689Y-2.9201
X4.7748Y-3.7886
X4.7913Y-3.5941
X4.7965Y-3.8138
X4.7965Y-3.839
X4.8024Y-2.8874
X4.8024Y-3.7878
X4.8106Y-3.6898
X4.8307Y-3.787
X4.8571Y-3.7874
X4.8681Y-3.3654
X4.9031Y-2.9878
X4.9146Y-3.4654
X4.924Y-3.7453
X4.9291Y-3.2504
X4.9333Y-3.1831
X4.9366Y-2.9248
X4.9366Y-2.9535
X4.9374Y-2.8996
X4.9413Y-3.0071
X4.9496Y-2.5874
X4.952Y-3.3165
X4.9657Y-3.2476
X4.9913Y-2.5783
X4.9961Y-2.8346
X5.0028Y-3.2516
X5.0303Y-3.5319
X5.0307Y-2.9248
X5.0376Y-3.7402
X5.0433Y-3.2539
X5.0469Y-3.1201
X5.076Y-3.2528
X5.0921Y-3.9052
X5.098Y-2.9909
X5.1067Y-3.411
X5.1378Y-3.7618
X5.1516Y-2.5374
X5.1528Y-3.5748
X5.1988Y-3.565
X5.2015Y-3.4974
X5.2106Y-3.6102
X5.2382Y-3.3189
X5.2441Y-3.3543
X5.2567Y-2.5846
X5.3004Y-3.3157
X5.3051Y-3.6649
X5.3362Y-3.4169
X5.3647Y-3.4575
X5.4083Y-2.5374
X5.4114Y-3.6683
X5.4642Y-3.65
X5.4941Y-3.5839
X5.6043Y-3.7854
X5.6339Y-3.3425
X5.7323Y-3.3543
X5.752Y-3.687
T2
X3.776Y-3.8705
X3.795Y-3.8245
X3.795Y-3.9164
X3.8409Y-3.8055
X3.8409Y-3.9354
X3.8869Y-3.8245
X3.8869Y-3.9164
X3.9059Y-3.8705
X5.6035Y-2.5854
X5.6226Y-2.5395
X5.6226Y-2.6314
X5.6685Y-2.5205
X5.6685Y-2.6504
X5.7144Y-2.5395
X5.7144Y-2.6314
X5.7335Y-2.5854
T3
X4.2193Y-3.2575
X4.2193Y-3.3953
T4
X3.8248Y-3.1555
X3.8248Y-3.2972
X3.8248Y-3.439
X3.8248Y-3.5807
T5
X3.9197Y-2.9091
T6
X3.8197Y-2.8091
X3.8197Y-3.0091
X4.0197Y-2.8091
X4.0197Y-3.0091
T7
X3.8409Y-3.8705
X5.6685Y-2.5854
M30
