%TF.GenerationSoftware,KiCad,Pcbnew,9.0.6-9.0.6~ubuntu24.04.1*%
%TF.CreationDate,2025-12-29T16:18:33+03:00*%
%TF.ProjectId,rc_ble,72635f62-6c65-42e6-9b69-6361645f7063,rev?*%
%TF.SameCoordinates,Original*%
%TF.FileFunction,Copper,L2,Inr*%
%TF.FilePolarity,Positive*%
%FSLAX46Y46*%
G04 Gerber Fmt 4.6, Leading zero omitted, Abs format (unit mm)*
G04 Created by KiCad (PCBNEW 9.0.6-9.0.6~ubuntu24.04.1) date 2025-12-29 16:18:33*
%MOMM*%
%LPD*%
G01*
G04 APERTURE LIST*
G04 Aperture macros list*
%AMRoundRect*
0 Rectangle with rounded corners*
0 $1 Rounding radius*
0 $2 $3 $4 $5 $6 $7 $8 $9 X,Y pos of 4 corners*
0 Add a 4 corners polygon primitive as box body*
4,1,4,$2,$3,$4,$5,$6,$7,$8,$9,$2,$3,0*
0 Add four circle primitives for the rounded corners*
1,1,$1+$1,$2,$3*
1,1,$1+$1,$4,$5*
1,1,$1+$1,$6,$7*
1,1,$1+$1,$8,$9*
0 Add four rect primitives between the rounded corners*
20,1,$1+$1,$2,$3,$4,$5,0*
20,1,$1+$1,$4,$5,$6,$7,0*
20,1,$1+$1,$6,$7,$8,$9,0*
20,1,$1+$1,$8,$9,$2,$3,0*%
G04 Aperture macros list end*
%TA.AperFunction,ComponentPad*%
%ADD10R,1.700000X1.700000*%
%TD*%
%TA.AperFunction,ComponentPad*%
%ADD11C,0.700000*%
%TD*%
%TA.AperFunction,ComponentPad*%
%ADD12C,4.400000*%
%TD*%
%TA.AperFunction,ComponentPad*%
%ADD13C,2.050000*%
%TD*%
%TA.AperFunction,ComponentPad*%
%ADD14C,2.250000*%
%TD*%
%TA.AperFunction,ComponentPad*%
%ADD15RoundRect,0.250000X-0.550000X0.550000X-0.550000X-0.550000X0.550000X-0.550000X0.550000X0.550000X0*%
%TD*%
%TA.AperFunction,ComponentPad*%
%ADD16C,1.600000*%
%TD*%
%TA.AperFunction,ViaPad*%
%ADD17C,0.600000*%
%TD*%
G04 APERTURE END LIST*
D10*
%TO.N,/CAN/CAN1_LOW*%
%TO.C,J302*%
X97150000Y-87350000D03*
%TD*%
D11*
%TO.N,GND*%
%TO.C,H101*%
X142330000Y-65670000D03*
X142813274Y-64503274D03*
X142813274Y-66836726D03*
X143980000Y-64020000D03*
D12*
X143980000Y-65670000D03*
D11*
X143980000Y-67320000D03*
X145146726Y-64503274D03*
X145146726Y-66836726D03*
X145630000Y-65670000D03*
%TD*%
D10*
%TO.N,/VIN*%
%TO.C,J102*%
X97150000Y-83750000D03*
%TD*%
%TO.N,GND*%
%TO.C,J103*%
X97150000Y-80150000D03*
%TD*%
D11*
%TO.N,GND*%
%TO.C,H102*%
X95910000Y-98310000D03*
X96393274Y-97143274D03*
X96393274Y-99476726D03*
X97560000Y-96660000D03*
D12*
X97560000Y-98310000D03*
D11*
X97560000Y-99960000D03*
X98726726Y-97143274D03*
X98726726Y-99476726D03*
X99210000Y-98310000D03*
%TD*%
D10*
%TO.N,/CAN/CAN1_HI*%
%TO.C,J301*%
X97150000Y-90950000D03*
%TD*%
D13*
%TO.N,/ublox/GPS_RF*%
%TO.C,J101*%
X99560000Y-73890000D03*
D14*
%TO.N,GND*%
X97020000Y-71350000D03*
X97020000Y-76430000D03*
X102100000Y-71350000D03*
X102100000Y-76430000D03*
%TD*%
D15*
%TO.N,/ublox/GPS_VBAT*%
%TO.C,C104*%
X107170000Y-82740000D03*
D16*
%TO.N,GND*%
X107170000Y-86240000D03*
%TD*%
D17*
%TO.N,/3V3*%
X124540000Y-75890000D03*
X119960000Y-96230000D03*
X135540000Y-86790000D03*
X125410000Y-73650000D03*
X134630000Y-84220000D03*
X138790000Y-92710000D03*
X121280000Y-96230000D03*
X125390000Y-74290000D03*
X121830000Y-96870000D03*
X127780000Y-74290000D03*
X125390000Y-75020000D03*
X121830000Y-97510000D03*
X122700000Y-96190000D03*
X120630000Y-96240000D03*
X121980000Y-96210000D03*
X123370000Y-96200000D03*
X136262500Y-87820000D03*
X129340000Y-99192500D03*
X123650000Y-85480000D03*
%TO.N,GND*%
X104010000Y-92280000D03*
X102010000Y-95420000D03*
X110000000Y-76000000D03*
X130880000Y-90800000D03*
X107000000Y-73000000D03*
X113000000Y-70000000D03*
X120490000Y-91640000D03*
X105330000Y-92290000D03*
X111000000Y-73000000D03*
X125510000Y-76380000D03*
X108000000Y-70000000D03*
X109000000Y-73000000D03*
X113000000Y-76000000D03*
X107000000Y-76000000D03*
X118390000Y-72170000D03*
X111000000Y-76000000D03*
X125070000Y-95130000D03*
X105000000Y-73000000D03*
X110000000Y-73000000D03*
X100360000Y-91900000D03*
X126900000Y-72000000D03*
X106000000Y-70000000D03*
X106000000Y-76000000D03*
X113000000Y-73000000D03*
X101880000Y-94210000D03*
X119290000Y-95170000D03*
X105000000Y-70000000D03*
X146100000Y-93650000D03*
X105600000Y-77360000D03*
X107000000Y-70000000D03*
X113050000Y-68180000D03*
X111720000Y-85850000D03*
X104600000Y-67750000D03*
X103120000Y-97000000D03*
X105620000Y-80220000D03*
X113030000Y-64850000D03*
X108000000Y-73000000D03*
X115000000Y-70000000D03*
X112010000Y-88820000D03*
X125306250Y-80850000D03*
X112000000Y-70000000D03*
X121980000Y-73340000D03*
X109000000Y-76000000D03*
X112420000Y-92270000D03*
X110000000Y-70000000D03*
X129490000Y-75970000D03*
X115560000Y-99200000D03*
X121130000Y-74170000D03*
X128190000Y-79250000D03*
X106000000Y-73000000D03*
X115000000Y-73000000D03*
X107900000Y-68350000D03*
X119230000Y-71600000D03*
X114000000Y-70000000D03*
X102860000Y-92350000D03*
X125720000Y-65720000D03*
X114000000Y-73000000D03*
X101830000Y-93060000D03*
X108000000Y-76000000D03*
X103980000Y-96990000D03*
X133520000Y-65650000D03*
X142350000Y-96150000D03*
X119930000Y-70980000D03*
X105000000Y-76000000D03*
X114610000Y-92060000D03*
X112000000Y-73000000D03*
X119480000Y-75730000D03*
X104810000Y-96980000D03*
X127955001Y-95000000D03*
X134750000Y-93087500D03*
X120780000Y-80240000D03*
X120320000Y-74970000D03*
X112000000Y-76000000D03*
X114000000Y-76000000D03*
X109000000Y-70000000D03*
X126780000Y-65490000D03*
X119620000Y-77180000D03*
%TO.N,/5V*%
X104500000Y-98990000D03*
X137370000Y-64450000D03*
X139550000Y-91030000D03*
X104020000Y-99560000D03*
X104960000Y-98360000D03*
X128100000Y-82650000D03*
X127070000Y-82590000D03*
X127770000Y-89710000D03*
X126130000Y-82490000D03*
X116890000Y-96830000D03*
X125200000Y-82560000D03*
X103980000Y-98420000D03*
X130850000Y-64450000D03*
X129710000Y-86639986D03*
X108210000Y-100050000D03*
X115380000Y-97730000D03*
X116890000Y-90910000D03*
X107160000Y-100050000D03*
X105030000Y-99550000D03*
X106160000Y-100030000D03*
X128930000Y-82620000D03*
%TO.N,/CAN/CAN1_HI*%
X115800000Y-86770000D03*
%TO.N,/CAN/CAN1_LOW*%
X115770000Y-84860000D03*
%TO.N,/CAN/CAN1S*%
X130500000Y-95550000D03*
X124830000Y-88020000D03*
%TO.N,/RST*%
X143100000Y-84900000D03*
X145600000Y-85200000D03*
%TO.N,/CAN/CAN1RX*%
X132116942Y-88833058D03*
X132050000Y-90550000D03*
%TO.N,/MCP_INT*%
X132350000Y-91700000D03*
X133200000Y-85200000D03*
%TO.N,/MCP_RST*%
X133050000Y-84300000D03*
X137450000Y-93175000D03*
%TO.N,Net-(Q301-G)*%
X122190000Y-93720000D03*
X125780000Y-84240000D03*
%TO.N,Net-(Q303-D)*%
X121700000Y-91290000D03*
X120210000Y-84680000D03*
%TD*%
%TA.AperFunction,Conductor*%
%TO.N,GND*%
G36*
X144023736Y-63240726D02*
G01*
X144313796Y-63258271D01*
X144328659Y-63260076D01*
X144610798Y-63311780D01*
X144625335Y-63315363D01*
X144899172Y-63400695D01*
X144913163Y-63406000D01*
X145174743Y-63523727D01*
X145187989Y-63530680D01*
X145433465Y-63679075D01*
X145445776Y-63687573D01*
X145671573Y-63864473D01*
X145682781Y-63874403D01*
X145885596Y-64077218D01*
X145895526Y-64088426D01*
X146015481Y-64241538D01*
X146072422Y-64314217D01*
X146080928Y-64326540D01*
X146229316Y-64572004D01*
X146236275Y-64585263D01*
X146353997Y-64846831D01*
X146359306Y-64860832D01*
X146444635Y-65134663D01*
X146448219Y-65149201D01*
X146499923Y-65431340D01*
X146501728Y-65446205D01*
X146519274Y-65736263D01*
X146519500Y-65743750D01*
X146519500Y-84726492D01*
X146499815Y-84793531D01*
X146447011Y-84839286D01*
X146377853Y-84849230D01*
X146314297Y-84820205D01*
X146292398Y-84795383D01*
X146221789Y-84689711D01*
X146221786Y-84689707D01*
X146110292Y-84578213D01*
X146110288Y-84578210D01*
X145979185Y-84490609D01*
X145979172Y-84490602D01*
X145833501Y-84430264D01*
X145833489Y-84430261D01*
X145678845Y-84399500D01*
X145678842Y-84399500D01*
X145521158Y-84399500D01*
X145521155Y-84399500D01*
X145366510Y-84430261D01*
X145366498Y-84430264D01*
X145220827Y-84490602D01*
X145220814Y-84490609D01*
X145089711Y-84578210D01*
X145089707Y-84578213D01*
X144978213Y-84689707D01*
X144978210Y-84689711D01*
X144890609Y-84820814D01*
X144890602Y-84820827D01*
X144830264Y-84966498D01*
X144830261Y-84966510D01*
X144799500Y-85121153D01*
X144799500Y-85278846D01*
X144830261Y-85433489D01*
X144830264Y-85433501D01*
X144890602Y-85579172D01*
X144890609Y-85579185D01*
X144978210Y-85710288D01*
X144978213Y-85710292D01*
X145089707Y-85821786D01*
X145089711Y-85821789D01*
X145220814Y-85909390D01*
X145220827Y-85909397D01*
X145365931Y-85969500D01*
X145366503Y-85969737D01*
X145519967Y-86000263D01*
X145521153Y-86000499D01*
X145521156Y-86000500D01*
X145521158Y-86000500D01*
X145678844Y-86000500D01*
X145678845Y-86000499D01*
X145833497Y-85969737D01*
X145979179Y-85909394D01*
X146110289Y-85821789D01*
X146221789Y-85710289D01*
X146292398Y-85604616D01*
X146346010Y-85559811D01*
X146415335Y-85551104D01*
X146478363Y-85581258D01*
X146515082Y-85640702D01*
X146519500Y-85673507D01*
X146519500Y-98326249D01*
X146519274Y-98333736D01*
X146501728Y-98623794D01*
X146499923Y-98638659D01*
X146448219Y-98920798D01*
X146444635Y-98935336D01*
X146359306Y-99209167D01*
X146353997Y-99223168D01*
X146236275Y-99484736D01*
X146229316Y-99497995D01*
X146080928Y-99743459D01*
X146072422Y-99755782D01*
X145895526Y-99981573D01*
X145885596Y-99992781D01*
X145682781Y-100195596D01*
X145671573Y-100205526D01*
X145445782Y-100382422D01*
X145433459Y-100390928D01*
X145187995Y-100539316D01*
X145174736Y-100546275D01*
X144913168Y-100663997D01*
X144899167Y-100669306D01*
X144625336Y-100754635D01*
X144610798Y-100758219D01*
X144328659Y-100809923D01*
X144313794Y-100811728D01*
X144023736Y-100829274D01*
X144016249Y-100829500D01*
X108861941Y-100829500D01*
X108794902Y-100809815D01*
X108749147Y-100757011D01*
X108739203Y-100687853D01*
X108768228Y-100624297D01*
X108774260Y-100617819D01*
X108831786Y-100560292D01*
X108831789Y-100560289D01*
X108919394Y-100429179D01*
X108979737Y-100283497D01*
X109010500Y-100128842D01*
X109010500Y-99971158D01*
X109010500Y-99971155D01*
X109010499Y-99971153D01*
X109004139Y-99939179D01*
X108979737Y-99816503D01*
X108970208Y-99793497D01*
X108919397Y-99670827D01*
X108919390Y-99670814D01*
X108831789Y-99539711D01*
X108831786Y-99539707D01*
X108720292Y-99428213D01*
X108720288Y-99428210D01*
X108589185Y-99340609D01*
X108589172Y-99340602D01*
X108443501Y-99280264D01*
X108443489Y-99280261D01*
X108288845Y-99249500D01*
X108288842Y-99249500D01*
X108131158Y-99249500D01*
X108131155Y-99249500D01*
X107976510Y-99280261D01*
X107976498Y-99280264D01*
X107830827Y-99340602D01*
X107830809Y-99340612D01*
X107753890Y-99392008D01*
X107687213Y-99412886D01*
X107619833Y-99394401D01*
X107616110Y-99392008D01*
X107539190Y-99340612D01*
X107539172Y-99340602D01*
X107393501Y-99280264D01*
X107393489Y-99280261D01*
X107238845Y-99249500D01*
X107238842Y-99249500D01*
X107081158Y-99249500D01*
X107081155Y-99249500D01*
X106926510Y-99280261D01*
X106926498Y-99280264D01*
X106780828Y-99340602D01*
X106780819Y-99340607D01*
X106743854Y-99365306D01*
X106677176Y-99386182D01*
X106609796Y-99367696D01*
X106606104Y-99365324D01*
X106539179Y-99320606D01*
X106539172Y-99320602D01*
X106393501Y-99260264D01*
X106393491Y-99260261D01*
X106238845Y-99229500D01*
X106238842Y-99229500D01*
X106081158Y-99229500D01*
X106081155Y-99229500D01*
X105926511Y-99260260D01*
X105926505Y-99260262D01*
X105922761Y-99261812D01*
X105912975Y-99265866D01*
X105843507Y-99273333D01*
X105781028Y-99242057D01*
X105750965Y-99198756D01*
X105749332Y-99194814D01*
X105739394Y-99170821D01*
X105739392Y-99170819D01*
X105739392Y-99170817D01*
X105701196Y-99113653D01*
X128539500Y-99113653D01*
X128539500Y-99271346D01*
X128570261Y-99425989D01*
X128570264Y-99426001D01*
X128630602Y-99571672D01*
X128630609Y-99571685D01*
X128718210Y-99702788D01*
X128718213Y-99702792D01*
X128829707Y-99814286D01*
X128829711Y-99814289D01*
X128960814Y-99901890D01*
X128960827Y-99901897D01*
X129050850Y-99939185D01*
X129106503Y-99962237D01*
X129260057Y-99992781D01*
X129261153Y-99992999D01*
X129261156Y-99993000D01*
X129261158Y-99993000D01*
X129418844Y-99993000D01*
X129418845Y-99992999D01*
X129573497Y-99962237D01*
X129719179Y-99901894D01*
X129850289Y-99814289D01*
X129961789Y-99702789D01*
X130049394Y-99571679D01*
X130109737Y-99425997D01*
X130140500Y-99271342D01*
X130140500Y-99113658D01*
X130140500Y-99113655D01*
X130140499Y-99113653D01*
X130109738Y-98959010D01*
X130109737Y-98959003D01*
X130099794Y-98934999D01*
X130049397Y-98813327D01*
X130049390Y-98813314D01*
X129961789Y-98682211D01*
X129961786Y-98682207D01*
X129850292Y-98570713D01*
X129850288Y-98570710D01*
X129719185Y-98483109D01*
X129719172Y-98483102D01*
X129573501Y-98422764D01*
X129573489Y-98422761D01*
X129418845Y-98392000D01*
X129418842Y-98392000D01*
X129261158Y-98392000D01*
X129261155Y-98392000D01*
X129106510Y-98422761D01*
X129106498Y-98422764D01*
X128960827Y-98483102D01*
X128960814Y-98483109D01*
X128829711Y-98570710D01*
X128829707Y-98570713D01*
X128718213Y-98682207D01*
X128718210Y-98682211D01*
X128630609Y-98813314D01*
X128630602Y-98813327D01*
X128570264Y-98958998D01*
X128570261Y-98959010D01*
X128539500Y-99113653D01*
X105701196Y-99113653D01*
X105651789Y-99039711D01*
X105651786Y-99039707D01*
X105613925Y-99001847D01*
X105580439Y-98940525D01*
X105585423Y-98870833D01*
X105598499Y-98845280D01*
X105669394Y-98739179D01*
X105729737Y-98593497D01*
X105760500Y-98438842D01*
X105760500Y-98281158D01*
X105760500Y-98281155D01*
X105760499Y-98281153D01*
X105760217Y-98279735D01*
X105729737Y-98126503D01*
X105694244Y-98040814D01*
X105669397Y-97980827D01*
X105669390Y-97980814D01*
X105581789Y-97849711D01*
X105581786Y-97849707D01*
X105470290Y-97738211D01*
X105339999Y-97651153D01*
X114579500Y-97651153D01*
X114579500Y-97808846D01*
X114610261Y-97963489D01*
X114610264Y-97963501D01*
X114670602Y-98109172D01*
X114670609Y-98109185D01*
X114758210Y-98240288D01*
X114758213Y-98240292D01*
X114869707Y-98351786D01*
X114869711Y-98351789D01*
X115000814Y-98439390D01*
X115000827Y-98439397D01*
X115106359Y-98483109D01*
X115146503Y-98499737D01*
X115301153Y-98530499D01*
X115301156Y-98530500D01*
X115301158Y-98530500D01*
X115458844Y-98530500D01*
X115458845Y-98530499D01*
X115613497Y-98499737D01*
X115759179Y-98439394D01*
X115890289Y-98351789D01*
X116001789Y-98240289D01*
X116089394Y-98109179D01*
X116149737Y-97963497D01*
X116180500Y-97808842D01*
X116180500Y-97651158D01*
X116180500Y-97651155D01*
X116161279Y-97554529D01*
X116167506Y-97484937D01*
X116210368Y-97429760D01*
X116276258Y-97406515D01*
X116344255Y-97422582D01*
X116370577Y-97442656D01*
X116379707Y-97451786D01*
X116379711Y-97451789D01*
X116510814Y-97539390D01*
X116510827Y-97539397D01*
X116633633Y-97590264D01*
X116656503Y-97599737D01*
X116755858Y-97619500D01*
X116811153Y-97630499D01*
X116811156Y-97630500D01*
X116811158Y-97630500D01*
X116968844Y-97630500D01*
X116968845Y-97630499D01*
X117123497Y-97599737D01*
X117269179Y-97539394D01*
X117400289Y-97451789D01*
X117511789Y-97340289D01*
X117599394Y-97209179D01*
X117659737Y-97063497D01*
X117690500Y-96908842D01*
X117690500Y-96751158D01*
X117690500Y-96751155D01*
X117690499Y-96751153D01*
X117682371Y-96710292D01*
X117659737Y-96596503D01*
X117652558Y-96579172D01*
X117599397Y-96450827D01*
X117599390Y-96450814D01*
X117511789Y-96319711D01*
X117511786Y-96319707D01*
X117400292Y-96208213D01*
X117400288Y-96208210D01*
X117314897Y-96151153D01*
X119159500Y-96151153D01*
X119159500Y-96308846D01*
X119190261Y-96463489D01*
X119190264Y-96463501D01*
X119250602Y-96609172D01*
X119250609Y-96609185D01*
X119338210Y-96740288D01*
X119338213Y-96740292D01*
X119449707Y-96851786D01*
X119449711Y-96851789D01*
X119580814Y-96939390D01*
X119580827Y-96939397D01*
X119719004Y-96996631D01*
X119726503Y-96999737D01*
X119844464Y-97023201D01*
X119881153Y-97030499D01*
X119881156Y-97030500D01*
X119881158Y-97030500D01*
X120038844Y-97030500D01*
X120038845Y-97030499D01*
X120193497Y-96999737D01*
X120235475Y-96982348D01*
X120304943Y-96974879D01*
X120330376Y-96982346D01*
X120396503Y-97009737D01*
X120525403Y-97035377D01*
X120551153Y-97040499D01*
X120551156Y-97040500D01*
X120551158Y-97040500D01*
X120708844Y-97040500D01*
X120708845Y-97040499D01*
X120863497Y-97009737D01*
X120888463Y-96999395D01*
X120901381Y-96998006D01*
X120912956Y-96992101D01*
X120935450Y-96994343D01*
X120957929Y-96991927D01*
X120969549Y-96997743D01*
X120982481Y-96999033D01*
X121000192Y-97013081D01*
X121020409Y-97023201D01*
X121028301Y-97035377D01*
X121037221Y-97042453D01*
X121045722Y-97062257D01*
X121053263Y-97073891D01*
X121055924Y-97081686D01*
X121060263Y-97103497D01*
X121077952Y-97146204D01*
X121079226Y-97149934D01*
X121080577Y-97181044D01*
X121083907Y-97212018D01*
X121082178Y-97217904D01*
X121082258Y-97219738D01*
X121081013Y-97221873D01*
X121076440Y-97237447D01*
X121060265Y-97276498D01*
X121060262Y-97276506D01*
X121060260Y-97276511D01*
X121029500Y-97431153D01*
X121029500Y-97588846D01*
X121060261Y-97743489D01*
X121060264Y-97743501D01*
X121120602Y-97889172D01*
X121120609Y-97889185D01*
X121208210Y-98020288D01*
X121208213Y-98020292D01*
X121319707Y-98131786D01*
X121319711Y-98131789D01*
X121450814Y-98219390D01*
X121450827Y-98219397D01*
X121558771Y-98264108D01*
X121596503Y-98279737D01*
X121751153Y-98310499D01*
X121751156Y-98310500D01*
X121751158Y-98310500D01*
X121908844Y-98310500D01*
X121908845Y-98310499D01*
X122063497Y-98279737D01*
X122209179Y-98219394D01*
X122340289Y-98131789D01*
X122451789Y-98020289D01*
X122539394Y-97889179D01*
X122599737Y-97743497D01*
X122630500Y-97588842D01*
X122630500Y-97431158D01*
X122630500Y-97431155D01*
X122630499Y-97431153D01*
X122614518Y-97350814D01*
X122599737Y-97276503D01*
X122583561Y-97237453D01*
X122580681Y-97210667D01*
X122574244Y-97184503D01*
X122576685Y-97173507D01*
X122576092Y-97167985D01*
X122580811Y-97149825D01*
X122582070Y-97146147D01*
X122599737Y-97103497D01*
X122603977Y-97082177D01*
X122606667Y-97074325D01*
X122622242Y-97052300D01*
X122634747Y-97028397D01*
X122642114Y-97024201D01*
X122647010Y-97017279D01*
X122672023Y-97007170D01*
X122695463Y-96993823D01*
X122708936Y-96992252D01*
X122711789Y-96991100D01*
X122714471Y-96991607D01*
X122723978Y-96990500D01*
X122778844Y-96990500D01*
X122778845Y-96990499D01*
X122933497Y-96959737D01*
X122975475Y-96942348D01*
X123044943Y-96934879D01*
X123070376Y-96942346D01*
X123136503Y-96969737D01*
X123277298Y-96997743D01*
X123291153Y-97000499D01*
X123291156Y-97000500D01*
X123291158Y-97000500D01*
X123448844Y-97000500D01*
X123448845Y-97000499D01*
X123603497Y-96969737D01*
X123749179Y-96909394D01*
X123880289Y-96821789D01*
X123991789Y-96710289D01*
X124079394Y-96579179D01*
X124139737Y-96433497D01*
X124170500Y-96278842D01*
X124170500Y-96121158D01*
X124170500Y-96121155D01*
X124170499Y-96121153D01*
X124152268Y-96029500D01*
X124139737Y-95966503D01*
X124139735Y-95966498D01*
X124079397Y-95820827D01*
X124079390Y-95820814D01*
X123991789Y-95689711D01*
X123991786Y-95689707D01*
X123880289Y-95578210D01*
X123865259Y-95568168D01*
X123749185Y-95490609D01*
X123749172Y-95490602D01*
X123702217Y-95471153D01*
X129699500Y-95471153D01*
X129699500Y-95628846D01*
X129730261Y-95783489D01*
X129730264Y-95783501D01*
X129790602Y-95929172D01*
X129790609Y-95929185D01*
X129878210Y-96060288D01*
X129878213Y-96060292D01*
X129989707Y-96171786D01*
X129989711Y-96171789D01*
X130120814Y-96259390D01*
X130120827Y-96259397D01*
X130266440Y-96319711D01*
X130266503Y-96319737D01*
X130421153Y-96350499D01*
X130421156Y-96350500D01*
X130421158Y-96350500D01*
X130578844Y-96350500D01*
X130578845Y-96350499D01*
X130733497Y-96319737D01*
X130879179Y-96259394D01*
X131010289Y-96171789D01*
X131121789Y-96060289D01*
X131209394Y-95929179D01*
X131269737Y-95783497D01*
X131300500Y-95628842D01*
X131300500Y-95471158D01*
X131300500Y-95471155D01*
X131300499Y-95471153D01*
X131294355Y-95440264D01*
X131269737Y-95316503D01*
X131269735Y-95316498D01*
X131209397Y-95170827D01*
X131209390Y-95170814D01*
X131121789Y-95039711D01*
X131121786Y-95039707D01*
X131010292Y-94928213D01*
X131010288Y-94928210D01*
X130879185Y-94840609D01*
X130879172Y-94840602D01*
X130733501Y-94780264D01*
X130733489Y-94780261D01*
X130578845Y-94749500D01*
X130578842Y-94749500D01*
X130421158Y-94749500D01*
X130421155Y-94749500D01*
X130266510Y-94780261D01*
X130266498Y-94780264D01*
X130120827Y-94840602D01*
X130120814Y-94840609D01*
X129989711Y-94928210D01*
X129989707Y-94928213D01*
X129878213Y-95039707D01*
X129878210Y-95039711D01*
X129790609Y-95170814D01*
X129790602Y-95170827D01*
X129730264Y-95316498D01*
X129730261Y-95316510D01*
X129699500Y-95471153D01*
X123702217Y-95471153D01*
X123603501Y-95430264D01*
X123603489Y-95430261D01*
X123448845Y-95399500D01*
X123448842Y-95399500D01*
X123291158Y-95399500D01*
X123291155Y-95399500D01*
X123136505Y-95430261D01*
X123136497Y-95430264D01*
X123094520Y-95447651D01*
X123025051Y-95455118D01*
X122999619Y-95447651D01*
X122990106Y-95443711D01*
X122933497Y-95420263D01*
X122933493Y-95420262D01*
X122933488Y-95420260D01*
X122778845Y-95389500D01*
X122778842Y-95389500D01*
X122621158Y-95389500D01*
X122621155Y-95389500D01*
X122466510Y-95420261D01*
X122466498Y-95420264D01*
X122363309Y-95463006D01*
X122293839Y-95470475D01*
X122268406Y-95463007D01*
X122261784Y-95460264D01*
X122213497Y-95440263D01*
X122213493Y-95440262D01*
X122213488Y-95440260D01*
X122058845Y-95409500D01*
X122058842Y-95409500D01*
X121901158Y-95409500D01*
X121901155Y-95409500D01*
X121746505Y-95440261D01*
X121746497Y-95440264D01*
X121653308Y-95478864D01*
X121583839Y-95486333D01*
X121558406Y-95478864D01*
X121539788Y-95471153D01*
X121513498Y-95460263D01*
X121513488Y-95460260D01*
X121358845Y-95429500D01*
X121358842Y-95429500D01*
X121201158Y-95429500D01*
X121201155Y-95429500D01*
X121046505Y-95460261D01*
X121046497Y-95460264D01*
X120990377Y-95483509D01*
X120920908Y-95490976D01*
X120895477Y-95483509D01*
X120863497Y-95470263D01*
X120863488Y-95470260D01*
X120708845Y-95439500D01*
X120708842Y-95439500D01*
X120551158Y-95439500D01*
X120551155Y-95439500D01*
X120396505Y-95470261D01*
X120396497Y-95470264D01*
X120354520Y-95487651D01*
X120285051Y-95495118D01*
X120259619Y-95487651D01*
X120242610Y-95480606D01*
X120193497Y-95460263D01*
X120193493Y-95460262D01*
X120193488Y-95460260D01*
X120038845Y-95429500D01*
X120038842Y-95429500D01*
X119881158Y-95429500D01*
X119881155Y-95429500D01*
X119726510Y-95460261D01*
X119726498Y-95460264D01*
X119580827Y-95520602D01*
X119580814Y-95520609D01*
X119449711Y-95608210D01*
X119449707Y-95608213D01*
X119338213Y-95719707D01*
X119338210Y-95719711D01*
X119250609Y-95850814D01*
X119250602Y-95850827D01*
X119190264Y-95996498D01*
X119190261Y-95996510D01*
X119159500Y-96151153D01*
X117314897Y-96151153D01*
X117269185Y-96120609D01*
X117269172Y-96120602D01*
X117123501Y-96060264D01*
X117123489Y-96060261D01*
X116968845Y-96029500D01*
X116968842Y-96029500D01*
X116811158Y-96029500D01*
X116811155Y-96029500D01*
X116656510Y-96060261D01*
X116656498Y-96060264D01*
X116510827Y-96120602D01*
X116510814Y-96120609D01*
X116379711Y-96208210D01*
X116379707Y-96208213D01*
X116268213Y-96319707D01*
X116268210Y-96319711D01*
X116180609Y-96450814D01*
X116180602Y-96450827D01*
X116120264Y-96596498D01*
X116120261Y-96596510D01*
X116089500Y-96751153D01*
X116089500Y-96908846D01*
X116108720Y-97005471D01*
X116102493Y-97075062D01*
X116059630Y-97130240D01*
X115993740Y-97153484D01*
X115925743Y-97137416D01*
X115899422Y-97117343D01*
X115890292Y-97108213D01*
X115890288Y-97108210D01*
X115759185Y-97020609D01*
X115759172Y-97020602D01*
X115613501Y-96960264D01*
X115613489Y-96960261D01*
X115458845Y-96929500D01*
X115458842Y-96929500D01*
X115301158Y-96929500D01*
X115301155Y-96929500D01*
X115146510Y-96960261D01*
X115146498Y-96960264D01*
X115000827Y-97020602D01*
X115000814Y-97020609D01*
X114869711Y-97108210D01*
X114869707Y-97108213D01*
X114758213Y-97219707D01*
X114758210Y-97219711D01*
X114670609Y-97350814D01*
X114670602Y-97350827D01*
X114610264Y-97496498D01*
X114610261Y-97496510D01*
X114579500Y-97651153D01*
X105339999Y-97651153D01*
X105339185Y-97650609D01*
X105339172Y-97650602D01*
X105193501Y-97590264D01*
X105193489Y-97590261D01*
X105038845Y-97559500D01*
X105038842Y-97559500D01*
X104881158Y-97559500D01*
X104881155Y-97559500D01*
X104726510Y-97590261D01*
X104726498Y-97590264D01*
X104580827Y-97650602D01*
X104580816Y-97650608D01*
X104493991Y-97708623D01*
X104427314Y-97729500D01*
X104365102Y-97712433D01*
X104364546Y-97713475D01*
X104359954Y-97711020D01*
X104359934Y-97711015D01*
X104359883Y-97710982D01*
X104359174Y-97710603D01*
X104213501Y-97650264D01*
X104213489Y-97650261D01*
X104058845Y-97619500D01*
X104058842Y-97619500D01*
X103901158Y-97619500D01*
X103901155Y-97619500D01*
X103746510Y-97650261D01*
X103746498Y-97650264D01*
X103600827Y-97710602D01*
X103600814Y-97710609D01*
X103469711Y-97798210D01*
X103469707Y-97798213D01*
X103358213Y-97909707D01*
X103358210Y-97909711D01*
X103270609Y-98040814D01*
X103270602Y-98040827D01*
X103210264Y-98186498D01*
X103210261Y-98186510D01*
X103179500Y-98341153D01*
X103179500Y-98498846D01*
X103210261Y-98653489D01*
X103210264Y-98653501D01*
X103270602Y-98799172D01*
X103270609Y-98799185D01*
X103358210Y-98930288D01*
X103362076Y-98934999D01*
X103361136Y-98935769D01*
X103391549Y-98991466D01*
X103386565Y-99061158D01*
X103373485Y-99086715D01*
X103310609Y-99180814D01*
X103310602Y-99180827D01*
X103250264Y-99326498D01*
X103250261Y-99326510D01*
X103219500Y-99481153D01*
X103219500Y-99638846D01*
X103250261Y-99793489D01*
X103250264Y-99793501D01*
X103310602Y-99939172D01*
X103310609Y-99939185D01*
X103398210Y-100070288D01*
X103398213Y-100070292D01*
X103509707Y-100181786D01*
X103509711Y-100181789D01*
X103640814Y-100269390D01*
X103640827Y-100269397D01*
X103762363Y-100319738D01*
X103786503Y-100329737D01*
X103941153Y-100360499D01*
X103941156Y-100360500D01*
X103941158Y-100360500D01*
X104098844Y-100360500D01*
X104098845Y-100360499D01*
X104253497Y-100329737D01*
X104399179Y-100269394D01*
X104463593Y-100226353D01*
X104530266Y-100205476D01*
X104597647Y-100223959D01*
X104601373Y-100226354D01*
X104650815Y-100259390D01*
X104650821Y-100259394D01*
X104650823Y-100259395D01*
X104650827Y-100259397D01*
X104782981Y-100314136D01*
X104796503Y-100319737D01*
X104951153Y-100350499D01*
X104951156Y-100350500D01*
X104951158Y-100350500D01*
X105108844Y-100350500D01*
X105108845Y-100350499D01*
X105263497Y-100319737D01*
X105277019Y-100314135D01*
X105346487Y-100306666D01*
X105408967Y-100337940D01*
X105439034Y-100381242D01*
X105450606Y-100409179D01*
X105450609Y-100409185D01*
X105538210Y-100540288D01*
X105538213Y-100540292D01*
X105615740Y-100617819D01*
X105649225Y-100679142D01*
X105644241Y-100748834D01*
X105602369Y-100804767D01*
X105536905Y-100829184D01*
X105528059Y-100829500D01*
X97523751Y-100829500D01*
X97516264Y-100829274D01*
X97226205Y-100811728D01*
X97211340Y-100809923D01*
X96929201Y-100758219D01*
X96914663Y-100754635D01*
X96640832Y-100669306D01*
X96626831Y-100663997D01*
X96365263Y-100546275D01*
X96352004Y-100539316D01*
X96169815Y-100429179D01*
X96106537Y-100390926D01*
X96094217Y-100382422D01*
X96066234Y-100360499D01*
X95868426Y-100205526D01*
X95857218Y-100195596D01*
X95654403Y-99992781D01*
X95644473Y-99981573D01*
X95636311Y-99971155D01*
X95467573Y-99755776D01*
X95459075Y-99743465D01*
X95310680Y-99497989D01*
X95303727Y-99484743D01*
X95186000Y-99223163D01*
X95180693Y-99209167D01*
X95150930Y-99113655D01*
X95095363Y-98935335D01*
X95091780Y-98920798D01*
X95048057Y-98682211D01*
X95040075Y-98638657D01*
X95038271Y-98623794D01*
X95036438Y-98593497D01*
X95020726Y-98333736D01*
X95020500Y-98326249D01*
X95020500Y-93641153D01*
X121389500Y-93641153D01*
X121389500Y-93798846D01*
X121420261Y-93953489D01*
X121420264Y-93953501D01*
X121480602Y-94099172D01*
X121480609Y-94099185D01*
X121568210Y-94230288D01*
X121568213Y-94230292D01*
X121679707Y-94341786D01*
X121679711Y-94341789D01*
X121810814Y-94429390D01*
X121810827Y-94429397D01*
X121956498Y-94489735D01*
X121956503Y-94489737D01*
X122111153Y-94520499D01*
X122111156Y-94520500D01*
X122111158Y-94520500D01*
X122268844Y-94520500D01*
X122268845Y-94520499D01*
X122423497Y-94489737D01*
X122569179Y-94429394D01*
X122700289Y-94341789D01*
X122811789Y-94230289D01*
X122899394Y-94099179D01*
X122959737Y-93953497D01*
X122990500Y-93798842D01*
X122990500Y-93641158D01*
X122990500Y-93641155D01*
X122990499Y-93641153D01*
X122973199Y-93554181D01*
X122959737Y-93486503D01*
X122956935Y-93479738D01*
X122899397Y-93340827D01*
X122899390Y-93340814D01*
X122811789Y-93209711D01*
X122811786Y-93209707D01*
X122700292Y-93098213D01*
X122700288Y-93098210D01*
X122697210Y-93096153D01*
X136649500Y-93096153D01*
X136649500Y-93253846D01*
X136680261Y-93408489D01*
X136680264Y-93408501D01*
X136740602Y-93554172D01*
X136740609Y-93554185D01*
X136828210Y-93685288D01*
X136828213Y-93685292D01*
X136939707Y-93796786D01*
X136939711Y-93796789D01*
X137070814Y-93884390D01*
X137070827Y-93884397D01*
X137216498Y-93944735D01*
X137216503Y-93944737D01*
X137371153Y-93975499D01*
X137371156Y-93975500D01*
X137371158Y-93975500D01*
X137528844Y-93975500D01*
X137528845Y-93975499D01*
X137683497Y-93944737D01*
X137829179Y-93884394D01*
X137960289Y-93796789D01*
X138071789Y-93685289D01*
X138159394Y-93554179D01*
X138199803Y-93456620D01*
X138243642Y-93402221D01*
X138309936Y-93380155D01*
X138377635Y-93397434D01*
X138383239Y-93400964D01*
X138410821Y-93419394D01*
X138410823Y-93419394D01*
X138410827Y-93419397D01*
X138556498Y-93479735D01*
X138556503Y-93479737D01*
X138711153Y-93510499D01*
X138711156Y-93510500D01*
X138711158Y-93510500D01*
X138868844Y-93510500D01*
X138868845Y-93510499D01*
X139023497Y-93479737D01*
X139169179Y-93419394D01*
X139300289Y-93331789D01*
X139411789Y-93220289D01*
X139499394Y-93089179D01*
X139559737Y-92943497D01*
X139590500Y-92788842D01*
X139590500Y-92631158D01*
X139590500Y-92631155D01*
X139590499Y-92631153D01*
X139582414Y-92590507D01*
X139559737Y-92476503D01*
X139556935Y-92469738D01*
X139499397Y-92330827D01*
X139499390Y-92330814D01*
X139411789Y-92199711D01*
X139411786Y-92199707D01*
X139300292Y-92088213D01*
X139300288Y-92088210D01*
X139193226Y-92016672D01*
X139193218Y-92016668D01*
X139169179Y-92000606D01*
X139023497Y-91940263D01*
X139023489Y-91940261D01*
X138868845Y-91909500D01*
X138868842Y-91909500D01*
X138711158Y-91909500D01*
X138711155Y-91909500D01*
X138556510Y-91940261D01*
X138556498Y-91940264D01*
X138410827Y-92000602D01*
X138410814Y-92000609D01*
X138279711Y-92088210D01*
X138279707Y-92088213D01*
X138168213Y-92199707D01*
X138168210Y-92199711D01*
X138080609Y-92330814D01*
X138080604Y-92330824D01*
X138040197Y-92428375D01*
X137996355Y-92482779D01*
X137930061Y-92504843D01*
X137862362Y-92487563D01*
X137856746Y-92484025D01*
X137829183Y-92465608D01*
X137829172Y-92465602D01*
X137683501Y-92405264D01*
X137683489Y-92405261D01*
X137528845Y-92374500D01*
X137528842Y-92374500D01*
X137371158Y-92374500D01*
X137371155Y-92374500D01*
X137216510Y-92405261D01*
X137216498Y-92405264D01*
X137070827Y-92465602D01*
X137070814Y-92465609D01*
X136939711Y-92553210D01*
X136939707Y-92553213D01*
X136828213Y-92664707D01*
X136828210Y-92664711D01*
X136740609Y-92795814D01*
X136740602Y-92795827D01*
X136680264Y-92941498D01*
X136680261Y-92941510D01*
X136649500Y-93096153D01*
X122697210Y-93096153D01*
X122569185Y-93010609D01*
X122569172Y-93010602D01*
X122423501Y-92950264D01*
X122423489Y-92950261D01*
X122268845Y-92919500D01*
X122268842Y-92919500D01*
X122111158Y-92919500D01*
X122111155Y-92919500D01*
X121956510Y-92950261D01*
X121956498Y-92950264D01*
X121810827Y-93010602D01*
X121810814Y-93010609D01*
X121679711Y-93098210D01*
X121679707Y-93098213D01*
X121568213Y-93209707D01*
X121568210Y-93209711D01*
X121480609Y-93340814D01*
X121480602Y-93340827D01*
X121420264Y-93486498D01*
X121420261Y-93486510D01*
X121389500Y-93641153D01*
X95020500Y-93641153D01*
X95020500Y-90052135D01*
X95799500Y-90052135D01*
X95799500Y-91847870D01*
X95799501Y-91847876D01*
X95805908Y-91907483D01*
X95856202Y-92042328D01*
X95856206Y-92042335D01*
X95942452Y-92157544D01*
X95942455Y-92157547D01*
X96057664Y-92243793D01*
X96057671Y-92243797D01*
X96192517Y-92294091D01*
X96192516Y-92294091D01*
X96199444Y-92294835D01*
X96252127Y-92300500D01*
X98047872Y-92300499D01*
X98107483Y-92294091D01*
X98242331Y-92243796D01*
X98357546Y-92157546D01*
X98443796Y-92042331D01*
X98494091Y-91907483D01*
X98500500Y-91847873D01*
X98500499Y-90831153D01*
X116089500Y-90831153D01*
X116089500Y-90988846D01*
X116120261Y-91143489D01*
X116120264Y-91143501D01*
X116180602Y-91289172D01*
X116180609Y-91289185D01*
X116268210Y-91420288D01*
X116268213Y-91420292D01*
X116379707Y-91531786D01*
X116379711Y-91531789D01*
X116510814Y-91619390D01*
X116510827Y-91619397D01*
X116631028Y-91669185D01*
X116656503Y-91679737D01*
X116811153Y-91710499D01*
X116811156Y-91710500D01*
X116811158Y-91710500D01*
X116968844Y-91710500D01*
X116968845Y-91710499D01*
X117123497Y-91679737D01*
X117236166Y-91633067D01*
X117269172Y-91619397D01*
X117269172Y-91619396D01*
X117269179Y-91619394D01*
X117400289Y-91531789D01*
X117511789Y-91420289D01*
X117599394Y-91289179D01*
X117631711Y-91211158D01*
X117631713Y-91211153D01*
X120899500Y-91211153D01*
X120899500Y-91368846D01*
X120930261Y-91523489D01*
X120930264Y-91523501D01*
X120990602Y-91669172D01*
X120990609Y-91669185D01*
X121078210Y-91800288D01*
X121078213Y-91800292D01*
X121189707Y-91911786D01*
X121189711Y-91911789D01*
X121320814Y-91999390D01*
X121320827Y-91999397D01*
X121466498Y-92059735D01*
X121466503Y-92059737D01*
X121609661Y-92088213D01*
X121621153Y-92090499D01*
X121621156Y-92090500D01*
X121621158Y-92090500D01*
X121778844Y-92090500D01*
X121778845Y-92090499D01*
X121933497Y-92059737D01*
X122079179Y-91999394D01*
X122210289Y-91911789D01*
X122321789Y-91800289D01*
X122409394Y-91669179D01*
X122469737Y-91523497D01*
X122500500Y-91368842D01*
X122500500Y-91211158D01*
X122500500Y-91211155D01*
X122500499Y-91211153D01*
X122487040Y-91143489D01*
X122469737Y-91056503D01*
X122441711Y-90988842D01*
X122409397Y-90910827D01*
X122409390Y-90910814D01*
X122321789Y-90779711D01*
X122321786Y-90779707D01*
X122210292Y-90668213D01*
X122210288Y-90668210D01*
X122079185Y-90580609D01*
X122079172Y-90580602D01*
X121933501Y-90520264D01*
X121933489Y-90520261D01*
X121778845Y-90489500D01*
X121778842Y-90489500D01*
X121621158Y-90489500D01*
X121621155Y-90489500D01*
X121466510Y-90520261D01*
X121466498Y-90520264D01*
X121320827Y-90580602D01*
X121320814Y-90580609D01*
X121189711Y-90668210D01*
X121189707Y-90668213D01*
X121078213Y-90779707D01*
X121078210Y-90779711D01*
X120990609Y-90910814D01*
X120990602Y-90910827D01*
X120930264Y-91056498D01*
X120930261Y-91056510D01*
X120899500Y-91211153D01*
X117631713Y-91211153D01*
X117653887Y-91157621D01*
X117653887Y-91157618D01*
X117659737Y-91143497D01*
X117690500Y-90988842D01*
X117690500Y-90831158D01*
X117690500Y-90831155D01*
X117690499Y-90831153D01*
X117681020Y-90783501D01*
X117659737Y-90676503D01*
X117639996Y-90628844D01*
X117599397Y-90530827D01*
X117599390Y-90530814D01*
X117511789Y-90399711D01*
X117511786Y-90399707D01*
X117400292Y-90288213D01*
X117400288Y-90288210D01*
X117269185Y-90200609D01*
X117269172Y-90200602D01*
X117123501Y-90140264D01*
X117123489Y-90140261D01*
X116968845Y-90109500D01*
X116968842Y-90109500D01*
X116811158Y-90109500D01*
X116811155Y-90109500D01*
X116656510Y-90140261D01*
X116656498Y-90140264D01*
X116510827Y-90200602D01*
X116510814Y-90200609D01*
X116379711Y-90288210D01*
X116379707Y-90288213D01*
X116268213Y-90399707D01*
X116268210Y-90399711D01*
X116180609Y-90530814D01*
X116180602Y-90530827D01*
X116120264Y-90676498D01*
X116120261Y-90676510D01*
X116089500Y-90831153D01*
X98500499Y-90831153D01*
X98500499Y-90052128D01*
X98494091Y-89992517D01*
X98475809Y-89943501D01*
X98443797Y-89857671D01*
X98443793Y-89857664D01*
X98357547Y-89742455D01*
X98333338Y-89724332D01*
X98333336Y-89724330D01*
X98242335Y-89656206D01*
X98242328Y-89656202D01*
X98175168Y-89631153D01*
X126969500Y-89631153D01*
X126969500Y-89788846D01*
X127000261Y-89943489D01*
X127000264Y-89943501D01*
X127060602Y-90089172D01*
X127060609Y-90089185D01*
X127148210Y-90220288D01*
X127148213Y-90220292D01*
X127259707Y-90331786D01*
X127259711Y-90331789D01*
X127390814Y-90419390D01*
X127390827Y-90419397D01*
X127515779Y-90471153D01*
X127536503Y-90479737D01*
X127691153Y-90510499D01*
X127691156Y-90510500D01*
X127691158Y-90510500D01*
X127848844Y-90510500D01*
X127848845Y-90510499D01*
X128003497Y-90479737D01*
X128024221Y-90471153D01*
X131249500Y-90471153D01*
X131249500Y-90628846D01*
X131280261Y-90783489D01*
X131280264Y-90783501D01*
X131340602Y-90929172D01*
X131340609Y-90929185D01*
X131428210Y-91060288D01*
X131428213Y-91060292D01*
X131539707Y-91171786D01*
X131539711Y-91171789D01*
X131582470Y-91200360D01*
X131627275Y-91253972D01*
X131635982Y-91323297D01*
X131628141Y-91350914D01*
X131580261Y-91466507D01*
X131580261Y-91466510D01*
X131549500Y-91621153D01*
X131549500Y-91778846D01*
X131580261Y-91933489D01*
X131580264Y-91933501D01*
X131640602Y-92079172D01*
X131640609Y-92079185D01*
X131728210Y-92210288D01*
X131728213Y-92210292D01*
X131839707Y-92321786D01*
X131839711Y-92321789D01*
X131970814Y-92409390D01*
X131970827Y-92409397D01*
X132106537Y-92465609D01*
X132116503Y-92469737D01*
X132271153Y-92500499D01*
X132271156Y-92500500D01*
X132271158Y-92500500D01*
X132428844Y-92500500D01*
X132428845Y-92500499D01*
X132583497Y-92469737D01*
X132729179Y-92409394D01*
X132860289Y-92321789D01*
X132971789Y-92210289D01*
X133059394Y-92079179D01*
X133119737Y-91933497D01*
X133150500Y-91778842D01*
X133150500Y-91621158D01*
X133150500Y-91621155D01*
X133150499Y-91621153D01*
X133150148Y-91619390D01*
X133119737Y-91466503D01*
X133100594Y-91420288D01*
X133059397Y-91320827D01*
X133059390Y-91320814D01*
X132971789Y-91189711D01*
X132971786Y-91189707D01*
X132860292Y-91078213D01*
X132860288Y-91078210D01*
X132817529Y-91049639D01*
X132772724Y-90996026D01*
X132767088Y-90951153D01*
X138749500Y-90951153D01*
X138749500Y-91108846D01*
X138780261Y-91263489D01*
X138780264Y-91263501D01*
X138840602Y-91409172D01*
X138840609Y-91409185D01*
X138928210Y-91540288D01*
X138928213Y-91540292D01*
X139039707Y-91651786D01*
X139039711Y-91651789D01*
X139146772Y-91723326D01*
X139146776Y-91723328D01*
X139170821Y-91739394D01*
X139316503Y-91799737D01*
X139471153Y-91830499D01*
X139471156Y-91830500D01*
X139471158Y-91830500D01*
X139628844Y-91830500D01*
X139628845Y-91830499D01*
X139783497Y-91799737D01*
X139929179Y-91739394D01*
X140060289Y-91651789D01*
X140171789Y-91540289D01*
X140259394Y-91409179D01*
X140319737Y-91263497D01*
X140350500Y-91108842D01*
X140350500Y-90951158D01*
X140350500Y-90951155D01*
X140350499Y-90951153D01*
X140326630Y-90831158D01*
X140319737Y-90796503D01*
X140319735Y-90796498D01*
X140259397Y-90650827D01*
X140259390Y-90650814D01*
X140171789Y-90519711D01*
X140171786Y-90519707D01*
X140060292Y-90408213D01*
X140060288Y-90408210D01*
X139929185Y-90320609D01*
X139929172Y-90320602D01*
X139783501Y-90260264D01*
X139783489Y-90260261D01*
X139628845Y-90229500D01*
X139628842Y-90229500D01*
X139471158Y-90229500D01*
X139471155Y-90229500D01*
X139316510Y-90260261D01*
X139316498Y-90260264D01*
X139170827Y-90320602D01*
X139170814Y-90320609D01*
X139039711Y-90408210D01*
X139039707Y-90408213D01*
X138928213Y-90519707D01*
X138928210Y-90519711D01*
X138840609Y-90650814D01*
X138840602Y-90650827D01*
X138780264Y-90796498D01*
X138780261Y-90796510D01*
X138749500Y-90951153D01*
X132767088Y-90951153D01*
X132764017Y-90926701D01*
X132771857Y-90899089D01*
X132819737Y-90783497D01*
X132850500Y-90628842D01*
X132850500Y-90471158D01*
X132850500Y-90471155D01*
X132850499Y-90471153D01*
X132828780Y-90361964D01*
X132819737Y-90316503D01*
X132796441Y-90260261D01*
X132759397Y-90170827D01*
X132759390Y-90170814D01*
X132671789Y-90039711D01*
X132671786Y-90039707D01*
X132560292Y-89928213D01*
X132560288Y-89928210D01*
X132429185Y-89840609D01*
X132429179Y-89840606D01*
X132379319Y-89819953D01*
X132324916Y-89776111D01*
X132302852Y-89709817D01*
X132320132Y-89642118D01*
X132371269Y-89594508D01*
X132379289Y-89590844D01*
X132496121Y-89542452D01*
X132627231Y-89454847D01*
X132738731Y-89343347D01*
X132826336Y-89212237D01*
X132886679Y-89066555D01*
X132917442Y-88911900D01*
X132917442Y-88754216D01*
X132917442Y-88754213D01*
X132917441Y-88754211D01*
X132912505Y-88729397D01*
X132886679Y-88599561D01*
X132882609Y-88589735D01*
X132826339Y-88453885D01*
X132826332Y-88453872D01*
X132738731Y-88322769D01*
X132738728Y-88322765D01*
X132627234Y-88211271D01*
X132627230Y-88211268D01*
X132496127Y-88123667D01*
X132496114Y-88123660D01*
X132350443Y-88063322D01*
X132350431Y-88063319D01*
X132195787Y-88032558D01*
X132195784Y-88032558D01*
X132038100Y-88032558D01*
X132038097Y-88032558D01*
X131883452Y-88063319D01*
X131883440Y-88063322D01*
X131737769Y-88123660D01*
X131737756Y-88123667D01*
X131606653Y-88211268D01*
X131606649Y-88211271D01*
X131495155Y-88322765D01*
X131495152Y-88322769D01*
X131407551Y-88453872D01*
X131407544Y-88453885D01*
X131347206Y-88599556D01*
X131347203Y-88599568D01*
X131316442Y-88754211D01*
X131316442Y-88911904D01*
X131347203Y-89066547D01*
X131347206Y-89066559D01*
X131407544Y-89212230D01*
X131407551Y-89212243D01*
X131495152Y-89343346D01*
X131495155Y-89343350D01*
X131606649Y-89454844D01*
X131606653Y-89454847D01*
X131737756Y-89542448D01*
X131737765Y-89542453D01*
X131787621Y-89563104D01*
X131842024Y-89606945D01*
X131864089Y-89673239D01*
X131846810Y-89740938D01*
X131795673Y-89788549D01*
X131787620Y-89792226D01*
X131670827Y-89840602D01*
X131670814Y-89840609D01*
X131539711Y-89928210D01*
X131539707Y-89928213D01*
X131428213Y-90039707D01*
X131428210Y-90039711D01*
X131340609Y-90170814D01*
X131340602Y-90170827D01*
X131280264Y-90316498D01*
X131280261Y-90316510D01*
X131249500Y-90471153D01*
X128024221Y-90471153D01*
X128149179Y-90419394D01*
X128178643Y-90399707D01*
X128235130Y-90361964D01*
X128258020Y-90346668D01*
X128280289Y-90331789D01*
X128391789Y-90220289D01*
X128479394Y-90089179D01*
X128539737Y-89943497D01*
X128570500Y-89788842D01*
X128570500Y-89631158D01*
X128570500Y-89631155D01*
X128570499Y-89631153D01*
X128539738Y-89476510D01*
X128539737Y-89476503D01*
X128484584Y-89343350D01*
X128479397Y-89330827D01*
X128479390Y-89330814D01*
X128391789Y-89199711D01*
X128391786Y-89199707D01*
X128280292Y-89088213D01*
X128280288Y-89088210D01*
X128149185Y-89000609D01*
X128149172Y-89000602D01*
X128003501Y-88940264D01*
X128003489Y-88940261D01*
X127848845Y-88909500D01*
X127848842Y-88909500D01*
X127691158Y-88909500D01*
X127691155Y-88909500D01*
X127536510Y-88940261D01*
X127536498Y-88940264D01*
X127390827Y-89000602D01*
X127390814Y-89000609D01*
X127259711Y-89088210D01*
X127259707Y-89088213D01*
X127148213Y-89199707D01*
X127148210Y-89199711D01*
X127060609Y-89330814D01*
X127060602Y-89330827D01*
X127000264Y-89476498D01*
X127000261Y-89476510D01*
X126969500Y-89631153D01*
X98175168Y-89631153D01*
X98107482Y-89605908D01*
X98107483Y-89605908D01*
X98047883Y-89599501D01*
X98047881Y-89599500D01*
X98047873Y-89599500D01*
X98047864Y-89599500D01*
X96252129Y-89599500D01*
X96252123Y-89599501D01*
X96192516Y-89605908D01*
X96057671Y-89656202D01*
X96057664Y-89656206D01*
X95942455Y-89742452D01*
X95942452Y-89742455D01*
X95856206Y-89857664D01*
X95856202Y-89857671D01*
X95805908Y-89992517D01*
X95800835Y-90039707D01*
X95799501Y-90052123D01*
X95799500Y-90052135D01*
X95020500Y-90052135D01*
X95020500Y-86452135D01*
X95799500Y-86452135D01*
X95799501Y-88247870D01*
X95805908Y-88307483D01*
X95856202Y-88442328D01*
X95856206Y-88442335D01*
X95942452Y-88557544D01*
X95942455Y-88557547D01*
X96057664Y-88643793D01*
X96057671Y-88643797D01*
X96192517Y-88694091D01*
X96192516Y-88694091D01*
X96199444Y-88694835D01*
X96252127Y-88700500D01*
X98047872Y-88700499D01*
X98107483Y-88694091D01*
X98242331Y-88643796D01*
X98357546Y-88557546D01*
X98443796Y-88442331D01*
X98494091Y-88307483D01*
X98500500Y-88247873D01*
X98500500Y-87941153D01*
X124029500Y-87941153D01*
X124029500Y-88098846D01*
X124060261Y-88253489D01*
X124060264Y-88253501D01*
X124120602Y-88399172D01*
X124120609Y-88399185D01*
X124208210Y-88530288D01*
X124208213Y-88530292D01*
X124319707Y-88641786D01*
X124319711Y-88641789D01*
X124450814Y-88729390D01*
X124450827Y-88729397D01*
X124596498Y-88789735D01*
X124596503Y-88789737D01*
X124751153Y-88820499D01*
X124751156Y-88820500D01*
X124751158Y-88820500D01*
X124908844Y-88820500D01*
X124908845Y-88820499D01*
X125063497Y-88789737D01*
X125209179Y-88729394D01*
X125340289Y-88641789D01*
X125451789Y-88530289D01*
X125539394Y-88399179D01*
X125599737Y-88253497D01*
X125630500Y-88098842D01*
X125630500Y-87941158D01*
X125630500Y-87941155D01*
X125630499Y-87941153D01*
X125629288Y-87935066D01*
X125599737Y-87786503D01*
X125580955Y-87741158D01*
X125539397Y-87640827D01*
X125539390Y-87640814D01*
X125451789Y-87509711D01*
X125451786Y-87509707D01*
X125340292Y-87398213D01*
X125340288Y-87398210D01*
X125209185Y-87310609D01*
X125209172Y-87310602D01*
X125063501Y-87250264D01*
X125063489Y-87250261D01*
X124908845Y-87219500D01*
X124908842Y-87219500D01*
X124751158Y-87219500D01*
X124751155Y-87219500D01*
X124596510Y-87250261D01*
X124596498Y-87250264D01*
X124450827Y-87310602D01*
X124450814Y-87310609D01*
X124319711Y-87398210D01*
X124319707Y-87398213D01*
X124208213Y-87509707D01*
X124208210Y-87509711D01*
X124120609Y-87640814D01*
X124120602Y-87640827D01*
X124060264Y-87786498D01*
X124060261Y-87786510D01*
X124029500Y-87941153D01*
X98500500Y-87941153D01*
X98500499Y-87349383D01*
X98500499Y-86691153D01*
X114999500Y-86691153D01*
X114999500Y-86848846D01*
X115030261Y-87003489D01*
X115030264Y-87003501D01*
X115090602Y-87149172D01*
X115090609Y-87149185D01*
X115178210Y-87280288D01*
X115178213Y-87280292D01*
X115289707Y-87391786D01*
X115289711Y-87391789D01*
X115420814Y-87479390D01*
X115420827Y-87479397D01*
X115494013Y-87509711D01*
X115566503Y-87539737D01*
X115721153Y-87570499D01*
X115721156Y-87570500D01*
X115721158Y-87570500D01*
X115878844Y-87570500D01*
X115878845Y-87570499D01*
X116033497Y-87539737D01*
X116179179Y-87479394D01*
X116310289Y-87391789D01*
X116421789Y-87280289D01*
X116509394Y-87149179D01*
X116569737Y-87003497D01*
X116600500Y-86848842D01*
X116600500Y-86691158D01*
X116600500Y-86691155D01*
X116578239Y-86579244D01*
X116578239Y-86579243D01*
X116574638Y-86561139D01*
X128909500Y-86561139D01*
X128909500Y-86718832D01*
X128940261Y-86873475D01*
X128940264Y-86873487D01*
X129000602Y-87019158D01*
X129000609Y-87019171D01*
X129088210Y-87150274D01*
X129088213Y-87150278D01*
X129199707Y-87261772D01*
X129199711Y-87261775D01*
X129330814Y-87349376D01*
X129330827Y-87349383D01*
X129433206Y-87391789D01*
X129476503Y-87409723D01*
X129631153Y-87440485D01*
X129631156Y-87440486D01*
X129631158Y-87440486D01*
X129788844Y-87440486D01*
X129788845Y-87440485D01*
X129943497Y-87409723D01*
X130089179Y-87349380D01*
X130220289Y-87261775D01*
X130331789Y-87150275D01*
X130419394Y-87019165D01*
X130479737Y-86873483D01*
X130510500Y-86718828D01*
X130510500Y-86711153D01*
X134739500Y-86711153D01*
X134739500Y-86868846D01*
X134770261Y-87023489D01*
X134770264Y-87023501D01*
X134830602Y-87169172D01*
X134830609Y-87169185D01*
X134918210Y-87300288D01*
X134918213Y-87300292D01*
X135029707Y-87411786D01*
X135029711Y-87411789D01*
X135160814Y-87499390D01*
X135160827Y-87499397D01*
X135306498Y-87559735D01*
X135306503Y-87559737D01*
X135342969Y-87566990D01*
X135369177Y-87572204D01*
X135431088Y-87604589D01*
X135465662Y-87665304D01*
X135466604Y-87718011D01*
X135462000Y-87741158D01*
X135462000Y-87898846D01*
X135492761Y-88053489D01*
X135492764Y-88053501D01*
X135553102Y-88199172D01*
X135553109Y-88199185D01*
X135640710Y-88330288D01*
X135640713Y-88330292D01*
X135752207Y-88441786D01*
X135752211Y-88441789D01*
X135883314Y-88529390D01*
X135883327Y-88529397D01*
X136028998Y-88589735D01*
X136029003Y-88589737D01*
X136183653Y-88620499D01*
X136183656Y-88620500D01*
X136183658Y-88620500D01*
X136341344Y-88620500D01*
X136341345Y-88620499D01*
X136495997Y-88589737D01*
X136641679Y-88529394D01*
X136772789Y-88441789D01*
X136884289Y-88330289D01*
X136971894Y-88199179D01*
X137032237Y-88053497D01*
X137063000Y-87898842D01*
X137063000Y-87741158D01*
X137063000Y-87741155D01*
X137062999Y-87741153D01*
X137058396Y-87718011D01*
X137032237Y-87586503D01*
X137026314Y-87572204D01*
X136971897Y-87440827D01*
X136971890Y-87440814D01*
X136884289Y-87309711D01*
X136884286Y-87309707D01*
X136772792Y-87198213D01*
X136772788Y-87198210D01*
X136641685Y-87110609D01*
X136641672Y-87110602D01*
X136496001Y-87050264D01*
X136495991Y-87050261D01*
X136433321Y-87037795D01*
X136371410Y-87005409D01*
X136336836Y-86944693D01*
X136335896Y-86891987D01*
X136340500Y-86868842D01*
X136340500Y-86711158D01*
X136340500Y-86711155D01*
X136340499Y-86711153D01*
X136310660Y-86561144D01*
X136309737Y-86556503D01*
X136266507Y-86452135D01*
X136249397Y-86410827D01*
X136249390Y-86410814D01*
X136161789Y-86279711D01*
X136161786Y-86279707D01*
X136050292Y-86168213D01*
X136050288Y-86168210D01*
X135919185Y-86080609D01*
X135919172Y-86080602D01*
X135773501Y-86020264D01*
X135773489Y-86020261D01*
X135618845Y-85989500D01*
X135618842Y-85989500D01*
X135461158Y-85989500D01*
X135461155Y-85989500D01*
X135306510Y-86020261D01*
X135306498Y-86020264D01*
X135160827Y-86080602D01*
X135160814Y-86080609D01*
X135029711Y-86168210D01*
X135029707Y-86168213D01*
X134918213Y-86279707D01*
X134918210Y-86279711D01*
X134830609Y-86410814D01*
X134830602Y-86410827D01*
X134770264Y-86556498D01*
X134770261Y-86556510D01*
X134739500Y-86711153D01*
X130510500Y-86711153D01*
X130510500Y-86561144D01*
X130510500Y-86561141D01*
X130510499Y-86561139D01*
X130505598Y-86536498D01*
X130479737Y-86406489D01*
X130473244Y-86390814D01*
X130419397Y-86260813D01*
X130419390Y-86260800D01*
X130331789Y-86129697D01*
X130331786Y-86129693D01*
X130220292Y-86018199D01*
X130220288Y-86018196D01*
X130089185Y-85930595D01*
X130089172Y-85930588D01*
X129943501Y-85870250D01*
X129943489Y-85870247D01*
X129788845Y-85839486D01*
X129788842Y-85839486D01*
X129631158Y-85839486D01*
X129631155Y-85839486D01*
X129476510Y-85870247D01*
X129476498Y-85870250D01*
X129330827Y-85930588D01*
X129330814Y-85930595D01*
X129199711Y-86018196D01*
X129199707Y-86018199D01*
X129088213Y-86129693D01*
X129088210Y-86129697D01*
X129000609Y-86260800D01*
X129000602Y-86260813D01*
X128940264Y-86406484D01*
X128940261Y-86406496D01*
X128909500Y-86561139D01*
X116574638Y-86561139D01*
X116569738Y-86536510D01*
X116569737Y-86536503D01*
X116534791Y-86452135D01*
X116509397Y-86390827D01*
X116509390Y-86390814D01*
X116421789Y-86259711D01*
X116421786Y-86259707D01*
X116310292Y-86148213D01*
X116310288Y-86148210D01*
X116179185Y-86060609D01*
X116179172Y-86060602D01*
X116033501Y-86000264D01*
X116033489Y-86000261D01*
X115878845Y-85969500D01*
X115878842Y-85969500D01*
X115721158Y-85969500D01*
X115721155Y-85969500D01*
X115566510Y-86000261D01*
X115566498Y-86000264D01*
X115420827Y-86060602D01*
X115420814Y-86060609D01*
X115289711Y-86148210D01*
X115289707Y-86148213D01*
X115178213Y-86259707D01*
X115178210Y-86259711D01*
X115090609Y-86390814D01*
X115090602Y-86390827D01*
X115030264Y-86536498D01*
X115030261Y-86536510D01*
X114999500Y-86691153D01*
X98500499Y-86691153D01*
X98500499Y-86685066D01*
X98500499Y-86452129D01*
X98500498Y-86452123D01*
X98500497Y-86452116D01*
X98494091Y-86392517D01*
X98493458Y-86390821D01*
X98443797Y-86257671D01*
X98443793Y-86257664D01*
X98357547Y-86142455D01*
X98357544Y-86142452D01*
X98242335Y-86056206D01*
X98242328Y-86056202D01*
X98107482Y-86005908D01*
X98107483Y-86005908D01*
X98047883Y-85999501D01*
X98047881Y-85999500D01*
X98047873Y-85999500D01*
X98047864Y-85999500D01*
X96252129Y-85999500D01*
X96252123Y-85999501D01*
X96192516Y-86005908D01*
X96057671Y-86056202D01*
X96057664Y-86056206D01*
X95942455Y-86142452D01*
X95942452Y-86142455D01*
X95856206Y-86257664D01*
X95856202Y-86257671D01*
X95805908Y-86392517D01*
X95803940Y-86410827D01*
X95799501Y-86452123D01*
X95799500Y-86452135D01*
X95020500Y-86452135D01*
X95020500Y-82852135D01*
X95799500Y-82852135D01*
X95799500Y-84647870D01*
X95799501Y-84647876D01*
X95805908Y-84707483D01*
X95856202Y-84842328D01*
X95856206Y-84842335D01*
X95942452Y-84957544D01*
X95942455Y-84957547D01*
X96057664Y-85043793D01*
X96057671Y-85043797D01*
X96192517Y-85094091D01*
X96192516Y-85094091D01*
X96199444Y-85094835D01*
X96252127Y-85100500D01*
X98047872Y-85100499D01*
X98107483Y-85094091D01*
X98242331Y-85043796D01*
X98357546Y-84957546D01*
X98443796Y-84842331D01*
X98455747Y-84810289D01*
X98466614Y-84781153D01*
X114969500Y-84781153D01*
X114969500Y-84938846D01*
X115000261Y-85093489D01*
X115000264Y-85093501D01*
X115060602Y-85239172D01*
X115060609Y-85239185D01*
X115148210Y-85370288D01*
X115148213Y-85370292D01*
X115259707Y-85481786D01*
X115259711Y-85481789D01*
X115390814Y-85569390D01*
X115390827Y-85569397D01*
X115536498Y-85629735D01*
X115536503Y-85629737D01*
X115691153Y-85660499D01*
X115691156Y-85660500D01*
X115691158Y-85660500D01*
X115848844Y-85660500D01*
X115848845Y-85660499D01*
X116003497Y-85629737D01*
X116149179Y-85569394D01*
X116280289Y-85481789D01*
X116391789Y-85370289D01*
X116479394Y-85239179D01*
X116539737Y-85093497D01*
X116570500Y-84938842D01*
X116570500Y-84781158D01*
X116570500Y-84781155D01*
X116570499Y-84781153D01*
X116539739Y-84626510D01*
X116539735Y-84626498D01*
X116529237Y-84601153D01*
X119409500Y-84601153D01*
X119409500Y-84758846D01*
X119440261Y-84913489D01*
X119440264Y-84913501D01*
X119500602Y-85059172D01*
X119500609Y-85059185D01*
X119588210Y-85190288D01*
X119588213Y-85190292D01*
X119699707Y-85301786D01*
X119699711Y-85301789D01*
X119830814Y-85389390D01*
X119830827Y-85389397D01*
X119976498Y-85449735D01*
X119976503Y-85449737D01*
X120131153Y-85480499D01*
X120131156Y-85480500D01*
X120131158Y-85480500D01*
X120288844Y-85480500D01*
X120288845Y-85480499D01*
X120443497Y-85449737D01*
X120560790Y-85401153D01*
X122849500Y-85401153D01*
X122849500Y-85558846D01*
X122880261Y-85713489D01*
X122880264Y-85713501D01*
X122940602Y-85859172D01*
X122940609Y-85859185D01*
X123028210Y-85990288D01*
X123028213Y-85990292D01*
X123139707Y-86101786D01*
X123139711Y-86101789D01*
X123270814Y-86189390D01*
X123270827Y-86189397D01*
X123416498Y-86249735D01*
X123416503Y-86249737D01*
X123571153Y-86280499D01*
X123571156Y-86280500D01*
X123571158Y-86280500D01*
X123728844Y-86280500D01*
X123728845Y-86280499D01*
X123883497Y-86249737D01*
X124029179Y-86189394D01*
X124160289Y-86101789D01*
X124271789Y-85990289D01*
X124359394Y-85859179D01*
X124419737Y-85713497D01*
X124450500Y-85558842D01*
X124450500Y-85401158D01*
X124450500Y-85401155D01*
X124450499Y-85401153D01*
X124444360Y-85370289D01*
X124419737Y-85246503D01*
X124416703Y-85239179D01*
X124359397Y-85100827D01*
X124359390Y-85100814D01*
X124271789Y-84969711D01*
X124271786Y-84969707D01*
X124160292Y-84858213D01*
X124160288Y-84858210D01*
X124029185Y-84770609D01*
X124029172Y-84770602D01*
X123883501Y-84710264D01*
X123883489Y-84710261D01*
X123728845Y-84679500D01*
X123728842Y-84679500D01*
X123571158Y-84679500D01*
X123571155Y-84679500D01*
X123416510Y-84710261D01*
X123416498Y-84710264D01*
X123270827Y-84770602D01*
X123270814Y-84770609D01*
X123139711Y-84858210D01*
X123139707Y-84858213D01*
X123028213Y-84969707D01*
X123028210Y-84969711D01*
X122940609Y-85100814D01*
X122940602Y-85100827D01*
X122880264Y-85246498D01*
X122880261Y-85246510D01*
X122849500Y-85401153D01*
X120560790Y-85401153D01*
X120589179Y-85389394D01*
X120720289Y-85301789D01*
X120831789Y-85190289D01*
X120919394Y-85059179D01*
X120979737Y-84913497D01*
X121010500Y-84758842D01*
X121010500Y-84601158D01*
X121010500Y-84601155D01*
X121010499Y-84601153D01*
X121005936Y-84578213D01*
X120979737Y-84446503D01*
X120973010Y-84430263D01*
X120919397Y-84300827D01*
X120919390Y-84300814D01*
X120831789Y-84169711D01*
X120831786Y-84169707D01*
X120720292Y-84058213D01*
X120720288Y-84058210D01*
X120589185Y-83970609D01*
X120589172Y-83970602D01*
X120443501Y-83910264D01*
X120443489Y-83910261D01*
X120288845Y-83879500D01*
X120288842Y-83879500D01*
X120131158Y-83879500D01*
X120131155Y-83879500D01*
X119976510Y-83910261D01*
X119976498Y-83910264D01*
X119830827Y-83970602D01*
X119830814Y-83970609D01*
X119699711Y-84058210D01*
X119699707Y-84058213D01*
X119588213Y-84169707D01*
X119588210Y-84169711D01*
X119500609Y-84300814D01*
X119500602Y-84300827D01*
X119440264Y-84446498D01*
X119440261Y-84446510D01*
X119409500Y-84601153D01*
X116529237Y-84601153D01*
X116479397Y-84480827D01*
X116479390Y-84480814D01*
X116391789Y-84349711D01*
X116391786Y-84349707D01*
X116280292Y-84238213D01*
X116280288Y-84238210D01*
X116149185Y-84150609D01*
X116149172Y-84150602D01*
X116003501Y-84090264D01*
X116003489Y-84090261D01*
X115848845Y-84059500D01*
X115848842Y-84059500D01*
X115691158Y-84059500D01*
X115691155Y-84059500D01*
X115536510Y-84090261D01*
X115536498Y-84090264D01*
X115390827Y-84150602D01*
X115390814Y-84150609D01*
X115259711Y-84238210D01*
X115259707Y-84238213D01*
X115148213Y-84349707D01*
X115148210Y-84349711D01*
X115060609Y-84480814D01*
X115060602Y-84480827D01*
X115000264Y-84626498D01*
X115000261Y-84626510D01*
X114969500Y-84781153D01*
X98466614Y-84781153D01*
X98485047Y-84731733D01*
X98485047Y-84731732D01*
X98494090Y-84707485D01*
X98494091Y-84707483D01*
X98500500Y-84647873D01*
X98500499Y-82852128D01*
X98494091Y-82792517D01*
X98443796Y-82657669D01*
X98443795Y-82657668D01*
X98443793Y-82657664D01*
X98357547Y-82542455D01*
X98357544Y-82542452D01*
X98242335Y-82456206D01*
X98242328Y-82456202D01*
X98107482Y-82405908D01*
X98107483Y-82405908D01*
X98047883Y-82399501D01*
X98047881Y-82399500D01*
X98047873Y-82399500D01*
X98047864Y-82399500D01*
X96252129Y-82399500D01*
X96252123Y-82399501D01*
X96192516Y-82405908D01*
X96057671Y-82456202D01*
X96057664Y-82456206D01*
X95942455Y-82542452D01*
X95942452Y-82542455D01*
X95856206Y-82657664D01*
X95856202Y-82657671D01*
X95805908Y-82792517D01*
X95799501Y-82852116D01*
X95799501Y-82852123D01*
X95799500Y-82852135D01*
X95020500Y-82852135D01*
X95020500Y-82139983D01*
X105869500Y-82139983D01*
X105869500Y-83340001D01*
X105869501Y-83340018D01*
X105880000Y-83442796D01*
X105880001Y-83442799D01*
X105935185Y-83609331D01*
X105935186Y-83609334D01*
X106027288Y-83758656D01*
X106151344Y-83882712D01*
X106300666Y-83974814D01*
X106467203Y-84029999D01*
X106569991Y-84040500D01*
X107770008Y-84040499D01*
X107872797Y-84029999D01*
X108039334Y-83974814D01*
X108188656Y-83882712D01*
X108312712Y-83758656D01*
X108404814Y-83609334D01*
X108459999Y-83442797D01*
X108470500Y-83340009D01*
X108470499Y-82139992D01*
X108459999Y-82037203D01*
X108404814Y-81870666D01*
X108312712Y-81721344D01*
X108267139Y-81675771D01*
X124254500Y-81675771D01*
X124254500Y-83056923D01*
X124260427Y-83113030D01*
X124265657Y-83162536D01*
X124276483Y-83213207D01*
X124309458Y-83314155D01*
X124309459Y-83314157D01*
X124309461Y-83314161D01*
X124386337Y-83435763D01*
X124386343Y-83435770D01*
X124431704Y-83488913D01*
X124539735Y-83583940D01*
X124539737Y-83583941D01*
X124539739Y-83583942D01*
X124670160Y-83644680D01*
X124670165Y-83644682D01*
X124737056Y-83664865D01*
X124737060Y-83664866D01*
X124737065Y-83664866D01*
X124737077Y-83664869D01*
X124786691Y-83672379D01*
X124879320Y-83686401D01*
X124957954Y-83686985D01*
X125024844Y-83707167D01*
X125070206Y-83760310D01*
X125079635Y-83829540D01*
X125071594Y-83858433D01*
X125010263Y-84006503D01*
X125010261Y-84006510D01*
X124979500Y-84161153D01*
X124979500Y-84318846D01*
X125010261Y-84473489D01*
X125010264Y-84473501D01*
X125070602Y-84619172D01*
X125070609Y-84619185D01*
X125158210Y-84750288D01*
X125158213Y-84750292D01*
X125269707Y-84861786D01*
X125269711Y-84861789D01*
X125400814Y-84949390D01*
X125400827Y-84949397D01*
X125524719Y-85000714D01*
X125546503Y-85009737D01*
X125701153Y-85040499D01*
X125701156Y-85040500D01*
X125701158Y-85040500D01*
X125858844Y-85040500D01*
X125858845Y-85040499D01*
X126013497Y-85009737D01*
X126159179Y-84949394D01*
X126290289Y-84861789D01*
X126401789Y-84750289D01*
X126489394Y-84619179D01*
X126496859Y-84601158D01*
X126549735Y-84473501D01*
X126549737Y-84473497D01*
X126580500Y-84318842D01*
X126580500Y-84221153D01*
X132249500Y-84221153D01*
X132249500Y-84378846D01*
X132280261Y-84533489D01*
X132280264Y-84533501D01*
X132340602Y-84679172D01*
X132340609Y-84679185D01*
X132431595Y-84815354D01*
X132429589Y-84816694D01*
X132452740Y-84871216D01*
X132444135Y-84933009D01*
X132430262Y-84966502D01*
X132430261Y-84966505D01*
X132399500Y-85121153D01*
X132399500Y-85278846D01*
X132430261Y-85433489D01*
X132430264Y-85433501D01*
X132490602Y-85579172D01*
X132490609Y-85579185D01*
X132578210Y-85710288D01*
X132578213Y-85710292D01*
X132689707Y-85821786D01*
X132689711Y-85821789D01*
X132820814Y-85909390D01*
X132820827Y-85909397D01*
X132965931Y-85969500D01*
X132966503Y-85969737D01*
X133119967Y-86000263D01*
X133121153Y-86000499D01*
X133121156Y-86000500D01*
X133121158Y-86000500D01*
X133278844Y-86000500D01*
X133278845Y-86000499D01*
X133433497Y-85969737D01*
X133579179Y-85909394D01*
X133710289Y-85821789D01*
X133821789Y-85710289D01*
X133909394Y-85579179D01*
X133969737Y-85433497D01*
X134000500Y-85278842D01*
X134000500Y-85121158D01*
X134000500Y-85121155D01*
X133976542Y-85000714D01*
X133982769Y-84931122D01*
X134025632Y-84875945D01*
X134091521Y-84852700D01*
X134159518Y-84868768D01*
X134167050Y-84873420D01*
X134227029Y-84913497D01*
X134250821Y-84929394D01*
X134250823Y-84929395D01*
X134250827Y-84929397D01*
X134396498Y-84989735D01*
X134396503Y-84989737D01*
X134551153Y-85020499D01*
X134551156Y-85020500D01*
X134551158Y-85020500D01*
X134708844Y-85020500D01*
X134708845Y-85020499D01*
X134863497Y-84989737D01*
X135009179Y-84929394D01*
X135140289Y-84841789D01*
X135160925Y-84821153D01*
X142299500Y-84821153D01*
X142299500Y-84978846D01*
X142330261Y-85133489D01*
X142330264Y-85133501D01*
X142390602Y-85279172D01*
X142390609Y-85279185D01*
X142478210Y-85410288D01*
X142478213Y-85410292D01*
X142589707Y-85521786D01*
X142589711Y-85521789D01*
X142720814Y-85609390D01*
X142720827Y-85609397D01*
X142866498Y-85669735D01*
X142866503Y-85669737D01*
X143021153Y-85700499D01*
X143021156Y-85700500D01*
X143021158Y-85700500D01*
X143178844Y-85700500D01*
X143178845Y-85700499D01*
X143333497Y-85669737D01*
X143479179Y-85609394D01*
X143610289Y-85521789D01*
X143721789Y-85410289D01*
X143809394Y-85279179D01*
X143869737Y-85133497D01*
X143900500Y-84978842D01*
X143900500Y-84821158D01*
X143900500Y-84821155D01*
X143900499Y-84821153D01*
X143899612Y-84816694D01*
X143869737Y-84666503D01*
X143869735Y-84666498D01*
X143809397Y-84520827D01*
X143809390Y-84520814D01*
X143721789Y-84389711D01*
X143721786Y-84389707D01*
X143610292Y-84278213D01*
X143610288Y-84278210D01*
X143479185Y-84190609D01*
X143479172Y-84190602D01*
X143333501Y-84130264D01*
X143333489Y-84130261D01*
X143178845Y-84099500D01*
X143178842Y-84099500D01*
X143021158Y-84099500D01*
X143021155Y-84099500D01*
X142866510Y-84130261D01*
X142866498Y-84130264D01*
X142720827Y-84190602D01*
X142720814Y-84190609D01*
X142589711Y-84278210D01*
X142589707Y-84278213D01*
X142478213Y-84389707D01*
X142478210Y-84389711D01*
X142390609Y-84520814D01*
X142390602Y-84520827D01*
X142330264Y-84666498D01*
X142330261Y-84666510D01*
X142299500Y-84821153D01*
X135160925Y-84821153D01*
X135251789Y-84730289D01*
X135339394Y-84599179D01*
X135399737Y-84453497D01*
X135430500Y-84298842D01*
X135430500Y-84141158D01*
X135430500Y-84141155D01*
X135430499Y-84141153D01*
X135414001Y-84058213D01*
X135399737Y-83986503D01*
X135394895Y-83974814D01*
X135339397Y-83840827D01*
X135339390Y-83840814D01*
X135251789Y-83709711D01*
X135251786Y-83709707D01*
X135140292Y-83598213D01*
X135140288Y-83598210D01*
X135009185Y-83510609D01*
X135009172Y-83510602D01*
X134863501Y-83450264D01*
X134863489Y-83450261D01*
X134708845Y-83419500D01*
X134708842Y-83419500D01*
X134551158Y-83419500D01*
X134551155Y-83419500D01*
X134396510Y-83450261D01*
X134396498Y-83450264D01*
X134250827Y-83510602D01*
X134250814Y-83510609D01*
X134119711Y-83598210D01*
X134119707Y-83598213D01*
X134008213Y-83709707D01*
X134008210Y-83709711D01*
X133917221Y-83845886D01*
X133915198Y-83844534D01*
X133873705Y-83886731D01*
X133805560Y-83902156D01*
X133739892Y-83878290D01*
X133710263Y-83847292D01*
X133708420Y-83844534D01*
X133671789Y-83789711D01*
X133671787Y-83789708D01*
X133560292Y-83678213D01*
X133560288Y-83678210D01*
X133429185Y-83590609D01*
X133429172Y-83590602D01*
X133283501Y-83530264D01*
X133283489Y-83530261D01*
X133128845Y-83499500D01*
X133128842Y-83499500D01*
X132971158Y-83499500D01*
X132971155Y-83499500D01*
X132816510Y-83530261D01*
X132816498Y-83530264D01*
X132670827Y-83590602D01*
X132670814Y-83590609D01*
X132539711Y-83678210D01*
X132539707Y-83678213D01*
X132428213Y-83789707D01*
X132428210Y-83789711D01*
X132340609Y-83920814D01*
X132340602Y-83920827D01*
X132280264Y-84066498D01*
X132280261Y-84066510D01*
X132249500Y-84221153D01*
X126580500Y-84221153D01*
X126580500Y-84161158D01*
X126580500Y-84161155D01*
X126580499Y-84161153D01*
X126574355Y-84130264D01*
X126549737Y-84006503D01*
X126534868Y-83970606D01*
X126493490Y-83870709D01*
X126486021Y-83801240D01*
X126517296Y-83738761D01*
X126577385Y-83703109D01*
X126608972Y-83699260D01*
X129456482Y-83720432D01*
X129557178Y-83711064D01*
X129605624Y-83701598D01*
X129702424Y-83672380D01*
X129826117Y-83598885D01*
X129880493Y-83555010D01*
X129978468Y-83449647D01*
X130042792Y-83320946D01*
X130064816Y-83254638D01*
X130064817Y-83254633D01*
X130090275Y-83113023D01*
X130140084Y-81693496D01*
X130140085Y-81693481D01*
X130141397Y-81656057D01*
X130131963Y-81539571D01*
X130120834Y-81483714D01*
X130084897Y-81372496D01*
X130007109Y-81251457D01*
X129985651Y-81226693D01*
X129961360Y-81198659D01*
X129961356Y-81198656D01*
X129961354Y-81198653D01*
X129852620Y-81104433D01*
X129852617Y-81104431D01*
X129852615Y-81104430D01*
X129721749Y-81044664D01*
X129721744Y-81044662D01*
X129721743Y-81044662D01*
X129654704Y-81024977D01*
X129654706Y-81024977D01*
X129654701Y-81024976D01*
X129607228Y-81018150D01*
X129512284Y-81004500D01*
X125796967Y-81004500D01*
X125792403Y-81004521D01*
X125790188Y-81004541D01*
X125786298Y-81004593D01*
X125785718Y-81004601D01*
X125785710Y-81004602D01*
X125643696Y-81027617D01*
X125643695Y-81027617D01*
X125577021Y-81048494D01*
X125577015Y-81048496D01*
X125445315Y-81111509D01*
X125439249Y-81114215D01*
X125403578Y-81128990D01*
X125380320Y-81136045D01*
X125363693Y-81139352D01*
X125347280Y-81142617D01*
X125323091Y-81145000D01*
X125289409Y-81145000D01*
X125265218Y-81142617D01*
X125232174Y-81136044D01*
X125208915Y-81128988D01*
X125124908Y-81094192D01*
X125124896Y-81094187D01*
X125089654Y-81082106D01*
X125065186Y-81073719D01*
X125035415Y-81065551D01*
X125035373Y-81065541D01*
X124988251Y-81055730D01*
X124973583Y-81052677D01*
X124973582Y-81052677D01*
X124829706Y-81052677D01*
X124798846Y-81057114D01*
X124760545Y-81062622D01*
X124760540Y-81062623D01*
X124760536Y-81062624D01*
X124622498Y-81103156D01*
X124622492Y-81103159D01*
X124501462Y-81180941D01*
X124501451Y-81180949D01*
X124448659Y-81226693D01*
X124354433Y-81335434D01*
X124354430Y-81335438D01*
X124294664Y-81466304D01*
X124274976Y-81533352D01*
X124254500Y-81675771D01*
X108267139Y-81675771D01*
X108188656Y-81597288D01*
X108039334Y-81505186D01*
X107872797Y-81450001D01*
X107872795Y-81450000D01*
X107770010Y-81439500D01*
X106569998Y-81439500D01*
X106569981Y-81439501D01*
X106467203Y-81450000D01*
X106467200Y-81450001D01*
X106300668Y-81505185D01*
X106300663Y-81505187D01*
X106151342Y-81597289D01*
X106027289Y-81721342D01*
X105935187Y-81870663D01*
X105935186Y-81870666D01*
X105880001Y-82037203D01*
X105880001Y-82037204D01*
X105880000Y-82037204D01*
X105869500Y-82139983D01*
X95020500Y-82139983D01*
X95020500Y-75811153D01*
X123739500Y-75811153D01*
X123739500Y-75968846D01*
X123770261Y-76123489D01*
X123770264Y-76123501D01*
X123830602Y-76269172D01*
X123830609Y-76269185D01*
X123918210Y-76400288D01*
X123918213Y-76400292D01*
X124029707Y-76511786D01*
X124029711Y-76511789D01*
X124160814Y-76599390D01*
X124160827Y-76599397D01*
X124306498Y-76659735D01*
X124306503Y-76659737D01*
X124461153Y-76690499D01*
X124461156Y-76690500D01*
X124461158Y-76690500D01*
X124618844Y-76690500D01*
X124618845Y-76690499D01*
X124773497Y-76659737D01*
X124919179Y-76599394D01*
X125050289Y-76511789D01*
X125161789Y-76400289D01*
X125249394Y-76269179D01*
X125309737Y-76123497D01*
X125340500Y-75968842D01*
X125340500Y-75944500D01*
X125360185Y-75877461D01*
X125412989Y-75831706D01*
X125464500Y-75820500D01*
X125468844Y-75820500D01*
X125468845Y-75820499D01*
X125623497Y-75789737D01*
X125769179Y-75729394D01*
X125900289Y-75641789D01*
X126011789Y-75530289D01*
X126099394Y-75399179D01*
X126159737Y-75253497D01*
X126190500Y-75098842D01*
X126190500Y-74941158D01*
X126190500Y-74941155D01*
X126190499Y-74941153D01*
X126184658Y-74911789D01*
X126159737Y-74786503D01*
X126124921Y-74702451D01*
X126117453Y-74632984D01*
X126124920Y-74607551D01*
X126159737Y-74523497D01*
X126190500Y-74368842D01*
X126190500Y-74211158D01*
X126190499Y-74211153D01*
X126979500Y-74211153D01*
X126979500Y-74368846D01*
X127010261Y-74523489D01*
X127010264Y-74523501D01*
X127070602Y-74669172D01*
X127070609Y-74669185D01*
X127158210Y-74800288D01*
X127158213Y-74800292D01*
X127269707Y-74911786D01*
X127269711Y-74911789D01*
X127400814Y-74999390D01*
X127400827Y-74999397D01*
X127531646Y-75053583D01*
X127546503Y-75059737D01*
X127696131Y-75089500D01*
X127701153Y-75090499D01*
X127701156Y-75090500D01*
X127701158Y-75090500D01*
X127858844Y-75090500D01*
X127858845Y-75090499D01*
X128013497Y-75059737D01*
X128159179Y-74999394D01*
X128290289Y-74911789D01*
X128401789Y-74800289D01*
X128489394Y-74669179D01*
X128549737Y-74523497D01*
X128580500Y-74368842D01*
X128580500Y-74211158D01*
X128580500Y-74211155D01*
X128580499Y-74211153D01*
X128549737Y-74056503D01*
X128549735Y-74056498D01*
X128489397Y-73910827D01*
X128489390Y-73910814D01*
X128401789Y-73779711D01*
X128401786Y-73779707D01*
X128290292Y-73668213D01*
X128290288Y-73668210D01*
X128159185Y-73580609D01*
X128159172Y-73580602D01*
X128013501Y-73520264D01*
X128013489Y-73520261D01*
X127858845Y-73489500D01*
X127858842Y-73489500D01*
X127701158Y-73489500D01*
X127701155Y-73489500D01*
X127546510Y-73520261D01*
X127546498Y-73520264D01*
X127400827Y-73580602D01*
X127400814Y-73580609D01*
X127269711Y-73668210D01*
X127269707Y-73668213D01*
X127158213Y-73779707D01*
X127158210Y-73779711D01*
X127070609Y-73910814D01*
X127070602Y-73910827D01*
X127010264Y-74056498D01*
X127010261Y-74056510D01*
X126979500Y-74211153D01*
X126190499Y-74211153D01*
X126159737Y-74056503D01*
X126149367Y-74031467D01*
X126147015Y-74020771D01*
X126148702Y-73996408D01*
X126146092Y-73972129D01*
X126151710Y-73952990D01*
X126151844Y-73951068D01*
X126152555Y-73950113D01*
X126153557Y-73946698D01*
X126179737Y-73883497D01*
X126210500Y-73728842D01*
X126210500Y-73571158D01*
X126210500Y-73571155D01*
X126210499Y-73571153D01*
X126179738Y-73416510D01*
X126179737Y-73416503D01*
X126179735Y-73416498D01*
X126119397Y-73270827D01*
X126119390Y-73270814D01*
X126031789Y-73139711D01*
X126031786Y-73139707D01*
X125920292Y-73028213D01*
X125920288Y-73028210D01*
X125789185Y-72940609D01*
X125789172Y-72940602D01*
X125643501Y-72880264D01*
X125643489Y-72880261D01*
X125488845Y-72849500D01*
X125488842Y-72849500D01*
X125331158Y-72849500D01*
X125331155Y-72849500D01*
X125176510Y-72880261D01*
X125176498Y-72880264D01*
X125030827Y-72940602D01*
X125030814Y-72940609D01*
X124899711Y-73028210D01*
X124899707Y-73028213D01*
X124788213Y-73139707D01*
X124788210Y-73139711D01*
X124700609Y-73270814D01*
X124700602Y-73270827D01*
X124640264Y-73416498D01*
X124640261Y-73416510D01*
X124609500Y-73571153D01*
X124609500Y-73728846D01*
X124640260Y-73883488D01*
X124640262Y-73883493D01*
X124640263Y-73883497D01*
X124646439Y-73898407D01*
X124653907Y-73967875D01*
X124646439Y-73993304D01*
X124620265Y-74056498D01*
X124620262Y-74056506D01*
X124620260Y-74056511D01*
X124589500Y-74211153D01*
X124589500Y-74368846D01*
X124620261Y-74523494D01*
X124620263Y-74523497D01*
X124655077Y-74607549D01*
X124662545Y-74677018D01*
X124655077Y-74702451D01*
X124620263Y-74786502D01*
X124620261Y-74786505D01*
X124589500Y-74941153D01*
X124589500Y-74965500D01*
X124569815Y-75032539D01*
X124517011Y-75078294D01*
X124465500Y-75089500D01*
X124461155Y-75089500D01*
X124306510Y-75120261D01*
X124306498Y-75120264D01*
X124160827Y-75180602D01*
X124160814Y-75180609D01*
X124029711Y-75268210D01*
X124029707Y-75268213D01*
X123918213Y-75379707D01*
X123918210Y-75379711D01*
X123830609Y-75510814D01*
X123830602Y-75510827D01*
X123770264Y-75656498D01*
X123770261Y-75656510D01*
X123739500Y-75811153D01*
X95020500Y-75811153D01*
X95020500Y-73769941D01*
X98034500Y-73769941D01*
X98034500Y-74010059D01*
X98041857Y-74056510D01*
X98072063Y-74247222D01*
X98146265Y-74475593D01*
X98248898Y-74677018D01*
X98255276Y-74689536D01*
X98396414Y-74883796D01*
X98566204Y-75053586D01*
X98760464Y-75194724D01*
X98861543Y-75246226D01*
X98974406Y-75303734D01*
X98974408Y-75303734D01*
X98974411Y-75303736D01*
X99202778Y-75377937D01*
X99439941Y-75415500D01*
X99439942Y-75415500D01*
X99680058Y-75415500D01*
X99680059Y-75415500D01*
X99917222Y-75377937D01*
X100145589Y-75303736D01*
X100359536Y-75194724D01*
X100553796Y-75053586D01*
X100723586Y-74883796D01*
X100864724Y-74689536D01*
X100973736Y-74475589D01*
X101047937Y-74247222D01*
X101085500Y-74010059D01*
X101085500Y-73769941D01*
X101047937Y-73532778D01*
X100973736Y-73304411D01*
X100973734Y-73304408D01*
X100973734Y-73304406D01*
X100916226Y-73191543D01*
X100864724Y-73090464D01*
X100723586Y-72896204D01*
X100553796Y-72726414D01*
X100359536Y-72585276D01*
X100145593Y-72476265D01*
X99917222Y-72402063D01*
X99680059Y-72364500D01*
X99439941Y-72364500D01*
X99321359Y-72383281D01*
X99202777Y-72402063D01*
X98974406Y-72476265D01*
X98760463Y-72585276D01*
X98566201Y-72726416D01*
X98396416Y-72896201D01*
X98255276Y-73090463D01*
X98146265Y-73304406D01*
X98086125Y-73489500D01*
X98072063Y-73532778D01*
X98034500Y-73769941D01*
X95020500Y-73769941D01*
X95020500Y-65743750D01*
X95020726Y-65736263D01*
X95038271Y-65446205D01*
X95040076Y-65431340D01*
X95073217Y-65250499D01*
X95091780Y-65149197D01*
X95095364Y-65134663D01*
X95180696Y-64860822D01*
X95185998Y-64846841D01*
X95303731Y-64585249D01*
X95310676Y-64572016D01*
X95432102Y-64371153D01*
X130049500Y-64371153D01*
X130049500Y-64528846D01*
X130080261Y-64683489D01*
X130080264Y-64683501D01*
X130140602Y-64829172D01*
X130140609Y-64829185D01*
X130228210Y-64960288D01*
X130228213Y-64960292D01*
X130339707Y-65071786D01*
X130339711Y-65071789D01*
X130470814Y-65159390D01*
X130470827Y-65159397D01*
X130616498Y-65219735D01*
X130616503Y-65219737D01*
X130771153Y-65250499D01*
X130771156Y-65250500D01*
X130771158Y-65250500D01*
X130928844Y-65250500D01*
X130928845Y-65250499D01*
X131083497Y-65219737D01*
X131229179Y-65159394D01*
X131360289Y-65071789D01*
X131471789Y-64960289D01*
X131559394Y-64829179D01*
X131619737Y-64683497D01*
X131650500Y-64528842D01*
X131650500Y-64371158D01*
X131650500Y-64371155D01*
X131650499Y-64371153D01*
X136569500Y-64371153D01*
X136569500Y-64528846D01*
X136600261Y-64683489D01*
X136600264Y-64683501D01*
X136660602Y-64829172D01*
X136660609Y-64829185D01*
X136748210Y-64960288D01*
X136748213Y-64960292D01*
X136859707Y-65071786D01*
X136859711Y-65071789D01*
X136990814Y-65159390D01*
X136990827Y-65159397D01*
X137136498Y-65219735D01*
X137136503Y-65219737D01*
X137291153Y-65250499D01*
X137291156Y-65250500D01*
X137291158Y-65250500D01*
X137448844Y-65250500D01*
X137448845Y-65250499D01*
X137603497Y-65219737D01*
X137749179Y-65159394D01*
X137880289Y-65071789D01*
X137991789Y-64960289D01*
X138079394Y-64829179D01*
X138139737Y-64683497D01*
X138170500Y-64528842D01*
X138170500Y-64371158D01*
X138170500Y-64371155D01*
X138170499Y-64371153D01*
X138159174Y-64314217D01*
X138139737Y-64216503D01*
X138139735Y-64216498D01*
X138079397Y-64070827D01*
X138079390Y-64070814D01*
X137991789Y-63939711D01*
X137991786Y-63939707D01*
X137880292Y-63828213D01*
X137880288Y-63828210D01*
X137749185Y-63740609D01*
X137749172Y-63740602D01*
X137603501Y-63680264D01*
X137603489Y-63680261D01*
X137448845Y-63649500D01*
X137448842Y-63649500D01*
X137291158Y-63649500D01*
X137291155Y-63649500D01*
X137136510Y-63680261D01*
X137136498Y-63680264D01*
X136990827Y-63740602D01*
X136990814Y-63740609D01*
X136859711Y-63828210D01*
X136859707Y-63828213D01*
X136748213Y-63939707D01*
X136748210Y-63939711D01*
X136660609Y-64070814D01*
X136660602Y-64070827D01*
X136600264Y-64216498D01*
X136600261Y-64216510D01*
X136569500Y-64371153D01*
X131650499Y-64371153D01*
X131639174Y-64314217D01*
X131619737Y-64216503D01*
X131619735Y-64216498D01*
X131559397Y-64070827D01*
X131559390Y-64070814D01*
X131471789Y-63939711D01*
X131471786Y-63939707D01*
X131360292Y-63828213D01*
X131360288Y-63828210D01*
X131229185Y-63740609D01*
X131229172Y-63740602D01*
X131083501Y-63680264D01*
X131083489Y-63680261D01*
X130928845Y-63649500D01*
X130928842Y-63649500D01*
X130771158Y-63649500D01*
X130771155Y-63649500D01*
X130616510Y-63680261D01*
X130616498Y-63680264D01*
X130470827Y-63740602D01*
X130470814Y-63740609D01*
X130339711Y-63828210D01*
X130339707Y-63828213D01*
X130228213Y-63939707D01*
X130228210Y-63939711D01*
X130140609Y-64070814D01*
X130140602Y-64070827D01*
X130080264Y-64216498D01*
X130080261Y-64216510D01*
X130049500Y-64371153D01*
X95432102Y-64371153D01*
X95459080Y-64326526D01*
X95467567Y-64314230D01*
X95644480Y-64088417D01*
X95654395Y-64077226D01*
X95857226Y-63874395D01*
X95868417Y-63864480D01*
X96094230Y-63687567D01*
X96106526Y-63679080D01*
X96352016Y-63530676D01*
X96365249Y-63523731D01*
X96626841Y-63405998D01*
X96640822Y-63400696D01*
X96914668Y-63315362D01*
X96929197Y-63311780D01*
X97211344Y-63260075D01*
X97226201Y-63258271D01*
X97516264Y-63240726D01*
X97523751Y-63240500D01*
X97585892Y-63240500D01*
X143954108Y-63240500D01*
X144016249Y-63240500D01*
X144023736Y-63240726D01*
G37*
%TD.AperFunction*%
%TD*%
%TA.AperFunction,Conductor*%
%TO.N,/5V*%
G36*
X129579323Y-81529685D02*
G01*
X129625078Y-81582489D01*
X129636207Y-81638346D01*
X129634895Y-81675770D01*
X129585086Y-83095297D01*
X129563062Y-83161605D01*
X129508686Y-83205480D01*
X129460240Y-83214946D01*
X124883078Y-83180915D01*
X124816187Y-83160732D01*
X124770826Y-83107589D01*
X124760000Y-83056918D01*
X124760000Y-81675770D01*
X124779685Y-81608731D01*
X124832489Y-81562976D01*
X124901647Y-81553032D01*
X124931452Y-81561209D01*
X125046182Y-81608731D01*
X125072753Y-81619737D01*
X125227403Y-81650499D01*
X125227406Y-81650500D01*
X125227408Y-81650500D01*
X125385094Y-81650500D01*
X125385095Y-81650499D01*
X125539747Y-81619737D01*
X125685429Y-81559394D01*
X125685434Y-81559390D01*
X125685437Y-81559389D01*
X125728075Y-81530899D01*
X125794752Y-81510020D01*
X125796967Y-81510000D01*
X129512284Y-81510000D01*
X129579323Y-81529685D01*
G37*
%TD.AperFunction*%
%TD*%
M02*
