%TF.GenerationSoftware,KiCad,Pcbnew,9.0.6-9.0.6~ubuntu24.04.1*%
%TF.CreationDate,2025-12-29T16:18:33+03:00*%
%TF.ProjectId,rc_ble,72635f62-6c65-42e6-9b69-6361645f7063,rev?*%
%TF.SameCoordinates,Original*%
%TF.FileFunction,Legend,Bot*%
%TF.FilePolarity,Positive*%
%FSLAX46Y46*%
G04 Gerber Fmt 4.6, Leading zero omitted, Abs format (unit mm)*
G04 Created by KiCad (PCBNEW 9.0.6-9.0.6~ubuntu24.04.1) date 2025-12-29 16:18:33*
%MOMM*%
%LPD*%
G01*
G04 APERTURE LIST*
G04 Aperture macros list*
%AMRoundRect*
0 Rectangle with rounded corners*
0 $1 Rounding radius*
0 $2 $3 $4 $5 $6 $7 $8 $9 X,Y pos of 4 corners*
0 Add a 4 corners polygon primitive as box body*
4,1,4,$2,$3,$4,$5,$6,$7,$8,$9,$2,$3,0*
0 Add four circle primitives for the rounded corners*
1,1,$1+$1,$2,$3*
1,1,$1+$1,$4,$5*
1,1,$1+$1,$6,$7*
1,1,$1+$1,$8,$9*
0 Add four rect primitives between the rounded corners*
20,1,$1+$1,$2,$3,$4,$5,0*
20,1,$1+$1,$4,$5,$6,$7,0*
20,1,$1+$1,$6,$7,$8,$9,0*
20,1,$1+$1,$8,$9,$2,$3,0*%
G04 Aperture macros list end*
%ADD10C,0.100000*%
%ADD11C,0.000000*%
%ADD12R,1.700000X1.700000*%
%ADD13C,0.700000*%
%ADD14C,4.400000*%
%ADD15C,2.050000*%
%ADD16C,2.250000*%
%ADD17RoundRect,0.250000X-0.550000X0.550000X-0.550000X-0.550000X0.550000X-0.550000X0.550000X0.550000X0*%
%ADD18C,1.600000*%
G04 APERTURE END LIST*
D10*
X101502306Y-79560038D02*
X101597544Y-79512419D01*
X101597544Y-79512419D02*
X101740401Y-79512419D01*
X101740401Y-79512419D02*
X101883258Y-79560038D01*
X101883258Y-79560038D02*
X101978496Y-79655276D01*
X101978496Y-79655276D02*
X102026115Y-79750514D01*
X102026115Y-79750514D02*
X102073734Y-79940990D01*
X102073734Y-79940990D02*
X102073734Y-80083847D01*
X102073734Y-80083847D02*
X102026115Y-80274323D01*
X102026115Y-80274323D02*
X101978496Y-80369561D01*
X101978496Y-80369561D02*
X101883258Y-80464800D01*
X101883258Y-80464800D02*
X101740401Y-80512419D01*
X101740401Y-80512419D02*
X101645163Y-80512419D01*
X101645163Y-80512419D02*
X101502306Y-80464800D01*
X101502306Y-80464800D02*
X101454687Y-80417180D01*
X101454687Y-80417180D02*
X101454687Y-80083847D01*
X101454687Y-80083847D02*
X101645163Y-80083847D01*
X101026115Y-80512419D02*
X101026115Y-79512419D01*
X101026115Y-79512419D02*
X100454687Y-80512419D01*
X100454687Y-80512419D02*
X100454687Y-79512419D01*
X99978496Y-80512419D02*
X99978496Y-79512419D01*
X99978496Y-79512419D02*
X99740401Y-79512419D01*
X99740401Y-79512419D02*
X99597544Y-79560038D01*
X99597544Y-79560038D02*
X99502306Y-79655276D01*
X99502306Y-79655276D02*
X99454687Y-79750514D01*
X99454687Y-79750514D02*
X99407068Y-79940990D01*
X99407068Y-79940990D02*
X99407068Y-80083847D01*
X99407068Y-80083847D02*
X99454687Y-80274323D01*
X99454687Y-80274323D02*
X99502306Y-80369561D01*
X99502306Y-80369561D02*
X99597544Y-80464800D01*
X99597544Y-80464800D02*
X99740401Y-80512419D01*
X99740401Y-80512419D02*
X99978496Y-80512419D01*
X109716115Y-86231466D02*
X108954211Y-86231466D01*
X102184687Y-91307180D02*
X102232306Y-91354800D01*
X102232306Y-91354800D02*
X102375163Y-91402419D01*
X102375163Y-91402419D02*
X102470401Y-91402419D01*
X102470401Y-91402419D02*
X102613258Y-91354800D01*
X102613258Y-91354800D02*
X102708496Y-91259561D01*
X102708496Y-91259561D02*
X102756115Y-91164323D01*
X102756115Y-91164323D02*
X102803734Y-90973847D01*
X102803734Y-90973847D02*
X102803734Y-90830990D01*
X102803734Y-90830990D02*
X102756115Y-90640514D01*
X102756115Y-90640514D02*
X102708496Y-90545276D01*
X102708496Y-90545276D02*
X102613258Y-90450038D01*
X102613258Y-90450038D02*
X102470401Y-90402419D01*
X102470401Y-90402419D02*
X102375163Y-90402419D01*
X102375163Y-90402419D02*
X102232306Y-90450038D01*
X102232306Y-90450038D02*
X102184687Y-90497657D01*
X101803734Y-91116704D02*
X101327544Y-91116704D01*
X101898972Y-91402419D02*
X101565639Y-90402419D01*
X101565639Y-90402419D02*
X101232306Y-91402419D01*
X100898972Y-91402419D02*
X100898972Y-90402419D01*
X100898972Y-90402419D02*
X100327544Y-91402419D01*
X100327544Y-91402419D02*
X100327544Y-90402419D01*
X99851353Y-91402419D02*
X99851353Y-90402419D01*
X99851353Y-90878609D02*
X99279925Y-90878609D01*
X99279925Y-91402419D02*
X99279925Y-90402419D01*
X102054687Y-87477180D02*
X102102306Y-87524800D01*
X102102306Y-87524800D02*
X102245163Y-87572419D01*
X102245163Y-87572419D02*
X102340401Y-87572419D01*
X102340401Y-87572419D02*
X102483258Y-87524800D01*
X102483258Y-87524800D02*
X102578496Y-87429561D01*
X102578496Y-87429561D02*
X102626115Y-87334323D01*
X102626115Y-87334323D02*
X102673734Y-87143847D01*
X102673734Y-87143847D02*
X102673734Y-87000990D01*
X102673734Y-87000990D02*
X102626115Y-86810514D01*
X102626115Y-86810514D02*
X102578496Y-86715276D01*
X102578496Y-86715276D02*
X102483258Y-86620038D01*
X102483258Y-86620038D02*
X102340401Y-86572419D01*
X102340401Y-86572419D02*
X102245163Y-86572419D01*
X102245163Y-86572419D02*
X102102306Y-86620038D01*
X102102306Y-86620038D02*
X102054687Y-86667657D01*
X101673734Y-87286704D02*
X101197544Y-87286704D01*
X101768972Y-87572419D02*
X101435639Y-86572419D01*
X101435639Y-86572419D02*
X101102306Y-87572419D01*
X100768972Y-87572419D02*
X100768972Y-86572419D01*
X100768972Y-86572419D02*
X100197544Y-87572419D01*
X100197544Y-87572419D02*
X100197544Y-86572419D01*
X99245163Y-87572419D02*
X99721353Y-87572419D01*
X99721353Y-87572419D02*
X99721353Y-86572419D01*
X101442306Y-84142419D02*
X102013734Y-84142419D01*
X101728020Y-84142419D02*
X101728020Y-83142419D01*
X101728020Y-83142419D02*
X101823258Y-83285276D01*
X101823258Y-83285276D02*
X101918496Y-83380514D01*
X101918496Y-83380514D02*
X102013734Y-83428133D01*
X101061353Y-83237657D02*
X101013734Y-83190038D01*
X101013734Y-83190038D02*
X100918496Y-83142419D01*
X100918496Y-83142419D02*
X100680401Y-83142419D01*
X100680401Y-83142419D02*
X100585163Y-83190038D01*
X100585163Y-83190038D02*
X100537544Y-83237657D01*
X100537544Y-83237657D02*
X100489925Y-83332895D01*
X100489925Y-83332895D02*
X100489925Y-83428133D01*
X100489925Y-83428133D02*
X100537544Y-83570990D01*
X100537544Y-83570990D02*
X101108972Y-84142419D01*
X101108972Y-84142419D02*
X100489925Y-84142419D01*
X100204210Y-83142419D02*
X99870877Y-84142419D01*
X99870877Y-84142419D02*
X99537544Y-83142419D01*
X109746115Y-82661466D02*
X108984211Y-82661466D01*
X109365163Y-83042419D02*
X109365163Y-82280514D01*
D11*
%TO.C,LOGO102*%
G36*
X137597001Y-97192009D02*
G01*
X137587622Y-97201389D01*
X137578242Y-97192009D01*
X137587622Y-97182629D01*
X137597001Y-97192009D01*
G37*
G36*
X133524978Y-97246810D02*
G01*
X133532163Y-97275770D01*
X133557294Y-97317157D01*
X133572260Y-97334343D01*
X133577894Y-97348781D01*
X133557294Y-97351462D01*
X133549765Y-97352533D01*
X133539436Y-97362133D01*
X133532618Y-97386453D01*
X133528614Y-97431191D01*
X133526723Y-97502045D01*
X133526248Y-97604712D01*
X133525062Y-97705877D01*
X133521360Y-97787913D01*
X133515412Y-97839836D01*
X133507489Y-97857962D01*
X133499972Y-97841806D01*
X133493907Y-97791695D01*
X133490069Y-97711238D01*
X133488729Y-97604108D01*
X133488726Y-97586156D01*
X133488336Y-97489361D01*
X133486607Y-97422866D01*
X133482565Y-97380414D01*
X133475236Y-97355749D01*
X133463649Y-97342615D01*
X133446829Y-97334754D01*
X133423419Y-97325656D01*
X133416864Y-97317035D01*
X133444147Y-97306807D01*
X133472214Y-97290537D01*
X133503537Y-97252564D01*
X133513015Y-97233707D01*
X133522224Y-97224155D01*
X133524978Y-97246810D01*
G37*
G36*
X134827257Y-96131231D02*
G01*
X134855322Y-96144585D01*
X134901721Y-96150872D01*
X134927373Y-96151723D01*
X134944204Y-96159246D01*
X134933190Y-96179010D01*
X134922466Y-96196876D01*
X134927788Y-96230598D01*
X134928462Y-96231476D01*
X134948102Y-96256781D01*
X134985359Y-96304587D01*
X135035152Y-96368378D01*
X135092399Y-96441640D01*
X135097242Y-96447835D01*
X135154095Y-96520571D01*
X135203109Y-96583302D01*
X135239192Y-96629511D01*
X135257254Y-96652681D01*
X135265263Y-96666418D01*
X135254737Y-96676130D01*
X135250836Y-96674492D01*
X135225689Y-96651743D01*
X135184005Y-96606390D01*
X135130544Y-96543765D01*
X135070066Y-96469202D01*
X135020976Y-96407697D01*
X134968103Y-96343858D01*
X134930011Y-96302690D01*
X134902125Y-96279939D01*
X134879873Y-96271355D01*
X134858681Y-96272686D01*
X134841040Y-96276024D01*
X134820637Y-96272682D01*
X134812015Y-96249382D01*
X134809436Y-96197343D01*
X134809542Y-96164704D01*
X134814836Y-96131145D01*
X134827257Y-96131231D01*
G37*
G36*
X141418873Y-95356486D02*
G01*
X141517802Y-95510012D01*
X141546124Y-95553965D01*
X141613369Y-95658327D01*
X141684290Y-95768408D01*
X141710172Y-95808581D01*
X141775586Y-95910128D01*
X141801968Y-95951083D01*
X141886203Y-96081869D01*
X141960325Y-96196974D01*
X142015115Y-96282082D01*
X142021780Y-96292435D01*
X142068016Y-96364288D01*
X142070243Y-96367752D01*
X142096481Y-96408569D01*
X142112840Y-96433672D01*
X142151822Y-96490313D01*
X142160717Y-96501927D01*
X142182009Y-96529726D01*
X142197928Y-96544573D01*
X142202887Y-96543102D01*
X142234008Y-96526809D01*
X142285082Y-96496297D01*
X142348002Y-96456333D01*
X142373730Y-96439573D01*
X142431240Y-96402160D01*
X142472519Y-96375380D01*
X142489970Y-96364164D01*
X142490419Y-96363524D01*
X142483279Y-96344079D01*
X142461831Y-96307570D01*
X142427503Y-96254662D01*
X142486677Y-96296563D01*
X142496905Y-96303624D01*
X142538021Y-96328437D01*
X142563802Y-96338464D01*
X142573490Y-96350751D01*
X142572709Y-96385778D01*
X142572072Y-96388996D01*
X142560083Y-96418475D01*
X142541012Y-96414292D01*
X142533435Y-96411091D01*
X142502872Y-96418394D01*
X142451533Y-96447769D01*
X142376084Y-96500970D01*
X142233810Y-96606448D01*
X142236495Y-96610473D01*
X142261526Y-96647991D01*
X142519682Y-97034935D01*
X142626262Y-97194686D01*
X142637180Y-97211040D01*
X142725387Y-97342233D01*
X142781713Y-97424928D01*
X142807393Y-97462631D01*
X142880792Y-97568811D01*
X142943175Y-97657353D01*
X142992135Y-97724834D01*
X143025264Y-97767832D01*
X143040155Y-97782925D01*
X143046874Y-97778430D01*
X143053289Y-97749845D01*
X143054095Y-97691629D01*
X143049484Y-97600022D01*
X143047046Y-97561392D01*
X143042073Y-97469641D01*
X143038604Y-97386915D01*
X143037276Y-97327409D01*
X143034917Y-97276311D01*
X143024108Y-97241181D01*
X143001197Y-97224233D01*
X142995999Y-97222256D01*
X142977589Y-97211291D01*
X142981605Y-97193946D01*
X143009410Y-97159490D01*
X143014421Y-97153694D01*
X143041703Y-97125133D01*
X143055664Y-97123138D01*
X143065416Y-97145420D01*
X143074792Y-97167238D01*
X143090030Y-97182605D01*
X143093146Y-97193341D01*
X143096190Y-97235878D01*
X143097992Y-97305085D01*
X143098413Y-97394851D01*
X143097311Y-97499065D01*
X143091787Y-97815548D01*
X143350561Y-97827170D01*
X143380598Y-97828472D01*
X143488322Y-97832691D01*
X143620344Y-97837371D01*
X143668384Y-97838950D01*
X143766868Y-97842187D01*
X143918101Y-97846812D01*
X144064246Y-97850920D01*
X144519158Y-97863049D01*
X144519158Y-97559769D01*
X144518890Y-97469268D01*
X144517462Y-97378522D01*
X144514365Y-97316032D01*
X144509114Y-97276525D01*
X144501224Y-97254732D01*
X144490209Y-97245380D01*
X144478909Y-97240408D01*
X144471835Y-97226969D01*
X144491754Y-97200577D01*
X144506455Y-97185434D01*
X144528497Y-97177341D01*
X144557541Y-97197102D01*
X144578640Y-97222205D01*
X144574268Y-97249693D01*
X144571914Y-97254525D01*
X144565808Y-97292514D01*
X144561789Y-97361154D01*
X144560074Y-97455274D01*
X144560879Y-97569703D01*
X144566056Y-97867341D01*
X144777097Y-97872646D01*
X144988139Y-97877950D01*
X144988139Y-97943805D01*
X144988139Y-98121205D01*
X144988139Y-98155596D01*
X144988139Y-98364461D01*
X144735422Y-98364461D01*
X144618236Y-98366405D01*
X144463639Y-98376680D01*
X144414646Y-98384225D01*
X144341478Y-98395493D01*
X144331442Y-98397679D01*
X144275288Y-98410096D01*
X144236471Y-98423095D01*
X144212625Y-98442809D01*
X144201386Y-98475374D01*
X144200389Y-98526922D01*
X144202934Y-98555272D01*
X144207271Y-98603588D01*
X144219667Y-98711507D01*
X144231790Y-98814008D01*
X144241697Y-98884649D01*
X144250948Y-98928801D01*
X144261107Y-98951885D01*
X144273740Y-98959322D01*
X144290412Y-98956530D01*
X144292958Y-98955825D01*
X144334760Y-98954855D01*
X144387517Y-98964663D01*
X144407907Y-98969756D01*
X144455827Y-98971302D01*
X144475115Y-98951119D01*
X144463958Y-98910493D01*
X144453718Y-98890129D01*
X144452711Y-98878210D01*
X144466352Y-98875320D01*
X144499969Y-98881877D01*
X144558890Y-98898302D01*
X144648442Y-98925013D01*
X144677281Y-98933680D01*
X144746406Y-98955018D01*
X144784579Y-98968861D01*
X144795623Y-98977586D01*
X144783362Y-98983574D01*
X144751618Y-98989202D01*
X144749198Y-98989572D01*
X144692077Y-98997005D01*
X144614563Y-99005545D01*
X144532706Y-99013419D01*
X144478825Y-99019142D01*
X144414029Y-99030174D01*
X144379431Y-99042444D01*
X144377455Y-99054897D01*
X144410525Y-99066482D01*
X144433368Y-99069825D01*
X144490316Y-99075551D01*
X144567569Y-99081762D01*
X144655154Y-99087596D01*
X144723154Y-99092550D01*
X144790248Y-99099659D01*
X144834283Y-99107088D01*
X144848049Y-99113853D01*
X144833657Y-99118134D01*
X144786959Y-99123962D01*
X144714126Y-99129965D01*
X144621414Y-99135643D01*
X144515080Y-99140494D01*
X144339443Y-99147563D01*
X144164914Y-99155484D01*
X144025290Y-99163012D01*
X143919156Y-99170245D01*
X143845097Y-99177282D01*
X143801699Y-99184222D01*
X143787548Y-99191162D01*
X143792581Y-99200282D01*
X143820376Y-99214454D01*
X143823805Y-99215992D01*
X143810125Y-99220028D01*
X143767747Y-99223338D01*
X143703131Y-99225322D01*
X143649490Y-99226411D01*
X143533848Y-99230727D01*
X143433158Y-99237108D01*
X143350641Y-99245016D01*
X143289512Y-99253915D01*
X143252991Y-99263269D01*
X143244297Y-99272540D01*
X143266646Y-99281192D01*
X143323257Y-99288687D01*
X143342074Y-99290649D01*
X143355059Y-99294178D01*
X143331803Y-99297035D01*
X143271669Y-99299352D01*
X143202181Y-99302421D01*
X143124134Y-99308358D01*
X143065317Y-99315508D01*
X142990280Y-99328181D01*
X143074697Y-99350978D01*
X143159113Y-99373776D01*
X143046558Y-99376214D01*
X143043779Y-99376275D01*
X142983930Y-99378342D01*
X142955721Y-99382754D01*
X142953477Y-99391940D01*
X142971521Y-99408329D01*
X142975917Y-99411934D01*
X142984174Y-99422000D01*
X142978134Y-99428624D01*
X142953162Y-99432164D01*
X142904618Y-99432979D01*
X142827867Y-99431425D01*
X142718272Y-99427860D01*
X142696831Y-99427118D01*
X142594469Y-99423903D01*
X142525145Y-99422681D01*
X142485075Y-99423718D01*
X142470474Y-99427280D01*
X142477558Y-99433632D01*
X142502540Y-99443043D01*
X142517188Y-99447824D01*
X142573529Y-99463650D01*
X142615096Y-99471698D01*
X142627192Y-99476013D01*
X142606219Y-99484307D01*
X142552622Y-99495907D01*
X142468802Y-99510300D01*
X142357156Y-99526971D01*
X142322782Y-99532106D01*
X142256283Y-99543860D01*
X142210229Y-99554611D01*
X142193013Y-99562539D01*
X142193085Y-99562978D01*
X142211661Y-99574330D01*
X142256717Y-99591516D01*
X142319043Y-99610994D01*
X142348813Y-99619805D01*
X142391940Y-99634932D01*
X142410659Y-99647049D01*
X142402786Y-99656777D01*
X142366138Y-99664738D01*
X142298530Y-99671554D01*
X142197778Y-99677845D01*
X142061698Y-99684234D01*
X142014780Y-99686280D01*
X141829607Y-99695053D01*
X141680589Y-99703416D01*
X141566617Y-99711455D01*
X141486582Y-99719258D01*
X141439374Y-99726912D01*
X141423885Y-99734506D01*
X141427650Y-99738214D01*
X141458994Y-99749595D01*
X141515230Y-99763685D01*
X141588028Y-99778261D01*
X141665346Y-99791927D01*
X141737012Y-99804325D01*
X141800952Y-99815428D01*
X141855676Y-99825314D01*
X141899695Y-99834062D01*
X141931519Y-99841748D01*
X141949659Y-99848451D01*
X141952625Y-99854250D01*
X141938927Y-99859221D01*
X141907076Y-99863443D01*
X141855583Y-99866994D01*
X141782957Y-99869952D01*
X141687710Y-99872395D01*
X141568351Y-99874400D01*
X141423391Y-99876047D01*
X141251340Y-99877412D01*
X141050710Y-99878573D01*
X140820010Y-99879609D01*
X140557750Y-99880598D01*
X140262442Y-99881618D01*
X139932595Y-99882746D01*
X139566721Y-99884060D01*
X139315757Y-99884995D01*
X138975486Y-99886262D01*
X138630320Y-99887544D01*
X138284117Y-99888829D01*
X137940731Y-99890101D01*
X137604018Y-99891347D01*
X137277833Y-99892552D01*
X136966034Y-99893702D01*
X136672474Y-99894783D01*
X136401010Y-99895781D01*
X136155497Y-99896680D01*
X135939791Y-99897468D01*
X135757748Y-99898129D01*
X134490651Y-99902718D01*
X134332046Y-99848551D01*
X134295393Y-99835485D01*
X134238479Y-99812227D01*
X134205175Y-99794164D01*
X134201580Y-99784300D01*
X134209898Y-99782446D01*
X134252050Y-99776347D01*
X134323055Y-99767742D01*
X134417175Y-99757282D01*
X134528670Y-99745614D01*
X134651802Y-99733388D01*
X134714363Y-99727256D01*
X134830844Y-99715379D01*
X134931977Y-99704469D01*
X135012259Y-99695150D01*
X135066187Y-99688048D01*
X135088260Y-99683787D01*
X135098551Y-99673397D01*
X135090207Y-99663689D01*
X135059071Y-99654973D01*
X135002202Y-99646836D01*
X134916657Y-99638863D01*
X134799494Y-99630640D01*
X134647770Y-99621752D01*
X134630610Y-99620805D01*
X134477887Y-99612200D01*
X134314765Y-99602743D01*
X134153212Y-99593144D01*
X134005193Y-99584113D01*
X133882673Y-99576360D01*
X133554387Y-99555016D01*
X133816313Y-99512275D01*
X133907433Y-99497088D01*
X133991263Y-99481988D01*
X134051122Y-99469240D01*
X134085655Y-99458613D01*
X134093508Y-99449878D01*
X134073326Y-99442802D01*
X134023754Y-99437156D01*
X133943438Y-99432710D01*
X133831022Y-99429232D01*
X133685152Y-99426492D01*
X133504473Y-99424260D01*
X133287631Y-99422305D01*
X133216513Y-99421672D01*
X133047642Y-99419687D01*
X132889110Y-99417165D01*
X132745446Y-99414220D01*
X132621181Y-99410964D01*
X132520843Y-99407510D01*
X132448964Y-99403970D01*
X132410074Y-99400458D01*
X132316277Y-99384917D01*
X132410074Y-99372357D01*
X132422179Y-99370889D01*
X132484446Y-99365202D01*
X132571492Y-99358987D01*
X132673478Y-99352901D01*
X132780568Y-99347601D01*
X132799658Y-99346729D01*
X132912748Y-99339969D01*
X132993966Y-99332054D01*
X133042184Y-99323287D01*
X133056271Y-99313970D01*
X133035100Y-99304406D01*
X132977540Y-99294896D01*
X132955820Y-99292187D01*
X132879559Y-99282405D01*
X132804017Y-99272415D01*
X132790218Y-99270858D01*
X132727077Y-99266677D01*
X132639331Y-99263515D01*
X132536682Y-99261656D01*
X132428833Y-99261386D01*
X132407530Y-99261465D01*
X132289029Y-99260578D01*
X132169472Y-99257776D01*
X132061714Y-99253443D01*
X131978611Y-99247962D01*
X131809778Y-99232912D01*
X131980356Y-99230149D01*
X132027894Y-99229232D01*
X132145885Y-99225825D01*
X132262030Y-99221063D01*
X132370386Y-99215324D01*
X132465009Y-99208986D01*
X132539956Y-99202431D01*
X132589283Y-99196035D01*
X132607046Y-99190179D01*
X132604571Y-99187364D01*
X132576095Y-99175628D01*
X132522507Y-99159863D01*
X132452282Y-99142671D01*
X132297518Y-99107844D01*
X132456972Y-99093542D01*
X132536356Y-99086607D01*
X132642011Y-99077661D01*
X132757751Y-99068072D01*
X132869675Y-99059004D01*
X132878540Y-99058294D01*
X132982485Y-99049709D01*
X133081494Y-99041114D01*
X133164744Y-99033470D01*
X133221410Y-99027740D01*
X133319896Y-99016711D01*
X133319896Y-98933223D01*
X133318475Y-98885888D01*
X133317252Y-98879886D01*
X135646041Y-98879886D01*
X135646106Y-98881763D01*
X135649782Y-98891166D01*
X135662064Y-98899316D01*
X135687063Y-98906851D01*
X135728888Y-98914410D01*
X135791652Y-98922631D01*
X135879464Y-98932152D01*
X135996436Y-98943613D01*
X136146677Y-98957651D01*
X136159511Y-98958845D01*
X136268897Y-98969756D01*
X136363045Y-98980426D01*
X136436416Y-98990129D01*
X136483475Y-98998141D01*
X136498683Y-99003736D01*
X136496879Y-99005255D01*
X136468714Y-99013212D01*
X136414904Y-99021789D01*
X136345093Y-99029377D01*
X136281647Y-99035286D01*
X136184275Y-99045280D01*
X136082131Y-99056606D01*
X135982231Y-99068400D01*
X135891591Y-99079801D01*
X135817225Y-99089948D01*
X135766151Y-99097979D01*
X135745382Y-99103033D01*
X135745226Y-99103246D01*
X135760270Y-99108630D01*
X135803355Y-99115645D01*
X135865612Y-99122829D01*
X135884152Y-99124675D01*
X135953381Y-99131702D01*
X136049485Y-99141577D01*
X136165015Y-99153529D01*
X136292519Y-99166789D01*
X136424549Y-99180587D01*
X136475259Y-99185886D01*
X136607913Y-99199617D01*
X136734093Y-99212505D01*
X136846092Y-99223774D01*
X136936199Y-99232643D01*
X136996706Y-99238337D01*
X137005253Y-99239121D01*
X137076500Y-99247402D01*
X137133745Y-99256932D01*
X137165274Y-99265803D01*
X137172777Y-99270157D01*
X137178206Y-99276787D01*
X137170044Y-99283327D01*
X137143601Y-99291002D01*
X137094191Y-99301038D01*
X137017126Y-99314657D01*
X136907718Y-99333086D01*
X136847074Y-99343672D01*
X136780848Y-99356549D01*
X136737066Y-99366739D01*
X136723039Y-99372675D01*
X136726409Y-99374038D01*
X136758623Y-99379543D01*
X136818528Y-99386831D01*
X136898881Y-99395256D01*
X136992437Y-99404173D01*
X137091952Y-99412934D01*
X137190182Y-99420893D01*
X137279883Y-99427404D01*
X137353810Y-99431821D01*
X137404719Y-99433497D01*
X137406135Y-99433501D01*
X137472132Y-99435514D01*
X137503195Y-99440560D01*
X137501686Y-99447960D01*
X137469964Y-99457035D01*
X137410390Y-99467105D01*
X137325324Y-99477490D01*
X137217127Y-99487511D01*
X137211552Y-99487962D01*
X137045527Y-99501866D01*
X136916124Y-99513869D01*
X136822534Y-99524225D01*
X136763948Y-99533189D01*
X136739556Y-99541016D01*
X136748549Y-99547961D01*
X136790118Y-99554278D01*
X136863454Y-99560223D01*
X136967746Y-99566051D01*
X136991989Y-99567294D01*
X137086661Y-99573947D01*
X137153272Y-99582856D01*
X137199630Y-99595397D01*
X137233546Y-99612949D01*
X137287474Y-99649468D01*
X136977947Y-99661004D01*
X136792729Y-99668030D01*
X136590430Y-99676102D01*
X136421890Y-99683376D01*
X136285017Y-99689971D01*
X136177721Y-99696007D01*
X136097910Y-99701605D01*
X136043491Y-99706884D01*
X136012374Y-99711965D01*
X136002467Y-99716967D01*
X136004352Y-99725252D01*
X136028392Y-99745791D01*
X136082144Y-99764898D01*
X136168207Y-99783340D01*
X136289180Y-99801889D01*
X136296244Y-99802821D01*
X136385740Y-99811852D01*
X136500391Y-99819530D01*
X136636019Y-99825869D01*
X136788446Y-99830887D01*
X136953497Y-99834598D01*
X137126993Y-99837020D01*
X137304758Y-99838167D01*
X137482615Y-99838056D01*
X137656386Y-99836704D01*
X137821895Y-99834124D01*
X137974964Y-99830335D01*
X138111417Y-99825351D01*
X138227076Y-99819189D01*
X138317765Y-99811865D01*
X138379305Y-99803394D01*
X138407521Y-99793793D01*
X138408065Y-99791748D01*
X138387293Y-99784167D01*
X138334149Y-99776451D01*
X138252645Y-99769081D01*
X138146788Y-99762538D01*
X138117449Y-99761025D01*
X137968022Y-99752836D01*
X137854879Y-99745652D01*
X137778156Y-99739425D01*
X137737989Y-99734106D01*
X137734515Y-99729648D01*
X137767871Y-99726003D01*
X137838195Y-99723123D01*
X137945622Y-99720960D01*
X138090289Y-99719467D01*
X138272334Y-99718594D01*
X138340416Y-99718368D01*
X138543828Y-99717203D01*
X138713225Y-99715290D01*
X138851302Y-99712478D01*
X138960748Y-99708617D01*
X139044258Y-99703557D01*
X139104524Y-99697147D01*
X139144237Y-99689238D01*
X139166090Y-99679678D01*
X139172777Y-99668317D01*
X139172501Y-99666327D01*
X139150082Y-99651250D01*
X139094315Y-99638791D01*
X139008866Y-99629371D01*
X138897397Y-99623410D01*
X138763575Y-99621330D01*
X138716358Y-99621043D01*
X138650469Y-99619454D01*
X138606769Y-99616786D01*
X138592923Y-99613394D01*
X138605633Y-99609816D01*
X138649273Y-99602755D01*
X138716005Y-99594082D01*
X138797711Y-99584927D01*
X138873999Y-99576891D01*
X138959757Y-99566952D01*
X139017477Y-99557767D01*
X139052710Y-99547501D01*
X139063647Y-99539619D01*
X139133218Y-99539619D01*
X139155320Y-99560548D01*
X139209595Y-99576495D01*
X139283932Y-99588382D01*
X139256011Y-99642374D01*
X139242596Y-99668317D01*
X139228091Y-99696366D01*
X139533410Y-99693501D01*
X139573452Y-99693064D01*
X139706311Y-99690919D01*
X139851905Y-99687688D01*
X140005665Y-99683553D01*
X140163024Y-99678693D01*
X140319415Y-99673289D01*
X140470271Y-99667522D01*
X140611023Y-99661572D01*
X140737104Y-99655620D01*
X140843948Y-99649846D01*
X140926986Y-99644431D01*
X140981652Y-99639555D01*
X141003377Y-99635399D01*
X140999860Y-99629434D01*
X140968843Y-99623265D01*
X140915822Y-99620571D01*
X140905715Y-99620423D01*
X140843571Y-99617991D01*
X140758246Y-99613038D01*
X140655801Y-99606075D01*
X140542298Y-99597611D01*
X140423797Y-99588155D01*
X140306359Y-99578218D01*
X140196045Y-99568309D01*
X140098918Y-99558936D01*
X140021036Y-99550611D01*
X139968463Y-99543842D01*
X139947259Y-99539140D01*
X139951049Y-99531446D01*
X139980987Y-99527565D01*
X139982357Y-99527553D01*
X140015809Y-99525982D01*
X140080878Y-99522023D01*
X140172275Y-99516030D01*
X140284715Y-99508358D01*
X140412912Y-99499358D01*
X140551580Y-99489386D01*
X140612833Y-99484913D01*
X140782283Y-99472205D01*
X140916055Y-99461336D01*
X141015490Y-99451871D01*
X141081929Y-99443376D01*
X141116711Y-99435415D01*
X141121176Y-99427554D01*
X141096664Y-99419357D01*
X141044516Y-99410389D01*
X140966071Y-99400215D01*
X140862670Y-99388401D01*
X140840170Y-99385879D01*
X140750275Y-99375145D01*
X140676253Y-99365275D01*
X140625253Y-99357271D01*
X140604423Y-99352139D01*
X140603985Y-99351557D01*
X140616329Y-99342340D01*
X140653415Y-99332347D01*
X140708020Y-99321482D01*
X140772001Y-99308280D01*
X140832969Y-99295379D01*
X140776691Y-99282361D01*
X140767558Y-99280424D01*
X140706783Y-99271783D01*
X140640687Y-99267124D01*
X140623422Y-99266195D01*
X140578501Y-99257451D01*
X140561976Y-99244408D01*
X140576209Y-99232556D01*
X140623567Y-99227386D01*
X140632918Y-99227144D01*
X140679999Y-99223962D01*
X140751563Y-99217675D01*
X140840740Y-99209028D01*
X140940662Y-99198768D01*
X141044457Y-99187641D01*
X141145256Y-99176392D01*
X141236190Y-99165768D01*
X141310388Y-99156515D01*
X141360982Y-99149380D01*
X141381101Y-99145108D01*
X141380760Y-99143985D01*
X141364820Y-99139454D01*
X141324745Y-99132575D01*
X141257904Y-99122984D01*
X141161667Y-99110315D01*
X141033405Y-99094205D01*
X140870487Y-99074288D01*
X140865466Y-99073680D01*
X140784614Y-99063447D01*
X140737157Y-99055930D01*
X140719373Y-99049910D01*
X140727539Y-99044172D01*
X140757932Y-99037497D01*
X140805458Y-99031100D01*
X140880471Y-99023952D01*
X140972390Y-99016973D01*
X141070885Y-99011037D01*
X141072903Y-99010932D01*
X141174408Y-99004831D01*
X141245248Y-98998180D01*
X141292156Y-98989780D01*
X141321866Y-98978433D01*
X141341111Y-98962940D01*
X141368962Y-98940343D01*
X141405982Y-98927238D01*
X141419729Y-98923406D01*
X141430602Y-98906857D01*
X141438716Y-98871382D01*
X141445442Y-98810792D01*
X141452153Y-98718898D01*
X141453421Y-98699280D01*
X141458205Y-98613112D01*
X141458984Y-98555272D01*
X141455077Y-98518115D01*
X141445806Y-98494000D01*
X141430489Y-98475284D01*
X141423778Y-98469391D01*
X141411552Y-98462409D01*
X141392948Y-98456518D01*
X141364851Y-98451573D01*
X141324148Y-98447431D01*
X141267724Y-98443948D01*
X141192467Y-98440981D01*
X141095263Y-98438385D01*
X140972996Y-98436017D01*
X140822555Y-98433732D01*
X140640824Y-98431388D01*
X140424690Y-98428841D01*
X140331530Y-98427818D01*
X140103114Y-98425805D01*
X139907847Y-98424866D01*
X139746457Y-98424998D01*
X139619668Y-98426193D01*
X139528206Y-98428448D01*
X139472796Y-98431756D01*
X139454165Y-98436112D01*
X139456735Y-98442610D01*
X139481660Y-98467476D01*
X139524512Y-98497450D01*
X139594859Y-98540348D01*
X139510443Y-98557674D01*
X139446735Y-98570992D01*
X139351145Y-98592548D01*
X139286626Y-98609931D01*
X139249252Y-98624267D01*
X139235096Y-98636684D01*
X139235011Y-98636997D01*
X139249337Y-98651393D01*
X139291032Y-98670658D01*
X139351320Y-98690713D01*
X139413974Y-98710261D01*
X139461280Y-98728047D01*
X139482584Y-98740099D01*
X139474797Y-98752442D01*
X139442548Y-98771837D01*
X139396934Y-98792158D01*
X139349825Y-98808181D01*
X139313091Y-98814683D01*
X139307466Y-98814880D01*
X139287590Y-98826083D01*
X139296225Y-98856056D01*
X139333868Y-98907004D01*
X139382404Y-98964686D01*
X139291685Y-99003572D01*
X139200966Y-99042459D01*
X139308630Y-99103480D01*
X139362425Y-99134565D01*
X139406264Y-99161094D01*
X139427065Y-99175273D01*
X139423241Y-99182347D01*
X139393289Y-99198452D01*
X139342646Y-99217662D01*
X139332405Y-99221166D01*
X139261346Y-99255397D01*
X139222253Y-99298918D01*
X139210295Y-99356807D01*
X139210398Y-99361271D01*
X139217659Y-99387522D01*
X139239617Y-99406789D01*
X139280826Y-99420058D01*
X139345839Y-99428315D01*
X139439209Y-99432546D01*
X139565487Y-99433737D01*
X139616995Y-99434002D01*
X139708403Y-99435918D01*
X139781704Y-99439383D01*
X139830430Y-99444036D01*
X139848109Y-99449516D01*
X139836021Y-99454378D01*
X139792940Y-99461862D01*
X139725412Y-99470470D01*
X139640557Y-99479545D01*
X139545496Y-99488430D01*
X139447349Y-99496465D01*
X139353238Y-99502993D01*
X139270283Y-99507356D01*
X139205605Y-99508895D01*
X139187110Y-99509526D01*
X139143683Y-99520386D01*
X139133218Y-99539619D01*
X139063647Y-99539619D01*
X139071005Y-99534316D01*
X139077912Y-99516377D01*
X139078981Y-99491845D01*
X139086729Y-99450361D01*
X139116499Y-99428302D01*
X139138356Y-99418719D01*
X139154017Y-99397975D01*
X139149619Y-99381193D01*
X139121653Y-99345381D01*
X139080058Y-99315149D01*
X139039165Y-99302423D01*
X139032798Y-99302342D01*
X139011100Y-99296332D01*
X139021172Y-99276128D01*
X139023840Y-99272666D01*
X139026961Y-99255281D01*
X139005303Y-99238313D01*
X138953122Y-99216750D01*
X138926517Y-99206760D01*
X138870460Y-99182689D01*
X138848261Y-99165470D01*
X138858194Y-99152743D01*
X138898532Y-99142151D01*
X138908325Y-99140171D01*
X138953301Y-99127033D01*
X138976714Y-99113359D01*
X138967365Y-99098260D01*
X138931888Y-99072552D01*
X138878021Y-99042263D01*
X138769453Y-98987143D01*
X138886672Y-98952501D01*
X138943928Y-98932666D01*
X138987314Y-98911655D01*
X139003918Y-98895132D01*
X139000844Y-98888079D01*
X138972539Y-98868858D01*
X138924217Y-98851508D01*
X138891972Y-98842872D01*
X138816505Y-98821919D01*
X138741314Y-98800316D01*
X138638139Y-98770021D01*
X138806972Y-98728605D01*
X138849691Y-98717887D01*
X138910510Y-98701556D01*
X138948591Y-98689816D01*
X138957046Y-98684684D01*
X138910793Y-98678419D01*
X138804362Y-98663337D01*
X138709740Y-98649044D01*
X138633275Y-98636558D01*
X138581316Y-98626894D01*
X138560210Y-98621072D01*
X138559770Y-98619516D01*
X138577386Y-98610411D01*
X138618505Y-98600353D01*
X138628172Y-98598350D01*
X138668625Y-98584787D01*
X138685037Y-98569963D01*
X138683299Y-98568123D01*
X138654287Y-98562608D01*
X138592088Y-98557975D01*
X138500016Y-98554364D01*
X138381384Y-98551920D01*
X138239505Y-98550784D01*
X138220448Y-98550724D01*
X138078969Y-98549784D01*
X137972021Y-98547973D01*
X137896935Y-98545148D01*
X137851045Y-98541165D01*
X137831683Y-98535883D01*
X137836181Y-98529158D01*
X137863462Y-98512211D01*
X137878390Y-98492909D01*
X137873821Y-98491392D01*
X137838255Y-98488467D01*
X137770312Y-98485755D01*
X137673428Y-98483312D01*
X137551035Y-98481190D01*
X137406568Y-98479446D01*
X137243462Y-98478132D01*
X137065150Y-98477304D01*
X136875067Y-98477016D01*
X135871744Y-98477016D01*
X135814682Y-98528604D01*
X135787431Y-98561928D01*
X135750802Y-98621825D01*
X135712997Y-98694717D01*
X135679367Y-98769456D01*
X135655265Y-98834896D01*
X135646041Y-98879886D01*
X133317252Y-98879886D01*
X133307463Y-98831860D01*
X133279689Y-98796045D01*
X133228290Y-98771198D01*
X133146402Y-98750072D01*
X133116495Y-98743685D01*
X132907364Y-98705031D01*
X132670542Y-98670355D01*
X132414434Y-98640772D01*
X132147444Y-98617401D01*
X132023315Y-98608191D01*
X131900677Y-98598997D01*
X131789525Y-98590575D01*
X131698503Y-98583579D01*
X131636255Y-98578665D01*
X131500251Y-98567611D01*
X131500251Y-98346601D01*
X143698941Y-98346601D01*
X143710112Y-98379953D01*
X143725665Y-98391390D01*
X143769382Y-98403567D01*
X143828817Y-98410593D01*
X143893416Y-98412322D01*
X143952626Y-98408602D01*
X143995891Y-98399287D01*
X144012659Y-98384225D01*
X144005557Y-98369908D01*
X143970615Y-98347257D01*
X143916276Y-98327610D01*
X143853542Y-98314599D01*
X143793417Y-98311857D01*
X143770626Y-98313773D01*
X143718170Y-98325311D01*
X143698941Y-98346601D01*
X131500251Y-98346601D01*
X131500251Y-98344101D01*
X131499890Y-98257295D01*
X131498884Y-98182684D01*
X131498852Y-98181559D01*
X131804994Y-98181559D01*
X131810214Y-98190647D01*
X131840186Y-98206343D01*
X131880731Y-98208510D01*
X131916392Y-98197910D01*
X131930653Y-98176869D01*
X132044269Y-98176869D01*
X132045163Y-98198271D01*
X132048958Y-98211385D01*
X132049246Y-98211235D01*
X132070783Y-98206909D01*
X132113219Y-98200921D01*
X132161486Y-98187872D01*
X132195242Y-98166405D01*
X132198341Y-98162486D01*
X132202657Y-98147836D01*
X132202022Y-98147623D01*
X132288139Y-98147623D01*
X132288161Y-98147836D01*
X132289340Y-98159221D01*
X132302208Y-98182827D01*
X132307552Y-98183930D01*
X132339920Y-98180107D01*
X132385647Y-98169619D01*
X132888434Y-98169619D01*
X132888518Y-98171042D01*
X132906641Y-98187389D01*
X132947373Y-98195342D01*
X132997656Y-98194933D01*
X133044432Y-98186195D01*
X133074640Y-98169159D01*
X133083678Y-98155596D01*
X133080055Y-98133574D01*
X133042752Y-98125233D01*
X132991805Y-98129403D01*
X132972795Y-98130959D01*
X132956981Y-98133635D01*
X132906358Y-98149206D01*
X132888434Y-98169619D01*
X132385647Y-98169619D01*
X132387897Y-98169103D01*
X132438383Y-98154559D01*
X132478280Y-98140112D01*
X132494490Y-98129403D01*
X132485308Y-98125779D01*
X132447832Y-98122040D01*
X132391314Y-98120591D01*
X132334063Y-98122685D01*
X132298548Y-98131123D01*
X132288139Y-98147623D01*
X132202022Y-98147623D01*
X132182338Y-98141022D01*
X132130982Y-98139350D01*
X132120966Y-98139388D01*
X132072044Y-98142538D01*
X132049634Y-98153666D01*
X132044631Y-98175305D01*
X132044269Y-98176869D01*
X131930653Y-98176869D01*
X131931713Y-98175305D01*
X131930973Y-98172760D01*
X131908512Y-98162336D01*
X131864493Y-98158109D01*
X131859136Y-98158147D01*
X131814608Y-98164375D01*
X131804994Y-98181559D01*
X131498852Y-98181559D01*
X131497389Y-98129793D01*
X131495561Y-98106522D01*
X131502120Y-98096296D01*
X131533080Y-98086458D01*
X131548063Y-98083393D01*
X131559431Y-98075385D01*
X131567091Y-98057101D01*
X131571775Y-98023093D01*
X131574215Y-97967913D01*
X131575141Y-97886112D01*
X131575288Y-97772240D01*
X131575288Y-97464018D01*
X131525772Y-97464018D01*
X131506210Y-97463751D01*
X131491767Y-97459675D01*
X131503877Y-97446137D01*
X131544868Y-97417457D01*
X131572136Y-97399261D01*
X131603934Y-97382763D01*
X131625167Y-97385544D01*
X131648786Y-97406201D01*
X131668608Y-97433498D01*
X131666839Y-97458759D01*
X131662703Y-97470211D01*
X131655838Y-97514594D01*
X131648965Y-97585425D01*
X131642694Y-97675981D01*
X131637637Y-97779542D01*
X131625688Y-98083073D01*
X132472792Y-98083073D01*
X133319896Y-98083073D01*
X133319896Y-97989276D01*
X133319896Y-97895480D01*
X133472567Y-97895480D01*
X133518846Y-97894743D01*
X133619013Y-97890385D01*
X133730143Y-97882987D01*
X133835576Y-97873555D01*
X133910247Y-97865925D01*
X133978677Y-97860354D01*
X134025961Y-97860126D01*
X134061146Y-97866031D01*
X134093276Y-97878861D01*
X134131397Y-97899406D01*
X134216878Y-97947182D01*
X134245087Y-97917796D01*
X134341783Y-97917796D01*
X134344073Y-97930840D01*
X134367165Y-97932999D01*
X134391005Y-97925760D01*
X134414509Y-97891114D01*
X134419043Y-97866735D01*
X134413465Y-97838330D01*
X134392971Y-97841125D01*
X134363909Y-97876905D01*
X134359722Y-97884009D01*
X134341783Y-97917796D01*
X134245087Y-97917796D01*
X134300218Y-97860364D01*
X134301769Y-97858732D01*
X134328113Y-97829972D01*
X134376117Y-97776696D01*
X134420878Y-97726732D01*
X134504883Y-97726732D01*
X134510723Y-97733950D01*
X134529586Y-97728262D01*
X134549049Y-97705409D01*
X134558006Y-97675997D01*
X134549949Y-97655671D01*
X134528501Y-97655164D01*
X134508749Y-97679130D01*
X134504970Y-97692393D01*
X134504883Y-97726732D01*
X134420878Y-97726732D01*
X134442928Y-97702119D01*
X134525693Y-97609456D01*
X134579880Y-97548672D01*
X134664898Y-97548672D01*
X134691077Y-97557814D01*
X134713400Y-97551852D01*
X134726839Y-97520296D01*
X134721933Y-97498410D01*
X134700888Y-97482777D01*
X134683969Y-97489809D01*
X134665126Y-97520296D01*
X134664898Y-97548672D01*
X134579880Y-97548672D01*
X134621559Y-97501918D01*
X134727673Y-97382721D01*
X134737884Y-97371239D01*
X134824101Y-97371239D01*
X134825315Y-97373964D01*
X134842605Y-97373722D01*
X134873476Y-97342191D01*
X134896829Y-97307623D01*
X134904357Y-97282101D01*
X134889751Y-97280837D01*
X134855418Y-97308342D01*
X134830424Y-97342236D01*
X134824101Y-97371239D01*
X134737884Y-97371239D01*
X134841183Y-97255078D01*
X134938883Y-97145111D01*
X135071538Y-97145111D01*
X135073921Y-97143333D01*
X135095871Y-97122648D01*
X135135479Y-97083664D01*
X135186440Y-97032556D01*
X135202443Y-97016145D01*
X135248283Y-96965036D01*
X135271008Y-96931836D01*
X135268109Y-96920000D01*
X135232919Y-96930847D01*
X135190053Y-96958722D01*
X135154422Y-96992876D01*
X135139542Y-97022530D01*
X135137247Y-97033645D01*
X135114006Y-97057100D01*
X135097428Y-97069920D01*
X135078244Y-97106005D01*
X135072755Y-97129792D01*
X135071538Y-97145111D01*
X134938883Y-97145111D01*
X134959235Y-97122203D01*
X135078976Y-96987309D01*
X135197555Y-96853611D01*
X135284645Y-96755324D01*
X135415830Y-96755324D01*
X135418057Y-96769926D01*
X135441813Y-96757192D01*
X135474245Y-96725668D01*
X135502587Y-96688999D01*
X135514726Y-96660852D01*
X135509762Y-96642166D01*
X135490282Y-96640337D01*
X135462987Y-96662579D01*
X135435397Y-96704731D01*
X135428714Y-96718890D01*
X135415830Y-96755324D01*
X135284645Y-96755324D01*
X135312116Y-96724321D01*
X135419809Y-96602655D01*
X135446064Y-96572954D01*
X135571004Y-96572954D01*
X135571633Y-96581012D01*
X135587318Y-96600536D01*
X135614776Y-96588587D01*
X135620322Y-96582187D01*
X135624980Y-96556242D01*
X135599143Y-96544816D01*
X135586020Y-96548084D01*
X135571004Y-96572954D01*
X135446064Y-96572954D01*
X135504102Y-96507297D01*
X135646041Y-96507297D01*
X135646256Y-96511542D01*
X135654314Y-96526056D01*
X135657323Y-96525193D01*
X135674180Y-96507297D01*
X135677111Y-96500030D01*
X135665907Y-96488538D01*
X135660462Y-96489259D01*
X135646041Y-96507297D01*
X135504102Y-96507297D01*
X135517780Y-96491824D01*
X135603175Y-96395044D01*
X135645102Y-96347396D01*
X135777356Y-96347396D01*
X135783683Y-96374362D01*
X135807127Y-96383059D01*
X135840506Y-96359994D01*
X135863510Y-96325583D01*
X135871468Y-96295174D01*
X135860539Y-96282186D01*
X135860046Y-96282190D01*
X135825444Y-96294187D01*
X135792212Y-96320366D01*
X135777356Y-96347396D01*
X135645102Y-96347396D01*
X135673143Y-96315528D01*
X135724830Y-96256490D01*
X135755383Y-96221143D01*
X135761835Y-96213036D01*
X135773597Y-96181191D01*
X135760952Y-96139171D01*
X135751058Y-96115976D01*
X135749198Y-96098276D01*
X135767355Y-96101728D01*
X135782669Y-96107914D01*
X135827228Y-96125881D01*
X135841369Y-96130046D01*
X135851789Y-96120479D01*
X135847239Y-96082896D01*
X135842428Y-96045666D01*
X135855342Y-96031771D01*
X135895852Y-96032823D01*
X135896171Y-96032852D01*
X135914212Y-96033041D01*
X135932645Y-96028250D01*
X135954429Y-96015508D01*
X135959982Y-96010830D01*
X136077503Y-96010830D01*
X136077636Y-96012571D01*
X136093044Y-96018597D01*
X136128086Y-96005465D01*
X136174216Y-95977415D01*
X136222887Y-95938688D01*
X136257548Y-95900704D01*
X136260346Y-95877224D01*
X136229521Y-95869483D01*
X136205425Y-95879527D01*
X136166001Y-95908828D01*
X136124188Y-95947314D01*
X136091012Y-95984733D01*
X136077503Y-96010830D01*
X135959982Y-96010830D01*
X135982527Y-95991839D01*
X136019900Y-95954271D01*
X136069510Y-95899828D01*
X136134318Y-95825538D01*
X136174319Y-95778717D01*
X136305162Y-95778717D01*
X136307189Y-95802273D01*
X136335443Y-95799694D01*
X136338059Y-95798610D01*
X136355796Y-95777517D01*
X136356707Y-95751127D01*
X136339544Y-95738169D01*
X136328860Y-95741760D01*
X136309088Y-95767116D01*
X136305162Y-95778717D01*
X136174319Y-95778717D01*
X136217285Y-95728426D01*
X136283740Y-95649955D01*
X136396410Y-95649955D01*
X136398786Y-95659017D01*
X136419684Y-95662908D01*
X136455021Y-95645592D01*
X136496076Y-95610517D01*
X136506896Y-95598718D01*
X136537521Y-95555935D01*
X136546562Y-95524979D01*
X136531405Y-95513058D01*
X136511250Y-95524805D01*
X136476860Y-95555073D01*
X136439211Y-95593165D01*
X136408872Y-95628365D01*
X136396410Y-95649955D01*
X136283740Y-95649955D01*
X136321373Y-95605518D01*
X136353676Y-95567167D01*
X136443292Y-95459268D01*
X136523674Y-95360311D01*
X136591772Y-95274196D01*
X136644537Y-95204820D01*
X136678920Y-95156080D01*
X136691873Y-95131874D01*
X136687271Y-95093160D01*
X136662858Y-95031580D01*
X136624716Y-94966517D01*
X136580311Y-94910339D01*
X136537105Y-94875412D01*
X136511758Y-94860963D01*
X136488429Y-94832595D01*
X136486608Y-94787443D01*
X136492389Y-94727782D01*
X136559573Y-94773374D01*
X136575729Y-94783810D01*
X136623293Y-94809141D01*
X136656968Y-94819563D01*
X136666312Y-94820097D01*
X136673818Y-94827205D01*
X136650857Y-94847634D01*
X136638288Y-94858178D01*
X136629678Y-94872449D01*
X136630356Y-94893104D01*
X136642339Y-94925292D01*
X136667640Y-94974165D01*
X136708275Y-95044872D01*
X136766260Y-95142563D01*
X136830589Y-95250429D01*
X137326114Y-95250429D01*
X137821639Y-95250429D01*
X137777898Y-95151943D01*
X137726113Y-95037501D01*
X137683933Y-94950429D01*
X137649664Y-94888824D01*
X137620342Y-94847919D01*
X137593002Y-94822948D01*
X137564679Y-94809145D01*
X137533415Y-94797125D01*
X137517403Y-94779957D01*
X137526298Y-94752867D01*
X137539251Y-94729237D01*
X137550079Y-94710765D01*
X137550523Y-94710466D01*
X137570239Y-94716148D01*
X137608280Y-94734099D01*
X137609295Y-94734626D01*
X137653874Y-94754335D01*
X137685519Y-94762573D01*
X137694902Y-94765303D01*
X137699074Y-94786938D01*
X137700846Y-94806333D01*
X137715315Y-94853986D01*
X137739978Y-94920094D01*
X137771261Y-94996312D01*
X137805588Y-95074293D01*
X137839387Y-95145690D01*
X137869082Y-95202158D01*
X137891099Y-95235349D01*
X137916144Y-95256222D01*
X137950435Y-95269188D01*
X137979705Y-95279940D01*
X138018422Y-95306962D01*
X138051788Y-95338897D01*
X138065982Y-95364358D01*
X138063519Y-95369366D01*
X138042704Y-95399593D01*
X138003430Y-95452771D01*
X137949015Y-95524502D01*
X137948647Y-95524979D01*
X137882780Y-95610389D01*
X137808043Y-95706035D01*
X137772586Y-95751127D01*
X137751917Y-95777413D01*
X137673736Y-95876824D01*
X137673421Y-95877224D01*
X137578114Y-95998400D01*
X137467983Y-96138414D01*
X137346275Y-96293137D01*
X137344673Y-96295174D01*
X137215923Y-96458842D01*
X137183521Y-96500030D01*
X137139301Y-96556242D01*
X137079859Y-96631803D01*
X137057006Y-96660852D01*
X136941013Y-96808292D01*
X136843816Y-96931836D01*
X136802320Y-96984581D01*
X136759276Y-97039327D01*
X136632246Y-97201322D01*
X136569165Y-97282101D01*
X136513205Y-97353760D01*
X136404063Y-97494158D01*
X136383852Y-97520296D01*
X136306731Y-97620031D01*
X136263747Y-97675997D01*
X136223119Y-97728895D01*
X136155137Y-97818267D01*
X136118860Y-97866735D01*
X136104695Y-97885661D01*
X136073704Y-97928594D01*
X136064074Y-97944582D01*
X136074104Y-97946169D01*
X136115918Y-97944919D01*
X136183610Y-97939848D01*
X136270313Y-97931744D01*
X136369161Y-97921396D01*
X136473289Y-97909591D01*
X136575830Y-97897119D01*
X136669919Y-97884767D01*
X136748691Y-97873324D01*
X136805280Y-97863578D01*
X136832819Y-97856317D01*
X136848636Y-97851182D01*
X136905847Y-97848926D01*
X136990400Y-97858453D01*
X137020368Y-97863174D01*
X137076091Y-97870014D01*
X137111392Y-97867683D01*
X137138177Y-97854085D01*
X137168357Y-97827123D01*
X137199796Y-97799088D01*
X137217356Y-97791936D01*
X137221817Y-97808800D01*
X137224914Y-97823021D01*
X137247720Y-97838712D01*
X137281765Y-97836328D01*
X137313905Y-97818424D01*
X137330994Y-97787559D01*
X137336060Y-97771031D01*
X137362115Y-97725661D01*
X137401341Y-97677070D01*
X137402454Y-97675888D01*
X137442771Y-97626665D01*
X137461255Y-97580774D01*
X137465687Y-97519111D01*
X137466605Y-97488651D01*
X137479585Y-97426059D01*
X137512585Y-97373643D01*
X137519038Y-97365598D01*
X137547799Y-97318310D01*
X137559483Y-97278407D01*
X137562498Y-97254731D01*
X137574490Y-97238907D01*
X137593629Y-97244980D01*
X137618144Y-97272995D01*
X137621879Y-97306299D01*
X137621290Y-97308215D01*
X137627285Y-97340630D01*
X137651484Y-97381580D01*
X137665837Y-97402771D01*
X137685136Y-97457402D01*
X137690797Y-97534621D01*
X137691097Y-97561053D01*
X137697163Y-97617518D01*
X137715987Y-97660512D01*
X137754006Y-97707648D01*
X137775273Y-97732078D01*
X137808745Y-97774864D01*
X137825625Y-97802844D01*
X137829043Y-97809912D01*
X137845079Y-97818181D01*
X137879675Y-97815655D01*
X137941503Y-97802294D01*
X137988981Y-97789591D01*
X138036434Y-97773398D01*
X138058584Y-97760960D01*
X138061856Y-97757942D01*
X138092755Y-97749003D01*
X138142126Y-97745406D01*
X138216056Y-97745406D01*
X138216056Y-97540585D01*
X138216056Y-97335763D01*
X138282947Y-97294423D01*
X138288414Y-97291036D01*
X138323302Y-97266850D01*
X138341049Y-97242183D01*
X138346702Y-97204708D01*
X138345308Y-97142095D01*
X138344878Y-97086000D01*
X138352517Y-97032870D01*
X138371272Y-97000615D01*
X138377001Y-96995060D01*
X138403740Y-96980287D01*
X138431809Y-96995055D01*
X138448834Y-97017659D01*
X138454567Y-97055582D01*
X138449493Y-97118905D01*
X138445592Y-97153707D01*
X138445173Y-97200974D01*
X138457192Y-97233499D01*
X138485196Y-97265883D01*
X138490831Y-97271360D01*
X138529009Y-97301595D01*
X138557559Y-97313907D01*
X138561927Y-97314935D01*
X138571079Y-97330199D01*
X138576192Y-97367697D01*
X138577699Y-97432489D01*
X138576035Y-97529638D01*
X138570210Y-97745406D01*
X138766130Y-97745406D01*
X138819248Y-97745572D01*
X138890965Y-97744254D01*
X138938020Y-97735747D01*
X138966306Y-97714045D01*
X138981716Y-97673145D01*
X138990145Y-97607043D01*
X138997487Y-97509736D01*
X139001087Y-97438490D01*
X138998821Y-97364043D01*
X138988601Y-97320328D01*
X138979365Y-97293830D01*
X138984549Y-97265230D01*
X138991059Y-97252203D01*
X138999817Y-97206709D01*
X139005154Y-97141957D01*
X139006916Y-97069257D01*
X139004951Y-96999917D01*
X138999108Y-96945244D01*
X138989235Y-96916548D01*
X138988837Y-96916147D01*
X138969990Y-96889188D01*
X138968473Y-96870980D01*
X138985336Y-96873196D01*
X138995789Y-96870566D01*
X139018147Y-96842916D01*
X139042955Y-96794576D01*
X139057404Y-96762894D01*
X139086538Y-96707858D01*
X139110897Y-96671960D01*
X139122806Y-96654499D01*
X139133084Y-96610588D01*
X139130685Y-96541338D01*
X139128784Y-96486695D01*
X139135558Y-96413750D01*
X139151097Y-96354086D01*
X139173105Y-96319705D01*
X139174601Y-96313965D01*
X139177872Y-96276358D01*
X139181440Y-96207172D01*
X139185177Y-96110353D01*
X139188953Y-95989846D01*
X139192638Y-95849594D01*
X139196102Y-95693543D01*
X139199216Y-95525639D01*
X139212387Y-94740952D01*
X139143104Y-94675611D01*
X139108911Y-94640725D01*
X139089413Y-94609531D01*
X139095161Y-94588931D01*
X139112727Y-94577593D01*
X139139010Y-94590104D01*
X139171353Y-94610886D01*
X139194560Y-94606161D01*
X139197525Y-94577213D01*
X139195845Y-94555383D01*
X139208661Y-94529208D01*
X139217278Y-94525628D01*
X139229054Y-94535131D01*
X139234469Y-94551334D01*
X139257806Y-94582409D01*
X139276241Y-94611817D01*
X139264616Y-94646296D01*
X139264086Y-94647215D01*
X139258770Y-94667135D01*
X139254920Y-94706055D01*
X139252529Y-94766616D01*
X139251587Y-94851460D01*
X139252089Y-94963228D01*
X139254025Y-95104563D01*
X139257389Y-95278106D01*
X139262172Y-95486498D01*
X139264380Y-95576987D01*
X139268968Y-95757886D01*
X139273130Y-95906480D01*
X139277101Y-96026387D01*
X139281115Y-96121225D01*
X139285408Y-96194612D01*
X139290214Y-96250168D01*
X139295768Y-96291509D01*
X139302304Y-96322254D01*
X139310058Y-96346021D01*
X139319263Y-96366428D01*
X139331490Y-96392449D01*
X139345441Y-96441019D01*
X139337967Y-96476586D01*
X139336372Y-96479729D01*
X139327089Y-96538553D01*
X139345157Y-96609709D01*
X139388212Y-96683454D01*
X139396143Y-96694570D01*
X139424105Y-96748287D01*
X139435406Y-96795751D01*
X139442163Y-96831783D01*
X139475067Y-96860844D01*
X139491607Y-96867493D01*
X139503785Y-96881485D01*
X139484447Y-96905798D01*
X139483325Y-96906990D01*
X139467806Y-96941336D01*
X139457374Y-96997235D01*
X139452071Y-97064906D01*
X139451937Y-97134566D01*
X139457014Y-97196434D01*
X139467342Y-97240728D01*
X139482964Y-97257666D01*
X139486884Y-97257752D01*
X139502129Y-97266237D01*
X139491793Y-97294981D01*
X139483786Y-97328100D01*
X139482445Y-97390700D01*
X139488532Y-97467266D01*
X139500575Y-97545787D01*
X139517100Y-97614253D01*
X139536635Y-97660652D01*
X139552796Y-97694523D01*
X139547753Y-97717396D01*
X139538216Y-97731779D01*
X139530572Y-97774418D01*
X139530669Y-97829298D01*
X139538148Y-97881796D01*
X139552651Y-97917289D01*
X139599093Y-97960462D01*
X139655895Y-97991902D01*
X139712166Y-98007330D01*
X139758389Y-98004183D01*
X139785048Y-97979897D01*
X139788013Y-97974370D01*
X139809757Y-97960926D01*
X139855114Y-97953829D01*
X139930947Y-97951758D01*
X139969077Y-97951137D01*
X140053596Y-97942630D01*
X140102463Y-97924216D01*
X140157692Y-97899801D01*
X140219413Y-97902195D01*
X140270192Y-97932999D01*
X140271265Y-97934157D01*
X140320164Y-97961288D01*
X140391164Y-97970060D01*
X140473977Y-97960488D01*
X140558319Y-97932587D01*
X140582313Y-97922145D01*
X140655430Y-97899784D01*
X140720518Y-97900653D01*
X140793872Y-97924168D01*
X140813955Y-97930753D01*
X140868084Y-97942319D01*
X140938094Y-97952940D01*
X141015162Y-97961799D01*
X141090463Y-97968081D01*
X141155175Y-97970972D01*
X141200473Y-97969655D01*
X141217533Y-97963316D01*
X141215820Y-97957682D01*
X141200308Y-97925066D01*
X141190991Y-97907427D01*
X141316287Y-97907427D01*
X141317629Y-97941117D01*
X141322176Y-97949771D01*
X141346978Y-97967804D01*
X141373754Y-97967379D01*
X141386079Y-97947068D01*
X141383895Y-97932901D01*
X141368101Y-97895637D01*
X141356190Y-97883836D01*
X141332751Y-97885080D01*
X141316287Y-97907427D01*
X141190991Y-97907427D01*
X141172116Y-97871690D01*
X141135496Y-97805723D01*
X141122420Y-97782329D01*
X141079256Y-97702559D01*
X141027068Y-97603494D01*
X141023118Y-97595848D01*
X141198789Y-97595848D01*
X141200335Y-97613800D01*
X141212306Y-97668587D01*
X141232240Y-97730268D01*
X141251003Y-97774317D01*
X141271541Y-97802598D01*
X141291285Y-97802478D01*
X141291524Y-97802330D01*
X141305080Y-97786436D01*
X141303108Y-97758065D01*
X141284910Y-97706715D01*
X141276790Y-97687208D01*
X141249759Y-97629787D01*
X141226164Y-97588670D01*
X142666426Y-97588670D01*
X142689776Y-97624576D01*
X142698880Y-97635965D01*
X142718524Y-97649555D01*
X142735529Y-97633597D01*
X142744419Y-97622340D01*
X142763025Y-97619372D01*
X142793901Y-97642767D01*
X142841767Y-97694934D01*
X142856581Y-97736745D01*
X142839378Y-97771694D01*
X142826697Y-97786436D01*
X142824706Y-97788751D01*
X142821745Y-97812060D01*
X142841572Y-97848034D01*
X142845711Y-97854311D01*
X142870954Y-97887661D01*
X142886349Y-97890932D01*
X142892697Y-97879053D01*
X143327743Y-97879053D01*
X143338712Y-97906530D01*
X143361762Y-97924630D01*
X143407546Y-97930739D01*
X143439622Y-97912074D01*
X143828308Y-97912074D01*
X143844481Y-97928622D01*
X143893058Y-97947068D01*
X143897590Y-97948789D01*
X143913448Y-97953453D01*
X143956521Y-97965095D01*
X143977317Y-97969036D01*
X144010082Y-97958011D01*
X144369084Y-97958011D01*
X144369103Y-97959099D01*
X144383715Y-97979621D01*
X144417552Y-97979484D01*
X144458881Y-97958608D01*
X144475407Y-97943805D01*
X144469007Y-97935714D01*
X144430051Y-97933595D01*
X144396754Y-97937929D01*
X144386167Y-97939307D01*
X144369084Y-97958011D01*
X144010082Y-97958011D01*
X144011375Y-97957576D01*
X144027215Y-97937929D01*
X144013995Y-97917688D01*
X143975834Y-97901868D01*
X143916855Y-97895480D01*
X143904693Y-97895582D01*
X143898989Y-97896090D01*
X143848552Y-97900582D01*
X143828308Y-97912074D01*
X143439622Y-97912074D01*
X143447886Y-97907265D01*
X143455210Y-97896090D01*
X143448872Y-97881034D01*
X143410737Y-97869830D01*
X143399093Y-97867696D01*
X143348956Y-97865556D01*
X143327743Y-97879053D01*
X142892697Y-97879053D01*
X142899394Y-97866522D01*
X142904729Y-97838950D01*
X142897982Y-97773507D01*
X142874394Y-97696936D01*
X142838706Y-97620466D01*
X142795661Y-97555328D01*
X142750001Y-97512752D01*
X142746420Y-97510646D01*
X142716219Y-97503968D01*
X142689034Y-97528571D01*
X142667616Y-97561359D01*
X142666426Y-97588670D01*
X141226164Y-97588670D01*
X141225850Y-97588122D01*
X141209627Y-97565932D01*
X141200207Y-97563547D01*
X141198789Y-97595848D01*
X141023118Y-97595848D01*
X140971288Y-97495509D01*
X140917347Y-97388981D01*
X140899584Y-97353692D01*
X140897282Y-97349208D01*
X141051740Y-97349208D01*
X141063908Y-97396136D01*
X141076506Y-97424533D01*
X141093308Y-97468708D01*
X141101883Y-97486184D01*
X141123148Y-97501536D01*
X141138632Y-97490606D01*
X141141182Y-97455576D01*
X141128252Y-97405918D01*
X141101275Y-97351462D01*
X141075353Y-97313468D01*
X141060566Y-97303916D01*
X141052596Y-97321099D01*
X141051740Y-97349208D01*
X140897282Y-97349208D01*
X140842000Y-97241550D01*
X140782744Y-97128991D01*
X140772624Y-97110258D01*
X140919586Y-97110258D01*
X140922350Y-97148108D01*
X140945524Y-97182629D01*
X140960429Y-97198948D01*
X140973663Y-97231824D01*
X140975397Y-97242645D01*
X140992422Y-97257666D01*
X140998527Y-97255242D01*
X141008469Y-97229444D01*
X141009268Y-97198068D01*
X142420873Y-97198068D01*
X142429326Y-97227091D01*
X142456915Y-97276721D01*
X142505293Y-97351687D01*
X142520557Y-97374589D01*
X142557671Y-97429765D01*
X142575376Y-97455576D01*
X142583923Y-97468037D01*
X142594399Y-97482207D01*
X142604696Y-97478621D01*
X142640484Y-97454632D01*
X142657893Y-97424928D01*
X142653648Y-97399660D01*
X142624475Y-97388981D01*
X142604191Y-97384891D01*
X142562562Y-97361424D01*
X142526989Y-97327508D01*
X142511920Y-97295185D01*
X142515095Y-97286555D01*
X142540059Y-97276426D01*
X142556611Y-97275533D01*
X142565931Y-97267073D01*
X142559376Y-97242339D01*
X142536584Y-97192645D01*
X142524838Y-97169866D01*
X142499418Y-97134388D01*
X142481306Y-97128465D01*
X142474402Y-97154491D01*
X142471133Y-97167613D01*
X142446263Y-97182629D01*
X142429905Y-97184921D01*
X142428738Y-97186620D01*
X142420873Y-97198068D01*
X141009268Y-97198068D01*
X141009560Y-97186620D01*
X141002286Y-97140783D01*
X140987136Y-97105946D01*
X140970120Y-97090524D01*
X140940834Y-97084060D01*
X140937997Y-97085180D01*
X140919586Y-97110258D01*
X140772624Y-97110258D01*
X140727857Y-97027394D01*
X140709076Y-96993930D01*
X140842348Y-96993930D01*
X140845063Y-97015395D01*
X140859142Y-97040720D01*
X140876100Y-97039250D01*
X140887613Y-97015038D01*
X140884920Y-96980968D01*
X140871010Y-96960522D01*
X140851666Y-96963173D01*
X140842348Y-96993930D01*
X140709076Y-96993930D01*
X140683376Y-96948139D01*
X140665578Y-96917050D01*
X140639302Y-96870167D01*
X142177120Y-96870167D01*
X142200859Y-96899547D01*
X142230354Y-96927718D01*
X142256957Y-96936234D01*
X142271364Y-96911953D01*
X142275562Y-96902595D01*
X142293672Y-96903417D01*
X142330103Y-96930747D01*
X142342933Y-96942616D01*
X142368857Y-96979860D01*
X142361961Y-97004737D01*
X142322561Y-97013796D01*
X142319527Y-97013821D01*
X142315514Y-97015038D01*
X142296222Y-97020888D01*
X142303534Y-97046625D01*
X142317945Y-97070723D01*
X142347619Y-97114290D01*
X142366061Y-97135323D01*
X142381951Y-97132724D01*
X142405271Y-97100881D01*
X142427416Y-97061985D01*
X142436883Y-97034935D01*
X142435391Y-97029493D01*
X142417260Y-96999304D01*
X142384343Y-96954336D01*
X142343991Y-96903628D01*
X142303557Y-96856218D01*
X142270391Y-96821144D01*
X142251846Y-96807445D01*
X142235130Y-96813230D01*
X142201537Y-96833889D01*
X142179172Y-96852228D01*
X142178601Y-96857220D01*
X142177120Y-96870167D01*
X140639302Y-96870167D01*
X140620543Y-96836696D01*
X140577894Y-96759455D01*
X140733856Y-96759455D01*
X140748947Y-96808398D01*
X140749937Y-96810751D01*
X140770528Y-96848243D01*
X140788347Y-96863722D01*
X140801599Y-96857220D01*
X140799948Y-96824657D01*
X140773667Y-96764305D01*
X140768581Y-96754977D01*
X140746631Y-96727468D01*
X140734070Y-96730719D01*
X140733856Y-96759455D01*
X140577894Y-96759455D01*
X140563976Y-96734248D01*
X140499838Y-96616932D01*
X140433152Y-96493936D01*
X140598478Y-96493936D01*
X140600889Y-96503571D01*
X140621370Y-96539075D01*
X140655938Y-96583043D01*
X140713398Y-96647991D01*
X140710517Y-96634505D01*
X142069820Y-96634505D01*
X142096920Y-96638612D01*
X142120885Y-96633332D01*
X142136735Y-96610473D01*
X142134888Y-96597562D01*
X142120273Y-96582334D01*
X142107538Y-96586891D01*
X142080458Y-96610473D01*
X142075263Y-96616995D01*
X142069820Y-96634505D01*
X140710517Y-96634505D01*
X140701375Y-96591714D01*
X140698706Y-96580911D01*
X140679647Y-96534811D01*
X140653711Y-96496997D01*
X140627282Y-96473536D01*
X140606743Y-96470494D01*
X140598478Y-96493936D01*
X140433152Y-96493936D01*
X140432088Y-96491974D01*
X140404984Y-96441557D01*
X141942926Y-96441557D01*
X141953377Y-96480959D01*
X141970271Y-96512696D01*
X141990857Y-96523707D01*
X142023284Y-96508248D01*
X142038778Y-96500926D01*
X142065493Y-96500262D01*
X142066982Y-96501159D01*
X142079998Y-96501927D01*
X142070406Y-96477592D01*
X142039538Y-96431671D01*
X142037091Y-96428371D01*
X142009360Y-96395315D01*
X141989524Y-96389258D01*
X141965723Y-96406093D01*
X141959765Y-96411729D01*
X141942926Y-96441557D01*
X140404984Y-96441557D01*
X140364688Y-96366603D01*
X140331876Y-96305327D01*
X140267165Y-96184716D01*
X140440304Y-96184716D01*
X140450902Y-96221509D01*
X140474188Y-96270498D01*
X140506427Y-96322155D01*
X140531006Y-96352446D01*
X140558810Y-96373656D01*
X140573161Y-96367752D01*
X140568904Y-96333774D01*
X140560598Y-96313408D01*
X140534231Y-96267296D01*
X140524928Y-96254239D01*
X141821918Y-96254239D01*
X141822939Y-96275917D01*
X141842985Y-96307925D01*
X141875686Y-96321274D01*
X141907934Y-96307803D01*
X141921835Y-96282082D01*
X141911048Y-96243590D01*
X141904489Y-96233371D01*
X141872390Y-96212436D01*
X141840206Y-96219949D01*
X141821918Y-96254239D01*
X140524928Y-96254239D01*
X140500891Y-96220500D01*
X140468916Y-96184214D01*
X140446642Y-96169631D01*
X140446130Y-96169648D01*
X140440304Y-96184716D01*
X140267165Y-96184716D01*
X140262477Y-96175978D01*
X140194028Y-96048709D01*
X140130708Y-95931274D01*
X140103400Y-95880794D01*
X141598327Y-95880794D01*
X141600795Y-95900822D01*
X141620007Y-95935899D01*
X141621165Y-95937428D01*
X141639323Y-95958127D01*
X141646701Y-95950570D01*
X141648399Y-95910128D01*
X141647360Y-95892235D01*
X141635268Y-95860215D01*
X141616165Y-95854786D01*
X141598327Y-95880794D01*
X140103400Y-95880794D01*
X140076695Y-95831429D01*
X140036170Y-95756928D01*
X140014883Y-95717993D01*
X139969816Y-95635470D01*
X141435677Y-95635470D01*
X141439532Y-95665517D01*
X141469774Y-95703280D01*
X141471272Y-95704602D01*
X141499063Y-95739312D01*
X141504879Y-95768460D01*
X141503751Y-95783014D01*
X141525642Y-95794446D01*
X141544328Y-95791595D01*
X141565182Y-95768408D01*
X141559842Y-95726713D01*
X141528186Y-95672320D01*
X141510575Y-95650034D01*
X141475777Y-95615149D01*
X141452316Y-95610894D01*
X141435677Y-95635470D01*
X139969816Y-95635470D01*
X139937116Y-95575594D01*
X139910847Y-95527127D01*
X141343566Y-95527127D01*
X141355535Y-95542675D01*
X141386889Y-95549422D01*
X141414485Y-95531850D01*
X141415308Y-95510012D01*
X141398473Y-95473740D01*
X141382590Y-95452400D01*
X141367933Y-95446056D01*
X141353023Y-95469018D01*
X141344510Y-95492311D01*
X141343566Y-95527127D01*
X139910847Y-95527127D01*
X139875182Y-95461322D01*
X139827380Y-95371294D01*
X139792006Y-95301625D01*
X139790849Y-95299128D01*
X141193265Y-95299128D01*
X141212493Y-95330155D01*
X141230374Y-95344332D01*
X141265423Y-95359845D01*
X141297371Y-95365219D01*
X141311329Y-95356486D01*
X141310100Y-95350378D01*
X141296981Y-95319930D01*
X141275875Y-95280446D01*
X141254775Y-95246251D01*
X141241676Y-95231669D01*
X141230540Y-95238202D01*
X141206964Y-95264498D01*
X141203473Y-95269411D01*
X141193265Y-95299128D01*
X139790849Y-95299128D01*
X139767358Y-95248431D01*
X139751734Y-95207828D01*
X139743429Y-95175931D01*
X139740743Y-95148856D01*
X139741972Y-95122719D01*
X139745412Y-95093636D01*
X139747271Y-95078760D01*
X141042248Y-95078760D01*
X141059267Y-95131422D01*
X141095695Y-95163454D01*
X141119701Y-95172183D01*
X141139183Y-95171081D01*
X141159513Y-95149352D01*
X141166780Y-95137674D01*
X141164601Y-95110190D01*
X141136464Y-95069625D01*
X141131637Y-95063731D01*
X141100088Y-95020549D01*
X141081867Y-94987799D01*
X141079716Y-94982634D01*
X141067998Y-94979473D01*
X141051400Y-95011248D01*
X141048581Y-95019017D01*
X141042248Y-95078760D01*
X139747271Y-95078760D01*
X139757836Y-94994201D01*
X139834695Y-94995690D01*
X139911554Y-94997179D01*
X139999952Y-94803244D01*
X140048009Y-94703893D01*
X140093253Y-94625200D01*
X140129500Y-94580200D01*
X140156139Y-94569637D01*
X140172555Y-94594252D01*
X140174365Y-94617105D01*
X140157357Y-94631374D01*
X140142425Y-94643442D01*
X140113791Y-94683116D01*
X140077064Y-94743889D01*
X140036616Y-94818966D01*
X139940780Y-95006559D01*
X140424393Y-95005547D01*
X140908006Y-95004536D01*
X140991206Y-94888302D01*
X141020133Y-94847883D01*
X141082655Y-94760218D01*
X141126909Y-94697051D01*
X141155483Y-94654020D01*
X141170970Y-94626765D01*
X141175958Y-94610926D01*
X141173038Y-94602140D01*
X141164800Y-94596046D01*
X141160127Y-94591914D01*
X141168342Y-94575106D01*
X141213137Y-94553039D01*
X141285236Y-94524718D01*
X141303819Y-94584089D01*
X141303918Y-94584407D01*
X141314272Y-94624077D01*
X141307338Y-94637835D01*
X141278450Y-94635059D01*
X141255011Y-94632490D01*
X141234699Y-94638801D01*
X141211499Y-94659508D01*
X141179265Y-94700103D01*
X141131854Y-94766077D01*
X141082919Y-94835123D01*
X141277876Y-95137674D01*
X141418873Y-95356486D01*
G37*
%TO.C,LOGO101*%
G36*
X132250800Y-81127496D02*
G01*
X132310668Y-81269000D01*
X132282839Y-81378465D01*
X132141335Y-81438334D01*
X132031870Y-81410504D01*
X131972002Y-81269000D01*
X131999831Y-81159535D01*
X132141335Y-81099667D01*
X132250800Y-81127496D01*
G37*
G36*
X133665335Y-71786334D02*
G01*
X133665335Y-72294334D01*
X133157335Y-72294334D01*
X132649335Y-72294334D01*
X132649335Y-71786334D01*
X132649335Y-71278334D01*
X133157335Y-71278334D01*
X133665335Y-71278334D01*
X133665335Y-71786334D01*
G37*
G36*
X132928133Y-81466163D02*
G01*
X132988002Y-81607667D01*
X132960173Y-81717132D01*
X132818668Y-81777000D01*
X132709204Y-81749171D01*
X132649335Y-81607667D01*
X132677164Y-81498202D01*
X132818668Y-81438334D01*
X132928133Y-81466163D01*
G37*
G36*
X133605467Y-78079496D02*
G01*
X133665335Y-78221000D01*
X133637506Y-78330465D01*
X133496002Y-78390334D01*
X133386537Y-78362504D01*
X133326668Y-78221000D01*
X133354498Y-78111535D01*
X133496002Y-78051667D01*
X133605467Y-78079496D01*
G37*
G36*
X134282800Y-79434163D02*
G01*
X134342668Y-79575667D01*
X134314839Y-79685132D01*
X134173335Y-79745000D01*
X134063870Y-79717171D01*
X134004002Y-79575667D01*
X134031831Y-79466202D01*
X134173335Y-79406334D01*
X134282800Y-79434163D01*
G37*
G36*
X135637467Y-78756829D02*
G01*
X135697335Y-78898334D01*
X135669506Y-79007798D01*
X135528002Y-79067667D01*
X135418537Y-79039838D01*
X135358668Y-78898334D01*
X135386498Y-78788869D01*
X135528002Y-78729000D01*
X135637467Y-78756829D01*
G37*
G36*
X137330800Y-74354163D02*
G01*
X137390668Y-74495667D01*
X137362839Y-74605132D01*
X137221335Y-74665000D01*
X137111870Y-74637171D01*
X137052002Y-74495667D01*
X137079831Y-74386202D01*
X137221335Y-74326334D01*
X137330800Y-74354163D01*
G37*
G36*
X138008133Y-79772829D02*
G01*
X138068002Y-79914334D01*
X138040173Y-80023798D01*
X137898668Y-80083667D01*
X137789204Y-80055838D01*
X137729335Y-79914334D01*
X137757164Y-79804869D01*
X137898668Y-79745000D01*
X138008133Y-79772829D01*
G37*
G36*
X138685467Y-76724829D02*
G01*
X138745335Y-76866334D01*
X138717506Y-76975798D01*
X138576002Y-77035667D01*
X138466537Y-77007838D01*
X138406668Y-76866334D01*
X138434498Y-76756869D01*
X138576002Y-76697000D01*
X138685467Y-76724829D01*
G37*
G36*
X140378800Y-71644829D02*
G01*
X140438668Y-71786334D01*
X140410839Y-71895798D01*
X140269335Y-71955667D01*
X140159870Y-71927838D01*
X140100002Y-71786334D01*
X140127831Y-71676869D01*
X140269335Y-71617000D01*
X140378800Y-71644829D01*
G37*
G36*
X140378800Y-81466163D02*
G01*
X140438668Y-81607667D01*
X140410839Y-81717132D01*
X140269335Y-81777000D01*
X140159870Y-81749171D01*
X140100002Y-81607667D01*
X140127831Y-81498202D01*
X140269335Y-81438334D01*
X140378800Y-81466163D01*
G37*
G36*
X141056133Y-74015496D02*
G01*
X141116002Y-74157000D01*
X141088173Y-74266465D01*
X140946668Y-74326334D01*
X140837204Y-74298504D01*
X140777335Y-74157000D01*
X140805164Y-74047535D01*
X140946668Y-73987667D01*
X141056133Y-74015496D01*
G37*
G36*
X142470668Y-71786334D02*
G01*
X142470668Y-72294334D01*
X141962668Y-72294334D01*
X141454668Y-72294334D01*
X141454668Y-71786334D01*
X141454668Y-71278334D01*
X141962668Y-71278334D01*
X142470668Y-71278334D01*
X142470668Y-71786334D01*
G37*
G36*
X142470668Y-80591667D02*
G01*
X142470668Y-81099667D01*
X141962668Y-81099667D01*
X141454668Y-81099667D01*
X141454668Y-80591667D01*
X141454668Y-80083667D01*
X141962668Y-80083667D01*
X142470668Y-80083667D01*
X142470668Y-80591667D01*
G37*
G36*
X140028407Y-73668174D02*
G01*
X140085802Y-73766099D01*
X140100002Y-73987667D01*
X140090415Y-74183144D01*
X140041453Y-74297933D01*
X139930668Y-74326334D01*
X139832930Y-74307159D01*
X139775535Y-74209235D01*
X139761335Y-73987667D01*
X139770922Y-73792189D01*
X139819884Y-73677400D01*
X139930668Y-73649000D01*
X140028407Y-73668174D01*
G37*
G36*
X136430338Y-70604113D02*
G01*
X136613375Y-70624653D01*
X136694799Y-70675757D01*
X136713335Y-70770334D01*
X136703996Y-70845334D01*
X136642375Y-70906347D01*
X136489063Y-70933488D01*
X136205335Y-70939667D01*
X135980333Y-70936554D01*
X135797295Y-70916014D01*
X135715871Y-70864910D01*
X135697335Y-70770334D01*
X135706674Y-70695333D01*
X135768295Y-70634320D01*
X135921607Y-70607179D01*
X136205335Y-70601000D01*
X136430338Y-70604113D01*
G37*
G36*
X134342668Y-72971667D02*
G01*
X133157335Y-72971667D01*
X131972002Y-72971667D01*
X131972002Y-71786334D01*
X131972002Y-70939667D01*
X132310668Y-70939667D01*
X132310668Y-71786334D01*
X132310668Y-72633000D01*
X133157335Y-72633000D01*
X134004002Y-72633000D01*
X134004002Y-71786334D01*
X134004002Y-70939667D01*
X133157335Y-70939667D01*
X132310668Y-70939667D01*
X131972002Y-70939667D01*
X131972002Y-70601000D01*
X133157335Y-70601000D01*
X134342668Y-70601000D01*
X134342668Y-71786334D01*
X134342668Y-72971667D01*
G37*
G36*
X143148002Y-72971667D02*
G01*
X141962668Y-72971667D01*
X140777335Y-72971667D01*
X140777335Y-71786334D01*
X140777335Y-70939667D01*
X141116002Y-70939667D01*
X141116002Y-71786334D01*
X141116002Y-72633000D01*
X141962668Y-72633000D01*
X142809335Y-72633000D01*
X142809335Y-71786334D01*
X142809335Y-70939667D01*
X141962668Y-70939667D01*
X141116002Y-70939667D01*
X140777335Y-70939667D01*
X140777335Y-70601000D01*
X141962668Y-70601000D01*
X143148002Y-70601000D01*
X143148002Y-71786334D01*
X143148002Y-72971667D01*
G37*
G36*
X143148002Y-81777000D02*
G01*
X141962668Y-81777000D01*
X140777335Y-81777000D01*
X140777335Y-80591667D01*
X140777335Y-79745000D01*
X141116002Y-79745000D01*
X141116002Y-80591667D01*
X141116002Y-81438334D01*
X141962668Y-81438334D01*
X142809335Y-81438334D01*
X142809335Y-80591667D01*
X142809335Y-79745000D01*
X141962668Y-79745000D01*
X141116002Y-79745000D01*
X140777335Y-79745000D01*
X140777335Y-79406334D01*
X141962668Y-79406334D01*
X143148002Y-79406334D01*
X143148002Y-80591667D01*
X143148002Y-81777000D01*
G37*
G36*
X136992133Y-72660829D02*
G01*
X137052002Y-72802334D01*
X137024173Y-72911798D01*
X136882668Y-72971667D01*
X136773204Y-72999496D01*
X136713335Y-73141000D01*
X136685506Y-73250465D01*
X136544002Y-73310334D01*
X136434537Y-73282504D01*
X136374668Y-73141000D01*
X136346839Y-73031535D01*
X136205335Y-72971667D01*
X136095870Y-72943838D01*
X136036002Y-72802334D01*
X136063831Y-72692869D01*
X136205335Y-72633000D01*
X136314800Y-72660829D01*
X136374668Y-72802334D01*
X136402498Y-72911798D01*
X136544002Y-72971667D01*
X136653467Y-72943838D01*
X136713335Y-72802334D01*
X136741164Y-72692869D01*
X136882668Y-72633000D01*
X136992133Y-72660829D01*
G37*
G36*
X139351074Y-72990841D02*
G01*
X139408468Y-73088765D01*
X139422668Y-73310334D01*
X139413081Y-73505811D01*
X139364119Y-73620600D01*
X139253335Y-73649000D01*
X139143870Y-73676829D01*
X139084002Y-73818334D01*
X139056173Y-73927798D01*
X138914668Y-73987667D01*
X138805204Y-74015496D01*
X138745335Y-74157000D01*
X138717506Y-74266465D01*
X138576002Y-74326334D01*
X138478263Y-74307159D01*
X138420869Y-74209235D01*
X138406668Y-73987667D01*
X138416256Y-73792189D01*
X138465218Y-73677400D01*
X138576002Y-73649000D01*
X138685467Y-73621171D01*
X138745335Y-73479667D01*
X138773164Y-73370202D01*
X138914668Y-73310334D01*
X139024133Y-73282504D01*
X139084002Y-73141000D01*
X139111831Y-73031535D01*
X139253335Y-72971667D01*
X139351074Y-72990841D01*
G37*
G36*
X137079831Y-76975798D02*
G01*
X137221335Y-77035667D01*
X137296336Y-77026328D01*
X137357349Y-76964707D01*
X137384490Y-76811395D01*
X137390668Y-76527667D01*
X137393782Y-76302664D01*
X137414322Y-76119627D01*
X137465426Y-76038203D01*
X137560002Y-76019667D01*
X137669467Y-76047496D01*
X137729335Y-76189000D01*
X137757164Y-76298465D01*
X137898668Y-76358334D01*
X137996407Y-76377508D01*
X138053802Y-76475432D01*
X138068002Y-76697000D01*
X138058415Y-76892478D01*
X138009453Y-77007267D01*
X137898668Y-77035667D01*
X137800930Y-77054841D01*
X137743535Y-77152765D01*
X137729335Y-77374334D01*
X137738922Y-77569811D01*
X137787884Y-77684600D01*
X137898668Y-77713000D01*
X137996407Y-77732174D01*
X138053802Y-77830099D01*
X138068002Y-78051667D01*
X138077589Y-78247144D01*
X138126551Y-78361933D01*
X138237335Y-78390334D01*
X138312336Y-78399673D01*
X138373349Y-78461293D01*
X138400490Y-78614605D01*
X138406668Y-78898334D01*
X138406668Y-79406334D01*
X138068002Y-79406334D01*
X137872524Y-79396746D01*
X137757735Y-79347784D01*
X137729335Y-79237000D01*
X137710161Y-79139261D01*
X137612237Y-79081867D01*
X137390668Y-79067667D01*
X137195191Y-79058080D01*
X137080402Y-79009118D01*
X137052002Y-78898334D01*
X137729335Y-78898334D01*
X137757164Y-79007798D01*
X137898668Y-79067667D01*
X138008133Y-79039838D01*
X138068002Y-78898334D01*
X138040173Y-78788869D01*
X137898668Y-78729000D01*
X137789204Y-78756829D01*
X137729335Y-78898334D01*
X137052002Y-78898334D01*
X137071176Y-78800595D01*
X137169100Y-78743200D01*
X137390668Y-78729000D01*
X137729335Y-78729000D01*
X137729335Y-78390334D01*
X137719748Y-78194856D01*
X137670786Y-78080067D01*
X137560002Y-78051667D01*
X137462263Y-78032493D01*
X137404869Y-77934568D01*
X137390668Y-77713000D01*
X137390668Y-77374334D01*
X136882668Y-77374334D01*
X136657666Y-77371220D01*
X136474628Y-77350680D01*
X136393204Y-77299576D01*
X136374668Y-77205000D01*
X136355494Y-77107261D01*
X136257570Y-77049867D01*
X136036002Y-77035667D01*
X135840524Y-77026080D01*
X135725735Y-76977118D01*
X135697335Y-76866334D01*
X136374668Y-76866334D01*
X136402498Y-76975798D01*
X136544002Y-77035667D01*
X136653467Y-77007838D01*
X136713335Y-76866334D01*
X136685506Y-76756869D01*
X136544002Y-76697000D01*
X136434537Y-76724829D01*
X136374668Y-76866334D01*
X135697335Y-76866334D01*
X135725164Y-76756869D01*
X135866668Y-76697000D01*
X135976133Y-76669171D01*
X136036002Y-76527667D01*
X136055176Y-76429928D01*
X136153100Y-76372534D01*
X136374668Y-76358334D01*
X136570146Y-76348746D01*
X136684935Y-76299784D01*
X136713335Y-76189000D01*
X136741164Y-76079535D01*
X136882668Y-76019667D01*
X136992133Y-76047496D01*
X137052002Y-76189000D01*
X137024173Y-76298465D01*
X136882668Y-76358334D01*
X136773204Y-76386163D01*
X136713335Y-76527667D01*
X136741164Y-76637132D01*
X136882668Y-76697000D01*
X136992133Y-76724829D01*
X137052002Y-76866334D01*
X137079831Y-76975798D01*
G37*
G36*
X140438668Y-71278334D02*
G01*
X139930668Y-71278334D01*
X139705666Y-71281447D01*
X139522628Y-71301987D01*
X139441204Y-71353091D01*
X139422668Y-71447667D01*
X139450498Y-71557132D01*
X139592002Y-71617000D01*
X139701467Y-71644829D01*
X139761335Y-71786334D01*
X139742161Y-71884072D01*
X139644237Y-71941467D01*
X139422668Y-71955667D01*
X139227191Y-71946080D01*
X139112402Y-71897118D01*
X139084002Y-71786334D01*
X139074663Y-71711333D01*
X139013042Y-71650320D01*
X138859730Y-71623179D01*
X138576002Y-71617000D01*
X138350999Y-71620113D01*
X138167962Y-71640653D01*
X138086538Y-71691757D01*
X138068002Y-71786334D01*
X138040173Y-71895798D01*
X137898668Y-71955667D01*
X137789204Y-71983496D01*
X137729335Y-72125000D01*
X137748509Y-72222739D01*
X137846434Y-72280133D01*
X138068002Y-72294334D01*
X138263479Y-72284746D01*
X138378268Y-72235784D01*
X138406668Y-72125000D01*
X138434498Y-72015535D01*
X138576002Y-71955667D01*
X138685467Y-71983496D01*
X138745335Y-72125000D01*
X138764509Y-72222739D01*
X138862434Y-72280133D01*
X139084002Y-72294334D01*
X139279479Y-72303921D01*
X139394268Y-72352883D01*
X139422668Y-72463667D01*
X139450498Y-72573132D01*
X139592002Y-72633000D01*
X139701467Y-72605171D01*
X139761335Y-72463667D01*
X139789164Y-72354202D01*
X139930668Y-72294334D01*
X140040133Y-72322163D01*
X140100002Y-72463667D01*
X140127831Y-72573132D01*
X140269335Y-72633000D01*
X140367074Y-72652174D01*
X140424468Y-72750099D01*
X140438668Y-72971667D01*
X140438668Y-73310334D01*
X140100002Y-73310334D01*
X139904524Y-73300746D01*
X139789735Y-73251784D01*
X139761335Y-73141000D01*
X139789164Y-73031535D01*
X139930668Y-72971667D01*
X140040133Y-72943838D01*
X140100002Y-72802334D01*
X140072173Y-72692869D01*
X139930668Y-72633000D01*
X139821204Y-72660829D01*
X139761335Y-72802334D01*
X139733506Y-72911798D01*
X139592002Y-72971667D01*
X139482537Y-72943838D01*
X139422668Y-72802334D01*
X139394839Y-72692869D01*
X139253335Y-72633000D01*
X139143870Y-72660829D01*
X139084002Y-72802334D01*
X139056173Y-72911798D01*
X138914668Y-72971667D01*
X138816930Y-72952493D01*
X138759535Y-72854568D01*
X138745335Y-72633000D01*
X138735748Y-72437523D01*
X138686786Y-72322734D01*
X138576002Y-72294334D01*
X138478263Y-72313508D01*
X138420869Y-72411432D01*
X138406668Y-72633000D01*
X138397081Y-72828478D01*
X138348119Y-72943267D01*
X138237335Y-72971667D01*
X138127870Y-72943838D01*
X138068002Y-72802334D01*
X138040173Y-72692869D01*
X137898668Y-72633000D01*
X137789204Y-72660829D01*
X137729335Y-72802334D01*
X137757164Y-72911798D01*
X137898668Y-72971667D01*
X138008133Y-72999496D01*
X138068002Y-73141000D01*
X138095831Y-73250465D01*
X138237335Y-73310334D01*
X138346800Y-73338163D01*
X138406668Y-73479667D01*
X138387494Y-73577406D01*
X138289570Y-73634800D01*
X138068002Y-73649000D01*
X137872524Y-73639413D01*
X137757735Y-73590451D01*
X137729335Y-73479667D01*
X137701506Y-73370202D01*
X137560002Y-73310334D01*
X137462263Y-73329508D01*
X137404869Y-73427432D01*
X137390668Y-73649000D01*
X137381081Y-73844478D01*
X137332119Y-73959267D01*
X137221335Y-73987667D01*
X137111870Y-74015496D01*
X137052002Y-74157000D01*
X137024173Y-74266465D01*
X136882668Y-74326334D01*
X136773204Y-74298504D01*
X136713335Y-74157000D01*
X136694161Y-74059261D01*
X136596237Y-74001867D01*
X136374668Y-73987667D01*
X136179191Y-73978080D01*
X136064402Y-73929118D01*
X136036002Y-73818334D01*
X136055176Y-73720595D01*
X136153100Y-73663200D01*
X136374668Y-73649000D01*
X136570146Y-73639413D01*
X136684935Y-73590451D01*
X136713335Y-73479667D01*
X136741164Y-73370202D01*
X136882668Y-73310334D01*
X136992133Y-73282504D01*
X137052002Y-73141000D01*
X137079831Y-73031535D01*
X137221335Y-72971667D01*
X137330800Y-72943838D01*
X137390668Y-72802334D01*
X137362839Y-72692869D01*
X137221335Y-72633000D01*
X137111870Y-72605171D01*
X137052002Y-72463667D01*
X137024173Y-72354202D01*
X136882668Y-72294334D01*
X136784930Y-72275159D01*
X136727535Y-72177235D01*
X136713335Y-71955667D01*
X136713335Y-71617000D01*
X137052002Y-71617000D01*
X137052002Y-71955667D01*
X137390668Y-71955667D01*
X137586146Y-71946080D01*
X137700935Y-71897118D01*
X137729335Y-71786334D01*
X137701506Y-71676869D01*
X137560002Y-71617000D01*
X137450537Y-71589171D01*
X137390668Y-71447667D01*
X137362839Y-71338202D01*
X137221335Y-71278334D01*
X137123596Y-71297508D01*
X137066202Y-71395432D01*
X137052002Y-71617000D01*
X136713335Y-71617000D01*
X136374668Y-71617000D01*
X136179191Y-71626587D01*
X136064402Y-71675549D01*
X136036002Y-71786334D01*
X136008173Y-71895798D01*
X135866668Y-71955667D01*
X135757204Y-71983496D01*
X135697335Y-72125000D01*
X135725164Y-72234465D01*
X135866668Y-72294334D01*
X135976133Y-72322163D01*
X136036002Y-72463667D01*
X136008173Y-72573132D01*
X135866668Y-72633000D01*
X135757204Y-72660829D01*
X135697335Y-72802334D01*
X135669506Y-72911798D01*
X135528002Y-72971667D01*
X135418537Y-72943838D01*
X135358668Y-72802334D01*
X135330839Y-72692869D01*
X135189335Y-72633000D01*
X135091596Y-72652174D01*
X135034202Y-72750099D01*
X135020002Y-72971667D01*
X135020002Y-73310334D01*
X135528002Y-73310334D01*
X135753004Y-73313447D01*
X135936042Y-73333987D01*
X136017466Y-73385091D01*
X136036002Y-73479667D01*
X136016828Y-73577406D01*
X135918903Y-73634800D01*
X135697335Y-73649000D01*
X135501858Y-73658587D01*
X135387069Y-73707549D01*
X135358668Y-73818334D01*
X135377843Y-73916072D01*
X135475767Y-73973467D01*
X135697335Y-73987667D01*
X136036002Y-73987667D01*
X136036002Y-74326334D01*
X136045589Y-74521811D01*
X136094551Y-74636600D01*
X136205335Y-74665000D01*
X136303074Y-74684174D01*
X136360468Y-74782099D01*
X136374668Y-75003667D01*
X136374668Y-75342334D01*
X136713335Y-75342334D01*
X136908813Y-75332746D01*
X137023602Y-75283784D01*
X137052002Y-75173000D01*
X137079831Y-75063535D01*
X137221335Y-75003667D01*
X137319074Y-75022841D01*
X137376468Y-75120765D01*
X137390668Y-75342334D01*
X137390668Y-75511667D01*
X137390668Y-75681000D01*
X136713335Y-75681000D01*
X136036002Y-75681000D01*
X136036002Y-76019667D01*
X136027697Y-76189000D01*
X136026415Y-76215144D01*
X135977453Y-76329933D01*
X135866668Y-76358334D01*
X135757204Y-76386163D01*
X135697335Y-76527667D01*
X135678161Y-76625406D01*
X135580237Y-76682800D01*
X135358668Y-76697000D01*
X135163191Y-76706587D01*
X135048402Y-76755549D01*
X135020002Y-76866334D01*
X135039176Y-76964072D01*
X135137100Y-77021467D01*
X135358668Y-77035667D01*
X135697335Y-77035667D01*
X135697335Y-77374334D01*
X135697335Y-77543667D01*
X135697335Y-77713000D01*
X136036002Y-77713000D01*
X136231479Y-77722587D01*
X136346268Y-77771549D01*
X136374668Y-77882334D01*
X136384008Y-77957334D01*
X136445628Y-78018347D01*
X136598940Y-78045488D01*
X136882668Y-78051667D01*
X137107671Y-78054780D01*
X137290709Y-78075320D01*
X137372133Y-78126424D01*
X137390668Y-78221000D01*
X137362839Y-78330465D01*
X137221335Y-78390334D01*
X137111870Y-78418163D01*
X137052002Y-78559667D01*
X137024173Y-78669132D01*
X136882668Y-78729000D01*
X136773204Y-78701171D01*
X136713335Y-78559667D01*
X136685506Y-78450202D01*
X136544002Y-78390334D01*
X136434537Y-78418163D01*
X136374668Y-78559667D01*
X136346839Y-78669132D01*
X136205335Y-78729000D01*
X136095870Y-78701171D01*
X136036002Y-78559667D01*
X136008173Y-78450202D01*
X135866668Y-78390334D01*
X135757204Y-78362504D01*
X135697335Y-78221000D01*
X135669506Y-78111535D01*
X135528002Y-78051667D01*
X135430263Y-78070841D01*
X135372869Y-78168765D01*
X135369521Y-78221000D01*
X135358668Y-78390334D01*
X135349081Y-78585811D01*
X135300119Y-78700600D01*
X135189335Y-78729000D01*
X135091596Y-78748174D01*
X135034202Y-78846099D01*
X135020002Y-79067667D01*
X135029589Y-79263144D01*
X135078551Y-79377933D01*
X135189335Y-79406334D01*
X135287074Y-79425508D01*
X135344468Y-79523432D01*
X135347816Y-79575667D01*
X135358668Y-79745000D01*
X135368256Y-79940478D01*
X135417218Y-80055267D01*
X135528002Y-80083667D01*
X135637467Y-80111496D01*
X135697335Y-80253000D01*
X135725164Y-80362465D01*
X135866668Y-80422334D01*
X135976133Y-80450163D01*
X136036002Y-80591667D01*
X136008173Y-80701132D01*
X135866668Y-80761000D01*
X135768930Y-80780174D01*
X135711535Y-80878099D01*
X135697335Y-81099667D01*
X135706922Y-81295144D01*
X135755884Y-81409933D01*
X135866668Y-81438334D01*
X135964407Y-81419159D01*
X136021802Y-81321235D01*
X136036002Y-81099667D01*
X136045589Y-80904189D01*
X136094551Y-80789400D01*
X136205335Y-80761000D01*
X136303074Y-80780174D01*
X136360468Y-80878099D01*
X136374668Y-81099667D01*
X136384256Y-81295144D01*
X136433218Y-81409933D01*
X136544002Y-81438334D01*
X136641741Y-81419159D01*
X136699135Y-81321235D01*
X136713335Y-81099667D01*
X136722922Y-80904189D01*
X136771884Y-80789400D01*
X136882668Y-80761000D01*
X136992133Y-80788829D01*
X137052002Y-80930334D01*
X137079831Y-81039798D01*
X137221335Y-81099667D01*
X137330800Y-81071838D01*
X137390668Y-80930334D01*
X137362839Y-80820869D01*
X137221335Y-80761000D01*
X137111870Y-80733171D01*
X137052002Y-80591667D01*
X137024173Y-80482202D01*
X136882668Y-80422334D01*
X136773204Y-80450163D01*
X136713335Y-80591667D01*
X136685506Y-80701132D01*
X136544002Y-80761000D01*
X136446263Y-80741826D01*
X136388869Y-80643902D01*
X136374668Y-80422334D01*
X136384256Y-80226856D01*
X136433218Y-80112067D01*
X136544002Y-80083667D01*
X136653467Y-80055838D01*
X136713335Y-79914334D01*
X136685506Y-79804869D01*
X136544002Y-79745000D01*
X136434537Y-79772829D01*
X136374668Y-79914334D01*
X136346839Y-80023798D01*
X136205335Y-80083667D01*
X136095870Y-80055838D01*
X136036002Y-79914334D01*
X136008173Y-79804869D01*
X135866668Y-79745000D01*
X135768930Y-79725826D01*
X135711535Y-79627902D01*
X135697335Y-79406334D01*
X135697335Y-79067667D01*
X136036002Y-79067667D01*
X136231479Y-79058080D01*
X136346268Y-79009118D01*
X136374668Y-78898334D01*
X136402498Y-78788869D01*
X136544002Y-78729000D01*
X136653467Y-78756829D01*
X136713335Y-78898334D01*
X136741164Y-79007798D01*
X136882668Y-79067667D01*
X136992133Y-79095496D01*
X137052002Y-79237000D01*
X137079831Y-79346465D01*
X137221335Y-79406334D01*
X137319074Y-79425508D01*
X137376468Y-79523432D01*
X137390668Y-79745000D01*
X137400256Y-79940478D01*
X137449218Y-80055267D01*
X137560002Y-80083667D01*
X137657741Y-80102841D01*
X137715135Y-80200765D01*
X137729335Y-80422334D01*
X137738922Y-80617811D01*
X137787884Y-80732600D01*
X137898668Y-80761000D01*
X138008133Y-80788829D01*
X138068002Y-80930334D01*
X138095831Y-81039798D01*
X138237335Y-81099667D01*
X138346800Y-81071838D01*
X138406668Y-80930334D01*
X138378839Y-80820869D01*
X138237335Y-80761000D01*
X138139596Y-80741826D01*
X138082202Y-80643902D01*
X138068002Y-80422334D01*
X138077589Y-80226856D01*
X138126551Y-80112067D01*
X138237335Y-80083667D01*
X138346800Y-80055838D01*
X138406668Y-79914334D01*
X138434498Y-79804869D01*
X138576002Y-79745000D01*
X138620648Y-79742508D01*
X138687972Y-79708502D01*
X138725517Y-79607401D01*
X138741800Y-79405143D01*
X138745335Y-79067667D01*
X138745958Y-78889083D01*
X138754460Y-78619787D01*
X138779735Y-78469605D01*
X138830299Y-78404474D01*
X138914668Y-78390334D01*
X139024133Y-78362504D01*
X139084002Y-78221000D01*
X139422668Y-78221000D01*
X139450498Y-78330465D01*
X139592002Y-78390334D01*
X139701467Y-78362504D01*
X139761335Y-78221000D01*
X139733506Y-78111535D01*
X139592002Y-78051667D01*
X139482537Y-78079496D01*
X139422668Y-78221000D01*
X139084002Y-78221000D01*
X139056173Y-78111535D01*
X138914668Y-78051667D01*
X138805204Y-78023838D01*
X138745335Y-77882334D01*
X138773164Y-77772869D01*
X138914668Y-77713000D01*
X139012407Y-77693826D01*
X139069802Y-77595902D01*
X139084002Y-77374334D01*
X139093589Y-77178856D01*
X139142551Y-77064067D01*
X139253335Y-77035667D01*
X139362800Y-77007838D01*
X139422668Y-76866334D01*
X139394839Y-76756869D01*
X139253335Y-76697000D01*
X139143870Y-76669171D01*
X139084002Y-76527667D01*
X139064828Y-76429928D01*
X138966903Y-76372534D01*
X138745335Y-76358334D01*
X138549858Y-76348746D01*
X138435069Y-76299784D01*
X138406668Y-76189000D01*
X138387494Y-76091261D01*
X138289570Y-76033867D01*
X138068002Y-76019667D01*
X137872524Y-76010080D01*
X137757735Y-75961118D01*
X137729335Y-75850334D01*
X137757164Y-75740869D01*
X137898668Y-75681000D01*
X137996407Y-75661826D01*
X138053802Y-75563902D01*
X138068002Y-75342334D01*
X138068002Y-75003667D01*
X137729335Y-75003667D01*
X137533858Y-74994080D01*
X137419069Y-74945118D01*
X137390668Y-74834334D01*
X137418498Y-74724869D01*
X137560002Y-74665000D01*
X137669467Y-74637171D01*
X137729335Y-74495667D01*
X137757164Y-74386202D01*
X137898668Y-74326334D01*
X138008133Y-74354163D01*
X138068002Y-74495667D01*
X138095831Y-74605132D01*
X138237335Y-74665000D01*
X138312336Y-74674339D01*
X138373349Y-74735960D01*
X138400490Y-74889272D01*
X138406668Y-75173000D01*
X138406668Y-75681000D01*
X138745335Y-75681000D01*
X138940813Y-75690587D01*
X139055602Y-75739549D01*
X139084002Y-75850334D01*
X139111831Y-75959798D01*
X139253335Y-76019667D01*
X139362800Y-75991838D01*
X139422668Y-75850334D01*
X139441843Y-75752595D01*
X139539767Y-75695200D01*
X139761335Y-75681000D01*
X140100002Y-75681000D01*
X140100002Y-75342334D01*
X140091697Y-75173000D01*
X140438668Y-75173000D01*
X140457843Y-75270739D01*
X140555767Y-75328133D01*
X140777335Y-75342334D01*
X140972813Y-75351921D01*
X141087602Y-75400883D01*
X141116002Y-75511667D01*
X141143831Y-75621132D01*
X141285335Y-75681000D01*
X141394800Y-75653171D01*
X141454668Y-75511667D01*
X141426839Y-75402202D01*
X141285335Y-75342334D01*
X141175870Y-75314504D01*
X141116002Y-75173000D01*
X141096828Y-75075261D01*
X140998903Y-75017867D01*
X140777335Y-75003667D01*
X140581858Y-75013254D01*
X140467069Y-75062216D01*
X140438668Y-75173000D01*
X140091697Y-75173000D01*
X140090415Y-75146856D01*
X140041453Y-75032067D01*
X139930668Y-75003667D01*
X139821204Y-75031496D01*
X139761335Y-75173000D01*
X139733506Y-75282465D01*
X139592002Y-75342334D01*
X139482537Y-75370163D01*
X139422668Y-75511667D01*
X139394839Y-75621132D01*
X139253335Y-75681000D01*
X139155596Y-75661826D01*
X139098202Y-75563902D01*
X139084002Y-75342334D01*
X139074415Y-75146856D01*
X139025453Y-75032067D01*
X138914668Y-75003667D01*
X138805204Y-74975838D01*
X138745335Y-74834334D01*
X138773164Y-74724869D01*
X138914668Y-74665000D01*
X139024133Y-74637171D01*
X139084002Y-74495667D01*
X139103176Y-74397928D01*
X139201100Y-74340534D01*
X139422668Y-74326334D01*
X139618146Y-74335921D01*
X139732935Y-74384883D01*
X139761335Y-74495667D01*
X139789164Y-74605132D01*
X139930668Y-74665000D01*
X140040133Y-74637171D01*
X140100002Y-74495667D01*
X140127831Y-74386202D01*
X140269335Y-74326334D01*
X140378800Y-74354163D01*
X140438668Y-74495667D01*
X140457843Y-74593406D01*
X140555767Y-74650800D01*
X140777335Y-74665000D01*
X140972813Y-74655413D01*
X141087602Y-74606451D01*
X141116002Y-74495667D01*
X141143831Y-74386202D01*
X141285335Y-74326334D01*
X141394800Y-74354163D01*
X141454668Y-74495667D01*
X141482498Y-74605132D01*
X141624002Y-74665000D01*
X141733467Y-74692829D01*
X141793335Y-74834334D01*
X141821164Y-74943798D01*
X141962668Y-75003667D01*
X142060407Y-74984493D01*
X142117802Y-74886568D01*
X142121150Y-74834334D01*
X142470668Y-74834334D01*
X142473782Y-75059336D01*
X142494322Y-75242374D01*
X142545426Y-75323798D01*
X142640002Y-75342334D01*
X142715003Y-75332994D01*
X142776015Y-75271374D01*
X142803157Y-75118062D01*
X142809335Y-74834334D01*
X142806222Y-74609331D01*
X142785682Y-74426293D01*
X142734578Y-74344869D01*
X142640002Y-74326334D01*
X142565001Y-74335673D01*
X142503988Y-74397293D01*
X142476847Y-74550605D01*
X142474356Y-74665000D01*
X142470668Y-74834334D01*
X142121150Y-74834334D01*
X142132002Y-74665000D01*
X142122415Y-74469523D01*
X142073453Y-74354734D01*
X141962668Y-74326334D01*
X141853204Y-74298504D01*
X141793335Y-74157000D01*
X141774161Y-74059261D01*
X141676237Y-74001867D01*
X141454668Y-73987667D01*
X141259191Y-73978080D01*
X141144402Y-73929118D01*
X141116002Y-73818334D01*
X141088173Y-73708869D01*
X140946668Y-73649000D01*
X140837204Y-73676829D01*
X140777335Y-73818334D01*
X140749506Y-73927798D01*
X140608002Y-73987667D01*
X140510263Y-73968493D01*
X140452869Y-73870568D01*
X140438668Y-73649000D01*
X140438668Y-73310334D01*
X140946668Y-73310334D01*
X141171671Y-73313447D01*
X141354709Y-73333987D01*
X141436133Y-73385091D01*
X141454668Y-73479667D01*
X141482498Y-73589132D01*
X141624002Y-73649000D01*
X141733467Y-73621171D01*
X141793335Y-73479667D01*
X141812509Y-73381928D01*
X141910434Y-73324534D01*
X142132002Y-73310334D01*
X142470668Y-73310334D01*
X142470668Y-73649000D01*
X142480256Y-73844478D01*
X142529218Y-73959267D01*
X142640002Y-73987667D01*
X142737741Y-73968493D01*
X142795135Y-73870568D01*
X142809335Y-73649000D01*
X142818922Y-73453523D01*
X142867884Y-73338734D01*
X142978668Y-73310334D01*
X142991255Y-73310473D01*
X143054639Y-73323225D01*
X143098163Y-73375192D01*
X143125544Y-73492397D01*
X143140499Y-73700863D01*
X143146746Y-74026612D01*
X143148002Y-74495667D01*
X143147982Y-74583769D01*
X143146953Y-74834334D01*
X143146160Y-75027462D01*
X143138736Y-75332129D01*
X143121993Y-75523794D01*
X143092212Y-75628479D01*
X143045676Y-75672207D01*
X142978668Y-75681000D01*
X142869204Y-75708829D01*
X142809335Y-75850334D01*
X142837164Y-75959798D01*
X142978668Y-76019667D01*
X143076407Y-76038841D01*
X143133802Y-76136765D01*
X143137150Y-76189000D01*
X143148002Y-76358334D01*
X143138415Y-76553811D01*
X143089453Y-76668600D01*
X142978668Y-76697000D01*
X142869204Y-76724829D01*
X142809335Y-76866334D01*
X142781506Y-76975798D01*
X142640002Y-77035667D01*
X142542263Y-77016493D01*
X142484869Y-76918568D01*
X142470668Y-76697000D01*
X142461081Y-76501523D01*
X142412119Y-76386734D01*
X142301335Y-76358334D01*
X142226334Y-76348994D01*
X142165322Y-76287374D01*
X142147906Y-76189000D01*
X142470668Y-76189000D01*
X142498498Y-76298465D01*
X142640002Y-76358334D01*
X142749467Y-76330504D01*
X142809335Y-76189000D01*
X142781506Y-76079535D01*
X142640002Y-76019667D01*
X142530537Y-76047496D01*
X142470668Y-76189000D01*
X142147906Y-76189000D01*
X142138180Y-76134062D01*
X142132002Y-75850334D01*
X142128889Y-75625331D01*
X142108349Y-75442293D01*
X142057245Y-75360869D01*
X141962668Y-75342334D01*
X141864930Y-75361508D01*
X141807535Y-75459432D01*
X141804187Y-75511667D01*
X141793335Y-75681000D01*
X141793335Y-76019667D01*
X141454668Y-76019667D01*
X141259191Y-76029254D01*
X141144402Y-76078216D01*
X141116002Y-76189000D01*
X141088173Y-76298465D01*
X140946668Y-76358334D01*
X140837204Y-76330504D01*
X140777335Y-76189000D01*
X140805164Y-76079535D01*
X140946668Y-76019667D01*
X141056133Y-75991838D01*
X141116002Y-75850334D01*
X141096828Y-75752595D01*
X140998903Y-75695200D01*
X140777335Y-75681000D01*
X140438668Y-75681000D01*
X140438668Y-76019667D01*
X140438668Y-76358334D01*
X139930668Y-76358334D01*
X139705666Y-76361447D01*
X139522628Y-76381987D01*
X139441204Y-76433091D01*
X139422668Y-76527667D01*
X139432008Y-76602668D01*
X139493628Y-76663680D01*
X139646940Y-76690822D01*
X139930668Y-76697000D01*
X140155671Y-76700113D01*
X140338709Y-76720653D01*
X140420133Y-76771757D01*
X140438668Y-76866334D01*
X140419494Y-76964072D01*
X140321570Y-77021467D01*
X140100002Y-77035667D01*
X139904524Y-77045254D01*
X139789735Y-77094216D01*
X139761335Y-77205000D01*
X139733506Y-77314465D01*
X139592002Y-77374334D01*
X139482537Y-77402163D01*
X139422668Y-77543667D01*
X139450498Y-77653132D01*
X139592002Y-77713000D01*
X139701467Y-77740829D01*
X139761335Y-77882334D01*
X139789164Y-77991798D01*
X139930668Y-78051667D01*
X140040133Y-78079496D01*
X140100002Y-78221000D01*
X140127831Y-78330465D01*
X140269335Y-78390334D01*
X140378800Y-78362504D01*
X140438668Y-78221000D01*
X140457843Y-78123261D01*
X140555767Y-78065867D01*
X140777335Y-78051667D01*
X140972813Y-78042080D01*
X141087602Y-77993118D01*
X141116002Y-77882334D01*
X141454668Y-77882334D01*
X141473843Y-77980072D01*
X141571767Y-78037467D01*
X141793335Y-78051667D01*
X141988813Y-78061254D01*
X142103602Y-78110216D01*
X142132002Y-78221000D01*
X142104173Y-78330465D01*
X141962668Y-78390334D01*
X141853204Y-78418163D01*
X141793335Y-78559667D01*
X141821164Y-78669132D01*
X141962668Y-78729000D01*
X142072133Y-78701171D01*
X142132002Y-78559667D01*
X142159831Y-78450202D01*
X142301335Y-78390334D01*
X142410800Y-78418163D01*
X142470668Y-78559667D01*
X142498498Y-78669132D01*
X142640002Y-78729000D01*
X142749467Y-78701171D01*
X142809335Y-78559667D01*
X142781506Y-78450202D01*
X142640002Y-78390334D01*
X142530537Y-78362504D01*
X142470668Y-78221000D01*
X142442839Y-78111535D01*
X142301335Y-78051667D01*
X142203596Y-78032493D01*
X142146202Y-77934568D01*
X142132002Y-77713000D01*
X142122415Y-77517523D01*
X142073453Y-77402734D01*
X141962668Y-77374334D01*
X141853204Y-77402163D01*
X141793335Y-77543667D01*
X141765506Y-77653132D01*
X141624002Y-77713000D01*
X141514537Y-77740829D01*
X141454668Y-77882334D01*
X141116002Y-77882334D01*
X141096828Y-77784595D01*
X140998903Y-77727200D01*
X140777335Y-77713000D01*
X140581858Y-77703413D01*
X140467069Y-77654451D01*
X140438668Y-77543667D01*
X140457843Y-77445928D01*
X140555767Y-77388534D01*
X140777335Y-77374334D01*
X140972813Y-77364746D01*
X141087602Y-77315784D01*
X141116002Y-77205000D01*
X141088173Y-77095535D01*
X140946668Y-77035667D01*
X140837204Y-77007838D01*
X140777335Y-76866334D01*
X140796509Y-76768595D01*
X140894434Y-76711200D01*
X141116002Y-76697000D01*
X141454668Y-76697000D01*
X141454668Y-77035667D01*
X141464256Y-77231144D01*
X141513218Y-77345933D01*
X141624002Y-77374334D01*
X141733467Y-77346504D01*
X141793335Y-77205000D01*
X141821164Y-77095535D01*
X141962668Y-77035667D01*
X142072133Y-77063496D01*
X142132002Y-77205000D01*
X142159831Y-77314465D01*
X142301335Y-77374334D01*
X142410800Y-77402163D01*
X142470668Y-77543667D01*
X142498498Y-77653132D01*
X142640002Y-77713000D01*
X142749467Y-77685171D01*
X142809335Y-77543667D01*
X142837164Y-77434202D01*
X142978668Y-77374334D01*
X143088133Y-77402163D01*
X143148002Y-77543667D01*
X143120173Y-77653132D01*
X142978668Y-77713000D01*
X142869204Y-77740829D01*
X142809335Y-77882334D01*
X142837164Y-77991798D01*
X142978668Y-78051667D01*
X143076407Y-78070841D01*
X143133802Y-78168765D01*
X143148002Y-78390334D01*
X143139697Y-78559667D01*
X143138415Y-78585811D01*
X143089453Y-78700600D01*
X142978668Y-78729000D01*
X142869204Y-78756829D01*
X142809335Y-78898334D01*
X142781506Y-79007798D01*
X142640002Y-79067667D01*
X142530537Y-79039838D01*
X142470668Y-78898334D01*
X142442839Y-78788869D01*
X142301335Y-78729000D01*
X142191870Y-78756829D01*
X142132002Y-78898334D01*
X142104173Y-79007798D01*
X141962668Y-79067667D01*
X141853204Y-79039838D01*
X141793335Y-78898334D01*
X141765506Y-78788869D01*
X141624002Y-78729000D01*
X141514537Y-78701171D01*
X141454668Y-78559667D01*
X141435494Y-78461928D01*
X141337570Y-78404534D01*
X141116002Y-78390334D01*
X140920524Y-78399921D01*
X140805735Y-78448883D01*
X140777335Y-78559667D01*
X140805164Y-78669132D01*
X140946668Y-78729000D01*
X141056133Y-78756829D01*
X141116002Y-78898334D01*
X141088173Y-79007798D01*
X140946668Y-79067667D01*
X140837204Y-79039838D01*
X140777335Y-78898334D01*
X140767996Y-78823333D01*
X140706375Y-78762320D01*
X140553063Y-78735179D01*
X140269335Y-78729000D01*
X140044333Y-78732113D01*
X139861295Y-78752653D01*
X139779871Y-78803757D01*
X139761335Y-78898334D01*
X139733506Y-79007798D01*
X139592002Y-79067667D01*
X139494263Y-79048493D01*
X139436869Y-78950568D01*
X139422668Y-78729000D01*
X139413081Y-78533523D01*
X139364119Y-78418734D01*
X139253335Y-78390334D01*
X139208689Y-78392826D01*
X139141365Y-78426831D01*
X139103820Y-78527932D01*
X139087537Y-78730190D01*
X139084002Y-79067667D01*
X139084625Y-79246251D01*
X139093126Y-79515546D01*
X139118402Y-79665728D01*
X139168966Y-79730859D01*
X139253335Y-79745000D01*
X139362800Y-79717171D01*
X139422668Y-79575667D01*
X139441843Y-79477928D01*
X139539767Y-79420534D01*
X139761335Y-79406334D01*
X139956813Y-79396746D01*
X140071602Y-79347784D01*
X140100002Y-79237000D01*
X140127831Y-79127535D01*
X140269335Y-79067667D01*
X140344336Y-79077006D01*
X140405349Y-79138627D01*
X140432490Y-79291939D01*
X140438668Y-79575667D01*
X140435555Y-79800669D01*
X140415015Y-79983707D01*
X140363911Y-80065131D01*
X140269335Y-80083667D01*
X140159870Y-80055838D01*
X140100002Y-79914334D01*
X140080828Y-79816595D01*
X139982903Y-79759200D01*
X139761335Y-79745000D01*
X139422668Y-79745000D01*
X139422668Y-80083667D01*
X139413081Y-80279144D01*
X139364119Y-80393933D01*
X139253335Y-80422334D01*
X139143870Y-80394504D01*
X139084002Y-80253000D01*
X139056173Y-80143535D01*
X138914668Y-80083667D01*
X138805204Y-80111496D01*
X138745335Y-80253000D01*
X138717506Y-80362465D01*
X138576002Y-80422334D01*
X138466537Y-80450163D01*
X138406668Y-80591667D01*
X138416008Y-80666668D01*
X138477628Y-80727680D01*
X138630940Y-80754822D01*
X138914668Y-80761000D01*
X139139671Y-80764113D01*
X139322709Y-80784653D01*
X139404133Y-80835757D01*
X139422668Y-80930334D01*
X139450498Y-81039798D01*
X139592002Y-81099667D01*
X139689741Y-81080493D01*
X139747135Y-80982568D01*
X139761335Y-80761000D01*
X139761335Y-80422334D01*
X140100002Y-80422334D01*
X140438668Y-80422334D01*
X140438668Y-80761000D01*
X140438668Y-81099667D01*
X140100002Y-81099667D01*
X139904524Y-81109254D01*
X139789735Y-81158216D01*
X139761335Y-81269000D01*
X139751996Y-81344001D01*
X139690375Y-81405014D01*
X139537063Y-81432155D01*
X139253335Y-81438334D01*
X139028333Y-81435220D01*
X138845295Y-81414680D01*
X138763871Y-81363576D01*
X138745335Y-81269000D01*
X138717506Y-81159535D01*
X138576002Y-81099667D01*
X138478263Y-81118841D01*
X138420869Y-81216765D01*
X138406668Y-81438334D01*
X138397081Y-81633811D01*
X138348119Y-81748600D01*
X138237335Y-81777000D01*
X138139596Y-81757826D01*
X138082202Y-81659902D01*
X138068002Y-81438334D01*
X138068002Y-81099667D01*
X137729335Y-81099667D01*
X137390668Y-81099667D01*
X137390668Y-81438334D01*
X137381081Y-81633811D01*
X137332119Y-81748600D01*
X137221335Y-81777000D01*
X137111870Y-81749171D01*
X137052002Y-81607667D01*
X137024173Y-81498202D01*
X136882668Y-81438334D01*
X136773204Y-81466163D01*
X136713335Y-81607667D01*
X136685506Y-81717132D01*
X136544002Y-81777000D01*
X136434537Y-81749171D01*
X136374668Y-81607667D01*
X136346839Y-81498202D01*
X136205335Y-81438334D01*
X136095870Y-81466163D01*
X136036002Y-81607667D01*
X136008173Y-81717132D01*
X135866668Y-81777000D01*
X135757204Y-81749171D01*
X135697335Y-81607667D01*
X135669506Y-81498202D01*
X135528002Y-81438334D01*
X135418537Y-81466163D01*
X135358668Y-81607667D01*
X135330839Y-81717132D01*
X135189335Y-81777000D01*
X135079870Y-81749171D01*
X135020002Y-81607667D01*
X135000828Y-81509928D01*
X134902903Y-81452534D01*
X134681335Y-81438334D01*
X134485858Y-81447921D01*
X134371069Y-81496883D01*
X134342668Y-81607667D01*
X134314839Y-81717132D01*
X134173335Y-81777000D01*
X134063870Y-81749171D01*
X134004002Y-81607667D01*
X133976173Y-81498202D01*
X133834668Y-81438334D01*
X133725204Y-81466163D01*
X133665335Y-81607667D01*
X133637506Y-81717132D01*
X133496002Y-81777000D01*
X133398263Y-81757826D01*
X133340869Y-81659902D01*
X133326668Y-81438334D01*
X133326668Y-81269000D01*
X134004002Y-81269000D01*
X134031831Y-81378465D01*
X134173335Y-81438334D01*
X134282800Y-81410504D01*
X134342668Y-81269000D01*
X134361843Y-81171261D01*
X134459767Y-81113867D01*
X134681335Y-81099667D01*
X134876813Y-81109254D01*
X134991602Y-81158216D01*
X135020002Y-81269000D01*
X135047831Y-81378465D01*
X135189335Y-81438334D01*
X135287074Y-81419159D01*
X135344468Y-81321235D01*
X135358668Y-81099667D01*
X135349081Y-80904189D01*
X135300119Y-80789400D01*
X135189335Y-80761000D01*
X135079870Y-80733171D01*
X135020002Y-80591667D01*
X135010663Y-80516666D01*
X134949042Y-80455653D01*
X134795730Y-80428512D01*
X134512002Y-80422334D01*
X134286999Y-80425447D01*
X134103962Y-80445987D01*
X134022538Y-80497091D01*
X134004002Y-80591667D01*
X134031831Y-80701132D01*
X134173335Y-80761000D01*
X134282800Y-80788829D01*
X134342668Y-80930334D01*
X134314839Y-81039798D01*
X134173335Y-81099667D01*
X134063870Y-81127496D01*
X134004002Y-81269000D01*
X133326668Y-81269000D01*
X133326668Y-81099667D01*
X132988002Y-81099667D01*
X132792524Y-81090080D01*
X132677735Y-81041118D01*
X132649335Y-80930334D01*
X132630161Y-80832595D01*
X132532237Y-80775200D01*
X132310668Y-80761000D01*
X131972002Y-80761000D01*
X131972002Y-80591667D01*
X132649335Y-80591667D01*
X132668509Y-80689406D01*
X132766434Y-80746800D01*
X132988002Y-80761000D01*
X133183479Y-80770587D01*
X133298268Y-80819549D01*
X133326668Y-80930334D01*
X133354498Y-81039798D01*
X133496002Y-81099667D01*
X133593741Y-81080493D01*
X133651135Y-80982568D01*
X133665335Y-80761000D01*
X133655748Y-80565523D01*
X133606786Y-80450734D01*
X133496002Y-80422334D01*
X133386537Y-80394504D01*
X133326668Y-80253000D01*
X133298839Y-80143535D01*
X133157335Y-80083667D01*
X133047870Y-80111496D01*
X132988002Y-80253000D01*
X132960173Y-80362465D01*
X132818668Y-80422334D01*
X132709204Y-80450163D01*
X132649335Y-80591667D01*
X131972002Y-80591667D01*
X131972002Y-80253000D01*
X131975115Y-80027998D01*
X131995655Y-79844960D01*
X132046759Y-79763536D01*
X132141335Y-79745000D01*
X132239074Y-79764174D01*
X132296468Y-79862099D01*
X132310668Y-80083667D01*
X132320256Y-80279144D01*
X132369218Y-80393933D01*
X132480002Y-80422334D01*
X132577741Y-80403159D01*
X132635135Y-80305235D01*
X132649335Y-80083667D01*
X132649335Y-79745000D01*
X132988002Y-79745000D01*
X133183479Y-79735413D01*
X133298268Y-79686451D01*
X133326668Y-79575667D01*
X133298839Y-79466202D01*
X133157335Y-79406334D01*
X133047870Y-79378504D01*
X132988002Y-79237000D01*
X133015831Y-79127535D01*
X133157335Y-79067667D01*
X133665335Y-79067667D01*
X133665335Y-79575667D01*
X133665335Y-80083667D01*
X134173335Y-80083667D01*
X134681335Y-80083667D01*
X134681335Y-79575667D01*
X134681335Y-79067667D01*
X134173335Y-79067667D01*
X133665335Y-79067667D01*
X133157335Y-79067667D01*
X133266800Y-79039838D01*
X133326668Y-78898334D01*
X133298839Y-78788869D01*
X133157335Y-78729000D01*
X133047870Y-78701171D01*
X132988002Y-78559667D01*
X132968828Y-78461928D01*
X132870903Y-78404534D01*
X132649335Y-78390334D01*
X132310668Y-78390334D01*
X132310668Y-78729000D01*
X132301081Y-78924478D01*
X132252119Y-79039267D01*
X132141335Y-79067667D01*
X132091483Y-79064056D01*
X132035998Y-79031861D01*
X132000985Y-78942585D01*
X131981765Y-78768168D01*
X131973663Y-78480549D01*
X131972002Y-78051667D01*
X131972604Y-77752556D01*
X131977970Y-77419646D01*
X131992849Y-77209564D01*
X132021918Y-77094247D01*
X132069855Y-77045635D01*
X132141335Y-77035667D01*
X132310668Y-77035667D01*
X132310668Y-77543667D01*
X132313782Y-77768669D01*
X132334322Y-77951707D01*
X132385426Y-78033131D01*
X132480002Y-78051667D01*
X132577741Y-78032493D01*
X132635135Y-77934568D01*
X132649335Y-77713000D01*
X132988002Y-77713000D01*
X132988002Y-78051667D01*
X132997589Y-78247144D01*
X133046551Y-78361933D01*
X133157335Y-78390334D01*
X133266800Y-78418163D01*
X133326668Y-78559667D01*
X133354498Y-78669132D01*
X133496002Y-78729000D01*
X133605467Y-78701171D01*
X133665335Y-78559667D01*
X134342668Y-78559667D01*
X134370498Y-78669132D01*
X134512002Y-78729000D01*
X134621467Y-78701171D01*
X134681335Y-78559667D01*
X134709164Y-78450202D01*
X134850668Y-78390334D01*
X134960133Y-78362504D01*
X135020002Y-78221000D01*
X134992173Y-78111535D01*
X134850668Y-78051667D01*
X134741204Y-78079496D01*
X134681335Y-78221000D01*
X134653506Y-78330465D01*
X134512002Y-78390334D01*
X134402537Y-78418163D01*
X134342668Y-78559667D01*
X133665335Y-78559667D01*
X133693164Y-78450202D01*
X133834668Y-78390334D01*
X133944133Y-78362504D01*
X134004002Y-78221000D01*
X134031831Y-78111535D01*
X134173335Y-78051667D01*
X134282800Y-78023838D01*
X134342668Y-77882334D01*
X134370498Y-77772869D01*
X134512002Y-77713000D01*
X134621467Y-77685171D01*
X134681335Y-77543667D01*
X135020002Y-77543667D01*
X135047831Y-77653132D01*
X135189335Y-77713000D01*
X135298800Y-77685171D01*
X135358668Y-77543667D01*
X135330839Y-77434202D01*
X135189335Y-77374334D01*
X135079870Y-77402163D01*
X135020002Y-77543667D01*
X134681335Y-77543667D01*
X134653506Y-77434202D01*
X134512002Y-77374334D01*
X134414263Y-77355159D01*
X134356869Y-77257235D01*
X134342668Y-77035667D01*
X134333081Y-76840189D01*
X134284119Y-76725400D01*
X134173335Y-76697000D01*
X134098334Y-76687661D01*
X134037322Y-76626040D01*
X134010180Y-76472728D01*
X134004002Y-76189000D01*
X134681335Y-76189000D01*
X134709164Y-76298465D01*
X134850668Y-76358334D01*
X134960133Y-76330504D01*
X135020002Y-76189000D01*
X134992173Y-76079535D01*
X134850668Y-76019667D01*
X134741204Y-76047496D01*
X134681335Y-76189000D01*
X134004002Y-76189000D01*
X134000889Y-75963998D01*
X133980349Y-75780960D01*
X133929245Y-75699536D01*
X133834668Y-75681000D01*
X133736930Y-75661826D01*
X133679535Y-75563902D01*
X133676187Y-75511667D01*
X134342668Y-75511667D01*
X134352008Y-75586668D01*
X134413628Y-75647680D01*
X134566940Y-75674822D01*
X134850668Y-75681000D01*
X135075671Y-75684113D01*
X135258709Y-75704653D01*
X135340133Y-75755757D01*
X135358668Y-75850334D01*
X135386498Y-75959798D01*
X135528002Y-76019667D01*
X135603003Y-76010328D01*
X135664015Y-75948707D01*
X135691157Y-75795395D01*
X135697335Y-75511667D01*
X135694222Y-75286664D01*
X135673682Y-75103627D01*
X135622578Y-75022203D01*
X135528002Y-75003667D01*
X135418537Y-75031496D01*
X135358668Y-75173000D01*
X135330839Y-75282465D01*
X135189335Y-75342334D01*
X135079870Y-75314504D01*
X135020002Y-75173000D01*
X134992173Y-75063535D01*
X134850668Y-75003667D01*
X134741204Y-75031496D01*
X134681335Y-75173000D01*
X134653506Y-75282465D01*
X134512002Y-75342334D01*
X134402537Y-75370163D01*
X134342668Y-75511667D01*
X133676187Y-75511667D01*
X133665335Y-75342334D01*
X133655748Y-75146856D01*
X133606786Y-75032067D01*
X133496002Y-75003667D01*
X133386537Y-75031496D01*
X133326668Y-75173000D01*
X133298839Y-75282465D01*
X133157335Y-75342334D01*
X133047870Y-75370163D01*
X132988002Y-75511667D01*
X133007176Y-75609406D01*
X133105100Y-75666800D01*
X133326668Y-75681000D01*
X133665335Y-75681000D01*
X133665335Y-76189000D01*
X133668448Y-76414003D01*
X133688988Y-76597040D01*
X133740092Y-76678464D01*
X133834668Y-76697000D01*
X133944133Y-76724829D01*
X134004002Y-76866334D01*
X133976173Y-76975798D01*
X133834668Y-77035667D01*
X133725204Y-77063496D01*
X133665335Y-77205000D01*
X133693164Y-77314465D01*
X133834668Y-77374334D01*
X133944133Y-77402163D01*
X134004002Y-77543667D01*
X133994663Y-77618668D01*
X133933042Y-77679680D01*
X133779730Y-77706822D01*
X133496002Y-77713000D01*
X132988002Y-77713000D01*
X132649335Y-77713000D01*
X132649335Y-77374334D01*
X132988002Y-77374334D01*
X133326668Y-77374334D01*
X133326668Y-77035667D01*
X133317081Y-76840189D01*
X133268119Y-76725400D01*
X133157335Y-76697000D01*
X133047870Y-76669171D01*
X132988002Y-76527667D01*
X132960173Y-76418202D01*
X132818668Y-76358334D01*
X132709204Y-76386163D01*
X132649335Y-76527667D01*
X132677164Y-76637132D01*
X132818668Y-76697000D01*
X132928133Y-76724829D01*
X132988002Y-76866334D01*
X132968828Y-76964072D01*
X132870903Y-77021467D01*
X132649335Y-77035667D01*
X132310668Y-77035667D01*
X132141335Y-77035667D01*
X132250800Y-77007838D01*
X132310668Y-76866334D01*
X132282839Y-76756869D01*
X132141335Y-76697000D01*
X132031870Y-76669171D01*
X131972002Y-76527667D01*
X131991176Y-76429928D01*
X132089100Y-76372534D01*
X132310668Y-76358334D01*
X132649335Y-76358334D01*
X132649335Y-75850334D01*
X132646222Y-75625331D01*
X132625682Y-75442293D01*
X132574578Y-75360869D01*
X132480002Y-75342334D01*
X132382263Y-75323159D01*
X132324869Y-75225235D01*
X132310668Y-75003667D01*
X132320256Y-74808189D01*
X132369218Y-74693400D01*
X132480002Y-74665000D01*
X132577741Y-74684174D01*
X132635135Y-74782099D01*
X132649335Y-75003667D01*
X132658922Y-75199144D01*
X132707884Y-75313933D01*
X132818668Y-75342334D01*
X132863315Y-75339841D01*
X132930638Y-75305836D01*
X132968184Y-75204735D01*
X132984467Y-75002477D01*
X132988002Y-74665000D01*
X132988002Y-74495667D01*
X133326668Y-74495667D01*
X133354498Y-74605132D01*
X133496002Y-74665000D01*
X133605467Y-74637171D01*
X133665335Y-74495667D01*
X133637506Y-74386202D01*
X133496002Y-74326334D01*
X133386537Y-74354163D01*
X133326668Y-74495667D01*
X132988002Y-74495667D01*
X132988002Y-73987667D01*
X132649335Y-73987667D01*
X132453858Y-73997254D01*
X132339069Y-74046216D01*
X132310668Y-74157000D01*
X132282839Y-74266465D01*
X132141335Y-74326334D01*
X132066334Y-74316994D01*
X132005322Y-74255374D01*
X131978180Y-74102062D01*
X131972002Y-73818334D01*
X131972002Y-73310334D01*
X132310668Y-73310334D01*
X132506146Y-73319921D01*
X132620935Y-73368883D01*
X132649335Y-73479667D01*
X132677164Y-73589132D01*
X132818668Y-73649000D01*
X132928133Y-73621171D01*
X132988002Y-73479667D01*
X133015831Y-73370202D01*
X133157335Y-73310334D01*
X133255074Y-73329508D01*
X133312468Y-73427432D01*
X133326668Y-73649000D01*
X133336256Y-73844478D01*
X133385218Y-73959267D01*
X133496002Y-73987667D01*
X133605467Y-73959838D01*
X133665335Y-73818334D01*
X133693164Y-73708869D01*
X133834668Y-73649000D01*
X133944133Y-73621171D01*
X134004002Y-73479667D01*
X134031831Y-73370202D01*
X134173335Y-73310334D01*
X134271074Y-73329508D01*
X134328468Y-73427432D01*
X134342668Y-73649000D01*
X134333081Y-73844478D01*
X134284119Y-73959267D01*
X134173335Y-73987667D01*
X134128689Y-73990159D01*
X134061365Y-74024165D01*
X134023820Y-74125266D01*
X134007537Y-74327524D01*
X134005776Y-74495667D01*
X134004002Y-74665000D01*
X134004625Y-74843584D01*
X134013126Y-75112880D01*
X134038402Y-75263062D01*
X134088966Y-75328193D01*
X134173335Y-75342334D01*
X134248336Y-75332994D01*
X134309349Y-75271374D01*
X134336490Y-75118062D01*
X134342668Y-74834334D01*
X134345782Y-74609331D01*
X134366322Y-74426293D01*
X134417426Y-74344869D01*
X134512002Y-74326334D01*
X134621467Y-74354163D01*
X134681335Y-74495667D01*
X134700509Y-74593406D01*
X134798434Y-74650800D01*
X135020002Y-74665000D01*
X135215479Y-74655413D01*
X135330268Y-74606451D01*
X135358668Y-74495667D01*
X135330839Y-74386202D01*
X135189335Y-74326334D01*
X135091596Y-74307159D01*
X135034202Y-74209235D01*
X135020002Y-73987667D01*
X135010415Y-73792189D01*
X134961453Y-73677400D01*
X134850668Y-73649000D01*
X134775668Y-73639661D01*
X134714655Y-73578040D01*
X134687514Y-73424728D01*
X134681335Y-73141000D01*
X134684448Y-72915998D01*
X134704988Y-72732960D01*
X134756092Y-72651536D01*
X134850668Y-72633000D01*
X134960133Y-72605171D01*
X135020002Y-72463667D01*
X134992173Y-72354202D01*
X134850668Y-72294334D01*
X134806022Y-72291841D01*
X134738699Y-72257836D01*
X134701153Y-72156735D01*
X134684870Y-71954477D01*
X134681335Y-71617000D01*
X134681958Y-71438416D01*
X134690460Y-71169121D01*
X134715735Y-71018939D01*
X134766299Y-70953808D01*
X134850668Y-70939667D01*
X134960133Y-70911838D01*
X135020002Y-70770334D01*
X135047831Y-70660869D01*
X135189335Y-70601000D01*
X135287074Y-70620174D01*
X135344468Y-70718099D01*
X135358668Y-70939667D01*
X135349081Y-71135144D01*
X135300119Y-71249933D01*
X135189335Y-71278334D01*
X135091596Y-71297508D01*
X135034202Y-71395432D01*
X135020002Y-71617000D01*
X135020002Y-71955667D01*
X135358668Y-71955667D01*
X135554146Y-71946080D01*
X135668935Y-71897118D01*
X135697335Y-71786334D01*
X135725164Y-71676869D01*
X135866668Y-71617000D01*
X135976133Y-71589171D01*
X136036002Y-71447667D01*
X136045341Y-71372666D01*
X136106962Y-71311653D01*
X136260274Y-71284512D01*
X136544002Y-71278334D01*
X136769004Y-71275220D01*
X136952042Y-71254680D01*
X137033466Y-71203576D01*
X137052002Y-71109000D01*
X137079831Y-70999535D01*
X137221335Y-70939667D01*
X137330800Y-70967496D01*
X137390668Y-71109000D01*
X137418498Y-71218465D01*
X137560002Y-71278334D01*
X137669467Y-71306163D01*
X137729335Y-71447667D01*
X137757164Y-71557132D01*
X137898668Y-71617000D01*
X137996407Y-71597826D01*
X138053802Y-71499902D01*
X138068002Y-71278334D01*
X138077589Y-71082856D01*
X138126551Y-70968067D01*
X138237335Y-70939667D01*
X138346800Y-70967496D01*
X138406668Y-71109000D01*
X138434498Y-71218465D01*
X138576002Y-71278334D01*
X138673741Y-71259159D01*
X138731135Y-71161235D01*
X138734483Y-71109000D01*
X139084002Y-71109000D01*
X139111831Y-71218465D01*
X139253335Y-71278334D01*
X139362800Y-71250504D01*
X139422668Y-71109000D01*
X139394839Y-70999535D01*
X139253335Y-70939667D01*
X139143870Y-70967496D01*
X139084002Y-71109000D01*
X138734483Y-71109000D01*
X138745335Y-70939667D01*
X138745335Y-70601000D01*
X139084002Y-70601000D01*
X139279479Y-70610587D01*
X139394268Y-70659549D01*
X139422668Y-70770334D01*
X139450498Y-70879798D01*
X139592002Y-70939667D01*
X139701467Y-70911838D01*
X139761335Y-70770334D01*
X139780509Y-70672595D01*
X139878434Y-70615200D01*
X140100002Y-70601000D01*
X140438668Y-70601000D01*
X140438668Y-70939667D01*
X140438668Y-71109000D01*
X140438668Y-71278334D01*
G37*
%TD*%
%LPC*%
D12*
%TO.C,J302*%
X97150000Y-87350000D03*
%TD*%
D13*
%TO.C,H101*%
X142330000Y-65670000D03*
X142813274Y-64503274D03*
X142813274Y-66836726D03*
X143980000Y-64020000D03*
D14*
X143980000Y-65670000D03*
D13*
X143980000Y-67320000D03*
X145146726Y-64503274D03*
X145146726Y-66836726D03*
X145630000Y-65670000D03*
%TD*%
D12*
%TO.C,J102*%
X97150000Y-83750000D03*
%TD*%
%TO.C,J103*%
X97150000Y-80150000D03*
%TD*%
D13*
%TO.C,H102*%
X95910000Y-98310000D03*
X96393274Y-97143274D03*
X96393274Y-99476726D03*
X97560000Y-96660000D03*
D14*
X97560000Y-98310000D03*
D13*
X97560000Y-99960000D03*
X98726726Y-97143274D03*
X98726726Y-99476726D03*
X99210000Y-98310000D03*
%TD*%
D12*
%TO.C,J301*%
X97150000Y-90950000D03*
%TD*%
D15*
%TO.C,J101*%
X99560000Y-73890000D03*
D16*
X97020000Y-71350000D03*
X97020000Y-76430000D03*
X102100000Y-71350000D03*
X102100000Y-76430000D03*
%TD*%
D17*
%TO.C,C104*%
X107170000Y-82740000D03*
D18*
X107170000Y-86240000D03*
%TD*%
%LPD*%
M02*
