%TF.GenerationSoftware,KiCad,Pcbnew,9.0.6-9.0.6~ubuntu24.04.1*%
%TF.CreationDate,2025-12-29T16:18:33+03:00*%
%TF.ProjectId,rc_ble,72635f62-6c65-42e6-9b69-6361645f7063,rev?*%
%TF.SameCoordinates,Original*%
%TF.FileFunction,Copper,L3,Inr*%
%TF.FilePolarity,Positive*%
%FSLAX46Y46*%
G04 Gerber Fmt 4.6, Leading zero omitted, Abs format (unit mm)*
G04 Created by KiCad (PCBNEW 9.0.6-9.0.6~ubuntu24.04.1) date 2025-12-29 16:18:33*
%MOMM*%
%LPD*%
G01*
G04 APERTURE LIST*
G04 Aperture macros list*
%AMRoundRect*
0 Rectangle with rounded corners*
0 $1 Rounding radius*
0 $2 $3 $4 $5 $6 $7 $8 $9 X,Y pos of 4 corners*
0 Add a 4 corners polygon primitive as box body*
4,1,4,$2,$3,$4,$5,$6,$7,$8,$9,$2,$3,0*
0 Add four circle primitives for the rounded corners*
1,1,$1+$1,$2,$3*
1,1,$1+$1,$4,$5*
1,1,$1+$1,$6,$7*
1,1,$1+$1,$8,$9*
0 Add four rect primitives between the rounded corners*
20,1,$1+$1,$2,$3,$4,$5,0*
20,1,$1+$1,$4,$5,$6,$7,0*
20,1,$1+$1,$6,$7,$8,$9,0*
20,1,$1+$1,$8,$9,$2,$3,0*%
G04 Aperture macros list end*
%TA.AperFunction,ComponentPad*%
%ADD10R,1.700000X1.700000*%
%TD*%
%TA.AperFunction,ComponentPad*%
%ADD11C,0.700000*%
%TD*%
%TA.AperFunction,ComponentPad*%
%ADD12C,4.400000*%
%TD*%
%TA.AperFunction,ComponentPad*%
%ADD13C,2.050000*%
%TD*%
%TA.AperFunction,ComponentPad*%
%ADD14C,2.250000*%
%TD*%
%TA.AperFunction,ComponentPad*%
%ADD15RoundRect,0.250000X-0.550000X0.550000X-0.550000X-0.550000X0.550000X-0.550000X0.550000X0.550000X0*%
%TD*%
%TA.AperFunction,ComponentPad*%
%ADD16C,1.600000*%
%TD*%
%TA.AperFunction,ViaPad*%
%ADD17C,0.600000*%
%TD*%
%TA.AperFunction,Conductor*%
%ADD18C,1.000000*%
%TD*%
%TA.AperFunction,Conductor*%
%ADD19C,0.400000*%
%TD*%
G04 APERTURE END LIST*
D10*
%TO.N,/CAN/CAN1_LOW*%
%TO.C,J302*%
X97150000Y-87350000D03*
%TD*%
D11*
%TO.N,GND*%
%TO.C,H101*%
X142330000Y-65670000D03*
X142813274Y-64503274D03*
X142813274Y-66836726D03*
X143980000Y-64020000D03*
D12*
X143980000Y-65670000D03*
D11*
X143980000Y-67320000D03*
X145146726Y-64503274D03*
X145146726Y-66836726D03*
X145630000Y-65670000D03*
%TD*%
D10*
%TO.N,/VIN*%
%TO.C,J102*%
X97150000Y-83750000D03*
%TD*%
%TO.N,GND*%
%TO.C,J103*%
X97150000Y-80150000D03*
%TD*%
D11*
%TO.N,GND*%
%TO.C,H102*%
X95910000Y-98310000D03*
X96393274Y-97143274D03*
X96393274Y-99476726D03*
X97560000Y-96660000D03*
D12*
X97560000Y-98310000D03*
D11*
X97560000Y-99960000D03*
X98726726Y-97143274D03*
X98726726Y-99476726D03*
X99210000Y-98310000D03*
%TD*%
D10*
%TO.N,/CAN/CAN1_HI*%
%TO.C,J301*%
X97150000Y-90950000D03*
%TD*%
D13*
%TO.N,/ublox/GPS_RF*%
%TO.C,J101*%
X99560000Y-73890000D03*
D14*
%TO.N,GND*%
X97020000Y-71350000D03*
X97020000Y-76430000D03*
X102100000Y-71350000D03*
X102100000Y-76430000D03*
%TD*%
D15*
%TO.N,/ublox/GPS_VBAT*%
%TO.C,C104*%
X107170000Y-82740000D03*
D16*
%TO.N,GND*%
X107170000Y-86240000D03*
%TD*%
D17*
%TO.N,/3V3*%
X124540000Y-75890000D03*
X119960000Y-96230000D03*
X135540000Y-86790000D03*
X125410000Y-73650000D03*
X134630000Y-84220000D03*
X138790000Y-92710000D03*
X121280000Y-96230000D03*
X125390000Y-74290000D03*
X121830000Y-96870000D03*
X127780000Y-74290000D03*
X125390000Y-75020000D03*
X121830000Y-97510000D03*
X122700000Y-96190000D03*
X120630000Y-96240000D03*
X121980000Y-96210000D03*
X123370000Y-96200000D03*
X136262500Y-87820000D03*
X129340000Y-99192500D03*
X123650000Y-85480000D03*
%TO.N,GND*%
X104010000Y-92280000D03*
X102010000Y-95420000D03*
X110000000Y-76000000D03*
X130880000Y-90800000D03*
X107000000Y-73000000D03*
X113000000Y-70000000D03*
X120490000Y-91640000D03*
X105330000Y-92290000D03*
X111000000Y-73000000D03*
X125510000Y-76380000D03*
X108000000Y-70000000D03*
X109000000Y-73000000D03*
X113000000Y-76000000D03*
X107000000Y-76000000D03*
X118390000Y-72170000D03*
X111000000Y-76000000D03*
X125070000Y-95130000D03*
X105000000Y-73000000D03*
X110000000Y-73000000D03*
X100360000Y-91900000D03*
X126900000Y-72000000D03*
X106000000Y-70000000D03*
X106000000Y-76000000D03*
X113000000Y-73000000D03*
X101880000Y-94210000D03*
X119290000Y-95170000D03*
X105000000Y-70000000D03*
X146100000Y-93650000D03*
X105600000Y-77360000D03*
X107000000Y-70000000D03*
X113050000Y-68180000D03*
X111720000Y-85850000D03*
X104600000Y-67750000D03*
X103120000Y-97000000D03*
X105620000Y-80220000D03*
X113030000Y-64850000D03*
X108000000Y-73000000D03*
X115000000Y-70000000D03*
X112010000Y-88820000D03*
X125306250Y-80850000D03*
X112000000Y-70000000D03*
X121980000Y-73340000D03*
X109000000Y-76000000D03*
X112420000Y-92270000D03*
X110000000Y-70000000D03*
X129490000Y-75970000D03*
X115560000Y-99200000D03*
X121130000Y-74170000D03*
X128190000Y-79250000D03*
X106000000Y-73000000D03*
X115000000Y-73000000D03*
X107900000Y-68350000D03*
X119230000Y-71600000D03*
X114000000Y-70000000D03*
X102860000Y-92350000D03*
X125720000Y-65720000D03*
X114000000Y-73000000D03*
X101830000Y-93060000D03*
X108000000Y-76000000D03*
X103980000Y-96990000D03*
X133520000Y-65650000D03*
X142350000Y-96150000D03*
X119930000Y-70980000D03*
X105000000Y-76000000D03*
X114610000Y-92060000D03*
X112000000Y-73000000D03*
X119480000Y-75730000D03*
X104810000Y-96980000D03*
X127955001Y-95000000D03*
X134750000Y-93087500D03*
X120780000Y-80240000D03*
X120320000Y-74970000D03*
X112000000Y-76000000D03*
X114000000Y-76000000D03*
X109000000Y-70000000D03*
X126780000Y-65490000D03*
X119620000Y-77180000D03*
%TO.N,/5V*%
X104500000Y-98990000D03*
X137370000Y-64450000D03*
X139550000Y-91030000D03*
X104020000Y-99560000D03*
X104960000Y-98360000D03*
X128100000Y-82650000D03*
X127070000Y-82590000D03*
X127770000Y-89710000D03*
X126130000Y-82490000D03*
X116890000Y-96830000D03*
X125200000Y-82560000D03*
X103980000Y-98420000D03*
X130850000Y-64450000D03*
X129710000Y-86639986D03*
X108210000Y-100050000D03*
X115380000Y-97730000D03*
X116890000Y-90910000D03*
X107160000Y-100050000D03*
X105030000Y-99550000D03*
X106160000Y-100030000D03*
X128930000Y-82620000D03*
%TO.N,/CAN/CAN1_HI*%
X115800000Y-86770000D03*
%TO.N,/CAN/CAN1_LOW*%
X115770000Y-84860000D03*
%TO.N,/CAN/CAN1S*%
X130500000Y-95550000D03*
X124830000Y-88020000D03*
%TO.N,/RST*%
X143100000Y-84900000D03*
X145600000Y-85200000D03*
%TO.N,/CAN/CAN1RX*%
X132116942Y-88833058D03*
X132050000Y-90550000D03*
%TO.N,/MCP_INT*%
X132350000Y-91700000D03*
X133200000Y-85200000D03*
%TO.N,/MCP_RST*%
X133050000Y-84300000D03*
X137450000Y-93175000D03*
%TO.N,Net-(Q301-G)*%
X122190000Y-93720000D03*
X125780000Y-84240000D03*
%TO.N,Net-(Q303-D)*%
X121700000Y-91290000D03*
X120210000Y-84680000D03*
%TD*%
D18*
%TO.N,/5V*%
X128810000Y-82500000D02*
X128930000Y-82620000D01*
X130850000Y-64450000D02*
X137370000Y-64450000D01*
D19*
X142420000Y-91030000D02*
X139550000Y-91030000D01*
D18*
X118720000Y-64260000D02*
X130660000Y-64260000D01*
X116890000Y-96830000D02*
X115990000Y-97730000D01*
X116890000Y-89630000D02*
X116890000Y-82500000D01*
D19*
X116440000Y-97320000D02*
X116440000Y-97280000D01*
D18*
X129710000Y-86639986D02*
X129710000Y-88300000D01*
X116890000Y-90910000D02*
X116890000Y-96830000D01*
D19*
X143620000Y-92230000D02*
X142420000Y-91030000D01*
X116440000Y-97280000D02*
X116890000Y-96830000D01*
X116440000Y-97320000D02*
X115790000Y-97320000D01*
D18*
X129710000Y-88300000D02*
X128300000Y-89710000D01*
D19*
X141760000Y-100550000D02*
X143620000Y-98690000D01*
D18*
X115380000Y-97730000D02*
X110600000Y-97730000D01*
X115990000Y-97730000D02*
X115380000Y-97730000D01*
X110600000Y-97730000D02*
X110590000Y-97720000D01*
D19*
X127740000Y-89680000D02*
X127770000Y-89710000D01*
D18*
X128300000Y-89710000D02*
X127770000Y-89710000D01*
X127690000Y-89630000D02*
X127770000Y-89710000D01*
X116890000Y-82500000D02*
X116890000Y-66090000D01*
D19*
X121670000Y-100550000D02*
X141760000Y-100550000D01*
D18*
X116890000Y-82500000D02*
X128810000Y-82500000D01*
D19*
X115790000Y-97320000D02*
X115380000Y-97730000D01*
X143620000Y-98690000D02*
X143620000Y-92230000D01*
D18*
X116890000Y-89630000D02*
X127690000Y-89630000D01*
X130660000Y-64260000D02*
X130850000Y-64450000D01*
X116890000Y-89630000D02*
X116890000Y-90910000D01*
D19*
X116890000Y-96830000D02*
X117950000Y-96830000D01*
X117950000Y-96830000D02*
X121670000Y-100550000D01*
D18*
X116890000Y-66090000D02*
X118720000Y-64260000D01*
%TD*%
%TA.AperFunction,Conductor*%
%TO.N,GND*%
G36*
X118059204Y-63247265D02*
G01*
X118083097Y-63249725D01*
X118092123Y-63256931D01*
X118103202Y-63260185D01*
X118118927Y-63278332D01*
X118137698Y-63293320D01*
X118141395Y-63304262D01*
X118148957Y-63312989D01*
X118152374Y-63336758D01*
X118160063Y-63359513D01*
X118157257Y-63370716D01*
X118158901Y-63382147D01*
X118148923Y-63403993D01*
X118143090Y-63427290D01*
X118131862Y-63441352D01*
X118129876Y-63445703D01*
X118124847Y-63450139D01*
X118121069Y-63454872D01*
X118113588Y-63461899D01*
X118082218Y-63482861D01*
X117942861Y-63622218D01*
X117942858Y-63622221D01*
X117941490Y-63623588D01*
X117941474Y-63623604D01*
X117016538Y-64548541D01*
X116252221Y-65312858D01*
X116252218Y-65312861D01*
X116182538Y-65382540D01*
X116112859Y-65452219D01*
X116003371Y-65616079D01*
X116003364Y-65616092D01*
X115927950Y-65798160D01*
X115927947Y-65798170D01*
X115889500Y-65991456D01*
X115889500Y-83935500D01*
X115869815Y-84002539D01*
X115817011Y-84048294D01*
X115765500Y-84059500D01*
X115691155Y-84059500D01*
X115536510Y-84090261D01*
X115536498Y-84090264D01*
X115390827Y-84150602D01*
X115390814Y-84150609D01*
X115259711Y-84238210D01*
X115259707Y-84238213D01*
X115148213Y-84349707D01*
X115148210Y-84349711D01*
X115060609Y-84480814D01*
X115060602Y-84480827D01*
X115000264Y-84626498D01*
X115000261Y-84626510D01*
X114969500Y-84781153D01*
X114969500Y-84938846D01*
X115000261Y-85093489D01*
X115000264Y-85093501D01*
X115060602Y-85239172D01*
X115060609Y-85239185D01*
X115148210Y-85370288D01*
X115148213Y-85370292D01*
X115259707Y-85481786D01*
X115259711Y-85481789D01*
X115390814Y-85569390D01*
X115390827Y-85569397D01*
X115536498Y-85629735D01*
X115536503Y-85629737D01*
X115691153Y-85660499D01*
X115691156Y-85660500D01*
X115765500Y-85660500D01*
X115774185Y-85663050D01*
X115783147Y-85661762D01*
X115807187Y-85672740D01*
X115832539Y-85680185D01*
X115838466Y-85687025D01*
X115846703Y-85690787D01*
X115860992Y-85713021D01*
X115878294Y-85732989D01*
X115880581Y-85743503D01*
X115884477Y-85749565D01*
X115889500Y-85784500D01*
X115889500Y-85845500D01*
X115869815Y-85912539D01*
X115817011Y-85958294D01*
X115765500Y-85969500D01*
X115721155Y-85969500D01*
X115566510Y-86000261D01*
X115566498Y-86000264D01*
X115420827Y-86060602D01*
X115420814Y-86060609D01*
X115289711Y-86148210D01*
X115289707Y-86148213D01*
X115178213Y-86259707D01*
X115178210Y-86259711D01*
X115090609Y-86390814D01*
X115090602Y-86390827D01*
X115030264Y-86536498D01*
X115030261Y-86536510D01*
X114999500Y-86691153D01*
X114999500Y-86848846D01*
X115030261Y-87003489D01*
X115030264Y-87003501D01*
X115090602Y-87149172D01*
X115090609Y-87149185D01*
X115178210Y-87280288D01*
X115178213Y-87280292D01*
X115289707Y-87391786D01*
X115289711Y-87391789D01*
X115420814Y-87479390D01*
X115420827Y-87479397D01*
X115566498Y-87539735D01*
X115566503Y-87539737D01*
X115710495Y-87568379D01*
X115721153Y-87570499D01*
X115721156Y-87570500D01*
X115765500Y-87570500D01*
X115832539Y-87590185D01*
X115878294Y-87642989D01*
X115889500Y-87694500D01*
X115889500Y-96364217D01*
X115880855Y-96393657D01*
X115874332Y-96423644D01*
X115870577Y-96428659D01*
X115869815Y-96431256D01*
X115853181Y-96451899D01*
X115703380Y-96601699D01*
X115642057Y-96635183D01*
X115639892Y-96635634D01*
X115585675Y-96646418D01*
X115585669Y-96646420D01*
X115458190Y-96699223D01*
X115444157Y-96708601D01*
X115377480Y-96729480D01*
X115375265Y-96729500D01*
X115095071Y-96729500D01*
X115028032Y-96709815D01*
X115015528Y-96700626D01*
X114943979Y-96640793D01*
X114935087Y-96636919D01*
X114812076Y-96583327D01*
X114812074Y-96583326D01*
X114812073Y-96583326D01*
X114803444Y-96580956D01*
X114744708Y-96564821D01*
X114744687Y-96564817D01*
X114601943Y-96546843D01*
X110228989Y-96623561D01*
X110153006Y-96630656D01*
X110153005Y-96630656D01*
X110116223Y-96636919D01*
X110116221Y-96636919D01*
X110042211Y-96655358D01*
X110042209Y-96655359D01*
X109913447Y-96719552D01*
X109913440Y-96719556D01*
X109863218Y-96754304D01*
X109863165Y-96754335D01*
X109855981Y-96759312D01*
X109750524Y-96857180D01*
X109215577Y-97518825D01*
X109158121Y-97558580D01*
X109119301Y-97564863D01*
X105102643Y-97569732D01*
X105078302Y-97567349D01*
X105051265Y-97561971D01*
X105038843Y-97559500D01*
X105038842Y-97559500D01*
X104881158Y-97559500D01*
X104868680Y-97561982D01*
X104839947Y-97567697D01*
X104815907Y-97570079D01*
X101313671Y-97574325D01*
X101289783Y-97574354D01*
X101209663Y-97582469D01*
X101189633Y-97584498D01*
X101141480Y-97594293D01*
X101100014Y-97607139D01*
X101045322Y-97624082D01*
X101045320Y-97624083D01*
X101045318Y-97624083D01*
X100922135Y-97698418D01*
X100922126Y-97698425D01*
X100868054Y-97742667D01*
X100770811Y-97848685D01*
X100770809Y-97848688D01*
X100707368Y-97977815D01*
X100707363Y-97977827D01*
X100687537Y-98038904D01*
X100686814Y-98040828D01*
X100685789Y-98044287D01*
X100661299Y-98186059D01*
X100661298Y-98186067D01*
X100590581Y-100687695D01*
X100590581Y-100687707D01*
X100591198Y-100694865D01*
X100577336Y-100763346D01*
X100528650Y-100813461D01*
X100467655Y-100829500D01*
X97523751Y-100829500D01*
X97516264Y-100829274D01*
X97226205Y-100811728D01*
X97211340Y-100809923D01*
X96929201Y-100758219D01*
X96914663Y-100754635D01*
X96640832Y-100669306D01*
X96626831Y-100663997D01*
X96365263Y-100546275D01*
X96352004Y-100539316D01*
X96106540Y-100390928D01*
X96094217Y-100382422D01*
X95868426Y-100205526D01*
X95857218Y-100195596D01*
X95654403Y-99992781D01*
X95644473Y-99981573D01*
X95467573Y-99755776D01*
X95459075Y-99743465D01*
X95310680Y-99497989D01*
X95303727Y-99484743D01*
X95186000Y-99223163D01*
X95180693Y-99209167D01*
X95158062Y-99136543D01*
X95095363Y-98935335D01*
X95091780Y-98920798D01*
X95066897Y-98785016D01*
X95040075Y-98638657D01*
X95038271Y-98623794D01*
X95020726Y-98333736D01*
X95020500Y-98326249D01*
X95020500Y-90052135D01*
X95799500Y-90052135D01*
X95799500Y-91847870D01*
X95799501Y-91847876D01*
X95805908Y-91907483D01*
X95856202Y-92042328D01*
X95856206Y-92042335D01*
X95942452Y-92157544D01*
X95942455Y-92157547D01*
X96057664Y-92243793D01*
X96057671Y-92243797D01*
X96192517Y-92294091D01*
X96192516Y-92294091D01*
X96199444Y-92294835D01*
X96252127Y-92300500D01*
X98047872Y-92300499D01*
X98107483Y-92294091D01*
X98242331Y-92243796D01*
X98357546Y-92157546D01*
X98443796Y-92042331D01*
X98494091Y-91907483D01*
X98500500Y-91847873D01*
X98500499Y-90052128D01*
X98494091Y-89992517D01*
X98443796Y-89857669D01*
X98443795Y-89857668D01*
X98443793Y-89857664D01*
X98357547Y-89742455D01*
X98357544Y-89742452D01*
X98242335Y-89656206D01*
X98242328Y-89656202D01*
X98107482Y-89605908D01*
X98107483Y-89605908D01*
X98047883Y-89599501D01*
X98047881Y-89599500D01*
X98047873Y-89599500D01*
X98047864Y-89599500D01*
X96252129Y-89599500D01*
X96252123Y-89599501D01*
X96192516Y-89605908D01*
X96057671Y-89656202D01*
X96057664Y-89656206D01*
X95942455Y-89742452D01*
X95942452Y-89742455D01*
X95856206Y-89857664D01*
X95856202Y-89857671D01*
X95805908Y-89992517D01*
X95799501Y-90052116D01*
X95799501Y-90052123D01*
X95799500Y-90052135D01*
X95020500Y-90052135D01*
X95020500Y-86452135D01*
X95799500Y-86452135D01*
X95799500Y-88247870D01*
X95799501Y-88247876D01*
X95805908Y-88307483D01*
X95856202Y-88442328D01*
X95856206Y-88442335D01*
X95942452Y-88557544D01*
X95942455Y-88557547D01*
X96057664Y-88643793D01*
X96057671Y-88643797D01*
X96192517Y-88694091D01*
X96192516Y-88694091D01*
X96199444Y-88694835D01*
X96252127Y-88700500D01*
X98047872Y-88700499D01*
X98107483Y-88694091D01*
X98242331Y-88643796D01*
X98357546Y-88557546D01*
X98443796Y-88442331D01*
X98494091Y-88307483D01*
X98500500Y-88247873D01*
X98500499Y-86452128D01*
X98494091Y-86392517D01*
X98493458Y-86390821D01*
X98443797Y-86257671D01*
X98443793Y-86257664D01*
X98357547Y-86142455D01*
X98357544Y-86142452D01*
X98242335Y-86056206D01*
X98242328Y-86056202D01*
X98107482Y-86005908D01*
X98107483Y-86005908D01*
X98047883Y-85999501D01*
X98047881Y-85999500D01*
X98047873Y-85999500D01*
X98047864Y-85999500D01*
X96252129Y-85999500D01*
X96252123Y-85999501D01*
X96192516Y-86005908D01*
X96057671Y-86056202D01*
X96057664Y-86056206D01*
X95942455Y-86142452D01*
X95942452Y-86142455D01*
X95856206Y-86257664D01*
X95856202Y-86257671D01*
X95805908Y-86392517D01*
X95799501Y-86452116D01*
X95799501Y-86452123D01*
X95799500Y-86452135D01*
X95020500Y-86452135D01*
X95020500Y-82852135D01*
X95799500Y-82852135D01*
X95799500Y-84647870D01*
X95799501Y-84647876D01*
X95805908Y-84707483D01*
X95856202Y-84842328D01*
X95856206Y-84842335D01*
X95942452Y-84957544D01*
X95942455Y-84957547D01*
X96057664Y-85043793D01*
X96057671Y-85043797D01*
X96192517Y-85094091D01*
X96192516Y-85094091D01*
X96199444Y-85094835D01*
X96252127Y-85100500D01*
X98047872Y-85100499D01*
X98107483Y-85094091D01*
X98242331Y-85043796D01*
X98357546Y-84957546D01*
X98443796Y-84842331D01*
X98494091Y-84707483D01*
X98500500Y-84647873D01*
X98500499Y-82852128D01*
X98494091Y-82792517D01*
X98443796Y-82657669D01*
X98443795Y-82657668D01*
X98443793Y-82657664D01*
X98357547Y-82542455D01*
X98357544Y-82542452D01*
X98242335Y-82456206D01*
X98242328Y-82456202D01*
X98107482Y-82405908D01*
X98107483Y-82405908D01*
X98047883Y-82399501D01*
X98047881Y-82399500D01*
X98047873Y-82399500D01*
X98047864Y-82399500D01*
X96252129Y-82399500D01*
X96252123Y-82399501D01*
X96192516Y-82405908D01*
X96057671Y-82456202D01*
X96057664Y-82456206D01*
X95942455Y-82542452D01*
X95942452Y-82542455D01*
X95856206Y-82657664D01*
X95856202Y-82657671D01*
X95805908Y-82792517D01*
X95799501Y-82852116D01*
X95799501Y-82852123D01*
X95799500Y-82852135D01*
X95020500Y-82852135D01*
X95020500Y-82139983D01*
X105869500Y-82139983D01*
X105869500Y-83340001D01*
X105869501Y-83340018D01*
X105880000Y-83442796D01*
X105880001Y-83442799D01*
X105902835Y-83511706D01*
X105935186Y-83609334D01*
X106027288Y-83758656D01*
X106151344Y-83882712D01*
X106300666Y-83974814D01*
X106467203Y-84029999D01*
X106569991Y-84040500D01*
X107770008Y-84040499D01*
X107872797Y-84029999D01*
X108039334Y-83974814D01*
X108188656Y-83882712D01*
X108312712Y-83758656D01*
X108404814Y-83609334D01*
X108459999Y-83442797D01*
X108470500Y-83340009D01*
X108470499Y-82139992D01*
X108459999Y-82037203D01*
X108404814Y-81870666D01*
X108312712Y-81721344D01*
X108188656Y-81597288D01*
X108039334Y-81505186D01*
X107872797Y-81450001D01*
X107872795Y-81450000D01*
X107770010Y-81439500D01*
X106569998Y-81439500D01*
X106569981Y-81439501D01*
X106467203Y-81450000D01*
X106467200Y-81450001D01*
X106300668Y-81505185D01*
X106300663Y-81505187D01*
X106151342Y-81597289D01*
X106027289Y-81721342D01*
X105935187Y-81870663D01*
X105935186Y-81870666D01*
X105880001Y-82037203D01*
X105880001Y-82037204D01*
X105880000Y-82037204D01*
X105869500Y-82139983D01*
X95020500Y-82139983D01*
X95020500Y-73769941D01*
X98034500Y-73769941D01*
X98034500Y-74010058D01*
X98072063Y-74247222D01*
X98146265Y-74475593D01*
X98255276Y-74689536D01*
X98396414Y-74883796D01*
X98566204Y-75053586D01*
X98760464Y-75194724D01*
X98841671Y-75236101D01*
X98974406Y-75303734D01*
X98974408Y-75303734D01*
X98974411Y-75303736D01*
X99202778Y-75377937D01*
X99439941Y-75415500D01*
X99439942Y-75415500D01*
X99680058Y-75415500D01*
X99680059Y-75415500D01*
X99917222Y-75377937D01*
X100145589Y-75303736D01*
X100359536Y-75194724D01*
X100553796Y-75053586D01*
X100723586Y-74883796D01*
X100864724Y-74689536D01*
X100973736Y-74475589D01*
X101047937Y-74247222D01*
X101085500Y-74010059D01*
X101085500Y-73769941D01*
X101047937Y-73532778D01*
X100973736Y-73304411D01*
X100973734Y-73304408D01*
X100973734Y-73304406D01*
X100915494Y-73190106D01*
X100864724Y-73090464D01*
X100723586Y-72896204D01*
X100553796Y-72726414D01*
X100359536Y-72585276D01*
X100145593Y-72476265D01*
X99917222Y-72402063D01*
X99680059Y-72364500D01*
X99439941Y-72364500D01*
X99321359Y-72383281D01*
X99202777Y-72402063D01*
X98974406Y-72476265D01*
X98760463Y-72585276D01*
X98566201Y-72726416D01*
X98396416Y-72896201D01*
X98255276Y-73090463D01*
X98146265Y-73304406D01*
X98072063Y-73532777D01*
X98034500Y-73769941D01*
X95020500Y-73769941D01*
X95020500Y-65743750D01*
X95020726Y-65736263D01*
X95038271Y-65446205D01*
X95040076Y-65431340D01*
X95043611Y-65412053D01*
X95091780Y-65149197D01*
X95095364Y-65134663D01*
X95109973Y-65087781D01*
X95180696Y-64860822D01*
X95185998Y-64846841D01*
X95303731Y-64585249D01*
X95310676Y-64572016D01*
X95459080Y-64326526D01*
X95467567Y-64314230D01*
X95644480Y-64088417D01*
X95654395Y-64077226D01*
X95857226Y-63874395D01*
X95868417Y-63864480D01*
X96094230Y-63687567D01*
X96106526Y-63679080D01*
X96352016Y-63530676D01*
X96365249Y-63523731D01*
X96626841Y-63405998D01*
X96640822Y-63400696D01*
X96914668Y-63315362D01*
X96929197Y-63311780D01*
X97211344Y-63260075D01*
X97226201Y-63258271D01*
X97516264Y-63240726D01*
X97523751Y-63240500D01*
X97585892Y-63240500D01*
X118036163Y-63240500D01*
X118059204Y-63247265D01*
G37*
%TD.AperFunction*%
%TA.AperFunction,Conductor*%
G36*
X117640942Y-97559500D02*
G01*
X117675466Y-97561969D01*
X117675470Y-97561971D01*
X117675473Y-97561972D01*
X117675487Y-97561982D01*
X117719813Y-97590470D01*
X118749758Y-98620415D01*
X118783243Y-98681738D01*
X118778259Y-98751430D01*
X118754053Y-98791261D01*
X118668765Y-98885583D01*
X118606240Y-99015171D01*
X118606239Y-99015173D01*
X118585146Y-99081768D01*
X118585144Y-99081776D01*
X118585143Y-99081778D01*
X118561662Y-99223725D01*
X118561661Y-99223739D01*
X118530618Y-100692191D01*
X118530619Y-100692205D01*
X118530802Y-100694204D01*
X118530706Y-100694690D01*
X118530741Y-100695682D01*
X118530509Y-100695690D01*
X118517307Y-100762758D01*
X118468890Y-100813133D01*
X118407318Y-100829500D01*
X115283325Y-100829500D01*
X115216286Y-100809815D01*
X115170531Y-100757011D01*
X115159360Y-100702572D01*
X115203084Y-98851572D01*
X115224346Y-98785016D01*
X115278216Y-98740521D01*
X115327049Y-98730500D01*
X116088542Y-98730500D01*
X116154899Y-98717300D01*
X116185188Y-98711275D01*
X116281836Y-98692051D01*
X116374913Y-98653497D01*
X116463914Y-98616632D01*
X116627782Y-98507139D01*
X116767139Y-98367782D01*
X116767140Y-98367779D01*
X116774206Y-98360714D01*
X116774209Y-98360710D01*
X117527778Y-97607141D01*
X117527782Y-97607139D01*
X117544458Y-97590462D01*
X117580021Y-97571046D01*
X117605774Y-97556985D01*
X117605777Y-97556985D01*
X117605782Y-97556983D01*
X117640942Y-97559500D01*
G37*
%TD.AperFunction*%
%TA.AperFunction,Conductor*%
G36*
X144023736Y-63240726D02*
G01*
X144313796Y-63258271D01*
X144328657Y-63260075D01*
X144610798Y-63311780D01*
X144625335Y-63315363D01*
X144899172Y-63400695D01*
X144913163Y-63406000D01*
X145174743Y-63523727D01*
X145187989Y-63530680D01*
X145433465Y-63679075D01*
X145445776Y-63687573D01*
X145604869Y-63812214D01*
X145671573Y-63864473D01*
X145682781Y-63874403D01*
X145885596Y-64077218D01*
X145895526Y-64088426D01*
X146015481Y-64241538D01*
X146072422Y-64314217D01*
X146080928Y-64326540D01*
X146229316Y-64572004D01*
X146236275Y-64585263D01*
X146353997Y-64846831D01*
X146359306Y-64860832D01*
X146444635Y-65134663D01*
X146448219Y-65149201D01*
X146499923Y-65431340D01*
X146501728Y-65446205D01*
X146519274Y-65736263D01*
X146519500Y-65743750D01*
X146519500Y-84726492D01*
X146499815Y-84793531D01*
X146447011Y-84839286D01*
X146377853Y-84849230D01*
X146314297Y-84820205D01*
X146292398Y-84795383D01*
X146221789Y-84689711D01*
X146221786Y-84689707D01*
X146110292Y-84578213D01*
X146110288Y-84578210D01*
X145979185Y-84490609D01*
X145979172Y-84490602D01*
X145833501Y-84430264D01*
X145833489Y-84430261D01*
X145678845Y-84399500D01*
X145678842Y-84399500D01*
X145521158Y-84399500D01*
X145521155Y-84399500D01*
X145366510Y-84430261D01*
X145366498Y-84430264D01*
X145220827Y-84490602D01*
X145220814Y-84490609D01*
X145089711Y-84578210D01*
X145089707Y-84578213D01*
X144978213Y-84689707D01*
X144978210Y-84689711D01*
X144890609Y-84820814D01*
X144890602Y-84820827D01*
X144830264Y-84966498D01*
X144830261Y-84966510D01*
X144799500Y-85121153D01*
X144799500Y-85278846D01*
X144830261Y-85433489D01*
X144830264Y-85433501D01*
X144890602Y-85579172D01*
X144890609Y-85579185D01*
X144978210Y-85710288D01*
X144978213Y-85710292D01*
X145089707Y-85821786D01*
X145089711Y-85821789D01*
X145220814Y-85909390D01*
X145220827Y-85909397D01*
X145338877Y-85958294D01*
X145366503Y-85969737D01*
X145519967Y-86000263D01*
X145521153Y-86000499D01*
X145521156Y-86000500D01*
X145521158Y-86000500D01*
X145678844Y-86000500D01*
X145678845Y-86000499D01*
X145833497Y-85969737D01*
X145979179Y-85909394D01*
X146110289Y-85821789D01*
X146221789Y-85710289D01*
X146292398Y-85604616D01*
X146346010Y-85559811D01*
X146415335Y-85551104D01*
X146478363Y-85581258D01*
X146515082Y-85640702D01*
X146519500Y-85673507D01*
X146519500Y-98326249D01*
X146519274Y-98333736D01*
X146501728Y-98623794D01*
X146499923Y-98638659D01*
X146448219Y-98920798D01*
X146444635Y-98935336D01*
X146359306Y-99209167D01*
X146353997Y-99223168D01*
X146236275Y-99484736D01*
X146229316Y-99497995D01*
X146080928Y-99743459D01*
X146072422Y-99755782D01*
X145895526Y-99981573D01*
X145885596Y-99992781D01*
X145682781Y-100195596D01*
X145671573Y-100205526D01*
X145445782Y-100382422D01*
X145433459Y-100390928D01*
X145187995Y-100539316D01*
X145174736Y-100546275D01*
X144913168Y-100663997D01*
X144899167Y-100669306D01*
X144625336Y-100754635D01*
X144610798Y-100758219D01*
X144328659Y-100809923D01*
X144313794Y-100811728D01*
X144023736Y-100829274D01*
X144016249Y-100829500D01*
X142770519Y-100829500D01*
X142703480Y-100809815D01*
X142657725Y-100757011D01*
X142647781Y-100687853D01*
X142676806Y-100624297D01*
X142682838Y-100617819D01*
X144164112Y-99136545D01*
X144164114Y-99136543D01*
X144240775Y-99021811D01*
X144293580Y-98894329D01*
X144312506Y-98799179D01*
X144320500Y-98758993D01*
X144320500Y-92161007D01*
X144320500Y-92161004D01*
X144293581Y-92025676D01*
X144293580Y-92025674D01*
X144293580Y-92025672D01*
X144289974Y-92016968D01*
X144283208Y-92000631D01*
X144283196Y-92000604D01*
X144240778Y-91898196D01*
X144240777Y-91898195D01*
X144240775Y-91898189D01*
X144164114Y-91783457D01*
X144164112Y-91783454D01*
X142866545Y-90485887D01*
X142751807Y-90409222D01*
X142624332Y-90356421D01*
X142624322Y-90356418D01*
X142488996Y-90329500D01*
X142488994Y-90329500D01*
X142488993Y-90329500D01*
X140653845Y-90329500D01*
X140586806Y-90309815D01*
X140541051Y-90257011D01*
X140531107Y-90187853D01*
X140531315Y-90186463D01*
X140531933Y-90182487D01*
X140549597Y-88629500D01*
X140592916Y-84821153D01*
X142299500Y-84821153D01*
X142299500Y-84978846D01*
X142330261Y-85133489D01*
X142330264Y-85133501D01*
X142390602Y-85279172D01*
X142390609Y-85279185D01*
X142478210Y-85410288D01*
X142478213Y-85410292D01*
X142589707Y-85521786D01*
X142589711Y-85521789D01*
X142720814Y-85609390D01*
X142720827Y-85609397D01*
X142850359Y-85663050D01*
X142866503Y-85669737D01*
X142972328Y-85690787D01*
X143021153Y-85700499D01*
X143021156Y-85700500D01*
X143021158Y-85700500D01*
X143178844Y-85700500D01*
X143178845Y-85700499D01*
X143333497Y-85669737D01*
X143479179Y-85609394D01*
X143610289Y-85521789D01*
X143721789Y-85410289D01*
X143809394Y-85279179D01*
X143869737Y-85133497D01*
X143900500Y-84978842D01*
X143900500Y-84821158D01*
X143900500Y-84821155D01*
X143900499Y-84821153D01*
X143885108Y-84743780D01*
X143869737Y-84666503D01*
X143867347Y-84660732D01*
X143809397Y-84520827D01*
X143809390Y-84520814D01*
X143721789Y-84389711D01*
X143721786Y-84389707D01*
X143610292Y-84278213D01*
X143610288Y-84278210D01*
X143479185Y-84190609D01*
X143479172Y-84190602D01*
X143333501Y-84130264D01*
X143333489Y-84130261D01*
X143178845Y-84099500D01*
X143178842Y-84099500D01*
X143021158Y-84099500D01*
X143021155Y-84099500D01*
X142866510Y-84130261D01*
X142866498Y-84130264D01*
X142720827Y-84190602D01*
X142720814Y-84190609D01*
X142589711Y-84278210D01*
X142589707Y-84278213D01*
X142478213Y-84389707D01*
X142478210Y-84389711D01*
X142390609Y-84520814D01*
X142390602Y-84520827D01*
X142330264Y-84666498D01*
X142330261Y-84666510D01*
X142299500Y-84821153D01*
X140592916Y-84821153D01*
X140593001Y-84813656D01*
X140736608Y-72188159D01*
X140736608Y-72188156D01*
X140736607Y-72188155D01*
X140736608Y-72188150D01*
X140725241Y-72075653D01*
X140713600Y-72021771D01*
X140677511Y-71914611D01*
X140677509Y-71914608D01*
X140677509Y-71914607D01*
X140598694Y-71794242D01*
X140598693Y-71794240D01*
X140554871Y-71744531D01*
X140552950Y-71742220D01*
X140552488Y-71741826D01*
X140442950Y-71648536D01*
X140311566Y-71589885D01*
X140311561Y-71589883D01*
X140311554Y-71589881D01*
X140244365Y-71570774D01*
X140244360Y-71570773D01*
X140101774Y-71551513D01*
X127776658Y-71656714D01*
X127769860Y-71656818D01*
X127766603Y-71656889D01*
X127759646Y-71657091D01*
X127759639Y-71657091D01*
X127618060Y-71682638D01*
X127551763Y-71704705D01*
X127551755Y-71704708D01*
X127423108Y-71769105D01*
X127317804Y-71867147D01*
X127317801Y-71867150D01*
X127278132Y-71916375D01*
X127277021Y-71917612D01*
X127273959Y-71921554D01*
X127200547Y-72045285D01*
X127200546Y-72045287D01*
X127200544Y-72045291D01*
X127187969Y-72075650D01*
X127166096Y-72128455D01*
X127154637Y-72149892D01*
X127135922Y-72177901D01*
X127120501Y-72196691D01*
X127096693Y-72220499D01*
X127077903Y-72235920D01*
X127049885Y-72254641D01*
X127028446Y-72266100D01*
X126997328Y-72278989D01*
X126974071Y-72286045D01*
X126957340Y-72289373D01*
X126941031Y-72292617D01*
X126916841Y-72295000D01*
X126883159Y-72295000D01*
X126858970Y-72292617D01*
X126825924Y-72286044D01*
X126802667Y-72278988D01*
X126771547Y-72266098D01*
X126750107Y-72254638D01*
X126722099Y-72235923D01*
X126703310Y-72220503D01*
X126679495Y-72196688D01*
X126664077Y-72177902D01*
X126645359Y-72149891D01*
X126633900Y-72128454D01*
X126605671Y-72060301D01*
X126601300Y-72050067D01*
X126599090Y-72045047D01*
X126599077Y-72045018D01*
X126594451Y-72034817D01*
X126515632Y-71914445D01*
X126515629Y-71914441D01*
X126481397Y-71875609D01*
X126476439Y-71868003D01*
X126359892Y-71768742D01*
X126262328Y-71725189D01*
X126228507Y-71710091D01*
X126172231Y-71694087D01*
X126165729Y-71691576D01*
X126018714Y-71671718D01*
X119759079Y-71725147D01*
X119759080Y-71725148D01*
X119758974Y-71725149D01*
X119758883Y-71725150D01*
X119756340Y-71725179D01*
X119756224Y-71725180D01*
X119755726Y-71725186D01*
X119755727Y-71725187D01*
X119753414Y-71725223D01*
X119753410Y-71725223D01*
X119611401Y-71748241D01*
X119611385Y-71748245D01*
X119544738Y-71769117D01*
X119544720Y-71769123D01*
X119544706Y-71769128D01*
X119414934Y-71831223D01*
X119414927Y-71831228D01*
X119409477Y-71834870D01*
X119375353Y-71861381D01*
X119352517Y-71879123D01*
X119326273Y-71902700D01*
X119276208Y-71954590D01*
X119276206Y-71954593D01*
X119269185Y-71965958D01*
X119269184Y-71965957D01*
X119264731Y-71973164D01*
X119236992Y-72006799D01*
X119212135Y-72058313D01*
X119208754Y-72063788D01*
X119208747Y-72063802D01*
X119200595Y-72077000D01*
X119200165Y-72077989D01*
X119200162Y-72077997D01*
X119178298Y-72128226D01*
X119177333Y-72130443D01*
X119174468Y-72136383D01*
X119173713Y-72138765D01*
X119172703Y-72141087D01*
X119172701Y-72141092D01*
X119171595Y-72145126D01*
X119170231Y-72149742D01*
X119153358Y-72203028D01*
X119150835Y-72218284D01*
X119148080Y-72230850D01*
X119134655Y-72279795D01*
X119134654Y-72279798D01*
X119135037Y-72301295D01*
X119133396Y-72323729D01*
X119129888Y-72344942D01*
X119129887Y-72344954D01*
X119089606Y-74250297D01*
X119089653Y-74273706D01*
X119089939Y-74285107D01*
X119091067Y-74308463D01*
X119091068Y-74308465D01*
X119121642Y-74449056D01*
X119146052Y-74514516D01*
X119146055Y-74514521D01*
X119215001Y-74640805D01*
X119316733Y-74742550D01*
X119372664Y-74784425D01*
X119498940Y-74853387D01*
X119498945Y-74853388D01*
X119498948Y-74853389D01*
X119639520Y-74883979D01*
X119639521Y-74883979D01*
X119639530Y-74883981D01*
X119709221Y-74888970D01*
X119709222Y-74888970D01*
X119852737Y-74878714D01*
X119987549Y-74828442D01*
X120048874Y-74794961D01*
X120048974Y-74794906D01*
X120049172Y-74794757D01*
X120090114Y-74767875D01*
X120090547Y-74768522D01*
X120170623Y-74715014D01*
X120170945Y-74714804D01*
X120171406Y-74714663D01*
X120191537Y-74703903D01*
X120222677Y-74691004D01*
X120245915Y-74683955D01*
X120334271Y-74666381D01*
X120341036Y-74664973D01*
X120342964Y-74664572D01*
X120342988Y-74664566D01*
X120343035Y-74664557D01*
X120347359Y-74663617D01*
X120356225Y-74661606D01*
X120490115Y-74608927D01*
X120547939Y-74575999D01*
X120551844Y-74573868D01*
X120554835Y-74572305D01*
X120554985Y-74572275D01*
X120556312Y-74571612D01*
X120556493Y-74571975D01*
X120584320Y-74566452D01*
X120613224Y-74558208D01*
X120618233Y-74559721D01*
X120623368Y-74558702D01*
X120651338Y-74569720D01*
X120680109Y-74578410D01*
X120683505Y-74582391D01*
X120688376Y-74584310D01*
X120705949Y-74608701D01*
X120725455Y-74631567D01*
X120726159Y-74636752D01*
X120729219Y-74640999D01*
X120730815Y-74671014D01*
X120734863Y-74700800D01*
X120732683Y-74706137D01*
X120732930Y-74710770D01*
X120725394Y-74723990D01*
X120712845Y-74754727D01*
X120701394Y-74770607D01*
X120701384Y-74770623D01*
X120669003Y-74832527D01*
X120668997Y-74832540D01*
X120621136Y-74968203D01*
X120621136Y-74968206D01*
X120606044Y-75044071D01*
X120598988Y-75067329D01*
X120586098Y-75098449D01*
X120574639Y-75119888D01*
X120555920Y-75147903D01*
X120540499Y-75166693D01*
X120516693Y-75190499D01*
X120497903Y-75205920D01*
X120469885Y-75224641D01*
X120448445Y-75236101D01*
X120417332Y-75248988D01*
X120394072Y-75256043D01*
X120337679Y-75267260D01*
X120327846Y-75268809D01*
X120305970Y-75271358D01*
X120302864Y-75271721D01*
X120292713Y-75273505D01*
X120245121Y-75281872D01*
X120245112Y-75281875D01*
X120111238Y-75334549D01*
X120111231Y-75334553D01*
X120050515Y-75369128D01*
X120017872Y-75394486D01*
X119936891Y-75457394D01*
X119852744Y-75574088D01*
X119852736Y-75574101D01*
X119820355Y-75636005D01*
X119820349Y-75636018D01*
X119772488Y-75771682D01*
X119766046Y-75804069D01*
X119758991Y-75827325D01*
X119757775Y-75830263D01*
X119746100Y-75858449D01*
X119734640Y-75879890D01*
X119715926Y-75907897D01*
X119700508Y-75926683D01*
X119686254Y-75940938D01*
X119686245Y-75940947D01*
X119679188Y-75948002D01*
X119679148Y-75948045D01*
X119670269Y-75956924D01*
X119656226Y-75971538D01*
X119654628Y-75973271D01*
X119652351Y-75975755D01*
X119651165Y-75977058D01*
X119648901Y-75979559D01*
X119648895Y-75979568D01*
X119647532Y-75981607D01*
X119646880Y-75982151D01*
X119646109Y-75983140D01*
X119645895Y-75982973D01*
X119640755Y-75987266D01*
X119595402Y-76050438D01*
X119595400Y-76050441D01*
X119553100Y-76120790D01*
X119543559Y-76149841D01*
X119543560Y-76149842D01*
X119541063Y-76157447D01*
X119538735Y-76162314D01*
X119523777Y-76210083D01*
X119523498Y-76210935D01*
X119523490Y-76210961D01*
X119508212Y-76257490D01*
X119508211Y-76257494D01*
X119507134Y-76261786D01*
X119506998Y-76261752D01*
X119504890Y-76270406D01*
X119495751Y-76299594D01*
X119495751Y-76299595D01*
X119494834Y-76350941D01*
X119494834Y-76350942D01*
X119494244Y-76383930D01*
X119494202Y-76385632D01*
X119491530Y-76470123D01*
X119491530Y-76470128D01*
X119499247Y-76499857D01*
X119501221Y-76507461D01*
X119501890Y-76512785D01*
X119501891Y-76512790D01*
X119515103Y-76560951D01*
X119515326Y-76561808D01*
X119515336Y-76561844D01*
X119527675Y-76609383D01*
X119529091Y-76613580D01*
X119528958Y-76613624D01*
X119531868Y-76622058D01*
X119539957Y-76651541D01*
X119539958Y-76651543D01*
X119554449Y-76675000D01*
X119584269Y-76723273D01*
X119585156Y-76724731D01*
X119628612Y-76797291D01*
X119628616Y-76797296D01*
X119651068Y-76818028D01*
X119651067Y-76818028D01*
X119656954Y-76823464D01*
X119660370Y-76827551D01*
X119660374Y-76827555D01*
X119697565Y-76860962D01*
X119698203Y-76861551D01*
X119698205Y-76861553D01*
X119734323Y-76894904D01*
X119737786Y-76897672D01*
X119737697Y-76897782D01*
X119744671Y-76903276D01*
X119767412Y-76923703D01*
X119797903Y-76944077D01*
X119816691Y-76959496D01*
X119840499Y-76983304D01*
X119855920Y-77002094D01*
X119874639Y-77030109D01*
X119886098Y-77051548D01*
X119898989Y-77082670D01*
X119906045Y-77105927D01*
X119912617Y-77138961D01*
X119915000Y-77163156D01*
X119915000Y-77196839D01*
X119912616Y-77221035D01*
X119906043Y-77254073D01*
X119898988Y-77277329D01*
X119886098Y-77308449D01*
X119874639Y-77329888D01*
X119855920Y-77357903D01*
X119840499Y-77376693D01*
X119816693Y-77400499D01*
X119797903Y-77415920D01*
X119769885Y-77434641D01*
X119748446Y-77446100D01*
X119717328Y-77458989D01*
X119694071Y-77466045D01*
X119677340Y-77469373D01*
X119661031Y-77472617D01*
X119640903Y-77474599D01*
X119640905Y-77474636D01*
X119640910Y-77474679D01*
X119640907Y-77474679D01*
X119640916Y-77474840D01*
X119637763Y-77475000D01*
X119535543Y-77485444D01*
X119486446Y-77495581D01*
X119486416Y-77495589D01*
X119388422Y-77526488D01*
X119265766Y-77601700D01*
X119265764Y-77601702D01*
X119212017Y-77646321D01*
X119212006Y-77646332D01*
X119115515Y-77753043D01*
X119052992Y-77882626D01*
X119031889Y-77949249D01*
X119008410Y-78091186D01*
X119008409Y-78091202D01*
X118989440Y-78988573D01*
X118985806Y-79160469D01*
X118984528Y-79220941D01*
X118964877Y-80150469D01*
X118964803Y-80153952D01*
X118963599Y-80210940D01*
X118963599Y-80210941D01*
X118939260Y-81362191D01*
X118939261Y-81362205D01*
X118939444Y-81364204D01*
X118939348Y-81364690D01*
X118939383Y-81365682D01*
X118939151Y-81365690D01*
X118925949Y-81432758D01*
X118877532Y-81483133D01*
X118815960Y-81499500D01*
X118014500Y-81499500D01*
X117947461Y-81479815D01*
X117901706Y-81427011D01*
X117890500Y-81375500D01*
X117890500Y-66555782D01*
X117910185Y-66488743D01*
X117926819Y-66468101D01*
X119098101Y-65296819D01*
X119159424Y-65263334D01*
X119185782Y-65260500D01*
X130224531Y-65260500D01*
X130291570Y-65280185D01*
X130293422Y-65281398D01*
X130376079Y-65336628D01*
X130376085Y-65336631D01*
X130376086Y-65336632D01*
X130558165Y-65412052D01*
X130729863Y-65446205D01*
X130751455Y-65450500D01*
X130751458Y-65450501D01*
X130751460Y-65450501D01*
X130954655Y-65450501D01*
X130954675Y-65450500D01*
X137468543Y-65450500D01*
X137598582Y-65424632D01*
X137661835Y-65412051D01*
X137843914Y-65336632D01*
X138007782Y-65227139D01*
X138147139Y-65087782D01*
X138256632Y-64923914D01*
X138332051Y-64741835D01*
X138344632Y-64678582D01*
X138370500Y-64548543D01*
X138370500Y-64351456D01*
X138332052Y-64158170D01*
X138332051Y-64158169D01*
X138332051Y-64158165D01*
X138332049Y-64158160D01*
X138256635Y-63976092D01*
X138256628Y-63976079D01*
X138147139Y-63812218D01*
X138147136Y-63812214D01*
X138007785Y-63672863D01*
X138007781Y-63672860D01*
X137843920Y-63563371D01*
X137843907Y-63563364D01*
X137661839Y-63487950D01*
X137661829Y-63487947D01*
X137652627Y-63486117D01*
X137590716Y-63453732D01*
X137556142Y-63393016D01*
X137559883Y-63323246D01*
X137600749Y-63266575D01*
X137665768Y-63240993D01*
X137676819Y-63240500D01*
X143954108Y-63240500D01*
X144016249Y-63240500D01*
X144023736Y-63240726D01*
G37*
%TD.AperFunction*%
%TA.AperFunction,Conductor*%
G36*
X142145520Y-91750185D02*
G01*
X142166162Y-91766819D01*
X142883181Y-92483838D01*
X142916666Y-92545161D01*
X142919500Y-92571519D01*
X142919500Y-98348481D01*
X142899815Y-98415520D01*
X142883181Y-98436162D01*
X141506162Y-99813181D01*
X141444839Y-99846666D01*
X141418481Y-99849500D01*
X140547396Y-99849500D01*
X140480357Y-99829815D01*
X140434602Y-99777011D01*
X140423404Y-99724090D01*
X140458518Y-96636919D01*
X140512398Y-91899919D01*
X140510307Y-91861182D01*
X140526350Y-91793181D01*
X140576611Y-91744646D01*
X140634127Y-91730500D01*
X142078481Y-91730500D01*
X142145520Y-91750185D01*
G37*
%TD.AperFunction*%
%TA.AperFunction,Conductor*%
G36*
X118683716Y-90650185D02*
G01*
X118729471Y-90702989D01*
X118740649Y-90757121D01*
X118691998Y-93058441D01*
X118679905Y-93630470D01*
X118678627Y-93690940D01*
X118678627Y-93690941D01*
X118667183Y-94232196D01*
X118667183Y-94232200D01*
X118674464Y-94311761D01*
X118677517Y-94345117D01*
X118677518Y-94345120D01*
X118688693Y-94399240D01*
X118723929Y-94507002D01*
X118723931Y-94507006D01*
X118801713Y-94628037D01*
X118801722Y-94628048D01*
X118847466Y-94680840D01*
X118847469Y-94680843D01*
X118847473Y-94680847D01*
X118956207Y-94775067D01*
X118956210Y-94775068D01*
X118956211Y-94775069D01*
X119018044Y-94803308D01*
X119087084Y-94834838D01*
X119154123Y-94854523D01*
X119154127Y-94854524D01*
X119296543Y-94875000D01*
X119306842Y-94875000D01*
X119331027Y-94877381D01*
X119364079Y-94883956D01*
X119387325Y-94891006D01*
X119418458Y-94903902D01*
X119439890Y-94915359D01*
X119467898Y-94934074D01*
X119486685Y-94949492D01*
X119510502Y-94973308D01*
X119525925Y-94992100D01*
X119544638Y-95020106D01*
X119556098Y-95041546D01*
X119568989Y-95072669D01*
X119576041Y-95095914D01*
X119577039Y-95100928D01*
X119577042Y-95100941D01*
X119579471Y-95113154D01*
X119582617Y-95128966D01*
X119585000Y-95153159D01*
X119585000Y-95186839D01*
X119582616Y-95211035D01*
X119576043Y-95244073D01*
X119568988Y-95267329D01*
X119556098Y-95298449D01*
X119544639Y-95319888D01*
X119525920Y-95347903D01*
X119510499Y-95366693D01*
X119486693Y-95390499D01*
X119467903Y-95405920D01*
X119439885Y-95424641D01*
X119418446Y-95436100D01*
X119387328Y-95448989D01*
X119364071Y-95456045D01*
X119347340Y-95459373D01*
X119331031Y-95462617D01*
X119306841Y-95465000D01*
X119257449Y-95465000D01*
X119155229Y-95475444D01*
X119106132Y-95485581D01*
X119106102Y-95485589D01*
X119008113Y-95516487D01*
X119008104Y-95516491D01*
X119000850Y-95520940D01*
X119000849Y-95520941D01*
X118885450Y-95591702D01*
X118885447Y-95591705D01*
X118831703Y-95636321D01*
X118831692Y-95636331D01*
X118735200Y-95743044D01*
X118672673Y-95872638D01*
X118651580Y-95939230D01*
X118651578Y-95939240D01*
X118651575Y-95939256D01*
X118628096Y-96081186D01*
X118628095Y-96081204D01*
X118625206Y-96217835D01*
X118604109Y-96284444D01*
X118550349Y-96329072D01*
X118480996Y-96337551D01*
X118418068Y-96307189D01*
X118413553Y-96302895D01*
X118396545Y-96285887D01*
X118281807Y-96209222D01*
X118154332Y-96156421D01*
X118154322Y-96156418D01*
X118018996Y-96129500D01*
X118018994Y-96129500D01*
X118018993Y-96129500D01*
X118014500Y-96129500D01*
X117947461Y-96109815D01*
X117901706Y-96057011D01*
X117890500Y-96005500D01*
X117890500Y-90754500D01*
X117910185Y-90687461D01*
X117962989Y-90641706D01*
X118014500Y-90630500D01*
X118616677Y-90630500D01*
X118683716Y-90650185D01*
G37*
%TD.AperFunction*%
%TA.AperFunction,Conductor*%
G36*
X125111027Y-94837381D02*
G01*
X125144079Y-94843956D01*
X125167325Y-94851006D01*
X125198458Y-94863902D01*
X125219889Y-94875358D01*
X125224538Y-94878464D01*
X125247898Y-94894074D01*
X125266685Y-94909492D01*
X125290501Y-94933307D01*
X125305924Y-94952099D01*
X125318512Y-94970938D01*
X125324637Y-94980104D01*
X125336099Y-95001547D01*
X125348991Y-95032672D01*
X125356045Y-95055926D01*
X125356046Y-95055929D01*
X125362037Y-95086048D01*
X125362617Y-95088960D01*
X125365000Y-95113154D01*
X125365000Y-95146839D01*
X125362616Y-95171035D01*
X125356043Y-95204073D01*
X125348988Y-95227329D01*
X125336098Y-95258449D01*
X125324639Y-95279888D01*
X125305920Y-95307903D01*
X125290502Y-95326689D01*
X125290499Y-95326693D01*
X125266693Y-95350499D01*
X125247903Y-95365920D01*
X125219885Y-95384641D01*
X125198446Y-95396100D01*
X125167328Y-95408989D01*
X125144071Y-95416045D01*
X125127340Y-95419373D01*
X125111031Y-95422617D01*
X125086841Y-95425000D01*
X125053159Y-95425000D01*
X125028970Y-95422617D01*
X124995924Y-95416044D01*
X124972667Y-95408988D01*
X124941547Y-95396098D01*
X124920107Y-95384638D01*
X124892099Y-95365923D01*
X124873312Y-95350505D01*
X124849495Y-95326689D01*
X124834074Y-95307899D01*
X124815357Y-95279888D01*
X124803901Y-95258455D01*
X124794568Y-95235923D01*
X124791007Y-95227326D01*
X124783954Y-95204073D01*
X124777381Y-95171031D01*
X124775000Y-95146844D01*
X124775000Y-95113153D01*
X124777382Y-95088964D01*
X124777383Y-95088960D01*
X124783956Y-95055914D01*
X124791007Y-95032672D01*
X124803902Y-95001539D01*
X124815351Y-94980119D01*
X124834079Y-94952090D01*
X124849488Y-94933316D01*
X124873314Y-94909489D01*
X124892098Y-94894074D01*
X124920111Y-94875356D01*
X124941545Y-94863900D01*
X124972668Y-94851008D01*
X124995918Y-94843955D01*
X125028970Y-94837381D01*
X125053154Y-94835000D01*
X125086842Y-94835000D01*
X125111027Y-94837381D01*
G37*
%TD.AperFunction*%
%TA.AperFunction,Conductor*%
G36*
X127996028Y-94707381D02*
G01*
X128029080Y-94713956D01*
X128052326Y-94721006D01*
X128083459Y-94733902D01*
X128104891Y-94745359D01*
X128132899Y-94764074D01*
X128151686Y-94779492D01*
X128175503Y-94803308D01*
X128190926Y-94822100D01*
X128209639Y-94850106D01*
X128221099Y-94871546D01*
X128233991Y-94902671D01*
X128241046Y-94925927D01*
X128247618Y-94958961D01*
X128250001Y-94983156D01*
X128250001Y-95016839D01*
X128247617Y-95041035D01*
X128241044Y-95074073D01*
X128233989Y-95097331D01*
X128221098Y-95128452D01*
X128209640Y-95149887D01*
X128190923Y-95177900D01*
X128175501Y-95196692D01*
X128151694Y-95220499D01*
X128132904Y-95235920D01*
X128104886Y-95254641D01*
X128083447Y-95266100D01*
X128052329Y-95278989D01*
X128029072Y-95286045D01*
X128012341Y-95289373D01*
X127996032Y-95292617D01*
X127971842Y-95295000D01*
X127938160Y-95295000D01*
X127913971Y-95292617D01*
X127880925Y-95286044D01*
X127857668Y-95278988D01*
X127826548Y-95266098D01*
X127805108Y-95254638D01*
X127777100Y-95235923D01*
X127758313Y-95220505D01*
X127734496Y-95196689D01*
X127719075Y-95177899D01*
X127700359Y-95149890D01*
X127688902Y-95128455D01*
X127682564Y-95113154D01*
X127676008Y-95097326D01*
X127668955Y-95074073D01*
X127662382Y-95041031D01*
X127660001Y-95016844D01*
X127660001Y-94983153D01*
X127662383Y-94958964D01*
X127662384Y-94958961D01*
X127668957Y-94925914D01*
X127676007Y-94902674D01*
X127688903Y-94871539D01*
X127700352Y-94850119D01*
X127719080Y-94822090D01*
X127734489Y-94803316D01*
X127758315Y-94779489D01*
X127777099Y-94764074D01*
X127805112Y-94745356D01*
X127826546Y-94733900D01*
X127857669Y-94721008D01*
X127880919Y-94713955D01*
X127913971Y-94707381D01*
X127938155Y-94705000D01*
X127971843Y-94705000D01*
X127996028Y-94707381D01*
G37*
%TD.AperFunction*%
%TA.AperFunction,Conductor*%
G36*
X134791027Y-92794881D02*
G01*
X134824079Y-92801456D01*
X134847325Y-92808506D01*
X134878458Y-92821402D01*
X134899890Y-92832859D01*
X134927898Y-92851574D01*
X134946685Y-92866992D01*
X134970502Y-92890808D01*
X134985925Y-92909600D01*
X135004638Y-92937606D01*
X135016098Y-92959046D01*
X135028990Y-92990171D01*
X135036045Y-93013426D01*
X135036045Y-93013427D01*
X135042617Y-93046461D01*
X135045000Y-93070656D01*
X135045000Y-93104339D01*
X135042617Y-93128532D01*
X135039154Y-93145940D01*
X135039153Y-93145946D01*
X135036043Y-93161576D01*
X135028988Y-93184829D01*
X135016098Y-93215949D01*
X135004639Y-93237388D01*
X134985920Y-93265403D01*
X134970502Y-93284189D01*
X134970499Y-93284193D01*
X134946691Y-93308001D01*
X134927901Y-93323422D01*
X134899895Y-93342135D01*
X134878457Y-93353594D01*
X134847326Y-93366489D01*
X134824068Y-93373545D01*
X134807419Y-93376857D01*
X134791030Y-93380117D01*
X134766839Y-93382500D01*
X134733159Y-93382500D01*
X134708970Y-93380117D01*
X134675924Y-93373544D01*
X134652667Y-93366488D01*
X134621547Y-93353598D01*
X134600107Y-93342138D01*
X134572099Y-93323423D01*
X134553312Y-93308005D01*
X134529495Y-93284189D01*
X134514074Y-93265399D01*
X134495357Y-93237388D01*
X134483901Y-93215955D01*
X134480780Y-93208421D01*
X134471007Y-93184826D01*
X134463954Y-93161575D01*
X134457381Y-93128531D01*
X134455000Y-93104344D01*
X134455000Y-93070653D01*
X134457382Y-93046464D01*
X134457383Y-93046461D01*
X134463956Y-93013414D01*
X134471006Y-92990174D01*
X134483902Y-92959039D01*
X134495351Y-92937619D01*
X134514079Y-92909590D01*
X134529488Y-92890816D01*
X134553314Y-92866989D01*
X134572098Y-92851574D01*
X134600111Y-92832856D01*
X134621545Y-92821400D01*
X134652668Y-92808508D01*
X134675918Y-92801455D01*
X134708970Y-92794881D01*
X134733154Y-92792500D01*
X134766842Y-92792500D01*
X134791027Y-92794881D01*
G37*
%TD.AperFunction*%
%TA.AperFunction,Conductor*%
G36*
X120823975Y-91140340D02*
G01*
X120877984Y-91184665D01*
X120899456Y-91251154D01*
X120899500Y-91254472D01*
X120899500Y-91368846D01*
X120928690Y-91515594D01*
X120922463Y-91585185D01*
X120886592Y-91634931D01*
X120855367Y-91661027D01*
X120759224Y-91768062D01*
X120725923Y-91817900D01*
X120710503Y-91836689D01*
X120686693Y-91860499D01*
X120667903Y-91875920D01*
X120639885Y-91894641D01*
X120618446Y-91906100D01*
X120587328Y-91918989D01*
X120564071Y-91926045D01*
X120547340Y-91929373D01*
X120531031Y-91932617D01*
X120506841Y-91935000D01*
X120473159Y-91935000D01*
X120448970Y-91932617D01*
X120415924Y-91926044D01*
X120392667Y-91918988D01*
X120361547Y-91906098D01*
X120340107Y-91894638D01*
X120312099Y-91875923D01*
X120293312Y-91860505D01*
X120269495Y-91836689D01*
X120254074Y-91817899D01*
X120235358Y-91789890D01*
X120223901Y-91768455D01*
X120214039Y-91744646D01*
X120211007Y-91737326D01*
X120203954Y-91714075D01*
X120197381Y-91681031D01*
X120195000Y-91656844D01*
X120195000Y-91623153D01*
X120197382Y-91598964D01*
X120203956Y-91565914D01*
X120211006Y-91542674D01*
X120223902Y-91511539D01*
X120235351Y-91490119D01*
X120254079Y-91462090D01*
X120269488Y-91443316D01*
X120293314Y-91419489D01*
X120312092Y-91404078D01*
X120340113Y-91385354D01*
X120361539Y-91373902D01*
X120452846Y-91336084D01*
X120524656Y-91296037D01*
X120555052Y-91279087D01*
X120555052Y-91279086D01*
X120555062Y-91279081D01*
X120601323Y-91245723D01*
X120687697Y-91166735D01*
X120687697Y-91166733D01*
X120691819Y-91162965D01*
X120754575Y-91132250D01*
X120823975Y-91140340D01*
G37*
%TD.AperFunction*%
%TA.AperFunction,Conductor*%
G36*
X130921024Y-90507381D02*
G01*
X130954084Y-90513957D01*
X130977334Y-90521010D01*
X131008450Y-90533899D01*
X131019269Y-90538380D01*
X131019272Y-90538382D01*
X131061157Y-90555731D01*
X131066705Y-90558028D01*
X131066705Y-90558029D01*
X131071367Y-90559960D01*
X131071372Y-90559961D01*
X131086150Y-90566082D01*
X131086167Y-90566089D01*
X131095603Y-90569997D01*
X131108179Y-90573234D01*
X131137053Y-90582988D01*
X131137934Y-90583146D01*
X131163479Y-90589484D01*
X131169333Y-90590937D01*
X131229658Y-90626188D01*
X131261086Y-90687094D01*
X131280261Y-90783492D01*
X131280262Y-90783493D01*
X131280263Y-90783497D01*
X131283675Y-90791734D01*
X131291142Y-90861202D01*
X131259867Y-90923681D01*
X131222630Y-90951041D01*
X131219675Y-90952454D01*
X131219674Y-90952455D01*
X131171254Y-90975620D01*
X131089881Y-91014553D01*
X131029887Y-91054640D01*
X131008450Y-91066098D01*
X130977326Y-91078990D01*
X130954066Y-91086046D01*
X130937550Y-91089331D01*
X130921031Y-91092617D01*
X130896841Y-91095000D01*
X130863159Y-91095000D01*
X130838970Y-91092617D01*
X130805924Y-91086044D01*
X130782667Y-91078988D01*
X130751547Y-91066098D01*
X130730107Y-91054638D01*
X130702099Y-91035923D01*
X130683312Y-91020505D01*
X130659495Y-90996689D01*
X130644074Y-90977899D01*
X130625358Y-90949890D01*
X130613901Y-90928455D01*
X130606597Y-90910821D01*
X130601007Y-90897326D01*
X130593954Y-90874075D01*
X130587381Y-90841031D01*
X130585000Y-90816844D01*
X130585000Y-90783153D01*
X130587382Y-90758964D01*
X130588270Y-90754500D01*
X130593956Y-90725914D01*
X130601006Y-90702674D01*
X130613902Y-90671539D01*
X130625351Y-90650119D01*
X130644079Y-90622090D01*
X130659488Y-90603316D01*
X130683314Y-90579489D01*
X130702093Y-90564076D01*
X130730111Y-90545356D01*
X130751545Y-90533900D01*
X130782668Y-90521008D01*
X130805918Y-90513955D01*
X130838970Y-90507381D01*
X130863154Y-90505000D01*
X130896842Y-90505000D01*
X130921024Y-90507381D01*
G37*
%TD.AperFunction*%
%TA.AperFunction,Conductor*%
G36*
X125347277Y-80557381D02*
G01*
X125380329Y-80563956D01*
X125403575Y-80571006D01*
X125434708Y-80583902D01*
X125456140Y-80595359D01*
X125484148Y-80614074D01*
X125502935Y-80629492D01*
X125526752Y-80653308D01*
X125542175Y-80672100D01*
X125560888Y-80700106D01*
X125572348Y-80721546D01*
X125585240Y-80752671D01*
X125592295Y-80775926D01*
X125592295Y-80775927D01*
X125598867Y-80808961D01*
X125601250Y-80833156D01*
X125601250Y-80866839D01*
X125598867Y-80891034D01*
X125592294Y-80924074D01*
X125585238Y-80947332D01*
X125572348Y-80978451D01*
X125560894Y-80999882D01*
X125552122Y-81013012D01*
X125552120Y-81013014D01*
X125543592Y-81025777D01*
X125543580Y-81025797D01*
X125491874Y-81125733D01*
X125472240Y-81176971D01*
X125472236Y-81176984D01*
X125443916Y-81285915D01*
X125443917Y-81375499D01*
X125441366Y-81384185D01*
X125442655Y-81393147D01*
X125431677Y-81417185D01*
X125424233Y-81442538D01*
X125417391Y-81448466D01*
X125413630Y-81456703D01*
X125391399Y-81470989D01*
X125371430Y-81488294D01*
X125360913Y-81490581D01*
X125354852Y-81494477D01*
X125319917Y-81499500D01*
X125298453Y-81499500D01*
X125231414Y-81479815D01*
X125185659Y-81427011D01*
X125177414Y-81373088D01*
X125175049Y-81373131D01*
X125174890Y-81364262D01*
X125151875Y-81222235D01*
X125130997Y-81155558D01*
X125068914Y-81025797D01*
X125068902Y-81025771D01*
X125068901Y-81025770D01*
X125068900Y-81025767D01*
X125051604Y-80999882D01*
X125040149Y-80978451D01*
X125027257Y-80947326D01*
X125020205Y-80924080D01*
X125013631Y-80891030D01*
X125011250Y-80866844D01*
X125011250Y-80833153D01*
X125013632Y-80808964D01*
X125013633Y-80808961D01*
X125020206Y-80775914D01*
X125027256Y-80752674D01*
X125040152Y-80721539D01*
X125051601Y-80700119D01*
X125070329Y-80672090D01*
X125085738Y-80653316D01*
X125109564Y-80629489D01*
X125128348Y-80614074D01*
X125156361Y-80595356D01*
X125177795Y-80583900D01*
X125208918Y-80571008D01*
X125232168Y-80563955D01*
X125265220Y-80557381D01*
X125289404Y-80555000D01*
X125323092Y-80555000D01*
X125347277Y-80557381D01*
G37*
%TD.AperFunction*%
%TA.AperFunction,Conductor*%
G36*
X120821027Y-79947381D02*
G01*
X120854079Y-79953956D01*
X120877325Y-79961006D01*
X120908458Y-79973902D01*
X120929890Y-79985359D01*
X120957898Y-80004074D01*
X120976685Y-80019492D01*
X121000502Y-80043308D01*
X121015925Y-80062100D01*
X121034638Y-80090106D01*
X121046098Y-80111546D01*
X121058990Y-80142671D01*
X121066045Y-80165927D01*
X121072617Y-80198961D01*
X121075000Y-80223156D01*
X121075000Y-80256839D01*
X121072616Y-80281035D01*
X121066043Y-80314073D01*
X121058988Y-80337329D01*
X121046098Y-80368449D01*
X121034639Y-80389888D01*
X121015920Y-80417903D01*
X121000499Y-80436693D01*
X120976693Y-80460499D01*
X120957903Y-80475920D01*
X120929885Y-80494641D01*
X120908446Y-80506100D01*
X120877328Y-80518989D01*
X120854071Y-80526045D01*
X120837340Y-80529373D01*
X120821031Y-80532617D01*
X120796841Y-80535000D01*
X120763159Y-80535000D01*
X120738970Y-80532617D01*
X120705924Y-80526044D01*
X120682667Y-80518988D01*
X120651547Y-80506098D01*
X120630107Y-80494638D01*
X120602099Y-80475923D01*
X120583312Y-80460505D01*
X120559495Y-80436689D01*
X120544074Y-80417899D01*
X120525357Y-80389888D01*
X120513901Y-80368455D01*
X120510780Y-80360921D01*
X120501007Y-80337326D01*
X120493954Y-80314073D01*
X120487381Y-80281031D01*
X120485000Y-80256844D01*
X120485000Y-80223153D01*
X120487382Y-80198964D01*
X120487383Y-80198961D01*
X120493956Y-80165914D01*
X120501006Y-80142674D01*
X120513902Y-80111539D01*
X120525351Y-80090119D01*
X120544079Y-80062090D01*
X120559488Y-80043316D01*
X120583314Y-80019489D01*
X120602098Y-80004074D01*
X120630111Y-79985356D01*
X120651545Y-79973900D01*
X120682668Y-79961008D01*
X120705918Y-79953955D01*
X120738970Y-79947381D01*
X120763154Y-79945000D01*
X120796842Y-79945000D01*
X120821027Y-79947381D01*
G37*
%TD.AperFunction*%
%TA.AperFunction,Conductor*%
G36*
X128231027Y-78957381D02*
G01*
X128264079Y-78963956D01*
X128287325Y-78971006D01*
X128318458Y-78983902D01*
X128339890Y-78995359D01*
X128367898Y-79014074D01*
X128386685Y-79029492D01*
X128410502Y-79053308D01*
X128425925Y-79072100D01*
X128444638Y-79100106D01*
X128456098Y-79121546D01*
X128468990Y-79152671D01*
X128476045Y-79175926D01*
X128476045Y-79175927D01*
X128482617Y-79208961D01*
X128485000Y-79233156D01*
X128485000Y-79266839D01*
X128482616Y-79291035D01*
X128476043Y-79324073D01*
X128468988Y-79347329D01*
X128456098Y-79378449D01*
X128444639Y-79399888D01*
X128425920Y-79427903D01*
X128410502Y-79446689D01*
X128410499Y-79446693D01*
X128386693Y-79470499D01*
X128367903Y-79485920D01*
X128339885Y-79504641D01*
X128318446Y-79516100D01*
X128287328Y-79528989D01*
X128264071Y-79536045D01*
X128247340Y-79539373D01*
X128231031Y-79542617D01*
X128206841Y-79545000D01*
X128173159Y-79545000D01*
X128148970Y-79542617D01*
X128115924Y-79536044D01*
X128092667Y-79528988D01*
X128061547Y-79516098D01*
X128040107Y-79504638D01*
X128012099Y-79485923D01*
X127993312Y-79470505D01*
X127969495Y-79446689D01*
X127954074Y-79427899D01*
X127935357Y-79399888D01*
X127923901Y-79378455D01*
X127920780Y-79370921D01*
X127911007Y-79347326D01*
X127903954Y-79324073D01*
X127897381Y-79291031D01*
X127895000Y-79266844D01*
X127895000Y-79233153D01*
X127897382Y-79208964D01*
X127897383Y-79208961D01*
X127903956Y-79175914D01*
X127911006Y-79152674D01*
X127923902Y-79121539D01*
X127935351Y-79100119D01*
X127954079Y-79072090D01*
X127969488Y-79053316D01*
X127993314Y-79029489D01*
X128012098Y-79014074D01*
X128040111Y-78995356D01*
X128061545Y-78983900D01*
X128092668Y-78971008D01*
X128115918Y-78963955D01*
X128148970Y-78957381D01*
X128173154Y-78955000D01*
X128206842Y-78955000D01*
X128231027Y-78957381D01*
G37*
%TD.AperFunction*%
%TA.AperFunction,Conductor*%
G36*
X125551027Y-76087381D02*
G01*
X125584079Y-76093956D01*
X125607325Y-76101006D01*
X125638458Y-76113902D01*
X125659890Y-76125359D01*
X125687898Y-76144074D01*
X125706685Y-76159492D01*
X125730502Y-76183308D01*
X125745925Y-76202100D01*
X125764638Y-76230106D01*
X125776098Y-76251546D01*
X125788990Y-76282671D01*
X125796045Y-76305927D01*
X125802617Y-76338961D01*
X125805000Y-76363156D01*
X125805000Y-76396839D01*
X125802616Y-76421035D01*
X125796043Y-76454073D01*
X125788988Y-76477329D01*
X125776098Y-76508449D01*
X125764639Y-76529888D01*
X125745920Y-76557903D01*
X125730499Y-76576693D01*
X125706693Y-76600499D01*
X125687903Y-76615920D01*
X125659885Y-76634641D01*
X125638446Y-76646100D01*
X125607328Y-76658989D01*
X125584071Y-76666045D01*
X125567340Y-76669373D01*
X125551031Y-76672617D01*
X125526841Y-76675000D01*
X125493159Y-76675000D01*
X125468970Y-76672617D01*
X125435924Y-76666044D01*
X125412667Y-76658988D01*
X125381547Y-76646098D01*
X125360107Y-76634638D01*
X125332099Y-76615923D01*
X125313312Y-76600505D01*
X125289495Y-76576689D01*
X125274074Y-76557899D01*
X125255357Y-76529888D01*
X125243901Y-76508455D01*
X125240780Y-76500921D01*
X125231007Y-76477326D01*
X125223954Y-76454073D01*
X125217381Y-76421031D01*
X125215000Y-76396844D01*
X125215000Y-76363155D01*
X125217381Y-76338971D01*
X125218765Y-76332011D01*
X125237283Y-76287303D01*
X125249394Y-76269179D01*
X125272318Y-76213832D01*
X125276950Y-76206901D01*
X125278047Y-76201859D01*
X125299195Y-76173608D01*
X125313315Y-76159488D01*
X125332098Y-76144074D01*
X125360111Y-76125356D01*
X125381545Y-76113900D01*
X125412668Y-76101008D01*
X125435918Y-76093955D01*
X125468970Y-76087381D01*
X125493154Y-76085000D01*
X125526842Y-76085000D01*
X125551027Y-76087381D01*
G37*
%TD.AperFunction*%
%TA.AperFunction,Conductor*%
G36*
X129531027Y-75677381D02*
G01*
X129564079Y-75683956D01*
X129587325Y-75691006D01*
X129618458Y-75703902D01*
X129639890Y-75715359D01*
X129667898Y-75734074D01*
X129686685Y-75749492D01*
X129710502Y-75773308D01*
X129725925Y-75792100D01*
X129744638Y-75820106D01*
X129756098Y-75841546D01*
X129768990Y-75872671D01*
X129776045Y-75895926D01*
X129776045Y-75895927D01*
X129782617Y-75928961D01*
X129785000Y-75953156D01*
X129785000Y-75986839D01*
X129782616Y-76011035D01*
X129776043Y-76044073D01*
X129768988Y-76067329D01*
X129756098Y-76098449D01*
X129744639Y-76119888D01*
X129725920Y-76147903D01*
X129710502Y-76166689D01*
X129710499Y-76166693D01*
X129686693Y-76190499D01*
X129667903Y-76205920D01*
X129639885Y-76224641D01*
X129618446Y-76236100D01*
X129587328Y-76248989D01*
X129564071Y-76256045D01*
X129547340Y-76259373D01*
X129531031Y-76262617D01*
X129506841Y-76265000D01*
X129473159Y-76265000D01*
X129448970Y-76262617D01*
X129415924Y-76256044D01*
X129392667Y-76248988D01*
X129361547Y-76236098D01*
X129340107Y-76224638D01*
X129312099Y-76205923D01*
X129293312Y-76190505D01*
X129269495Y-76166689D01*
X129254074Y-76147899D01*
X129235357Y-76119888D01*
X129223901Y-76098455D01*
X129218328Y-76085000D01*
X129211007Y-76067326D01*
X129203954Y-76044073D01*
X129197381Y-76011031D01*
X129195000Y-75986844D01*
X129195000Y-75953153D01*
X129197382Y-75928964D01*
X129199553Y-75918050D01*
X129203956Y-75895914D01*
X129211006Y-75872674D01*
X129223902Y-75841539D01*
X129235351Y-75820119D01*
X129254079Y-75792090D01*
X129269488Y-75773316D01*
X129293314Y-75749489D01*
X129312098Y-75734074D01*
X129340111Y-75715356D01*
X129361545Y-75703900D01*
X129392668Y-75691008D01*
X129415918Y-75683955D01*
X129448970Y-75677381D01*
X129473154Y-75675000D01*
X129506842Y-75675000D01*
X129531027Y-75677381D01*
G37*
%TD.AperFunction*%
%TA.AperFunction,Conductor*%
G36*
X121397850Y-73790016D02*
G01*
X121406609Y-73788355D01*
X121431237Y-73798299D01*
X121457014Y-73804694D01*
X121463131Y-73811176D01*
X121471397Y-73814514D01*
X121486737Y-73836192D01*
X121504967Y-73855510D01*
X121506608Y-73864273D01*
X121511757Y-73871548D01*
X121512942Y-73898076D01*
X121517834Y-73924184D01*
X121514677Y-73936906D01*
X121514876Y-73941348D01*
X121511503Y-73949701D01*
X121509335Y-73958440D01*
X121506045Y-73966535D01*
X121487584Y-73998293D01*
X121465081Y-74054023D01*
X121467401Y-74054960D01*
X121449557Y-74105539D01*
X121449548Y-74105564D01*
X121435902Y-74144249D01*
X121416046Y-74244068D01*
X121408990Y-74267328D01*
X121396100Y-74298447D01*
X121384641Y-74319885D01*
X121365920Y-74347903D01*
X121350499Y-74366693D01*
X121326693Y-74390499D01*
X121307902Y-74405921D01*
X121279888Y-74424639D01*
X121258452Y-74436097D01*
X121227331Y-74448988D01*
X121204069Y-74456044D01*
X121156007Y-74465604D01*
X121156008Y-74465605D01*
X121115726Y-74473618D01*
X121106828Y-74475471D01*
X121102628Y-74476385D01*
X121093771Y-74478394D01*
X120959876Y-74531076D01*
X120898920Y-74565787D01*
X120830923Y-74581854D01*
X120765034Y-74558608D01*
X120722171Y-74503431D01*
X120715945Y-74433839D01*
X120736984Y-74385507D01*
X120748612Y-74369382D01*
X120780997Y-74307471D01*
X120828864Y-74171789D01*
X120843954Y-74095921D01*
X120851009Y-74072666D01*
X120863900Y-74041543D01*
X120875358Y-74020109D01*
X120894076Y-73992096D01*
X120909488Y-73973316D01*
X120933314Y-73949489D01*
X120952093Y-73934076D01*
X120980111Y-73915356D01*
X121001545Y-73903900D01*
X121032668Y-73891008D01*
X121055919Y-73883955D01*
X121125722Y-73870070D01*
X121136978Y-73868492D01*
X121136972Y-73868443D01*
X121139495Y-73868127D01*
X121139528Y-73868125D01*
X121179737Y-73861425D01*
X121260570Y-73840985D01*
X121337964Y-73801375D01*
X121364058Y-73796425D01*
X121389200Y-73787870D01*
X121397850Y-73790016D01*
G37*
%TD.AperFunction*%
%TA.AperFunction,Conductor*%
G36*
X122021027Y-73047381D02*
G01*
X122054079Y-73053956D01*
X122077325Y-73061006D01*
X122108458Y-73073902D01*
X122129890Y-73085359D01*
X122157898Y-73104074D01*
X122176685Y-73119492D01*
X122200502Y-73143308D01*
X122215925Y-73162100D01*
X122234638Y-73190106D01*
X122246098Y-73211546D01*
X122258990Y-73242671D01*
X122266045Y-73265927D01*
X122272617Y-73298961D01*
X122275000Y-73323156D01*
X122275000Y-73356839D01*
X122272616Y-73381035D01*
X122266043Y-73414073D01*
X122258988Y-73437329D01*
X122246098Y-73468449D01*
X122234639Y-73489888D01*
X122215920Y-73517903D01*
X122200499Y-73536693D01*
X122176693Y-73560499D01*
X122157903Y-73575920D01*
X122129885Y-73594641D01*
X122108445Y-73606101D01*
X122077332Y-73618988D01*
X122054073Y-73626043D01*
X121984265Y-73639929D01*
X121972984Y-73641513D01*
X121972991Y-73641562D01*
X121970470Y-73641875D01*
X121930253Y-73648576D01*
X121849431Y-73669014D01*
X121849430Y-73669014D01*
X121772032Y-73708626D01*
X121745936Y-73713575D01*
X121720797Y-73722130D01*
X121712145Y-73719983D01*
X121703386Y-73721645D01*
X121678759Y-73711701D01*
X121652984Y-73705307D01*
X121646865Y-73698823D01*
X121638598Y-73695485D01*
X121623255Y-73673802D01*
X121605031Y-73654490D01*
X121603389Y-73645728D01*
X121598239Y-73638450D01*
X121597054Y-73611919D01*
X121592163Y-73585816D01*
X121595437Y-73575714D01*
X121595122Y-73568650D01*
X121600662Y-73551560D01*
X121603946Y-73543477D01*
X121622420Y-73511697D01*
X121644922Y-73455966D01*
X121642601Y-73455029D01*
X121674097Y-73365753D01*
X121693954Y-73265924D01*
X121701009Y-73242668D01*
X121713901Y-73211544D01*
X121725360Y-73190106D01*
X121744076Y-73162096D01*
X121759488Y-73143316D01*
X121783314Y-73119489D01*
X121802098Y-73104074D01*
X121830111Y-73085356D01*
X121851545Y-73073900D01*
X121882668Y-73061008D01*
X121905918Y-73053955D01*
X121938970Y-73047381D01*
X121963154Y-73045000D01*
X121996842Y-73045000D01*
X122021027Y-73047381D01*
G37*
%TD.AperFunction*%
%TD*%
%TA.AperFunction,Conductor*%
%TO.N,/5V*%
G36*
X114678182Y-97070772D02*
G01*
X114724856Y-97122765D01*
X114736948Y-97179175D01*
X114653580Y-100708428D01*
X114632318Y-100774984D01*
X114578448Y-100819479D01*
X114529615Y-100829500D01*
X101219830Y-100829500D01*
X101152791Y-100809815D01*
X101107036Y-100757011D01*
X101095880Y-100701996D01*
X101098081Y-100624123D01*
X101166597Y-98200347D01*
X101188168Y-98133894D01*
X101242243Y-98089649D01*
X101290396Y-98079854D01*
X109420000Y-98070000D01*
X110143614Y-97175002D01*
X110201069Y-97135248D01*
X110237858Y-97128984D01*
X114610809Y-97052266D01*
X114678182Y-97070772D01*
G37*
%TD.AperFunction*%
%TD*%
%TA.AperFunction,Conductor*%
%TO.N,/3V3*%
G36*
X140173296Y-72076107D02*
G01*
X140219500Y-72128519D01*
X140231141Y-72182401D01*
X140026466Y-90176738D01*
X140006020Y-90243550D01*
X139952699Y-90288701D01*
X139883432Y-90297857D01*
X139855022Y-90289889D01*
X139783501Y-90260264D01*
X139783489Y-90260261D01*
X139628845Y-90229500D01*
X139628842Y-90229500D01*
X139471158Y-90229500D01*
X139471155Y-90229500D01*
X139316510Y-90260261D01*
X139316498Y-90260264D01*
X139170827Y-90320602D01*
X139170814Y-90320609D01*
X139039711Y-90408210D01*
X139039707Y-90408213D01*
X138928213Y-90519707D01*
X138928210Y-90519711D01*
X138840609Y-90650814D01*
X138840602Y-90650827D01*
X138780264Y-90796498D01*
X138780261Y-90796510D01*
X138749500Y-90951153D01*
X138749500Y-91108846D01*
X138780261Y-91263489D01*
X138780264Y-91263501D01*
X138840602Y-91409172D01*
X138840609Y-91409185D01*
X138928210Y-91540288D01*
X138928213Y-91540292D01*
X139039707Y-91651786D01*
X139039711Y-91651789D01*
X139170814Y-91739390D01*
X139170827Y-91739397D01*
X139266062Y-91778844D01*
X139316503Y-91799737D01*
X139471153Y-91830499D01*
X139471156Y-91830500D01*
X139471158Y-91830500D01*
X139628844Y-91830500D01*
X139628845Y-91830499D01*
X139783497Y-91799737D01*
X139835488Y-91778201D01*
X139904955Y-91770732D01*
X139967435Y-91802006D01*
X140003088Y-91862094D01*
X140006931Y-91894170D01*
X139972421Y-94928213D01*
X139917839Y-99726910D01*
X139897393Y-99793722D01*
X139844072Y-99838873D01*
X139793847Y-99849500D01*
X122011518Y-99849500D01*
X121944479Y-99829815D01*
X121923837Y-99813181D01*
X119151619Y-97040962D01*
X119118134Y-96979639D01*
X119115328Y-96950665D01*
X119133483Y-96091877D01*
X119154580Y-96025271D01*
X119208339Y-95980642D01*
X119257455Y-95970500D01*
X119368844Y-95970500D01*
X119368845Y-95970499D01*
X119523497Y-95939737D01*
X119669179Y-95879394D01*
X119800289Y-95791789D01*
X119911789Y-95680289D01*
X119999394Y-95549179D01*
X120059737Y-95403497D01*
X120090500Y-95248842D01*
X120090500Y-95091158D01*
X120082543Y-95051158D01*
X120082542Y-95051153D01*
X124269500Y-95051153D01*
X124269500Y-95208846D01*
X124300261Y-95363489D01*
X124300264Y-95363501D01*
X124360602Y-95509172D01*
X124360609Y-95509185D01*
X124448210Y-95640288D01*
X124448213Y-95640292D01*
X124559707Y-95751786D01*
X124559711Y-95751789D01*
X124690814Y-95839390D01*
X124690827Y-95839397D01*
X124836498Y-95899735D01*
X124836503Y-95899737D01*
X124984482Y-95929172D01*
X124991153Y-95930499D01*
X124991156Y-95930500D01*
X124991158Y-95930500D01*
X125148844Y-95930500D01*
X125148845Y-95930499D01*
X125303497Y-95899737D01*
X125449179Y-95839394D01*
X125580289Y-95751789D01*
X125691789Y-95640289D01*
X125779394Y-95509179D01*
X125839737Y-95363497D01*
X125870500Y-95208842D01*
X125870500Y-95051158D01*
X125870500Y-95051155D01*
X125870499Y-95051153D01*
X125848242Y-94939257D01*
X125844641Y-94921153D01*
X127154501Y-94921153D01*
X127154501Y-95078846D01*
X127185262Y-95233489D01*
X127185265Y-95233501D01*
X127245603Y-95379172D01*
X127245610Y-95379185D01*
X127333211Y-95510288D01*
X127333214Y-95510292D01*
X127444708Y-95621786D01*
X127444712Y-95621789D01*
X127575815Y-95709390D01*
X127575828Y-95709397D01*
X127678166Y-95751786D01*
X127721504Y-95769737D01*
X127876154Y-95800499D01*
X127876157Y-95800500D01*
X127876159Y-95800500D01*
X128033845Y-95800500D01*
X128033846Y-95800499D01*
X128188498Y-95769737D01*
X128334180Y-95709394D01*
X128465290Y-95621789D01*
X128576790Y-95510289D01*
X128602940Y-95471153D01*
X129699500Y-95471153D01*
X129699500Y-95628846D01*
X129730261Y-95783489D01*
X129730264Y-95783501D01*
X129790602Y-95929172D01*
X129790609Y-95929185D01*
X129878210Y-96060288D01*
X129878213Y-96060292D01*
X129989707Y-96171786D01*
X129989711Y-96171789D01*
X130120814Y-96259390D01*
X130120827Y-96259397D01*
X130266498Y-96319735D01*
X130266503Y-96319737D01*
X130421153Y-96350499D01*
X130421156Y-96350500D01*
X130421158Y-96350500D01*
X130578844Y-96350500D01*
X130578845Y-96350499D01*
X130733497Y-96319737D01*
X130879179Y-96259394D01*
X131010289Y-96171789D01*
X131121789Y-96060289D01*
X131209394Y-95929179D01*
X131269737Y-95783497D01*
X131300500Y-95628842D01*
X131300500Y-95471158D01*
X131300500Y-95471155D01*
X131300499Y-95471153D01*
X131285585Y-95396175D01*
X131269737Y-95316503D01*
X131235352Y-95233489D01*
X131209397Y-95170827D01*
X131209390Y-95170814D01*
X131121789Y-95039711D01*
X131121786Y-95039707D01*
X131010292Y-94928213D01*
X131010288Y-94928210D01*
X130879185Y-94840609D01*
X130879172Y-94840602D01*
X130733501Y-94780264D01*
X130733489Y-94780261D01*
X130578845Y-94749500D01*
X130578842Y-94749500D01*
X130421158Y-94749500D01*
X130421155Y-94749500D01*
X130266510Y-94780261D01*
X130266498Y-94780264D01*
X130120827Y-94840602D01*
X130120814Y-94840609D01*
X129989711Y-94928210D01*
X129989707Y-94928213D01*
X129878213Y-95039707D01*
X129878210Y-95039711D01*
X129790609Y-95170814D01*
X129790602Y-95170827D01*
X129730264Y-95316498D01*
X129730261Y-95316510D01*
X129699500Y-95471153D01*
X128602940Y-95471153D01*
X128648144Y-95403501D01*
X128653039Y-95396175D01*
X128653039Y-95396174D01*
X128664395Y-95379179D01*
X128724738Y-95233497D01*
X128755501Y-95078842D01*
X128755501Y-94921158D01*
X128755501Y-94921155D01*
X128755500Y-94921153D01*
X128750596Y-94896498D01*
X128724738Y-94766503D01*
X128718242Y-94750821D01*
X128664398Y-94620827D01*
X128664391Y-94620814D01*
X128576790Y-94489711D01*
X128576787Y-94489707D01*
X128465293Y-94378213D01*
X128465289Y-94378210D01*
X128334186Y-94290609D01*
X128334173Y-94290602D01*
X128188502Y-94230264D01*
X128188490Y-94230261D01*
X128033846Y-94199500D01*
X128033843Y-94199500D01*
X127876159Y-94199500D01*
X127876156Y-94199500D01*
X127721511Y-94230261D01*
X127721499Y-94230264D01*
X127575828Y-94290602D01*
X127575815Y-94290609D01*
X127444712Y-94378210D01*
X127444708Y-94378213D01*
X127333214Y-94489707D01*
X127333211Y-94489711D01*
X127245610Y-94620814D01*
X127245603Y-94620827D01*
X127185265Y-94766498D01*
X127185262Y-94766510D01*
X127154501Y-94921153D01*
X125844641Y-94921153D01*
X125839738Y-94896508D01*
X125839737Y-94896507D01*
X125839737Y-94896503D01*
X125795965Y-94790827D01*
X125779397Y-94750827D01*
X125779390Y-94750814D01*
X125691789Y-94619711D01*
X125691786Y-94619707D01*
X125580292Y-94508213D01*
X125580288Y-94508210D01*
X125449185Y-94420609D01*
X125449172Y-94420602D01*
X125303501Y-94360264D01*
X125303489Y-94360261D01*
X125148845Y-94329500D01*
X125148842Y-94329500D01*
X124991158Y-94329500D01*
X124991155Y-94329500D01*
X124836510Y-94360261D01*
X124836498Y-94360264D01*
X124690827Y-94420602D01*
X124690814Y-94420609D01*
X124559711Y-94508210D01*
X124559707Y-94508213D01*
X124448213Y-94619707D01*
X124448210Y-94619711D01*
X124360609Y-94750814D01*
X124360602Y-94750827D01*
X124300264Y-94896498D01*
X124300261Y-94896510D01*
X124269500Y-95051153D01*
X120082542Y-95051153D01*
X120072664Y-95001493D01*
X120059737Y-94936503D01*
X120053379Y-94921153D01*
X119999397Y-94790827D01*
X119999390Y-94790814D01*
X119911789Y-94659711D01*
X119911786Y-94659707D01*
X119800292Y-94548213D01*
X119800288Y-94548210D01*
X119669185Y-94460609D01*
X119669172Y-94460602D01*
X119523501Y-94400264D01*
X119523489Y-94400261D01*
X119368845Y-94369500D01*
X119368842Y-94369500D01*
X119296543Y-94369500D01*
X119229504Y-94349815D01*
X119183749Y-94297011D01*
X119172571Y-94242883D01*
X119185292Y-93641153D01*
X121389500Y-93641153D01*
X121389500Y-93798846D01*
X121420261Y-93953489D01*
X121420264Y-93953501D01*
X121480602Y-94099172D01*
X121480609Y-94099185D01*
X121568210Y-94230288D01*
X121568213Y-94230292D01*
X121679707Y-94341786D01*
X121679711Y-94341789D01*
X121810814Y-94429390D01*
X121810827Y-94429397D01*
X121956440Y-94489711D01*
X121956503Y-94489737D01*
X122111153Y-94520499D01*
X122111156Y-94520500D01*
X122111158Y-94520500D01*
X122268844Y-94520500D01*
X122268845Y-94520499D01*
X122423497Y-94489737D01*
X122569179Y-94429394D01*
X122700289Y-94341789D01*
X122811789Y-94230289D01*
X122899394Y-94099179D01*
X122959737Y-93953497D01*
X122990500Y-93798842D01*
X122990500Y-93641158D01*
X122990500Y-93641155D01*
X122990499Y-93641153D01*
X122973200Y-93554185D01*
X122959737Y-93486503D01*
X122927423Y-93408489D01*
X122899397Y-93340827D01*
X122899390Y-93340814D01*
X122811789Y-93209711D01*
X122811786Y-93209707D01*
X122700293Y-93098214D01*
X122700288Y-93098210D01*
X122569185Y-93010609D01*
X122569172Y-93010602D01*
X122564467Y-93008653D01*
X133949500Y-93008653D01*
X133949500Y-93166346D01*
X133980261Y-93320989D01*
X133980264Y-93321001D01*
X134040602Y-93466672D01*
X134040609Y-93466685D01*
X134128210Y-93597788D01*
X134128213Y-93597792D01*
X134239707Y-93709286D01*
X134239711Y-93709289D01*
X134370814Y-93796890D01*
X134370827Y-93796897D01*
X134516498Y-93857235D01*
X134516503Y-93857237D01*
X134653030Y-93884394D01*
X134671153Y-93887999D01*
X134671156Y-93888000D01*
X134671158Y-93888000D01*
X134828844Y-93888000D01*
X134828845Y-93887999D01*
X134983497Y-93857237D01*
X135096166Y-93810567D01*
X135129172Y-93796897D01*
X135129172Y-93796896D01*
X135129179Y-93796894D01*
X135260289Y-93709289D01*
X135371789Y-93597789D01*
X135459394Y-93466679D01*
X135519737Y-93320997D01*
X135550500Y-93166342D01*
X135550500Y-93096153D01*
X136649500Y-93096153D01*
X136649500Y-93253846D01*
X136680261Y-93408489D01*
X136680264Y-93408501D01*
X136740602Y-93554172D01*
X136740609Y-93554185D01*
X136828210Y-93685288D01*
X136828213Y-93685292D01*
X136939707Y-93796786D01*
X136939711Y-93796789D01*
X137070814Y-93884390D01*
X137070827Y-93884397D01*
X137216498Y-93944735D01*
X137216503Y-93944737D01*
X137371153Y-93975499D01*
X137371156Y-93975500D01*
X137371158Y-93975500D01*
X137528844Y-93975500D01*
X137528845Y-93975499D01*
X137683497Y-93944737D01*
X137829179Y-93884394D01*
X137960289Y-93796789D01*
X138071789Y-93685289D01*
X138159394Y-93554179D01*
X138219737Y-93408497D01*
X138250500Y-93253842D01*
X138250500Y-93096158D01*
X138250500Y-93096155D01*
X138250499Y-93096153D01*
X138233483Y-93010609D01*
X138219737Y-92941503D01*
X138210623Y-92919500D01*
X138159397Y-92795827D01*
X138159390Y-92795814D01*
X138071789Y-92664711D01*
X138071786Y-92664707D01*
X137960292Y-92553213D01*
X137960288Y-92553210D01*
X137829185Y-92465609D01*
X137829172Y-92465602D01*
X137683501Y-92405264D01*
X137683489Y-92405261D01*
X137528845Y-92374500D01*
X137528842Y-92374500D01*
X137371158Y-92374500D01*
X137371155Y-92374500D01*
X137216510Y-92405261D01*
X137216498Y-92405264D01*
X137070827Y-92465602D01*
X137070814Y-92465609D01*
X136939711Y-92553210D01*
X136939707Y-92553213D01*
X136828213Y-92664707D01*
X136828210Y-92664711D01*
X136740609Y-92795814D01*
X136740602Y-92795827D01*
X136680264Y-92941498D01*
X136680261Y-92941510D01*
X136649500Y-93096153D01*
X135550500Y-93096153D01*
X135550500Y-93008658D01*
X135550500Y-93008655D01*
X135550499Y-93008653D01*
X135519737Y-92854003D01*
X135495640Y-92795827D01*
X135459397Y-92708327D01*
X135459390Y-92708314D01*
X135371789Y-92577211D01*
X135371786Y-92577207D01*
X135260292Y-92465713D01*
X135260288Y-92465710D01*
X135129185Y-92378109D01*
X135129172Y-92378102D01*
X134983501Y-92317764D01*
X134983489Y-92317761D01*
X134828845Y-92287000D01*
X134828842Y-92287000D01*
X134671158Y-92287000D01*
X134671155Y-92287000D01*
X134516510Y-92317761D01*
X134516498Y-92317764D01*
X134370827Y-92378102D01*
X134370814Y-92378109D01*
X134239711Y-92465710D01*
X134239707Y-92465713D01*
X134128213Y-92577207D01*
X134128210Y-92577211D01*
X134040609Y-92708314D01*
X134040602Y-92708327D01*
X133980264Y-92853998D01*
X133980261Y-92854010D01*
X133949500Y-93008653D01*
X122564467Y-93008653D01*
X122423501Y-92950264D01*
X122423489Y-92950261D01*
X122268845Y-92919500D01*
X122268842Y-92919500D01*
X122111158Y-92919500D01*
X122111155Y-92919500D01*
X121956510Y-92950261D01*
X121956498Y-92950264D01*
X121810827Y-93010602D01*
X121810814Y-93010609D01*
X121679711Y-93098210D01*
X121679707Y-93098213D01*
X121568213Y-93209707D01*
X121568210Y-93209711D01*
X121480609Y-93340814D01*
X121480602Y-93340827D01*
X121420264Y-93486498D01*
X121420261Y-93486510D01*
X121389500Y-93641153D01*
X119185292Y-93641153D01*
X119235557Y-91263489D01*
X119246373Y-90751879D01*
X119267470Y-90685271D01*
X119321229Y-90640642D01*
X119370345Y-90630500D01*
X120211952Y-90630500D01*
X120278991Y-90650185D01*
X120324746Y-90702989D01*
X120334690Y-90772147D01*
X120305665Y-90835703D01*
X120259404Y-90869061D01*
X120110827Y-90930602D01*
X120110814Y-90930609D01*
X119979711Y-91018210D01*
X119979707Y-91018213D01*
X119868213Y-91129707D01*
X119868210Y-91129711D01*
X119780609Y-91260814D01*
X119780602Y-91260827D01*
X119720264Y-91406498D01*
X119720261Y-91406510D01*
X119689500Y-91561153D01*
X119689500Y-91718846D01*
X119720261Y-91873489D01*
X119720264Y-91873501D01*
X119780602Y-92019172D01*
X119780609Y-92019185D01*
X119868210Y-92150288D01*
X119868213Y-92150292D01*
X119979707Y-92261786D01*
X119979711Y-92261789D01*
X120110814Y-92349390D01*
X120110827Y-92349397D01*
X120245704Y-92405264D01*
X120256503Y-92409737D01*
X120411153Y-92440499D01*
X120411156Y-92440500D01*
X120411158Y-92440500D01*
X120568844Y-92440500D01*
X120568845Y-92440499D01*
X120723497Y-92409737D01*
X120869179Y-92349394D01*
X121000289Y-92261789D01*
X121111789Y-92150289D01*
X121179534Y-92048901D01*
X121233144Y-92004097D01*
X121302469Y-91995390D01*
X121330084Y-92003230D01*
X121466503Y-92059737D01*
X121621153Y-92090499D01*
X121621156Y-92090500D01*
X121621158Y-92090500D01*
X121778844Y-92090500D01*
X121778845Y-92090499D01*
X121933497Y-92059737D01*
X122079179Y-91999394D01*
X122210289Y-91911789D01*
X122321789Y-91800289D01*
X122409394Y-91669179D01*
X122469737Y-91523497D01*
X122500500Y-91368842D01*
X122500500Y-91211158D01*
X122500500Y-91211155D01*
X122500499Y-91211153D01*
X122494139Y-91179179D01*
X122469737Y-91056503D01*
X122460208Y-91033497D01*
X122409397Y-90910827D01*
X122409390Y-90910814D01*
X122350976Y-90823391D01*
X122330098Y-90756713D01*
X122339854Y-90721153D01*
X130079500Y-90721153D01*
X130079500Y-90878846D01*
X130110261Y-91033489D01*
X130110264Y-91033501D01*
X130170602Y-91179172D01*
X130170609Y-91179185D01*
X130258210Y-91310288D01*
X130258213Y-91310292D01*
X130369707Y-91421786D01*
X130369711Y-91421789D01*
X130500814Y-91509390D01*
X130500827Y-91509397D01*
X130607095Y-91553414D01*
X130646503Y-91569737D01*
X130801153Y-91600499D01*
X130801156Y-91600500D01*
X130801158Y-91600500D01*
X130958844Y-91600500D01*
X130958845Y-91600499D01*
X131113497Y-91569737D01*
X131259179Y-91509394D01*
X131370728Y-91434858D01*
X131437405Y-91413981D01*
X131504785Y-91432465D01*
X131551476Y-91484444D01*
X131562652Y-91553414D01*
X131561236Y-91562152D01*
X131549500Y-91621153D01*
X131549500Y-91778846D01*
X131580261Y-91933489D01*
X131580264Y-91933501D01*
X131640602Y-92079172D01*
X131640609Y-92079185D01*
X131728210Y-92210288D01*
X131728213Y-92210292D01*
X131839707Y-92321786D01*
X131839711Y-92321789D01*
X131970814Y-92409390D01*
X131970827Y-92409397D01*
X132106520Y-92465602D01*
X132116503Y-92469737D01*
X132271153Y-92500499D01*
X132271156Y-92500500D01*
X132271158Y-92500500D01*
X132428844Y-92500500D01*
X132428845Y-92500499D01*
X132583497Y-92469737D01*
X132729179Y-92409394D01*
X132860289Y-92321789D01*
X132971789Y-92210289D01*
X133059394Y-92079179D01*
X133067448Y-92059736D01*
X133084247Y-92019179D01*
X133119737Y-91933497D01*
X133150500Y-91778842D01*
X133150500Y-91621158D01*
X133150500Y-91621155D01*
X133150499Y-91621153D01*
X133137025Y-91553414D01*
X133119737Y-91466503D01*
X133097982Y-91413981D01*
X133059397Y-91320827D01*
X133059390Y-91320814D01*
X132971789Y-91189711D01*
X132971786Y-91189707D01*
X132860292Y-91078213D01*
X132860288Y-91078210D01*
X132817529Y-91049639D01*
X132772724Y-90996026D01*
X132764017Y-90926701D01*
X132771857Y-90899089D01*
X132819737Y-90783497D01*
X132850500Y-90628842D01*
X132850500Y-90471158D01*
X132850500Y-90471155D01*
X132850499Y-90471153D01*
X132822322Y-90329500D01*
X132819737Y-90316503D01*
X132808713Y-90289889D01*
X132759397Y-90170827D01*
X132759390Y-90170814D01*
X132671789Y-90039711D01*
X132671786Y-90039707D01*
X132560292Y-89928213D01*
X132560288Y-89928210D01*
X132429185Y-89840609D01*
X132429179Y-89840606D01*
X132379319Y-89819953D01*
X132324916Y-89776111D01*
X132302852Y-89709817D01*
X132320132Y-89642118D01*
X132371269Y-89594508D01*
X132379289Y-89590844D01*
X132496121Y-89542452D01*
X132627231Y-89454847D01*
X132738731Y-89343347D01*
X132826336Y-89212237D01*
X132886679Y-89066555D01*
X132917442Y-88911900D01*
X132917442Y-88754216D01*
X132917442Y-88754213D01*
X132917441Y-88754211D01*
X132889154Y-88612005D01*
X132886679Y-88599561D01*
X132874711Y-88570667D01*
X132826339Y-88453885D01*
X132826332Y-88453872D01*
X132738731Y-88322769D01*
X132738728Y-88322765D01*
X132627234Y-88211271D01*
X132627230Y-88211268D01*
X132496127Y-88123667D01*
X132496114Y-88123660D01*
X132350443Y-88063322D01*
X132350431Y-88063319D01*
X132195787Y-88032558D01*
X132195784Y-88032558D01*
X132038100Y-88032558D01*
X132038097Y-88032558D01*
X131883452Y-88063319D01*
X131883440Y-88063322D01*
X131737769Y-88123660D01*
X131737756Y-88123667D01*
X131606653Y-88211268D01*
X131606649Y-88211271D01*
X131495155Y-88322765D01*
X131495152Y-88322769D01*
X131407551Y-88453872D01*
X131407544Y-88453885D01*
X131347206Y-88599556D01*
X131347203Y-88599568D01*
X131316442Y-88754211D01*
X131316442Y-88911904D01*
X131347203Y-89066547D01*
X131347206Y-89066559D01*
X131407544Y-89212230D01*
X131407551Y-89212243D01*
X131495152Y-89343346D01*
X131495155Y-89343350D01*
X131606649Y-89454844D01*
X131606653Y-89454847D01*
X131737756Y-89542448D01*
X131737765Y-89542453D01*
X131787621Y-89563104D01*
X131842024Y-89606945D01*
X131864089Y-89673239D01*
X131846810Y-89740938D01*
X131795673Y-89788549D01*
X131787620Y-89792226D01*
X131670827Y-89840602D01*
X131670814Y-89840609D01*
X131539711Y-89928210D01*
X131539707Y-89928213D01*
X131428213Y-90039707D01*
X131428208Y-90039713D01*
X131421108Y-90050340D01*
X131367496Y-90095144D01*
X131298171Y-90103851D01*
X131264937Y-90092624D01*
X131264808Y-90092937D01*
X131260146Y-90091006D01*
X131259551Y-90090805D01*
X131259172Y-90090602D01*
X131113501Y-90030264D01*
X131113489Y-90030261D01*
X130958845Y-89999500D01*
X130958842Y-89999500D01*
X130801158Y-89999500D01*
X130801155Y-89999500D01*
X130646510Y-90030261D01*
X130646498Y-90030264D01*
X130500827Y-90090602D01*
X130500814Y-90090609D01*
X130369711Y-90178210D01*
X130369707Y-90178213D01*
X130258213Y-90289707D01*
X130258210Y-90289711D01*
X130170609Y-90420814D01*
X130170602Y-90420827D01*
X130110264Y-90566498D01*
X130110261Y-90566510D01*
X130079500Y-90721153D01*
X122339854Y-90721153D01*
X122348583Y-90689333D01*
X122400562Y-90642643D01*
X122454078Y-90630500D01*
X127353186Y-90630500D01*
X127353347Y-90630523D01*
X127353428Y-90630500D01*
X127354063Y-90630626D01*
X127388353Y-90635591D01*
X127394607Y-90637440D01*
X127424834Y-90649961D01*
X127478164Y-90672051D01*
X127574812Y-90691275D01*
X127648513Y-90705935D01*
X127671458Y-90710500D01*
X127671459Y-90710500D01*
X128398542Y-90710500D01*
X128436300Y-90702989D01*
X128495188Y-90691275D01*
X128591836Y-90672051D01*
X128645165Y-90649961D01*
X128773914Y-90596632D01*
X128937782Y-90487139D01*
X129077139Y-90347782D01*
X129077140Y-90347779D01*
X129084206Y-90340714D01*
X129084209Y-90340710D01*
X130347778Y-89077141D01*
X130347782Y-89077139D01*
X130487139Y-88937782D01*
X130596632Y-88773914D01*
X130668851Y-88599561D01*
X130672051Y-88591836D01*
X130699492Y-88453879D01*
X130710500Y-88398541D01*
X130710500Y-86541445D01*
X130710500Y-86541442D01*
X130672052Y-86348156D01*
X130672051Y-86348155D01*
X130672051Y-86348151D01*
X130672049Y-86348146D01*
X130596635Y-86166078D01*
X130596628Y-86166065D01*
X130487139Y-86002204D01*
X130487136Y-86002200D01*
X130347785Y-85862849D01*
X130347781Y-85862846D01*
X130183920Y-85753357D01*
X130183907Y-85753350D01*
X130001839Y-85677936D01*
X130001829Y-85677933D01*
X129808543Y-85639486D01*
X129808541Y-85639486D01*
X129611459Y-85639486D01*
X129611457Y-85639486D01*
X129418170Y-85677933D01*
X129418160Y-85677936D01*
X129236092Y-85753350D01*
X129236079Y-85753357D01*
X129072218Y-85862846D01*
X129072214Y-85862849D01*
X128932863Y-86002200D01*
X128932860Y-86002204D01*
X128823371Y-86166065D01*
X128823364Y-86166078D01*
X128747950Y-86348146D01*
X128747947Y-86348156D01*
X128709500Y-86541442D01*
X128709500Y-87834217D01*
X128689815Y-87901256D01*
X128673181Y-87921898D01*
X127983073Y-88612005D01*
X127921750Y-88645490D01*
X127871202Y-88645942D01*
X127868929Y-88645490D01*
X127853897Y-88642499D01*
X127788541Y-88629500D01*
X127788540Y-88629500D01*
X125617487Y-88629500D01*
X125550448Y-88609815D01*
X125504693Y-88557011D01*
X125494749Y-88487853D01*
X125514384Y-88436610D01*
X125539391Y-88399183D01*
X125539394Y-88399179D01*
X125599737Y-88253497D01*
X125630500Y-88098842D01*
X125630500Y-87941158D01*
X125630500Y-87941155D01*
X125630499Y-87941153D01*
X125599738Y-87786510D01*
X125599737Y-87786503D01*
X125599735Y-87786498D01*
X125539397Y-87640827D01*
X125539390Y-87640814D01*
X125451789Y-87509711D01*
X125451786Y-87509707D01*
X125340292Y-87398213D01*
X125340288Y-87398210D01*
X125209185Y-87310609D01*
X125209172Y-87310602D01*
X125063501Y-87250264D01*
X125063489Y-87250261D01*
X124908845Y-87219500D01*
X124908842Y-87219500D01*
X124751158Y-87219500D01*
X124751155Y-87219500D01*
X124596510Y-87250261D01*
X124596498Y-87250264D01*
X124450827Y-87310602D01*
X124450814Y-87310609D01*
X124319711Y-87398210D01*
X124319707Y-87398213D01*
X124208213Y-87509707D01*
X124208210Y-87509711D01*
X124120609Y-87640814D01*
X124120602Y-87640827D01*
X124060264Y-87786498D01*
X124060261Y-87786510D01*
X124029500Y-87941153D01*
X124029500Y-88098846D01*
X124060261Y-88253489D01*
X124060264Y-88253501D01*
X124120602Y-88399172D01*
X124120608Y-88399183D01*
X124145616Y-88436610D01*
X124166493Y-88503287D01*
X124148008Y-88570667D01*
X124096029Y-88617357D01*
X124042513Y-88629500D01*
X119417889Y-88629500D01*
X119350850Y-88609815D01*
X119305095Y-88557011D01*
X119293917Y-88502879D01*
X119296109Y-88399183D01*
X119362502Y-85258600D01*
X119383599Y-85191994D01*
X119437358Y-85147365D01*
X119506711Y-85138886D01*
X119569639Y-85169247D01*
X119583994Y-85185870D01*
X119584347Y-85185581D01*
X119588213Y-85190292D01*
X119699707Y-85301786D01*
X119699711Y-85301789D01*
X119830814Y-85389390D01*
X119830827Y-85389397D01*
X119976498Y-85449735D01*
X119976503Y-85449737D01*
X120131153Y-85480499D01*
X120131156Y-85480500D01*
X120131158Y-85480500D01*
X120288844Y-85480500D01*
X120288845Y-85480499D01*
X120443497Y-85449737D01*
X120589179Y-85389394D01*
X120720289Y-85301789D01*
X120831789Y-85190289D01*
X120919394Y-85059179D01*
X120979737Y-84913497D01*
X121010500Y-84758842D01*
X121010500Y-84601158D01*
X121010500Y-84601155D01*
X121010499Y-84601153D01*
X120979738Y-84446510D01*
X120979737Y-84446503D01*
X120951711Y-84378842D01*
X120919397Y-84300827D01*
X120919390Y-84300814D01*
X120831789Y-84169711D01*
X120831786Y-84169707D01*
X120720292Y-84058213D01*
X120720288Y-84058210D01*
X120589185Y-83970609D01*
X120589172Y-83970602D01*
X120443501Y-83910264D01*
X120443489Y-83910261D01*
X120288845Y-83879500D01*
X120288842Y-83879500D01*
X120131158Y-83879500D01*
X120131155Y-83879500D01*
X119976510Y-83910261D01*
X119976498Y-83910264D01*
X119830827Y-83970602D01*
X119830814Y-83970609D01*
X119699711Y-84058210D01*
X119599318Y-84158603D01*
X119537995Y-84192087D01*
X119468303Y-84187103D01*
X119412370Y-84145231D01*
X119387953Y-84079766D01*
X119387665Y-84068314D01*
X119397103Y-83621878D01*
X119418200Y-83555271D01*
X119471959Y-83510642D01*
X119521075Y-83500500D01*
X125088059Y-83500500D01*
X125155098Y-83520185D01*
X125200853Y-83572989D01*
X125210797Y-83642147D01*
X125181772Y-83705703D01*
X125175740Y-83712181D01*
X125158213Y-83729707D01*
X125158210Y-83729711D01*
X125070609Y-83860814D01*
X125070602Y-83860827D01*
X125010264Y-84006498D01*
X125010261Y-84006510D01*
X124979500Y-84161153D01*
X124979500Y-84318846D01*
X125010261Y-84473489D01*
X125010264Y-84473501D01*
X125070602Y-84619172D01*
X125070609Y-84619185D01*
X125158210Y-84750288D01*
X125158213Y-84750292D01*
X125269707Y-84861786D01*
X125269711Y-84861789D01*
X125400814Y-84949390D01*
X125400827Y-84949397D01*
X125546498Y-85009735D01*
X125546503Y-85009737D01*
X125701153Y-85040499D01*
X125701156Y-85040500D01*
X125701158Y-85040500D01*
X125858844Y-85040500D01*
X125858845Y-85040499D01*
X126013497Y-85009737D01*
X126159179Y-84949394D01*
X126290289Y-84861789D01*
X126401789Y-84750289D01*
X126489394Y-84619179D01*
X126496859Y-84601158D01*
X126549735Y-84473501D01*
X126549737Y-84473497D01*
X126580500Y-84318842D01*
X126580500Y-84221153D01*
X132249500Y-84221153D01*
X132249500Y-84378846D01*
X132280261Y-84533489D01*
X132280264Y-84533501D01*
X132340602Y-84679172D01*
X132340609Y-84679185D01*
X132431595Y-84815354D01*
X132429589Y-84816694D01*
X132452740Y-84871216D01*
X132444135Y-84933009D01*
X132430262Y-84966502D01*
X132430261Y-84966505D01*
X132399500Y-85121153D01*
X132399500Y-85278846D01*
X132430261Y-85433489D01*
X132430264Y-85433501D01*
X132490602Y-85579172D01*
X132490609Y-85579185D01*
X132578210Y-85710288D01*
X132578213Y-85710292D01*
X132689707Y-85821786D01*
X132689711Y-85821789D01*
X132820814Y-85909390D01*
X132820827Y-85909397D01*
X132966498Y-85969735D01*
X132966503Y-85969737D01*
X133121153Y-86000499D01*
X133121156Y-86000500D01*
X133121158Y-86000500D01*
X133278844Y-86000500D01*
X133278845Y-86000499D01*
X133433497Y-85969737D01*
X133579179Y-85909394D01*
X133710289Y-85821789D01*
X133821789Y-85710289D01*
X133909394Y-85579179D01*
X133969737Y-85433497D01*
X134000500Y-85278842D01*
X134000500Y-85121158D01*
X134000500Y-85121155D01*
X134000499Y-85121153D01*
X133988173Y-85059185D01*
X133969737Y-84966503D01*
X133962649Y-84949390D01*
X133909397Y-84820827D01*
X133909390Y-84820814D01*
X133818405Y-84684646D01*
X133820413Y-84683304D01*
X133797261Y-84628802D01*
X133805866Y-84566984D01*
X133819735Y-84533502D01*
X133819735Y-84533501D01*
X133819737Y-84533497D01*
X133850500Y-84378842D01*
X133850500Y-84221158D01*
X133850500Y-84221155D01*
X133850499Y-84221153D01*
X133838565Y-84161158D01*
X133819737Y-84066503D01*
X133816302Y-84058210D01*
X133759397Y-83920827D01*
X133759390Y-83920814D01*
X133671789Y-83789711D01*
X133671786Y-83789707D01*
X133560292Y-83678213D01*
X133560288Y-83678210D01*
X133429185Y-83590609D01*
X133429172Y-83590602D01*
X133283501Y-83530264D01*
X133283489Y-83530261D01*
X133128845Y-83499500D01*
X133128842Y-83499500D01*
X132971158Y-83499500D01*
X132971155Y-83499500D01*
X132816510Y-83530261D01*
X132816498Y-83530264D01*
X132670827Y-83590602D01*
X132670814Y-83590609D01*
X132539711Y-83678210D01*
X132539707Y-83678213D01*
X132428213Y-83789707D01*
X132428210Y-83789711D01*
X132340609Y-83920814D01*
X132340602Y-83920827D01*
X132280264Y-84066498D01*
X132280261Y-84066510D01*
X132249500Y-84221153D01*
X126580500Y-84221153D01*
X126580500Y-84161158D01*
X126580500Y-84161155D01*
X126580499Y-84161153D01*
X126549738Y-84006510D01*
X126549737Y-84006503D01*
X126549735Y-84006498D01*
X126489397Y-83860827D01*
X126489390Y-83860814D01*
X126401789Y-83729711D01*
X126401786Y-83729707D01*
X126384260Y-83712181D01*
X126350775Y-83650858D01*
X126355759Y-83581166D01*
X126397631Y-83525233D01*
X126463095Y-83500816D01*
X126471941Y-83500500D01*
X128416616Y-83500500D01*
X128464069Y-83509939D01*
X128513131Y-83530261D01*
X128638165Y-83582052D01*
X128819952Y-83618211D01*
X128831455Y-83620499D01*
X128831459Y-83620500D01*
X128831460Y-83620500D01*
X129028542Y-83620500D01*
X129028543Y-83620499D01*
X129221836Y-83582052D01*
X129403915Y-83506632D01*
X129567782Y-83397140D01*
X129707140Y-83257782D01*
X129816632Y-83093915D01*
X129892052Y-82911836D01*
X129930500Y-82718541D01*
X129930500Y-82521460D01*
X129892052Y-82328165D01*
X129816632Y-82146086D01*
X129816631Y-82146085D01*
X129816628Y-82146079D01*
X129707141Y-81982220D01*
X129707140Y-81982219D01*
X129587139Y-81862218D01*
X129447782Y-81722861D01*
X129447781Y-81722860D01*
X129447780Y-81722859D01*
X129283917Y-81613369D01*
X129283914Y-81613368D01*
X129160585Y-81562283D01*
X129160578Y-81562281D01*
X129153608Y-81559394D01*
X129101836Y-81537949D01*
X129005188Y-81518724D01*
X129000629Y-81517817D01*
X129000625Y-81517816D01*
X128908544Y-81499500D01*
X128908541Y-81499500D01*
X126067009Y-81499500D01*
X125999970Y-81479815D01*
X125954215Y-81427011D01*
X125944271Y-81357853D01*
X125963907Y-81306609D01*
X125972444Y-81293831D01*
X126015644Y-81229179D01*
X126075987Y-81083497D01*
X126106750Y-80928842D01*
X126106750Y-80771158D01*
X126106750Y-80771155D01*
X126106749Y-80771153D01*
X126075988Y-80616510D01*
X126075987Y-80616503D01*
X126075985Y-80616498D01*
X126015647Y-80470827D01*
X126015640Y-80470814D01*
X125928039Y-80339711D01*
X125928036Y-80339707D01*
X125816542Y-80228213D01*
X125816538Y-80228210D01*
X125685435Y-80140609D01*
X125685422Y-80140602D01*
X125539751Y-80080264D01*
X125539739Y-80080261D01*
X125385095Y-80049500D01*
X125385092Y-80049500D01*
X125227408Y-80049500D01*
X125227405Y-80049500D01*
X125072760Y-80080261D01*
X125072748Y-80080264D01*
X124927077Y-80140602D01*
X124927064Y-80140609D01*
X124795961Y-80228210D01*
X124795957Y-80228213D01*
X124684463Y-80339707D01*
X124684460Y-80339711D01*
X124596859Y-80470814D01*
X124596852Y-80470827D01*
X124536514Y-80616498D01*
X124536511Y-80616510D01*
X124505750Y-80771153D01*
X124505750Y-80928846D01*
X124536511Y-81083489D01*
X124536514Y-81083501D01*
X124596852Y-81229172D01*
X124596859Y-81229184D01*
X124648593Y-81306609D01*
X124669471Y-81373286D01*
X124650987Y-81440666D01*
X124599008Y-81487357D01*
X124545491Y-81499500D01*
X119568620Y-81499500D01*
X119501581Y-81479815D01*
X119455826Y-81427011D01*
X119444648Y-81372879D01*
X119470264Y-80161153D01*
X119979500Y-80161153D01*
X119979500Y-80318846D01*
X120010261Y-80473489D01*
X120010264Y-80473501D01*
X120070602Y-80619172D01*
X120070609Y-80619185D01*
X120158210Y-80750288D01*
X120158213Y-80750292D01*
X120269707Y-80861786D01*
X120269711Y-80861789D01*
X120400814Y-80949390D01*
X120400827Y-80949397D01*
X120546498Y-81009735D01*
X120546503Y-81009737D01*
X120701153Y-81040499D01*
X120701156Y-81040500D01*
X120701158Y-81040500D01*
X120858844Y-81040500D01*
X120858845Y-81040499D01*
X121013497Y-81009737D01*
X121159179Y-80949394D01*
X121290289Y-80861789D01*
X121401789Y-80750289D01*
X121489394Y-80619179D01*
X121490503Y-80616503D01*
X121549735Y-80473501D01*
X121549737Y-80473497D01*
X121580500Y-80318842D01*
X121580500Y-80161158D01*
X121580500Y-80161155D01*
X121580499Y-80161153D01*
X121578767Y-80152445D01*
X121549737Y-80006503D01*
X121530224Y-79959394D01*
X121489397Y-79860827D01*
X121489390Y-79860814D01*
X121401789Y-79729711D01*
X121401786Y-79729707D01*
X121290292Y-79618213D01*
X121290288Y-79618210D01*
X121159185Y-79530609D01*
X121159172Y-79530602D01*
X121013501Y-79470264D01*
X121013489Y-79470261D01*
X120858845Y-79439500D01*
X120858842Y-79439500D01*
X120701158Y-79439500D01*
X120701155Y-79439500D01*
X120546510Y-79470261D01*
X120546498Y-79470264D01*
X120400827Y-79530602D01*
X120400814Y-79530609D01*
X120269711Y-79618210D01*
X120269707Y-79618213D01*
X120158213Y-79729707D01*
X120158210Y-79729711D01*
X120070609Y-79860814D01*
X120070602Y-79860827D01*
X120010264Y-80006498D01*
X120010261Y-80006510D01*
X119979500Y-80161153D01*
X119470264Y-80161153D01*
X119470448Y-80152445D01*
X119473254Y-80019738D01*
X119491193Y-79171153D01*
X127389500Y-79171153D01*
X127389500Y-79328846D01*
X127420261Y-79483489D01*
X127420264Y-79483501D01*
X127480602Y-79629172D01*
X127480609Y-79629185D01*
X127568210Y-79760288D01*
X127568213Y-79760292D01*
X127679707Y-79871786D01*
X127679711Y-79871789D01*
X127810814Y-79959390D01*
X127810827Y-79959397D01*
X127924541Y-80006498D01*
X127956503Y-80019737D01*
X128106131Y-80049500D01*
X128111153Y-80050499D01*
X128111156Y-80050500D01*
X128111158Y-80050500D01*
X128268844Y-80050500D01*
X128268845Y-80050499D01*
X128423497Y-80019737D01*
X128569179Y-79959394D01*
X128700289Y-79871789D01*
X128811789Y-79760289D01*
X128899394Y-79629179D01*
X128903938Y-79618210D01*
X128940224Y-79530606D01*
X128959737Y-79483497D01*
X128990500Y-79328842D01*
X128990500Y-79171158D01*
X128990500Y-79171155D01*
X128990499Y-79171153D01*
X128959738Y-79016510D01*
X128959737Y-79016503D01*
X128959735Y-79016498D01*
X128899397Y-78870827D01*
X128899390Y-78870814D01*
X128811789Y-78739711D01*
X128811786Y-78739707D01*
X128700292Y-78628213D01*
X128700288Y-78628210D01*
X128569185Y-78540609D01*
X128569172Y-78540602D01*
X128423501Y-78480264D01*
X128423489Y-78480261D01*
X128268845Y-78449500D01*
X128268842Y-78449500D01*
X128111158Y-78449500D01*
X128111155Y-78449500D01*
X127956510Y-78480261D01*
X127956498Y-78480264D01*
X127810827Y-78540602D01*
X127810814Y-78540609D01*
X127679711Y-78628210D01*
X127679707Y-78628213D01*
X127568213Y-78739707D01*
X127568210Y-78739711D01*
X127480609Y-78870814D01*
X127480602Y-78870827D01*
X127420264Y-79016498D01*
X127420261Y-79016510D01*
X127389500Y-79171153D01*
X119491193Y-79171153D01*
X119513797Y-78101876D01*
X119534894Y-78035271D01*
X119588653Y-77990642D01*
X119637769Y-77980500D01*
X119698844Y-77980500D01*
X119698845Y-77980499D01*
X119853497Y-77949737D01*
X119999179Y-77889394D01*
X120130289Y-77801789D01*
X120241789Y-77690289D01*
X120329394Y-77559179D01*
X120389737Y-77413497D01*
X120420500Y-77258842D01*
X120420500Y-77101158D01*
X120420500Y-77101155D01*
X120420499Y-77101153D01*
X120400734Y-77001789D01*
X120389737Y-76946503D01*
X120366452Y-76890288D01*
X120329397Y-76800827D01*
X120329390Y-76800814D01*
X120241789Y-76669711D01*
X120241786Y-76669707D01*
X120130292Y-76558213D01*
X120130284Y-76558207D01*
X120048255Y-76503397D01*
X120036287Y-76489076D01*
X120020910Y-76478493D01*
X120014343Y-76462820D01*
X120003449Y-76449785D01*
X120001123Y-76431267D01*
X119993910Y-76414051D01*
X119996859Y-76397316D01*
X119994742Y-76380460D01*
X120002797Y-76363622D01*
X120006037Y-76345241D01*
X120022684Y-76322054D01*
X120024896Y-76317433D01*
X120026048Y-76316168D01*
X120027713Y-76314364D01*
X120040924Y-76301153D01*
X124709500Y-76301153D01*
X124709500Y-76458846D01*
X124740261Y-76613489D01*
X124740264Y-76613501D01*
X124800602Y-76759172D01*
X124800609Y-76759185D01*
X124888210Y-76890288D01*
X124888213Y-76890292D01*
X124999707Y-77001786D01*
X124999711Y-77001789D01*
X125130814Y-77089390D01*
X125130827Y-77089397D01*
X125276498Y-77149735D01*
X125276503Y-77149737D01*
X125431153Y-77180499D01*
X125431156Y-77180500D01*
X125431158Y-77180500D01*
X125588844Y-77180500D01*
X125588845Y-77180499D01*
X125743497Y-77149737D01*
X125889179Y-77089394D01*
X126020289Y-77001789D01*
X126131789Y-76890289D01*
X126219394Y-76759179D01*
X126279737Y-76613497D01*
X126310500Y-76458842D01*
X126310500Y-76301158D01*
X126310500Y-76301155D01*
X126310499Y-76301153D01*
X126298392Y-76240289D01*
X126279737Y-76146503D01*
X126279735Y-76146498D01*
X126219397Y-76000827D01*
X126219390Y-76000814D01*
X126188081Y-75953957D01*
X126146116Y-75891153D01*
X128689500Y-75891153D01*
X128689500Y-76048846D01*
X128720261Y-76203489D01*
X128720264Y-76203501D01*
X128780602Y-76349172D01*
X128780609Y-76349185D01*
X128868210Y-76480288D01*
X128868213Y-76480292D01*
X128979707Y-76591786D01*
X128979711Y-76591789D01*
X129110814Y-76679390D01*
X129110827Y-76679397D01*
X129256498Y-76739735D01*
X129256503Y-76739737D01*
X129411153Y-76770499D01*
X129411156Y-76770500D01*
X129411158Y-76770500D01*
X129568844Y-76770500D01*
X129568845Y-76770499D01*
X129723497Y-76739737D01*
X129869179Y-76679394D01*
X130000289Y-76591789D01*
X130111789Y-76480289D01*
X130199394Y-76349179D01*
X130259737Y-76203497D01*
X130290500Y-76048842D01*
X130290500Y-75891158D01*
X130290500Y-75891155D01*
X130290499Y-75891153D01*
X130264055Y-75758211D01*
X130259737Y-75736503D01*
X130232440Y-75670602D01*
X130199397Y-75590827D01*
X130199390Y-75590814D01*
X130111789Y-75459711D01*
X130111786Y-75459707D01*
X130000292Y-75348213D01*
X130000288Y-75348210D01*
X129869185Y-75260609D01*
X129869172Y-75260602D01*
X129723501Y-75200264D01*
X129723489Y-75200261D01*
X129568845Y-75169500D01*
X129568842Y-75169500D01*
X129411158Y-75169500D01*
X129411155Y-75169500D01*
X129256510Y-75200261D01*
X129256498Y-75200264D01*
X129110827Y-75260602D01*
X129110814Y-75260609D01*
X128979711Y-75348210D01*
X128979707Y-75348213D01*
X128868213Y-75459707D01*
X128868210Y-75459711D01*
X128780609Y-75590814D01*
X128780602Y-75590827D01*
X128720264Y-75736498D01*
X128720261Y-75736510D01*
X128689500Y-75891153D01*
X126146116Y-75891153D01*
X126131789Y-75869711D01*
X126131786Y-75869707D01*
X126020292Y-75758213D01*
X126020288Y-75758210D01*
X125889185Y-75670609D01*
X125889172Y-75670602D01*
X125743501Y-75610264D01*
X125743489Y-75610261D01*
X125588845Y-75579500D01*
X125588842Y-75579500D01*
X125431158Y-75579500D01*
X125431155Y-75579500D01*
X125276510Y-75610261D01*
X125276498Y-75610264D01*
X125130827Y-75670602D01*
X125130814Y-75670609D01*
X124999711Y-75758210D01*
X124999707Y-75758213D01*
X124888213Y-75869707D01*
X124888210Y-75869711D01*
X124800609Y-76000814D01*
X124800602Y-76000827D01*
X124740264Y-76146498D01*
X124740261Y-76146510D01*
X124709500Y-76301153D01*
X120040924Y-76301153D01*
X120101789Y-76240289D01*
X120189394Y-76109179D01*
X120249737Y-75963497D01*
X120258719Y-75918341D01*
X120268274Y-75870309D01*
X120300659Y-75808398D01*
X120361375Y-75773823D01*
X120389891Y-75770500D01*
X120398844Y-75770500D01*
X120398845Y-75770499D01*
X120553497Y-75739737D01*
X120699179Y-75679394D01*
X120830289Y-75591789D01*
X120941789Y-75480289D01*
X121029394Y-75349179D01*
X121089737Y-75203497D01*
X121116922Y-75066831D01*
X121149307Y-75004920D01*
X121210022Y-74970346D01*
X121214348Y-74969405D01*
X121254641Y-74961389D01*
X121363497Y-74939737D01*
X121509179Y-74879394D01*
X121640289Y-74791789D01*
X121751789Y-74680289D01*
X121839394Y-74549179D01*
X121899737Y-74403497D01*
X121925808Y-74272430D01*
X121931689Y-74242868D01*
X121933812Y-74243290D01*
X121956315Y-74187560D01*
X122013349Y-74147200D01*
X122053558Y-74140500D01*
X122058844Y-74140500D01*
X122058845Y-74140499D01*
X122213497Y-74109737D01*
X122359179Y-74049394D01*
X122490289Y-73961789D01*
X122601789Y-73850289D01*
X122689394Y-73719179D01*
X122749737Y-73573497D01*
X122780500Y-73418842D01*
X122780500Y-73261158D01*
X122780500Y-73261155D01*
X122780499Y-73261153D01*
X122749738Y-73106510D01*
X122749737Y-73106503D01*
X122749735Y-73106498D01*
X122689397Y-72960827D01*
X122689390Y-72960814D01*
X122601789Y-72829711D01*
X122601786Y-72829707D01*
X122490292Y-72718213D01*
X122490288Y-72718210D01*
X122359185Y-72630609D01*
X122359172Y-72630602D01*
X122213501Y-72570264D01*
X122213489Y-72570261D01*
X122058845Y-72539500D01*
X122058842Y-72539500D01*
X121901158Y-72539500D01*
X121901155Y-72539500D01*
X121746510Y-72570261D01*
X121746498Y-72570264D01*
X121600827Y-72630602D01*
X121600814Y-72630609D01*
X121469711Y-72718210D01*
X121469707Y-72718213D01*
X121358213Y-72829707D01*
X121358210Y-72829711D01*
X121270609Y-72960814D01*
X121270602Y-72960827D01*
X121210264Y-73106498D01*
X121210261Y-73106510D01*
X121178311Y-73267132D01*
X121176187Y-73266709D01*
X121153685Y-73322440D01*
X121096651Y-73362800D01*
X121056442Y-73369500D01*
X121051155Y-73369500D01*
X120896510Y-73400261D01*
X120896498Y-73400264D01*
X120750827Y-73460602D01*
X120750814Y-73460609D01*
X120619711Y-73548210D01*
X120619707Y-73548213D01*
X120508213Y-73659707D01*
X120508210Y-73659711D01*
X120420609Y-73790814D01*
X120420602Y-73790827D01*
X120360264Y-73936498D01*
X120360261Y-73936508D01*
X120333077Y-74073169D01*
X120300692Y-74135080D01*
X120239976Y-74169654D01*
X120235652Y-74170594D01*
X120086508Y-74200261D01*
X120086498Y-74200264D01*
X119940827Y-74260602D01*
X119940814Y-74260609D01*
X119809711Y-74348210D01*
X119809703Y-74348216D01*
X119806641Y-74351279D01*
X119745316Y-74384760D01*
X119675625Y-74379771D01*
X119619694Y-74337896D01*
X119595281Y-74272430D01*
X119594994Y-74261006D01*
X119635275Y-72355629D01*
X119637269Y-72349332D01*
X119636212Y-72342808D01*
X119647688Y-72316438D01*
X119656371Y-72289025D01*
X119662107Y-72283307D01*
X119664094Y-72278742D01*
X119690340Y-72255163D01*
X119695790Y-72251521D01*
X119762461Y-72230642D01*
X119763198Y-72230632D01*
X126023033Y-72177201D01*
X126090235Y-72196312D01*
X126136439Y-72248724D01*
X126138649Y-72253744D01*
X126190602Y-72379172D01*
X126190609Y-72379185D01*
X126278210Y-72510288D01*
X126278213Y-72510292D01*
X126389707Y-72621786D01*
X126389711Y-72621789D01*
X126520814Y-72709390D01*
X126520827Y-72709397D01*
X126666498Y-72769735D01*
X126666503Y-72769737D01*
X126821153Y-72800499D01*
X126821156Y-72800500D01*
X126821158Y-72800500D01*
X126978844Y-72800500D01*
X126978845Y-72800499D01*
X127133497Y-72769737D01*
X127279179Y-72709394D01*
X127410289Y-72621789D01*
X127521789Y-72510289D01*
X127609394Y-72379179D01*
X127667567Y-72238734D01*
X127711405Y-72184335D01*
X127777699Y-72162269D01*
X127780970Y-72162197D01*
X140106093Y-72056996D01*
X140173296Y-72076107D01*
G37*
%TD.AperFunction*%
%TD*%
M02*
